<svg xmlns="http://www.w3.org/2000/svg" viewBox="0 0 62.98 76.91"><defs><style>.cls-1{fill:none;}.cls-1,.cls-2{stroke:#fff;stroke-miterlimit:10;stroke-width:2px;}.cls-3{fill:#fff;}</style></defs><title>Asset 6</title><g id="Layer_2" data-name="Layer 2"><g id="Layer_7" data-name="Layer 7"><line class="cls-1" x1="0.71" y1="35.96" x2="35.96" y2="0.71"/><line class="cls-1" x1="0.71" y1="40.95" x2="35.96" y2="76.2"/><path class="cls-1" d="M8,39.63l29.4-27.49s14.8,22.13,0,52.57Z"/><path class="cls-1" d="M40,59c-2.65,0-4.8-9.2-4.8-20.55S37.32,17.87,40,17.87"/><ellipse class="cls-2" cx="39.96" cy="38.2" rx="2.08" ry="6.61"/><path class="cls-3" d="M63,66h-8.4V63.78a3.63,3.63,0,0,1,.24-1.33,3.26,3.26,0,0,1,.73-1.12,2.9,2.9,0,0,1,1.27-.75,6.72,6.72,0,0,1,2-.24,4.29,4.29,0,0,1,3.2,1,3.31,3.31,0,0,1,1,2.4Zm-.72-.72V63.78a2.64,2.64,0,0,0-.79-1.91,2.38,2.38,0,0,0-1.07-.61,5.74,5.74,0,0,0-1.62-.2,6,6,0,0,0-1.55.18,3,3,0,0,0-1.1.53,2.14,2.14,0,0,0-.65.85,3,3,0,0,0-.21,1.16v1.47Z"/><path class="cls-3" d="M63,51.15h-8.4V49a3.63,3.63,0,0,1,.24-1.33,3.26,3.26,0,0,1,.73-1.12,2.9,2.9,0,0,1,1.27-.75,6.72,6.72,0,0,1,2-.24,4.29,4.29,0,0,1,3.2,1A3.31,3.31,0,0,1,63,49Zm-.72-.72V49A2.64,2.64,0,0,0,61.47,47a2.38,2.38,0,0,0-1.07-.61,5.74,5.74,0,0,0-1.62-.2,6,6,0,0,0-1.55.18,3,3,0,0,0-1.1.53,2.14,2.14,0,0,0-.65.85A3,3,0,0,0,55.27,49v1.47Z"/><path class="cls-3" d="M63,33l-8.4,3.07v-.69l7.65-2.76L57.45,31v-.78l4.76-1.65-7.64-2.73v-.69L63,28.23V29l-4.75,1.64L63,32.28Z"/><path class="cls-3" d="M63,16h-8.4V13.82a3.63,3.63,0,0,1,.24-1.33,3.26,3.26,0,0,1,.73-1.12,2.9,2.9,0,0,1,1.27-.75,6.72,6.72,0,0,1,2-.24,4.29,4.29,0,0,1,3.2,1,3.31,3.31,0,0,1,1,2.4Zm-.72-.72V13.82a2.64,2.64,0,0,0-.79-1.91,2.38,2.38,0,0,0-1.07-.61,5.74,5.74,0,0,0-1.62-.2,6,6,0,0,0-1.55.18,3,3,0,0,0-1.1.53,2.14,2.14,0,0,0-.65.85,3,3,0,0,0-.21,1.16v1.47Z"/></g></g></svg>