<svg xmlns="http://www.w3.org/2000/svg" viewBox="0 0 75.22 49.36"><defs><style>.cls-1{fill:#fff;}</style></defs><title>Asset 2</title><g id="Layer_2" data-name="Layer 2"><g id="Layer_8" data-name="Layer 8"><g id="_Group_" data-name="&lt;Group&gt;"><g id="_Group_2" data-name="&lt;Group&gt;"><path id="_Compound_Path_" data-name="&lt;Compound Path&gt;" class="cls-1" d="M38.16,49.36A24.68,24.68,0,1,1,62.84,24.68,24.71,24.71,0,0,1,38.16,49.36Zm0-48.2A23.52,23.52,0,1,0,61.68,24.68,23.55,23.55,0,0,0,38.16,1.16Z"/></g><g id="_Group_3" data-name="&lt;Group&gt;"><path id="_Compound_Path_2" data-name="&lt;Compound Path&gt;" class="cls-1" d="M38.16,49.36C12,49.36.36,25.3.14,25.06a.58.58,0,0,1,0-.77C.36,24.05,12,0,38.16,0s36.7,24.05,36.92,24.3a.58.58,0,0,1,0,.77C74.86,25.3,64.32,49.36,38.16,49.36ZM1.36,24.68c2.86,3.07,13,23.52,36.79,23.52S71,27.75,73.85,24.68C71,21.61,62,1.16,38.16,1.16S4.23,21.61,1.36,24.68Z"/></g><g id="_Group_4" data-name="&lt;Group&gt;"><path id="_Compound_Path_3" data-name="&lt;Compound Path&gt;" class="cls-1" d="M38.16,41.37C12.06,41.37.44,25.3.23,25.14a.58.58,0,0,1,0-.92C.44,24.06,12.06,8,38.16,8S74.77,24.06,75,24.22a.58.58,0,0,1,0,.92C74.77,25.3,64.25,41.37,38.16,41.37ZM1.57,24.68C5.3,27.3,15,40.21,38.16,40.21S69.92,27.3,73.65,24.68C69.92,22.05,61.36,9.15,38.16,9.15S5.3,22.05,1.57,24.68Z"/></g><g id="_Group_5" data-name="&lt;Group&gt;"><path id="_Compound_Path_4" data-name="&lt;Compound Path&gt;" class="cls-1" d="M38.16,41.37A16.69,16.69,0,1,1,54.84,24.68,16.71,16.71,0,0,1,38.16,41.37Zm0-32.22A15.53,15.53,0,1,0,53.69,24.68,15.55,15.55,0,0,0,38.16,9.15Z"/></g></g></g></g></svg>