<svg xmlns="http://www.w3.org/2000/svg" viewBox="0 0 38.39 33.16"><defs><style>.cls-1{fill:#fff;}</style></defs><title>Asset 4</title><g id="Layer_2" data-name="Layer 2"><g id="Layer_8" data-name="Layer 8"><g id="_Group_" data-name="&lt;Group&gt;"><g id="Exit_1" data-name="Exit 1"><path class="cls-1" d="M37.52,0H.87A.87.87,0,0,0,0,.87V32.29a.87.87,0,0,0,.87.87H14a.87.87,0,0,0,0-1.75H1.75V1.75h34.9V31.41H24.43a.87.87,0,1,0,0,1.75H37.52a.87.87,0,0,0,.87-.87V.87A.87.87,0,0,0,37.52,0Z"/></g></g><g id="_Group_2" data-name="&lt;Group&gt;"><g id="Info_2x.png" data-name="Info@2x.png"><path class="cls-1" d="M21,16a2.21,2.21,0,0,0,1.54-.58,1.85,1.85,0,0,0,0-2.8,2.33,2.33,0,0,0-3.08,0,1.84,1.84,0,0,0,0,2.8A2.23,2.23,0,0,0,21,16Zm.58,11.51a1.65,1.65,0,0,1-1-.23,1,1,0,0,1-.29-.85,4.41,4.41,0,0,1,.09-.73,8.52,8.52,0,0,1,.2-.86l.91-3.14a4.74,4.74,0,0,0,.18-.95c0-.35.05-.59.05-.72A2,2,0,0,0,21,18.4a3,3,0,0,0-2-.62,5.29,5.29,0,0,0-1.56.25q-.82.25-1.72.61l-.24,1,.64-.21a2.63,2.63,0,0,1,.73-.11,1.48,1.48,0,0,1,1,.24,1.12,1.12,0,0,1,.26.84,3.66,3.66,0,0,1-.08.74c-.06.27-.12.56-.21.86l-.92,3.15a9,9,0,0,0-.18.89,5.52,5.52,0,0,0-.06.77,2,2,0,0,0,.74,1.6,3.09,3.09,0,0,0,2.07.63,4.76,4.76,0,0,0,1.52-.22q.66-.22,1.75-.64l.24-1a4.27,4.27,0,0,1-.61.2A2.94,2.94,0,0,1,21.58,27.5Z"/></g></g></g></g></svg>