<svg xmlns="http://www.w3.org/2000/svg" viewBox="0 0 37.18 33.68"><defs><style>.cls-1{fill:#fff;}</style></defs><title>Asset 5</title><g id="Layer_2" data-name="Layer 2"><g id="Layer_8" data-name="Layer 8"><g id="Exit_1" data-name="Exit 1"><path class="cls-1" d="M22.22,22.42A.73.73,0,0,0,22,23a.81.81,0,0,0,.84.77.89.89,0,0,0,.6-.22l6.76-6.12a.72.72,0,0,0,0-1.08l-6.76-6.12a.89.89,0,0,0-.6-.22.81.81,0,0,0-.84.77.73.73,0,0,0,.25.54l5.32,4.82H.84a.77.77,0,1,0,0,1.53H27.53ZM36.33,0H5.91a.81.81,0,0,0-.84.77V12.25a.81.81,0,0,0,.84.77.81.81,0,0,0,.84-.77V1.53H35.49V32.15H6.76V21.43a.81.81,0,0,0-.84-.77.81.81,0,0,0-.84.77V32.92a.81.81,0,0,0,.84.77H36.33a.81.81,0,0,0,.84-.77V.77A.81.81,0,0,0,36.33,0Z"/></g></g></g></svg>