<svg xmlns="http://www.w3.org/2000/svg" viewBox="0 0 78.19 58.65"><defs><style>.cls-1{fill:#fff;}</style></defs><title>Asset 3</title><g id="Layer_2" data-name="Layer 2"><g id="Layer_8" data-name="Layer 8"><g id="_Group_" data-name="&lt;Group&gt;"><g id="_Group_2" data-name="&lt;Group&gt;"><path id="_Compound_Path_" data-name="&lt;Compound Path&gt;" class="cls-1" d="M39.1,54a.49.49,0,0,1-.35-.14L14.56,29.67a.49.49,0,0,1,0-.69L38.75,4.79a.49.49,0,0,1,.35-.14h0a.49.49,0,0,1,.35.14L63.63,29a.49.49,0,0,1,0,.69L39.44,53.86A.49.49,0,0,1,39.1,54ZM15.6,29.32l23.5,23.5,23.49-23.5L39.1,5.83Z"/></g><g id="_Group_3" data-name="&lt;Group&gt;"><path id="_Compound_Path_2" data-name="&lt;Compound Path&gt;" class="cls-1" d="M22,46.92a.49.49,0,0,1-.49-.49V12.22a.49.49,0,0,1,.49-.49H56.2a.49.49,0,0,1,.49.49v34.2a.49.49,0,0,1-.49.49Zm.49-34.21V45.94H55.71V12.71Z"/></g><g id="_Group_4" data-name="&lt;Group&gt;"><path id="_Compound_Path_3" data-name="&lt;Compound Path&gt;" class="cls-1" d="M39.1,58.65A29.32,29.32,0,1,1,68.42,29.32,29.36,29.36,0,0,1,39.1,58.65ZM39.1,1A28.35,28.35,0,1,0,67.44,29.32,28.38,28.38,0,0,0,39.1,1Z"/></g><g id="_Group_5" data-name="&lt;Group&gt;"><path id="_Path_" data-name="&lt;Path&gt;" class="cls-1" d="M29.32,58.65A29.32,29.32,0,0,1,29.32,0a.49.49,0,1,1,0,1,28.35,28.35,0,0,0,0,56.69.49.49,0,1,1,0,1Z"/></g><g id="_Group_6" data-name="&lt;Group&gt;"><path id="_Path_2" data-name="&lt;Path&gt;" class="cls-1" d="M48.87,58.65a.49.49,0,0,1,0-1A28.35,28.35,0,1,0,48.87,1a.49.49,0,0,1,0-1,29.32,29.32,0,1,1,0,58.65Z"/></g></g></g></g></svg>