<svg xmlns="http://www.w3.org/2000/svg" xmlns:xlink="http://www.w3.org/1999/xlink" viewBox="0 0 192 192"><defs><style>.cls-1{fill:url(#linear-gradient);}.cls-2{fill:url(#linear-gradient-2);}.cls-3{fill:url(#linear-gradient-3);}.cls-4{fill:url(#linear-gradient-4);}.cls-5{fill:url(#linear-gradient-5);}</style><linearGradient id="linear-gradient" x1="5.28" y1="108.31" x2="135.58" y2="108.31" gradientUnits="userSpaceOnUse"><stop offset="0.21" stop-color="#039be5"/><stop offset="0.24" stop-color="#1193dd"/><stop offset="0.43" stop-color="#5c6ab2"/><stop offset="0.6" stop-color="#974991"/><stop offset="0.74" stop-color="#c13278"/><stop offset="0.85" stop-color="#db236a"/><stop offset="0.91" stop-color="#e51e64"/><stop offset="1" stop-color="#e91e63"/></linearGradient><linearGradient id="linear-gradient-2" x1="82.17" y1="133.35" x2="186.65" y2="133.35" xlink:href="#linear-gradient"/><linearGradient id="linear-gradient-3" x1="114.7" y1="52.75" x2="166.94" y2="52.75" xlink:href="#linear-gradient"/><linearGradient id="linear-gradient-4" x1="118.06" y1="52.48" x2="163.58" y2="52.48" xlink:href="#linear-gradient"/><linearGradient id="linear-gradient-5" x1="128.89" y1="52.57" x2="152.95" y2="52.57" xlink:href="#linear-gradient"/></defs><title>Artboard 8</title><g id="Layer_18" data-name="Layer 18"><path class="cls-1" d="M6.38,163.2c4.71-9.55,9.67-18.95,14.66-28.34s10.11-18.7,15.42-27.92l8.08-13.75c2.71-4.57,5.4-9.15,8-13.78s5.16-9.29,7.71-14q1.92-3.48,3.77-7L65,56.67a6.67,6.67,0,0,1,1.35-1.75,6.29,6.29,0,0,1,4.1-1.63,6.39,6.39,0,0,1,4.22,1.5,6.78,6.78,0,0,1,1.46,1.75l1,1.72q2,3.43,4,6.89c2.66,4.61,5.32,9.21,7.93,13.84,5.24,9.25,10.51,18.48,15.64,27.79,10.2,18.66,20.24,37.4,29.79,56.42l-.24.13c-11.11-18.15-21.71-36.58-32.16-55.09-5.2-9.28-10.26-18.63-15.34-28-2.55-4.66-5-9.35-7.56-14-1.26-2.34-2.51-4.68-3.74-7l-.92-1.77a5,5,0,0,0-1-1.34,4.74,4.74,0,0,0-3.08-1.26A4.81,4.81,0,0,0,67.24,56a5,5,0,0,0-1.13,1.35l-1,1.72c-1.35,2.29-2.67,4.6-4,6.91-2.62,4.63-5.25,9.25-7.78,13.92s-5,9.38-7.46,14.1l-7.41,14.13c-5,9.37-10.26,18.62-15.55,27.83s-10.7,18.38-16.32,27.42Z"/><path class="cls-2" d="M83.11,163.17q6.06-7.84,12.53-15.33c4.29-5,8.64-10,13.17-14.76l6.9-7.09c2.31-2.35,4.62-4.71,6.86-7.13s4.44-4.88,6.6-7.37c1.08-1.24,2.16-2.49,3.21-3.76.54-.63,1-1.25,1.68-1.9a8.69,8.69,0,0,1,2.19-1.55,9.09,9.09,0,0,1,5.32-.86,9.58,9.58,0,0,1,2.65.82,8.83,8.83,0,0,1,2.27,1.61,9.29,9.29,0,0,1,.94,1.05c.28.36.5.67.75,1l1.47,2,2.9,4c3.86,5.35,7.74,10.68,11.49,16.1,7.46,10.87,14.74,21.88,21.57,33.18l-.22.17c-8.29-10.3-16.14-20.9-23.8-31.63-3.81-5.38-7.49-10.85-11.2-16.31l-2.76-4.1-1.37-2.06c-.23-.33-.46-.71-.68-1a6.65,6.65,0,0,0-.67-.82,7.22,7.22,0,0,0-9.93-.58c-.55.48-1.13,1.11-1.7,1.7q-1.72,1.77-3.4,3.59-3.37,3.62-6.64,7.34c-2.17,2.48-4.27,5-6.37,7.56l-6.33,7.61c-4.29,5-8.76,9.85-13.29,14.65s-9.15,9.51-13.93,14.07Z"/><path class="cls-3" d="M140.82,27.24a24.34,24.34,0,0,0-17.66,7.69A26.19,26.19,0,0,0,116,52.59a24.73,24.73,0,0,0,7,17.8,24.3,24.3,0,0,0,17.8,7.23,25.11,25.11,0,0,0,24.7-25,25.83,25.83,0,0,0-7.05-17.65,24.4,24.4,0,0,0-17.65-7.7Zm0-.14a26.56,26.56,0,0,1,18.3,7.19,25.22,25.22,0,0,1,5.8,8.32,25.49,25.49,0,0,1,2,10,25.78,25.78,0,0,1-2,10A26.33,26.33,0,0,1,159.26,71a25.6,25.6,0,0,1-18.44,7.36A26.67,26.67,0,0,1,131,76.3a27.23,27.23,0,0,1-8.33-5.57A26.9,26.9,0,0,1,117,62.46a25.72,25.72,0,0,1-2.16-9.87,25,25,0,0,1,2-10,24.67,24.67,0,0,1,5.76-8.32A26.5,26.5,0,0,1,140.82,27.1Z"/><path class="cls-4" d="M143.75,74.68l-1.43-1.31c-.24-.21-.5-.49-.71-.65a1.33,1.33,0,0,0-.79-.23,1.23,1.23,0,0,0-.75.28c-.19.17-.43.45-.65.67l-1.32,1.41L138,75l-.17,0a22.15,22.15,0,0,1-13.11-6.24,22.91,22.91,0,0,1-4.36-6,21.91,21.91,0,0,1-2.13-7.1l0-.29.2-.2,1.39-1.33.35-.34a3.38,3.38,0,0,0,.28-.29,1,1,0,0,0,.22-.58,1,1,0,0,0-.18-.61,2.28,2.28,0,0,0-.28-.31l-.33-.35-1.34-1.39-.15-.16,0-.19A23.43,23.43,0,0,1,125,36.74a23.11,23.11,0,0,1,12.84-6.55l.18,0,.14.14,1.36,1.3a2.58,2.58,0,0,0,.63.5,1.55,1.55,0,0,0,.7.15,1.6,1.6,0,0,0,.68-.18,2.72,2.72,0,0,0,.59-.53l1.31-1.35.18-.18.27,0a22.67,22.67,0,0,1,19.73,19.49l0,.37-.26.26L162,51.52l-.34.34-.17.16a.62.62,0,0,0-.09.11.7.7,0,0,0-.16.46.8.8,0,0,0,.15.47s0,0,.09.1l.17.18.34.34,1.35,1.37.25.25-.05.34a22.4,22.4,0,0,1-12.72,17.13A21.51,21.51,0,0,1,143.75,74.68Zm.05-.14a23.07,23.07,0,0,0,6.73-2.32A22.09,22.09,0,0,0,156.19,68a22.89,22.89,0,0,0,4-5.79,21.63,21.63,0,0,0,2-6.72l.2.59L161,54.68l-.34-.34-.17-.16c-.06-.07-.16-.17-.23-.26a2.29,2.29,0,0,1-.45-1.33,2.22,2.22,0,0,1,.44-1.34c.07-.09.17-.19.23-.26l.17-.17.34-.34,1.35-1.38-.21.63A21.79,21.79,0,0,0,143.71,31.1l.44-.15-1.35,1.3a3.36,3.36,0,0,1-.85.67,2.6,2.6,0,0,1-1.13.26,2.51,2.51,0,0,1-1.11-.29,3.43,3.43,0,0,1-.82-.69l-1.3-1.36.32.11a21.77,21.77,0,0,0-6.82,2A22.27,22.27,0,0,0,125.27,37a21,21,0,0,0-6,12.66l-.12-.36,1.39,1.34.35.33a3.8,3.8,0,0,1,.38.4,2,2,0,0,1,.42,1.19,2,2,0,0,1-.39,1.21,3.4,3.4,0,0,1-.37.42l-.33.35L119.21,56l.17-.49a22.15,22.15,0,0,0,11.81,16.59,21.7,21.7,0,0,0,6.72,2.22l-.29.09L139,73.05c.25-.23.43-.43.74-.67a1.74,1.74,0,0,1,1-.32,1.67,1.67,0,0,1,1,.37c.28.24.44.46.67.69Z"/><path class="cls-5" d="M138.52,50.29c2-1.78,4.22-3.47,6.4-5.15,1.1-.84,2.21-1.65,3.32-2.47l1.69-1.2c.28-.2.56-.4.85-.59a1.48,1.48,0,0,1,.79-.31,1.23,1.23,0,0,1,.9.37,1.21,1.21,0,0,1,.33.9,1.35,1.35,0,0,1-.33.75l-.64.8L150.55,45c-.85,1.07-1.71,2.15-2.52,3.26-1.63,2.2-3.15,4.49-4.64,6.8l0,0-.06.06c-2.12,1.67-4.26,3.32-6.44,4.92l-3.25,2.41L132,63.68l-.82.59a1.46,1.46,0,0,1-.94.29,1.42,1.42,0,0,1-1.05-2.29l.6-.82c.4-.55.81-1.1,1.22-1.64l2.47-3.23C135.11,54.44,136.79,52.33,138.52,50.29Zm.1.1c-1.4,2.36-2.86,4.63-4.33,6.89l-2.24,3.35c-.37.56-.75,1.11-1.13,1.66l-.57.83c-.06.09,0,0,0,0a0,0,0,0,0,0,0s0,0,0,0-.09,0,0,0l.82-.59,1.66-1.16,3.33-2.3c2.22-1.54,4.47-3,6.75-4.49l-.1.09c1.7-2.16,3.37-4.33,4.93-6.59.78-1.13,1.52-2.28,2.26-3.44l1.12-1.74.55-.86c.14-.2.08-.16.09-.18l0,0h0l-.13.1-.83.61L149,43.66c-1.12.78-2.24,1.56-3.38,2.32C143.34,47.48,141,49,138.62,50.39Z"/></g></svg>