<svg xmlns="http://www.w3.org/2000/svg" xmlns:xlink="http://www.w3.org/1999/xlink" viewBox="0 0 192 192"><defs><style>.cls-1{fill:url(#linear-gradient);}.cls-2{fill:url(#linear-gradient-2);}.cls-3{fill:url(#linear-gradient-3);}.cls-4{fill:url(#linear-gradient-4);}.cls-5{fill:url(#linear-gradient-5);}.cls-6{fill:url(#linear-gradient-6);}.cls-7{fill:url(#linear-gradient-7);}.cls-8{fill:url(#linear-gradient-8);}.cls-9{fill:url(#linear-gradient-9);}.cls-10{fill:url(#linear-gradient-10);}.cls-11{fill:url(#linear-gradient-11);}.cls-12{fill:url(#linear-gradient-12);}.cls-13{fill:url(#linear-gradient-13);}.cls-14{fill:url(#linear-gradient-14);}</style><linearGradient id="linear-gradient" x1="39.11" y1="138.21" x2="141.49" y2="138.21" gradientUnits="userSpaceOnUse"><stop offset="0.21" stop-color="#039be5"/><stop offset="0.24" stop-color="#1193dd"/><stop offset="0.43" stop-color="#5c6ab2"/><stop offset="0.6" stop-color="#974991"/><stop offset="0.74" stop-color="#c13278"/><stop offset="0.85" stop-color="#db236a"/><stop offset="0.91" stop-color="#e51e64"/><stop offset="1" stop-color="#e91e63"/></linearGradient><linearGradient id="linear-gradient-2" x1="115.74" y1="133.91" x2="134.28" y2="133.91" xlink:href="#linear-gradient"/><linearGradient id="linear-gradient-3" x1="52.11" y1="131.05" x2="69.28" y2="131.05" xlink:href="#linear-gradient"/><linearGradient id="linear-gradient-4" x1="42.34" y1="63.33" x2="143.41" y2="63.33" xlink:href="#linear-gradient"/><linearGradient id="linear-gradient-5" x1="91.2" y1="68.49" x2="98.47" y2="68.49" xlink:href="#linear-gradient"/><linearGradient id="linear-gradient-6" x1="120.37" y1="24.99" x2="146.5" y2="24.99" xlink:href="#linear-gradient"/><linearGradient id="linear-gradient-7" x1="40.75" y1="26.7" x2="65.77" y2="26.7" xlink:href="#linear-gradient"/><linearGradient id="linear-gradient-8" x1="138.21" y1="90.17" x2="183.5" y2="90.17" xlink:href="#linear-gradient"/><linearGradient id="linear-gradient-9" x1="169.42" y1="63.98" x2="186.71" y2="63.98" xlink:href="#linear-gradient"/><linearGradient id="linear-gradient-10" x1="15.7" y1="74.48" x2="50.55" y2="74.48" xlink:href="#linear-gradient"/><linearGradient id="linear-gradient-11" x1="139.75" y1="162.01" x2="149.15" y2="162.01" xlink:href="#linear-gradient"/><linearGradient id="linear-gradient-12" x1="138.26" y1="135.7" x2="165" y2="135.7" xlink:href="#linear-gradient"/><linearGradient id="linear-gradient-13" x1="28.35" y1="116.58" x2="45.11" y2="116.58" xlink:href="#linear-gradient"/><linearGradient id="linear-gradient-14" x1="9.51" y1="47.29" x2="30.35" y2="47.29" xlink:href="#linear-gradient"/></defs><title>Artboard 11</title><g id="Layer_22" data-name="Layer 22"><path class="cls-1" d="M57.68,98A14.85,14.85,0,0,0,53.22,103a32.48,32.48,0,0,0-2.72,6.25,87.17,87.17,0,0,0-3.15,13.32c-.38,2.26-.71,4.53-1.05,6.8-.16,1.13-.35,2.29-.48,3.4l-.14,1.64,0,1.64a11.41,11.41,0,0,0,2.06,6,10.94,10.94,0,0,0,4.91,3.83l1.9.68-1.76,1a27.81,27.81,0,0,0-7.25,6,18.52,18.52,0,0,0-4.26,8.24,15.76,15.76,0,0,0-.3,4.65,12.41,12.41,0,0,0,1.06,4.5,9.38,9.38,0,0,0,2.9,3.51,12.45,12.45,0,0,0,4.27,1.93,26.22,26.22,0,0,0,9.6.46,10.27,10.27,0,0,0,8-4.59,52.25,52.25,0,0,1,13-14.71,23.71,23.71,0,0,1,9.09-4.09,18,18,0,0,1,10,.83,25.78,25.78,0,0,1,8.45,5.47,43.89,43.89,0,0,1,6.38,7.7c.47.69.9,1.4,1.34,2.11s.84,1.48,1.23,2.08a10.59,10.59,0,0,0,3.16,3.13,10,10,0,0,0,4.15,1.47,31.25,31.25,0,0,0,4.73.15c3.1-.13,6.25-1,8.19-3a7.53,7.53,0,0,0,1.21-1.74l.4-1a6.19,6.19,0,0,0,.26-1.07,11.61,11.61,0,0,0,.25-2.22c0-.76-.07-1.54-.1-2.3v-.27a17.81,17.81,0,0,0-.12-3.91,19.26,19.26,0,0,0-.94-3.88,16.57,16.57,0,0,0-1.71-3.58,18.82,18.82,0,0,0-2.44-3.13l-.76-.84.87-.71a13,13,0,0,0,2.12-2.33c.34-.43.61-.91.92-1.37s.54-.95.77-1.45a22.36,22.36,0,0,0,2-6.34,37.38,37.38,0,0,0-.78-13.46,97.2,97.2,0,0,0-3.8-13.22,95.48,95.48,0,0,0-5.55-12.65l.18-.11a95.49,95.49,0,0,1,6.22,12.43,96.63,96.63,0,0,1,4.33,13.24,37.35,37.35,0,0,1,1.15,14,24.63,24.63,0,0,1-2,6.9c-.25.55-.55,1.08-.83,1.62s-.61,1-1,1.54a14.44,14.44,0,0,1-2.49,2.81l.1-1.55a20.08,20.08,0,0,1,2.78,3.46,18.9,18.9,0,0,1,2,4,21.24,21.24,0,0,1,1.08,4.29,19.65,19.65,0,0,1,.17,4.49v-.26c0,.87.13,1.73.11,2.6a13.19,13.19,0,0,1-.3,2.64,7.39,7.39,0,0,1-.33,1.31l-.51,1.28a10,10,0,0,1-1.58,2.28,11,11,0,0,1-4.61,2.83,18.9,18.9,0,0,1-5.12.84,32.88,32.88,0,0,1-5.07-.23,11.9,11.9,0,0,1-5-1.83,12.53,12.53,0,0,1-3.73-3.77c-.49-.78-.83-1.46-1.25-2.16s-.82-1.38-1.26-2.05a43.87,43.87,0,0,0-6-7.5,24.78,24.78,0,0,0-7.8-5.33,16.65,16.65,0,0,0-9.26-1,22.54,22.54,0,0,0-8.78,3.67,38.83,38.83,0,0,0-7.2,6.48,61.16,61.16,0,0,0-5.84,7.82,11,11,0,0,1-8.39,5,29.53,29.53,0,0,1-9.92-.26,13.4,13.4,0,0,1-4.69-1.95,10.6,10.6,0,0,1-3.43-3.85,13.84,13.84,0,0,1-1.35-5,17.19,17.19,0,0,1,.16-5.11,19.56,19.56,0,0,1,4.46-9.11A28.52,28.52,0,0,1,52,146l.14,1.71a11.82,11.82,0,0,1-3.25-1.88,12,12,0,0,1-2.53-2.7,13.29,13.29,0,0,1-2.3-6.91v-1.81l.18-1.79c.14-1.17.35-2.28.52-3.43.36-2.27.79-4.54,1.24-6.81A86.64,86.64,0,0,1,49.6,109a33.29,33.29,0,0,1,3.1-6.24,14.42,14.42,0,0,1,4.87-4.92Z"/><path class="cls-2" d="M117.11,117.45c.25,1.78.37,3.52.49,5.26l.15,2.61c.07.86.08,1.73.08,2.6a39.87,39.87,0,0,0,.07,5.24,18.17,18.17,0,0,0,1.42,5,35.82,35.82,0,0,0,2.38,4.52,16.1,16.1,0,0,0,3.19,3.66,11.92,11.92,0,0,0,4.16,2.34,23.18,23.18,0,0,0,5.06.79l0,.2a12.51,12.51,0,0,1-5.43.62,10.68,10.68,0,0,1-5.24-2.21,13.72,13.72,0,0,1-3.49-4.41,17.37,17.37,0,0,1-1.75-5.17c-.35-1.76-.63-3.5-1-5.24s-.88-3.46-1.14-5.23a16.92,16.92,0,0,1-.19-2.66c0-.89,0-1.78.07-2.67a23.87,23.87,0,0,1,.93-5.28Z"/><path class="cls-3" d="M67.16,113.93a25.24,25.24,0,0,1,1.45,5.35c.16.91.27,1.82.36,2.74a19.59,19.59,0,0,1,.09,2.76c-.07,1.85-.41,3.69-.57,5.52s-.24,3.65-.4,5.51a18.16,18.16,0,0,1-1.24,5.52,11.61,11.61,0,0,1-3.36,4.84,9.33,9.33,0,0,1-5.61,2,13.27,13.27,0,0,1-5.52-1.28l0-.21a22.74,22.74,0,0,0,5.31-.16,9.17,9.17,0,0,0,4.34-2.08,12.42,12.42,0,0,0,3-3.93A36,36,0,0,0,67,135.6a19.34,19.34,0,0,0,.85-5.34,41.21,41.21,0,0,0-.5-5.42c-.09-.89-.16-1.79-.2-2.69s-.09-1.8-.12-2.7c0-1.81-.11-3.62,0-5.48Z"/><path class="cls-4" d="M93.59,104.3l-2.28.08c-.76.05-1.52.11-2.29.15-1.53.07-3.06.08-4.59.06a70.34,70.34,0,0,1-9.16-.7A45.64,45.64,0,0,1,57.83,98,30.25,30.25,0,0,1,45.58,84.14a42,42,0,0,1-3-18.34,18,18,0,0,1,.2-2.32c.09-.78.17-1.55.28-2.32l.47-2.29c.09-.38.15-.76.25-1.14l.33-1.12A39.09,39.09,0,0,1,47.66,48,42.58,42.58,0,0,1,53,40.48a49.66,49.66,0,0,1,6.66-6.39,53.75,53.75,0,0,1,16-9A55.67,55.67,0,0,1,93.8,22a74.84,74.84,0,0,1,9.22.48,55.77,55.77,0,0,1,9.11,1.78,43.3,43.3,0,0,1,16.49,8.55A39.42,39.42,0,0,1,139.45,48a48.51,48.51,0,0,1,2.72,8.94,69.5,69.5,0,0,1,1.25,9.25,53,53,0,0,1-.44,9.34,42,42,0,0,1-2.25,9.09,33.05,33.05,0,0,1-4.44,8.28,27.46,27.46,0,0,1-6.79,6.47,31.19,31.19,0,0,1-8.44,3.93,41.54,41.54,0,0,1-4.51,1.06,31.21,31.21,0,0,1-4.62.4Zm0-.21c6.1,0,12.23.16,18.31,0a29.45,29.45,0,0,0,4.5-.57,40.64,40.64,0,0,0,4.35-1.22A28.29,28.29,0,0,0,138.85,83.9a47.5,47.5,0,0,0,2.33-17.65,57.41,57.41,0,0,0-3.76-17.48,37.15,37.15,0,0,0-10.09-14.5,42.67,42.67,0,0,0-15.67-8.45,66.44,66.44,0,0,0-17.87-2.71,53.84,53.84,0,0,0-9.06.54,46.31,46.31,0,0,0-8.83,2.1,47.75,47.75,0,0,0-8.3,3.7,52.67,52.67,0,0,0-7.46,5.2A44,44,0,0,0,48.69,48.57,37.71,37.71,0,0,0,45.53,57l-.29,1.09c-.08.36-.13.73-.2,1.1l-.38,2.22c-.08.74-.13,1.49-.2,2.24a18.46,18.46,0,0,0-.13,2.24,39.63,39.63,0,0,0,.09,4.49l.16,2.24.31,2.22a38.31,38.31,0,0,0,2.38,8.58A31,31,0,0,0,51.89,91a31.41,31.41,0,0,0,6.65,5.94,44.55,44.55,0,0,0,16.82,6.43,61.32,61.32,0,0,0,9.08,1c1.52,0,3,0,4.57,0,.77,0,1.52-.08,2.29-.13Z"/><path class="cls-5" d="M92.11,69.56a1.37,1.37,0,0,1-.2-1.2,1.26,1.26,0,0,1,.79-.86,3.46,3.46,0,0,1,1.23.08,2.56,2.56,0,0,0,1-.2,1.83,1.83,0,0,1,1.1-.1,2.31,2.31,0,0,1,.94.34,2.36,2.36,0,0,1,.88,1.89l-.13.16a3.3,3.3,0,0,1-1.1.06,2.55,2.55,0,0,1-.79-.18,2.11,2.11,0,0,1-.58-.45,1.52,1.52,0,0,1-.26-.25c-.09-.1-.17-.25-.27-.34a.59.59,0,0,0-.7-.26c-.24.11-.31.5-.35.7s-.21.24-.43.34a6.27,6.27,0,0,1-.94.33Z"/><path class="cls-6" d="M132.75,38.44a43.7,43.7,0,0,0,6.54-3.58A13.94,13.94,0,0,0,144,29.77a8.06,8.06,0,0,0,.06-6.86,17.37,17.37,0,0,0-4.57-5.83c-.47-.4-.93-.81-1.43-1.16l-.74-.54-.76-.48a13.91,13.91,0,0,0-1.55-.85,8.33,8.33,0,0,0-1.6-.53c-2.16-.53-4.14.51-5.63,2.25a23,23,0,0,0-3.68,6.17,72,72,0,0,0-2.62,7l-.2,0a30.68,30.68,0,0,1,1.27-7.59,19.53,19.53,0,0,1,3.54-7.07,8.68,8.68,0,0,1,3.44-2.54,6.9,6.9,0,0,1,4.35-.15,9.84,9.84,0,0,1,3.64,1.91l.77.62.7.7a17.86,17.86,0,0,1,1.32,1.44,34,34,0,0,1,4.36,6.34A13.51,13.51,0,0,1,146,26.35a8.16,8.16,0,0,1-.35,4.09,9.34,9.34,0,0,1-2.28,3.42,14.63,14.63,0,0,1-3.21,2.37,20.14,20.14,0,0,1-7.35,2.41Z"/><path class="cls-7" d="M64.63,30.81a46.59,46.59,0,0,0-1.77-7.21,15.24,15.24,0,0,0-3.54-6,7.45,7.45,0,0,0-6.49-2,13,13,0,0,0-3.54,1c-.56.27-1.11.56-1.65.86l-1.58,1,.12-.09a16.66,16.66,0,0,0-1.89,2.86,11.84,11.84,0,0,0-1.2,3.11,7.74,7.74,0,0,0,1.1,6.06A16.49,16.49,0,0,0,49.05,35a63.62,63.62,0,0,0,6.23,3.53l-.07.2a28.07,28.07,0,0,1-7-2.32,15.19,15.19,0,0,1-5.9-4.83,8.87,8.87,0,0,1-1.49-3.77,9.81,9.81,0,0,1,.31-4,13.35,13.35,0,0,1,4.17-6.37l.08-.07.05,0a30.53,30.53,0,0,1,7.27-2.45,12.28,12.28,0,0,1,3.93-.15,8.31,8.31,0,0,1,3.77,1.54A9.55,9.55,0,0,1,63,19.42a15.2,15.2,0,0,1,1.4,3.71,20.37,20.37,0,0,1,.41,7.69Z"/><path class="cls-8" d="M138.35,120.13a85.43,85.43,0,0,0,14.68-1,53.18,53.18,0,0,0,13.91-4.08A25.51,25.51,0,0,0,178,106a22.22,22.22,0,0,0,2.87-6.7,29.6,29.6,0,0,0-2.4-21.12,32,32,0,0,0-9.31-10.75,35.73,35.73,0,0,0-13-6,37.77,37.77,0,0,0-7.2-1q-3.7-.17-7.42-.43V59.7q3.72-.26,7.42-.42a35.33,35.33,0,0,1,7.54.49,33.91,33.91,0,0,1,14,5.84,31.36,31.36,0,0,1,9.75,11.66A28,28,0,0,1,183,92.09a36,36,0,0,1-1.41,7.38,28.31,28.31,0,0,1-3,6.87,28,28,0,0,1-10.88,10.29,41,41,0,0,1-14.47,4.13,53.69,53.69,0,0,1-14.93-.42Z"/><path class="cls-9" d="M170.35,64.33a10.36,10.36,0,0,1,.87-4.76,8.35,8.35,0,0,1,1.36-2.16,5.4,5.4,0,0,1,2.16-1.56,5.25,5.25,0,0,1,2.65-.25,10.25,10.25,0,0,1,2.38.7A25.58,25.58,0,0,1,184,58.55a6.59,6.59,0,0,1,1.84,1.81,4.52,4.52,0,0,1,.77,2.7,7.43,7.43,0,0,1-2.27,4.77,16.12,16.12,0,0,1-4,2.88A18.31,18.31,0,0,1,176,72.43l-.09-.19a55.39,55.39,0,0,0,6.87-5.94,6.89,6.89,0,0,0,1.92-3.36,4.59,4.59,0,0,0-1.39-3.53,8.65,8.65,0,0,0-3.73-2.47,5,5,0,0,0-4.06.49A7.72,7.72,0,0,0,174,58.66a10.88,10.88,0,0,0-1.29,1.67,31.9,31.9,0,0,0-2.1,4Z"/><path class="cls-10" d="M50.49,44.57A60.92,60.92,0,0,0,37.9,46.79a37.42,37.42,0,0,0-11.32,5.36,20.89,20.89,0,0,0-8.74,12.74c-.26,1-.35,2.1-.52,3.15s-.1,2.13-.11,3.2l.2,3.18a69,69,0,0,0,2.84,12.44l1,3a12.37,12.37,0,0,0,1.35,2.63A19.86,19.86,0,0,0,26.71,97a29.52,29.52,0,0,0,11.12,5.46,67.36,67.36,0,0,0,12.67,1.88v.21a48.4,48.4,0,0,1-13-.48A28.18,28.18,0,0,1,25.3,98.77a20,20,0,0,1-4.53-5.07,13.7,13.7,0,0,1-1.49-3.16l-.92-3.13A52.13,52.13,0,0,1,16.27,74.5a35.75,35.75,0,0,1,1.88-12.9,25.26,25.26,0,0,1,2.9-5.9,23.76,23.76,0,0,1,4.47-4.93,29.78,29.78,0,0,1,12-5.55,39.7,39.7,0,0,1,13-.86Z"/><path class="cls-11" d="M140.37,172.54a32.87,32.87,0,0,1,2.66-5,17.72,17.72,0,0,0,1.7-2.32,7.89,7.89,0,0,0,.77-2.75c.09-1,.21-1.91.36-2.83s.24-1.87.46-2.78.41-1.84.71-2.76a16.38,16.38,0,0,1,1-2.78h.21a13.7,13.7,0,0,1,.46,3,18.29,18.29,0,0,1-.13,3,16.69,16.69,0,0,1-.74,2.86c-.16.47-.31.94-.51,1.39s-.46.89-.69,1.32a16.42,16.42,0,0,0-1.24,2.66c-.31.92-.44,1.94-.78,2.89a8.54,8.54,0,0,1-1.61,2.51,7,7,0,0,1-2.45,1.82Z"/><path class="cls-12" d="M163.73,117.43a23.39,23.39,0,0,1,1,6.32,26,26,0,0,1-.46,6.4,47.29,47.29,0,0,1-2,6.1c-.74,2-1.49,4-2.42,5.92a23.34,23.34,0,0,1-1.59,2.84c-.32.44-.66.87-1,1.3s-.73.82-1.1,1.22a20.35,20.35,0,0,1-5.24,4,23.65,23.65,0,0,1-12.61,2.37v-.21a45.17,45.17,0,0,0,11.57-4.13,27.21,27.21,0,0,0,4.91-3.43,29.35,29.35,0,0,0,4.08-4.52,18.49,18.49,0,0,0,2.76-5.55,30.65,30.65,0,0,0,.91-6.16c.45-4.09.74-8.19,1-12.42Z"/><path class="cls-13" d="M45.06,132.39a9.69,9.69,0,0,1-5.17-.3A10.88,10.88,0,0,1,37.47,131a9.38,9.38,0,0,1-2.1-1.61,18.83,18.83,0,0,1-2.86-4.32c-.81-1.49-1.54-3-2.23-4.57a20.18,20.18,0,0,1-1.49-4.91,29,29,0,0,1-.49-5.08,31.9,31.9,0,0,1,1.67-10l.21,0c.23,3.38.21,6.66.36,9.91,0,1.63.1,3.24.21,4.86s.32,3.22.62,4.83a12.44,12.44,0,0,0,1.72,4.56,13.35,13.35,0,0,0,3.43,3.36,21.53,21.53,0,0,0,8.53,4.08Z"/><path class="cls-14" d="M20.18,58.07a15.77,15.77,0,0,1-5.43-2.29,11,11,0,0,1-4.13-4.47,7.07,7.07,0,0,1-.61-3.1,8.32,8.32,0,0,1,.68-3,18.15,18.15,0,0,1,3.21-4.95l1-1.09c.35-.35.72-.69,1.09-1a7.07,7.07,0,0,1,2.91-1.42,6.9,6.9,0,0,1,3.32-.05l.82.23a6.67,6.67,0,0,1,.76.37,5.8,5.8,0,0,1,1.38.94,12.09,12.09,0,0,1,3.24,5.25,29.5,29.5,0,0,1,.71,2.88c.12,1,.22,2,.28,2.92l-.2,0c-.41-.9-.76-1.78-1.11-2.67s-.78-1.72-1.2-2.54a13.9,13.9,0,0,0-3.15-4.18,5.41,5.41,0,0,0-4.44-1.26,6.44,6.44,0,0,0-2.33.84c-.38.26-.77.51-1.16.76l-1.14.83a9.23,9.23,0,0,0-3.36,4.36,5.14,5.14,0,0,0-.17,2.66,7.28,7.28,0,0,0,1,2.38,17.18,17.18,0,0,0,3.55,4c1.4,1.2,3,2.29,4.54,3.4Z"/></g></svg>