<svg xmlns="http://www.w3.org/2000/svg" xmlns:xlink="http://www.w3.org/1999/xlink" viewBox="0 0 192 192"><defs><style>.cls-1{fill:url(#linear-gradient);}.cls-2{fill:url(#linear-gradient-2);}.cls-3{fill:url(#linear-gradient-3);}.cls-4{fill:url(#linear-gradient-4);}.cls-5{fill:url(#linear-gradient-5);}.cls-6{fill:url(#linear-gradient-6);}.cls-7{fill:url(#linear-gradient-7);}.cls-8{fill:url(#linear-gradient-8);}.cls-9{fill:url(#linear-gradient-9);}</style><linearGradient id="linear-gradient" x1="94.54" y1="90.87" x2="143.69" y2="90.87" gradientUnits="userSpaceOnUse"><stop offset="0.21" stop-color="#039be5"/><stop offset="0.25" stop-color="#1293dc"/><stop offset="0.43" stop-color="#5d6ab2"/><stop offset="0.6" stop-color="#984991"/><stop offset="0.74" stop-color="#c23278"/><stop offset="0.85" stop-color="#dc236a"/><stop offset="0.91" stop-color="#e61e64"/><stop offset="1" stop-color="#e91e63"/></linearGradient><linearGradient id="linear-gradient-2" x1="94.41" y1="96" x2="97.59" y2="96" xlink:href="#linear-gradient"/><linearGradient id="linear-gradient-3" x1="137.48" y1="87.19" x2="169.27" y2="87.19" xlink:href="#linear-gradient"/><linearGradient id="linear-gradient-4" x1="144.9" y1="96.84" x2="151.1" y2="96.84" xlink:href="#linear-gradient"/><linearGradient id="linear-gradient-5" x1="139.13" y1="76.22" x2="172.61" y2="76.22" xlink:href="#linear-gradient"/><linearGradient id="linear-gradient-6" x1="97.46" y1="91.88" x2="48.32" y2="91.88" xlink:href="#linear-gradient"/><linearGradient id="linear-gradient-7" x1="54.52" y1="88.2" x2="22.73" y2="88.2" xlink:href="#linear-gradient"/><linearGradient id="linear-gradient-8" x1="47.1" y1="97.85" x2="40.9" y2="97.85" xlink:href="#linear-gradient"/><linearGradient id="linear-gradient-9" x1="52.87" y1="77.23" x2="19.39" y2="77.23" xlink:href="#linear-gradient"/></defs><title>ic_material_product_icon_192px copy 3</title><g id="biografia"><path class="cls-1" d="M95.78,4.48l15.83,28.14c2.66,4.68,5.33,9.34,8.06,14s5.46,9.25,8.49,13.62c.76,1.09,1.56,2.15,2.4,3.15a17.36,17.36,0,0,0,1.32,1.38,4.55,4.55,0,0,0,.7.54l.34.2.1.06a1.53,1.53,0,0,1,.3.19,1.29,1.29,0,0,1,.31.39,5.86,5.86,0,0,1,.44,2.26,20.39,20.39,0,0,1,0,2.07c-.07,1.38-.25,2.73-.45,4.08a40.22,40.22,0,0,1-2,7.9,22.87,22.87,0,0,1-1.8,3.69,11,11,0,0,1-2.75,3.1A24,24,0,0,1,120,93.32c-.63.24-1.4.38-1.86.6a1.71,1.71,0,0,0-.94,1.17,2.77,2.77,0,0,0,.12,1.63,1.69,1.69,0,0,0,.34.59,8.44,8.44,0,0,0,.75.54,9.57,9.57,0,0,0,1.7.83,20.53,20.53,0,0,1,1.94.75,4.28,4.28,0,0,1,1.78,1.56,6.9,6.9,0,0,1,1,2,6.71,6.71,0,0,1-.19,4.53,10.2,10.2,0,0,1-2.53,3.68l-1.14.1s-.09,0-.15,0a1.71,1.71,0,0,0-.25,0,1.79,1.79,0,0,0-.56,0,3.42,3.42,0,0,0-1.17.51,6,6,0,0,0-1.9,2,2.66,2.66,0,0,0,.1,2.31,20.8,20.8,0,0,0,1.47,2.78l.43.71-.56.67a14.27,14.27,0,0,0-2.55,4.25,3.1,3.1,0,0,0-.14,1.91,1.87,1.87,0,0,0,1.19,1l.57.2a5.57,5.57,0,0,1,.77.3,6.2,6.2,0,0,1,1.44.9,6.73,6.73,0,0,1,1.94,2.72,10.46,10.46,0,0,1,.43,6.15,12.34,12.34,0,0,1-1,2.89,11.59,11.59,0,0,1-.78,1.31c-.14.21-.29.41-.44.62l-.41.54a40.35,40.35,0,0,0-3,4.35,9.57,9.57,0,0,0-1,2.17,1.14,1.14,0,0,0-.07.57s0,0,0,0-.1,0,0,0a4.34,4.34,0,0,0,.39.2,42.32,42.32,0,0,0,5,1.63c3.48,1,7,1.84,10.55,2.68l5.32,1.22a8,8,0,0,1,5.05,3.17,7.77,7.77,0,0,1,1.28,2.73,12.05,12.05,0,0,1-1.24,8.41,18.55,18.55,0,0,1-8.4,7.1l-.11-.23c3.09-1.84,6-4.19,7.56-7.37a10.62,10.62,0,0,0,1.08-5,7.27,7.27,0,0,0-1.49-4.64,6.13,6.13,0,0,0-1.83-1.53,7.1,7.1,0,0,0-2.29-.76l-5.38-1.06c-3.58-.72-7.15-1.48-10.73-2.36a38.34,38.34,0,0,1-5.42-1.66,5.64,5.64,0,0,1-.82-.44,2.1,2.1,0,0,1-.5-.47,1.86,1.86,0,0,1-.37-.63,3.47,3.47,0,0,1-.05-2.11,12,12,0,0,1,1.18-2.85,38.83,38.83,0,0,1,3.14-4.7l.42-.55c.12-.16.24-.32.35-.49a10.81,10.81,0,0,0,.62-1,9.73,9.73,0,0,0,.82-2.24,8.33,8.33,0,0,0-.26-4.6,4.18,4.18,0,0,0-1.17-1.71,3.36,3.36,0,0,0-.86-.56,3.75,3.75,0,0,0-.5-.21l-.71-.26a5.35,5.35,0,0,1-1.53-1,3.94,3.94,0,0,1-1.07-1.67,5.48,5.48,0,0,1,.2-3.46,16.44,16.44,0,0,1,3.11-5l-.13,1.38a23.32,23.32,0,0,1-1.6-3.16,6.39,6.39,0,0,1-.42-2,4.26,4.26,0,0,1,.52-2.16,6.58,6.58,0,0,1,1.23-1.56A8.85,8.85,0,0,1,117.7,110a5.62,5.62,0,0,1,1.91-.73,4.1,4.1,0,0,1,1.11,0,4.38,4.38,0,0,1,.57.11,2.73,2.73,0,0,1,.64.25l-1.15.1c1.73-1.55,3.07-4,2.42-6.22a5.36,5.36,0,0,0-.73-1.6,2.56,2.56,0,0,0-1.15-1.13,25.81,25.81,0,0,1-3.67-1.81c-.3-.21-.57-.43-.86-.67a2.74,2.74,0,0,1-.67-1.14,4,4,0,0,1-.06-2.34,2.8,2.8,0,0,1,1.59-1.8c.78-.32,1.36-.36,2-.58a21.62,21.62,0,0,0,6.89-3.81,13.68,13.68,0,0,0,4.3-6.45,34.34,34.34,0,0,0,1.81-7.76,31.12,31.12,0,0,0,.25-4,18.25,18.25,0,0,0-.08-2,5.24,5.24,0,0,0-.37-1.67s0-.06,0,0a.2.2,0,0,0,.09,0s-.08,0-.12-.07l-.55-.27a5.34,5.34,0,0,1-.92-.64,7,7,0,0,1-.8-.71c-.25-.25-.53-.48-.75-.74-.94-1-1.82-2.07-2.66-3.15-1.66-2.16-3.24-4.37-4.71-6.64s-2.92-4.56-4.29-6.88q-4.12-7-7.92-14.12-7.62-14.26-14.27-29Z"/><path class="cls-2" d="M95.79,4.54c.48,7.62.76,15.24.93,22.86s.28,15.24.16,22.87L96.57,61.7c-.11,3.81-.22,7.62-.25,11.44-.06,7.62.12,15.24.37,22.86s.48,15.24.58,22.86.24,15.25.24,22.87c-.07,15.24-.31,30.49-1.05,45.74h-.25c-.85-15.24-1.2-30.49-1.38-45.73-.06-7.62,0-15.24.07-22.87s.2-15.24.41-22.86.32-15.25.2-22.87c-.06-3.81-.19-7.62-.33-11.43l-.39-11.44c-.18-7.62-.13-15.24,0-22.86s.35-15.25.77-22.87Z"/><path class="cls-3" d="M139.12,85.32a11.21,11.21,0,0,1,3.5-1.59,13.84,13.84,0,0,1,3.85-.5,15.49,15.49,0,0,1,3.87.58,17.16,17.16,0,0,1,1.87.64l1.79.74a15.9,15.9,0,0,0,3.56,1,17,17,0,0,0,3.63.07,18.72,18.72,0,0,0,6.84-2l1.15,2.19a52.7,52.7,0,0,1-8,3,43.58,43.58,0,0,1-8.34,1.6,20,20,0,0,1-8.42-.74,18.69,18.69,0,0,1-3.85-1.65A4.71,4.71,0,0,1,139,87.26a1.76,1.76,0,0,1-.31-1A1.52,1.52,0,0,1,139.12,85.32Zm0,0a1.55,1.55,0,0,0-.37,1,1.79,1.79,0,0,0,.33,1,4.75,4.75,0,0,0,1.58,1.3,16.92,16.92,0,0,0,3.9,1.38,17.83,17.83,0,0,0,8.12-.22,62.93,62.93,0,0,0,7.85-2.4c1.28-.47,2.55-1,3.83-1.49s2.53-1.07,3.75-1.61l1.15,2.2a17.55,17.55,0,0,1-8,1.9,18.26,18.26,0,0,1-4-.53,16.72,16.72,0,0,1-3.73-1.53l-1.68-.95a13.29,13.29,0,0,0-1.7-.82,12.83,12.83,0,0,0-3.67-.91A11.44,11.44,0,0,0,139.12,85.32Z"/><path class="cls-4" d="M146.66,90.56A7.69,7.69,0,0,1,150,93.13a5.63,5.63,0,0,1,1,2.16,4.11,4.11,0,0,1-.39,2.67,5.74,5.74,0,0,1-.8,1.07c-.31.25-.68.55-1,.73a10.1,10.1,0,0,0-1.36.95,2.05,2.05,0,0,0-.26.24,1.74,1.74,0,0,0-.19.22.57.57,0,0,0-.16.48c0,.45.46,1,.95,1.47a2.42,2.42,0,0,1-2.06-.93,1.92,1.92,0,0,1-.31-.68,2.37,2.37,0,0,1,0-.75,2.26,2.26,0,0,1,.18-.68,2.85,2.85,0,0,1,.29-.58,6.88,6.88,0,0,1,1.56-1.69l.56-.52a4.83,4.83,0,0,0,.36-.51,2.36,2.36,0,0,0,.25-1.16,6.11,6.11,0,0,0-.35-1.54A37.59,37.59,0,0,0,146.66,90.56Z"/><path class="cls-5" d="M149.14,83.37a14.84,14.84,0,0,0-.13-4,5.63,5.63,0,0,0-.59-1.72,2.24,2.24,0,0,0-1.16-1l-.36-.09-.43,0a6.14,6.14,0,0,0-.86,0,6,6,0,0,0-1.71.39,10.33,10.33,0,0,0-3.05,1.85l-1.6-1.52a23.36,23.36,0,0,1,7-5.73,21.2,21.2,0,0,1,8.66-2.49,19.43,19.43,0,0,1,4.51.25c1.46.24,2.83.55,4.24.86,2.81.6,5.6,1.28,8.37,2.07-2.88-.09-5.75-.29-8.6-.56-1.42-.1-2.88-.32-4.26-.4a23,23,0,0,0-4.07,0,21.89,21.89,0,0,0-7.67,2.42A25,25,0,0,0,141,78.71l-1.6-1.52a10.86,10.86,0,0,1,4-2,6.58,6.58,0,0,1,4.51.21,3.38,3.38,0,0,1,1.64,1.78,6.65,6.65,0,0,1,.38,2.16A12.08,12.08,0,0,1,149.14,83.37Z"/><path class="cls-6" d="M96.45,5.6q-6.61,14.76-14.27,29c-2.54,4.75-5.16,9.47-7.92,14.11q-2.06,3.5-4.29,6.89c-1.47,2.27-3,4.48-4.71,6.64-.84,1.07-1.71,2.13-2.66,3.14-.22.26-.5.5-.74.74a6.15,6.15,0,0,1-.81.71,5.38,5.38,0,0,1-.92.65l-.55.27-.12.06a.15.15,0,0,0,.09,0c0-.06,0,0,0,0a5.24,5.24,0,0,0-.37,1.67,18.14,18.14,0,0,0-.08,2,31.12,31.12,0,0,0,.25,4,34.26,34.26,0,0,0,1.81,7.75,13.58,13.58,0,0,0,4.3,6.45,21.84,21.84,0,0,0,6.89,3.82c.64.21,1.22.26,2,.57a2.84,2.84,0,0,1,1.59,1.81,4,4,0,0,1-.06,2.33,2.69,2.69,0,0,1-.67,1.14,7.67,7.67,0,0,1-.86.67,24.78,24.78,0,0,1-3.67,1.81,2.67,2.67,0,0,0-1.15,1.13,5.68,5.68,0,0,0-.73,1.61c-.65,2.23.69,4.66,2.42,6.22l-1.15-.1a2.62,2.62,0,0,1,.65-.25,2.87,2.87,0,0,1,.57-.11,4,4,0,0,1,1.1,0,5.44,5.44,0,0,1,1.91.74,8.81,8.81,0,0,1,1.51,1.17A6.35,6.35,0,0,1,77,113.76a4.24,4.24,0,0,1,.52,2.16,6.39,6.39,0,0,1-.42,2,22.62,22.62,0,0,1-1.6,3.15l-.13-1.37a16.44,16.44,0,0,1,3.11,5,5.45,5.45,0,0,1,.2,3.45,4,4,0,0,1-1.07,1.68,5.1,5.1,0,0,1-1.53,1l-.71.27a3.72,3.72,0,0,0-.5.2,4.24,4.24,0,0,0-.86.56,4.1,4.1,0,0,0-1.16,1.72,8.21,8.21,0,0,0-.27,4.59,9.4,9.4,0,0,0,.82,2.24,9.84,9.84,0,0,0,.62,1c.11.17.24.32.35.49l.42.54A39,39,0,0,1,78,147.16,12.06,12.06,0,0,1,79.15,150a3.47,3.47,0,0,1-.05,2.11,1.81,1.81,0,0,1-.36.63,1.9,1.9,0,0,1-.51.47,4.45,4.45,0,0,1-.81.44A37.64,37.64,0,0,1,72,155.32c-3.57.88-7.15,1.63-10.73,2.36l-5.38,1.06a7.1,7.1,0,0,0-2.29.76A6.11,6.11,0,0,0,51.76,161a7.22,7.22,0,0,0-1.49,4.63,10.66,10.66,0,0,0,1.08,5c1.53,3.18,4.47,5.53,7.56,7.37l-.11.22a18.53,18.53,0,0,1-8.4-7.09,11.75,11.75,0,0,1-1.51-5.5,11.57,11.57,0,0,1,.27-2.91A8,8,0,0,1,50.44,160a8.1,8.1,0,0,1,5.05-3.16l5.32-1.22c3.54-.84,7.08-1.7,10.55-2.68a46.37,46.37,0,0,0,5-1.63,2.56,2.56,0,0,0,.39-.21c.1,0,0,0,0,0s0,0,0,.05a1.44,1.44,0,0,0-.08-.57,9.38,9.38,0,0,0-1-2.17,43,43,0,0,0-3-4.36l-.42-.53c-.15-.21-.3-.41-.44-.62a13.45,13.45,0,0,1-.78-1.32,12.11,12.11,0,0,1-1-2.88,10.5,10.5,0,0,1,.43-6.16,6.86,6.86,0,0,1,1.94-2.71,6.41,6.41,0,0,1,1.44-.9,8.26,8.26,0,0,1,.77-.31l.57-.19a1.83,1.83,0,0,0,1.19-1.06,3.07,3.07,0,0,0-.14-1.9,14.32,14.32,0,0,0-2.55-4.26l-.56-.67.43-.7A23.61,23.61,0,0,0,75,117.09a2.69,2.69,0,0,0,.09-2.31,6,6,0,0,0-1.9-2,3.42,3.42,0,0,0-1.17-.51,1.79,1.79,0,0,0-.56,0,1,1,0,0,0-.25,0c-.06,0-.19.07-.14,0l-1.15-.11a10.08,10.08,0,0,1-2.53-3.67,6.71,6.71,0,0,1-.19-4.53,6.9,6.9,0,0,1,1-2A4.23,4.23,0,0,1,70,100.43c.69-.33,1.34-.51,2-.75a9.14,9.14,0,0,0,1.69-.83,8.36,8.36,0,0,0,.75-.53,1.54,1.54,0,0,0,.34-.59,2.81,2.81,0,0,0,.12-1.64,1.71,1.71,0,0,0-.94-1.16c-.46-.22-1.22-.37-1.86-.6A24.18,24.18,0,0,1,65,90.22a11,11,0,0,1-2.75-3.11,22.09,22.09,0,0,1-1.8-3.69,40,40,0,0,1-2-7.9A39.55,39.55,0,0,1,58,71.45a20.59,20.59,0,0,1,0-2.08,5.89,5.89,0,0,1,.44-2.26,1.4,1.4,0,0,1,.31-.38,1.17,1.17,0,0,1,.3-.19l.1-.06.34-.2a4.09,4.09,0,0,0,.7-.55,14.5,14.5,0,0,0,1.32-1.38c.84-1,1.64-2,2.4-3.14,3-4.38,5.73-9,8.49-13.62s5.41-9.28,8.06-14L96.22,5.49Z"/><path class="cls-7" d="M52.88,86.33a11.44,11.44,0,0,0-7.33-1.76,12.59,12.59,0,0,0-3.67.91,14,14,0,0,0-1.7.82l-1.68,1a16.72,16.72,0,0,1-3.73,1.53,17.68,17.68,0,0,1-4,.52,17.41,17.41,0,0,1-8-1.89l1.15-2.2c1.22.53,2.49,1.1,3.75,1.61s2.55,1,3.83,1.48a60.68,60.68,0,0,0,7.85,2.4,17.69,17.69,0,0,0,8.12.23,16.92,16.92,0,0,0,3.9-1.38,4.67,4.67,0,0,0,1.58-1.31,1.76,1.76,0,0,0,.33-1A1.45,1.45,0,0,0,52.88,86.33Zm0,0a1.47,1.47,0,0,1,.39,1,1.85,1.85,0,0,1-.3,1,4.7,4.7,0,0,1-1.58,1.36,18,18,0,0,1-3.85,1.66,20.12,20.12,0,0,1-8.42.74,43.58,43.58,0,0,1-8.34-1.6,53.8,53.8,0,0,1-8-3L24,85.26a17.42,17.42,0,0,0,3.27,1.3,18.64,18.64,0,0,0,3.56.67,17,17,0,0,0,3.63-.08,14.9,14.9,0,0,0,3.56-1l1.79-.73a18,18,0,0,1,1.87-.65,15.49,15.49,0,0,1,3.88-.57,13.46,13.46,0,0,1,3.84.5A10.77,10.77,0,0,1,52.88,86.33Z"/><path class="cls-8" d="M45.34,91.57a35.38,35.38,0,0,0-1.62,3.52,6,6,0,0,0-.35,1.54,2.33,2.33,0,0,0,.26,1.15,3.1,3.1,0,0,0,.35.51l.56.53a7,7,0,0,1,1.56,1.68,2.85,2.85,0,0,1,.29.58,2.44,2.44,0,0,1,.19.68,2.78,2.78,0,0,1,0,.76,2,2,0,0,1-.3.67,2.46,2.46,0,0,1-2.07.94,2.65,2.65,0,0,0,1-1.47.57.57,0,0,0-.16-.48,2.84,2.84,0,0,0-.19-.23,1.89,1.89,0,0,0-.25-.23,10.23,10.23,0,0,0-1.37-1c-.28-.19-.65-.48-1-.73a6.17,6.17,0,0,1-.8-1.08A4.11,4.11,0,0,1,41,96.29a5.82,5.82,0,0,1,1-2.15A7.54,7.54,0,0,1,45.34,91.57Z"/><path class="cls-9" d="M42.86,84.38a12.14,12.14,0,0,1-.72-4,6.64,6.64,0,0,1,.38-2.15,3.43,3.43,0,0,1,1.64-1.79,6.69,6.69,0,0,1,4.51-.21,10.73,10.73,0,0,1,3.95,2L51,79.72a24.4,24.4,0,0,0-6.41-4.91,21.69,21.69,0,0,0-7.67-2.42,22.12,22.12,0,0,0-4.07,0c-1.38.08-2.83.3-4.25.4-2.86.27-5.73.47-8.61.56,2.77-.79,5.57-1.47,8.37-2.08,1.41-.31,2.78-.62,4.24-.85a18.9,18.9,0,0,1,4.51-.25,21,21,0,0,1,8.66,2.48,23.25,23.25,0,0,1,7,5.74l-1.6,1.52a10.2,10.2,0,0,0-3-1.85,6.14,6.14,0,0,0-1.71-.39,4.22,4.22,0,0,0-.87,0l-.43,0-.36.1a2.22,2.22,0,0,0-1.16,1A5.79,5.79,0,0,0,43,80.43,14.84,14.84,0,0,0,42.86,84.38Z"/></g></svg>