<svg xmlns="http://www.w3.org/2000/svg" xmlns:xlink="http://www.w3.org/1999/xlink" viewBox="0 0 192 192"><defs><style>.cls-1{fill:url(#linear-gradient);}.cls-2{fill:url(#linear-gradient-2);}.cls-3{fill:url(#linear-gradient-3);}.cls-4{fill:url(#linear-gradient-4);}.cls-5{fill:url(#linear-gradient-5);}.cls-6{fill:url(#linear-gradient-6);}.cls-7{fill:url(#linear-gradient-7);}.cls-8{fill:url(#linear-gradient-8);}.cls-9{fill:url(#linear-gradient-9);}.cls-10{fill:url(#linear-gradient-10);}.cls-11{fill:url(#linear-gradient-11);}.cls-12{fill:url(#linear-gradient-12);}.cls-13{fill:url(#linear-gradient-13);}.cls-14{fill:url(#linear-gradient-14);}.cls-15{fill:url(#linear-gradient-15);}.cls-16{fill:url(#linear-gradient-16);}.cls-17{fill:url(#linear-gradient-17);}.cls-18{fill:url(#linear-gradient-18);}.cls-19{fill:url(#linear-gradient-19);}.cls-20{fill:none;stroke-miterlimit:10;stroke-width:0.9px;stroke:url(#linear-gradient-20);}</style><linearGradient id="linear-gradient" x1="34.73" y1="110.4" x2="184.19" y2="110.4" gradientUnits="userSpaceOnUse"><stop offset="0.21" stop-color="#039be5"/><stop offset="0.25" stop-color="#1293dc"/><stop offset="0.43" stop-color="#5d6ab2"/><stop offset="0.6" stop-color="#984991"/><stop offset="0.74" stop-color="#c23278"/><stop offset="0.85" stop-color="#dc236a"/><stop offset="0.91" stop-color="#e61e64"/><stop offset="1" stop-color="#e91e63"/></linearGradient><linearGradient id="linear-gradient-2" x1="86.42" y1="117.93" x2="109.45" y2="117.93" xlink:href="#linear-gradient"/><linearGradient id="linear-gradient-3" x1="105.6" y1="120.35" x2="125.84" y2="120.35" xlink:href="#linear-gradient"/><linearGradient id="linear-gradient-4" x1="102.85" y1="141.96" x2="125.59" y2="141.96" xlink:href="#linear-gradient"/><linearGradient id="linear-gradient-5" x1="84.75" y1="140.57" x2="106.28" y2="140.57" xlink:href="#linear-gradient"/><linearGradient id="linear-gradient-6" x1="90.12" y1="80.36" x2="101.97" y2="80.36" xlink:href="#linear-gradient"/><linearGradient id="linear-gradient-7" x1="117.24" y1="79.46" x2="122.37" y2="79.46" xlink:href="#linear-gradient"/><linearGradient id="linear-gradient-8" x1="123.36" y1="145.45" x2="141.87" y2="145.45" xlink:href="#linear-gradient"/><linearGradient id="linear-gradient-9" x1="140.07" y1="133.44" x2="155.82" y2="133.44" xlink:href="#linear-gradient"/><linearGradient id="linear-gradient-10" x1="71.05" y1="136.93" x2="85.28" y2="136.93" xlink:href="#linear-gradient"/><linearGradient id="linear-gradient-11" x1="123.23" y1="127.81" x2="141.35" y2="127.81" xlink:href="#linear-gradient"/><linearGradient id="linear-gradient-12" x1="60.73" y1="131.72" x2="74.54" y2="131.72" xlink:href="#linear-gradient"/><linearGradient id="linear-gradient-13" x1="72.81" y1="127.62" x2="88.19" y2="127.62" xlink:href="#linear-gradient"/><linearGradient id="linear-gradient-14" x1="50.87" y1="125.41" x2="61.88" y2="125.41" xlink:href="#linear-gradient"/><linearGradient id="linear-gradient-15" x1="155.54" y1="126.69" x2="167.42" y2="126.69" xlink:href="#linear-gradient"/><linearGradient id="linear-gradient-16" x1="61.84" y1="123.54" x2="75.14" y2="123.54" xlink:href="#linear-gradient"/><linearGradient id="linear-gradient-17" x1="139.72" y1="126.21" x2="148.35" y2="126.21" xlink:href="#linear-gradient"/><linearGradient id="linear-gradient-18" x1="44.08" y1="118.5" x2="51.68" y2="118.5" xlink:href="#linear-gradient"/><linearGradient id="linear-gradient-19" x1="48.69" y1="48.77" x2="100.89" y2="34.39" xlink:href="#linear-gradient"/><linearGradient id="linear-gradient-20" x1="76.33" y1="37.76" x2="78.57" y2="37.76" gradientTransform="translate(-13.97 25.45) rotate(-15.4)" xlink:href="#linear-gradient"/></defs><title>ic_material_product_icon_192px copy 9</title><g id="Comedy"><path class="cls-1" d="M172.91,91.39c.22-.38.36-.8.6-1.16a.65.65,0,0,1,.54-.33,4.62,4.62,0,0,1,.65-.08,4.4,4.4,0,0,1,1.3.1,2.28,2.28,0,0,1,.61.24,1.25,1.25,0,0,1,.37.54,3,3,0,0,1,.24,1.29,3.56,3.56,0,0,1-.41,1.24A4.34,4.34,0,0,1,174.86,95a4.5,4.5,0,0,1-2.58.38A3.65,3.65,0,0,1,170.05,94a4.64,4.64,0,0,1-1-2.42,5.09,5.09,0,0,1,.48-2.58,5.68,5.68,0,0,1,4-3.25,6.11,6.11,0,0,1,5,1.24,12.63,12.63,0,0,1,4.81,9.09,14.65,14.65,0,0,1-.57,5.23,29.25,29.25,0,0,1-1.81,4.94,28.2,28.2,0,0,1-6.23,8.43c-.64.6-1.3,1.18-2,1.73-.33.28-.69.53-1,.8s-.75.52-1,.76a.9.9,0,0,0-.16.19l-.15.27L170,119l-.67,1.13c-.45.75-.92,1.49-1.39,2.22a73.46,73.46,0,0,1-6.35,8.35,50.8,50.8,0,0,1-7.63,7.24,60.4,60.4,0,0,1-9,5.49,82.09,82.09,0,0,1-19.71,7.12A79.06,79.06,0,0,1,83.81,148a78.72,78.72,0,0,1-9.63-4.23c-3.11-1.54-6.27-3-9.3-4.86a68.82,68.82,0,0,1-16-13.66,64.94,64.94,0,0,1-10.88-18c-.68-1.62-1.26-3.28-1.81-5a29.31,29.31,0,0,1-1.3-5.2,19,19,0,0,1,1.72-10.61A27.05,27.05,0,0,1,43.11,78a16.32,16.32,0,0,1,10.15-3.6,29,29,0,0,1,5.36.4,7.76,7.76,0,0,1,4.86,3A18.21,18.21,0,0,1,66,82.55,12.43,12.43,0,0,1,66.83,88a10.87,10.87,0,0,1-6,8.94,12,12,0,0,1-2.63,1,8.14,8.14,0,0,1-2.89.22,8.76,8.76,0,0,1-5-2.69A6.17,6.17,0,0,1,48.59,93a5.6,5.6,0,0,1-.14-3A6.58,6.58,0,0,1,52,85.37a5.59,5.59,0,0,1,3-.53,4.82,4.82,0,0,1,2.82,1.34,3.5,3.5,0,0,1,.92,1.42,3,3,0,0,1,0,1.8,4.26,4.26,0,0,1-2.11,2.41l-1.77,1,.51-2a9.62,9.62,0,0,1,.24-1.16l.21-.5a2.58,2.58,0,0,0,.09-.35,1.09,1.09,0,0,0-.42-1.08A2,2,0,0,0,54,87.56a3.29,3.29,0,0,0-1.58.62,3.84,3.84,0,0,0-1.4,3,4.47,4.47,0,0,0,1.72,3,5.89,5.89,0,0,0,3.5,1.17,7.16,7.16,0,0,0,3.68-1,8.79,8.79,0,0,0,4.13-6.38,9.22,9.22,0,0,0-.26-3.91,6.39,6.39,0,0,0-.32-.93,5.9,5.9,0,0,0-.42-.89c-.38-.71-.64-1.23-1-1.81A7.59,7.59,0,0,0,59.22,78a9.36,9.36,0,0,0-3.81-1,16.91,16.91,0,0,0-8,1.45,15.1,15.1,0,0,0-6.11,5.3A23.72,23.72,0,0,0,38,91.38a16.08,16.08,0,0,0,.07,8.15,26.55,26.55,0,0,0,9.08,13.78c4.41,3.48,9.87,5.48,15.39,6.81a40.64,40.64,0,0,0,16.87.26A37.52,37.52,0,0,0,95,114.05a27.93,27.93,0,0,0,6-5.94,35.56,35.56,0,0,0,4.13-7.39l.85-2,.21-.5a.48.48,0,0,0,0-.2,2.71,2.71,0,0,0-.19-.82c-.11-.31-.24-.63-.38-1a5.37,5.37,0,0,0-.45-.84c-.18-.29-.38-.6-.58-1a5,5,0,0,1-.27-.57l-.19-.51a5.81,5.81,0,0,0-.92-1.64,2.35,2.35,0,0,0-1.44-.75,41.13,41.13,0,0,0-4.23-.07,9.53,9.53,0,0,1-2.32-.35,10.53,10.53,0,0,1-1.1-.43c-.34-.14-.68-.33-1-.5a8.74,8.74,0,0,1-3.51-3.09,7.76,7.76,0,0,1-1-4.6,15.93,15.93,0,0,1,1-4.43,12.36,12.36,0,0,1,2.39-3.9,12.81,12.81,0,0,1,3.64-2.75,19.17,19.17,0,0,1,4.19-1.58,20,20,0,0,1,4.42-.67,33,33,0,0,1,8.77,1c.7.18,1.32.25,2.1.38a6.57,6.57,0,0,1,1.14.29c.35.13.7.25,1,.4a11.61,11.61,0,0,1,3.84,2.46,9.49,9.49,0,0,1,2.34,3.95,16.74,16.74,0,0,1,.6,4.46,11.13,11.13,0,0,1-.16,2.28,5.15,5.15,0,0,1-1,2.23,9.28,9.28,0,0,1-3.79,2.57,24.07,24.07,0,0,1-4.25,1.29c-1.38.34-2.88.62-4.13,1a1.19,1.19,0,0,0-.6.4.77.77,0,0,0-.08.61,4.39,4.39,0,0,0,.31.9,4.16,4.16,0,0,1,.39,1.22,17.34,17.34,0,0,1,.1,2.23,3.11,3.11,0,0,1-.33,1.27,2,2,0,0,1-1.14.92l.38-.54a23.67,23.67,0,0,0,1.52,7.82,20.83,20.83,0,0,0,4.24,6.73,34.81,34.81,0,0,0,13.24,9,40.66,40.66,0,0,0,7.65,2.61,19,19,0,0,0,4,.24c1.35,0,2.71-.07,4.06-.18a62.26,62.26,0,0,0,15.9-3.36,53.67,53.67,0,0,0,7.46-3.23,31.33,31.33,0,0,0,6.59-4.72,27.89,27.89,0,0,0,5-6.35,17.85,17.85,0,0,0,2.63-7.59,14.74,14.74,0,0,0-1.64-7.84,8.71,8.71,0,0,0-1.05-1.71,7.05,7.05,0,0,0-1.55-1.27A11.35,11.35,0,0,0,176,87.2a4.64,4.64,0,0,0-1.94-.46,4.2,4.2,0,0,0-3.26,2.07,3.65,3.65,0,0,0-.14,3.82,4.48,4.48,0,0,0,1.42,1.42,1.9,1.9,0,0,0,1,.3,2.35,2.35,0,0,0,.95-.3,10.17,10.17,0,0,0,1.65-1.19c.13-.11.29-.2.32-.37a2.07,2.07,0,0,0,0-.5c0-.34-.09-.68-.09-1h0c-.47,0-.93,0-1.39.1a1.4,1.4,0,0,0-.66.19c-.2.12-.37.28-.56.4h0Zm0,0,.4.28h0c.19-.13.36-.29.56-.41a1.5,1.5,0,0,1,.66-.2c.46-.06.92-.07,1.38-.11h0v0c0,.34.07.67.1,1a1.8,1.8,0,0,1,0,.52c0,.19-.21.29-.33.4A9.86,9.86,0,0,1,174,94.11a2.27,2.27,0,0,1-1,.32,2,2,0,0,1-1-.3,4.6,4.6,0,0,1-1.47-1.44,3.75,3.75,0,0,1,.11-4,4.31,4.31,0,0,1,3.37-2.18,4.81,4.81,0,0,1,2,.45,12.3,12.3,0,0,1,1.86.91,6.91,6.91,0,0,1,1.61,1.3A8.48,8.48,0,0,1,180.67,91a15.06,15.06,0,0,1,1.74,8,18.2,18.2,0,0,1-2.61,7.78,28,28,0,0,1-5.05,6.5,31.46,31.46,0,0,1-6.65,4.86,53.25,53.25,0,0,1-7.53,3.34,62.91,62.91,0,0,1-16,3.55c-1.37.13-2.74.19-4.12.23a20.1,20.1,0,0,1-4.16-.22,41.33,41.33,0,0,1-7.85-2.61,35.92,35.92,0,0,1-13.64-9.2,21.92,21.92,0,0,1-4.49-7A24.7,24.7,0,0,1,108.65,98l0-.43.4-.11c.47-.14.65-.56.69-1.22a17.56,17.56,0,0,0-.11-2.09,4.32,4.32,0,0,0-.31-.83,5.44,5.44,0,0,1-.38-1.14,1.89,1.89,0,0,1,.25-1.47,2.34,2.34,0,0,1,1.14-.83c1.51-.47,2.86-.71,4.28-1.06a22.75,22.75,0,0,0,4-1.24,8.37,8.37,0,0,0,3.31-2.22,5.79,5.79,0,0,0,.84-3.75,15.37,15.37,0,0,0-.56-4.1,8.09,8.09,0,0,0-2-3.42,10.3,10.3,0,0,0-3.42-2.16c-.32-.14-.65-.25-1-.36a5.29,5.29,0,0,0-1-.24c-.65-.11-1.47-.2-2.17-.39a31.21,31.21,0,0,0-8.4-.93,18.6,18.6,0,0,0-4.13.64,18.08,18.08,0,0,0-3.89,1.49A11.49,11.49,0,0,0,93,74.57,11,11,0,0,0,90.9,78c-.91,2.54-1.42,5.55-.05,7.72a7.35,7.35,0,0,0,2.93,2.54,13.26,13.26,0,0,0,1.85.8,8.12,8.12,0,0,0,2,.29,42.17,42.17,0,0,1,4.43.08,4,4,0,0,1,2.31,1.23,7,7,0,0,1,1.21,2.11l.2.5a3.75,3.75,0,0,0,.19.41c.15.28.35.57.54.89a6.43,6.43,0,0,1,.57,1.08c.13.32.28.66.41,1a4.94,4.94,0,0,1,.28,1.29,2,2,0,0,1-.14.85l-.21.5-.85,2a32.46,32.46,0,0,1-10.57,14A39.2,39.2,0,0,1,79.72,122a42.33,42.33,0,0,1-17.54-.25,54.06,54.06,0,0,1-8.38-2.67,32.47,32.47,0,0,1-7.68-4.42A28.34,28.34,0,0,1,36.42,100a17.82,17.82,0,0,1-.09-9,25.15,25.15,0,0,1,3.51-8.21,16.91,16.91,0,0,1,6.81-5.92,18.72,18.72,0,0,1,8.87-1.62A11.23,11.23,0,0,1,60,76.36a9.41,9.41,0,0,1,3.51,3.17,20.43,20.43,0,0,1,1.12,2,8,8,0,0,1,.51,1.06,8.68,8.68,0,0,1,.38,1.12,11,11,0,0,1,.3,4.66,10.58,10.58,0,0,1-5,7.66,8.93,8.93,0,0,1-4.6,1.22,7.58,7.58,0,0,1-4.56-1.57,6.73,6.73,0,0,1-1.62-1.87,5.27,5.27,0,0,1-.76-2.45,5.34,5.34,0,0,1,.51-2.51,5.24,5.24,0,0,1,1.59-2,5,5,0,0,1,2.4-1,3.73,3.73,0,0,1,2.7.52,2.84,2.84,0,0,1,1.13,2.73,4,4,0,0,1-.18.7,2.15,2.15,0,0,1-.13.32l-.08.18c0,.13-.1.56-.18,1l-1.27-.94a2.53,2.53,0,0,0,1.29-1.37,1.5,1.5,0,0,0-.51-1.51,3.38,3.38,0,0,0-3.88-.49,4.82,4.82,0,0,0-2.58,3.42,3.89,3.89,0,0,0,.08,2.12,4.36,4.36,0,0,0,1.26,1.8,7,7,0,0,0,4,2.21,8.64,8.64,0,0,0,4.56-1,9.22,9.22,0,0,0,5.15-7.58,10.94,10.94,0,0,0-.7-4.76,16.62,16.62,0,0,0-2.29-4.39,6,6,0,0,0-3.84-2.36,26.82,26.82,0,0,0-5-.39,14.68,14.68,0,0,0-9.18,3.22,23.1,23.1,0,0,0-3.44,3.67A23.72,23.72,0,0,0,38,87.17a17.3,17.3,0,0,0-1.59,9.73,27,27,0,0,0,1.23,4.92c.53,1.63,1.09,3.26,1.75,4.85A64.09,64.09,0,0,0,50,124.29,67.68,67.68,0,0,0,65.6,137.74c2.94,1.78,6.06,3.28,9.18,4.85a76.61,76.61,0,0,0,9.46,4.21,73.55,73.55,0,0,0,20.24,4.08,73.63,73.63,0,0,0,20.63-1.39,80.81,80.81,0,0,0,19.5-6.93,60.38,60.38,0,0,0,8.87-5.35,49.88,49.88,0,0,0,7.56-7.05A72.26,72.26,0,0,0,167.4,122q.72-1.08,1.41-2.19l.67-1.11.33-.56.17-.29a1.58,1.58,0,0,1,.26-.31c.39-.34.74-.53,1.08-.8s.7-.51,1-.78c.68-.53,1.34-1.1,2-1.68a27.42,27.42,0,0,0,8-13.06,14.35,14.35,0,0,0,.61-5.08,12.31,12.31,0,0,0-4.59-8.88A5.79,5.79,0,0,0,173.56,86a5.49,5.49,0,0,0-3.84,3.09,4.85,4.85,0,0,0-.49,2.48,4.5,4.5,0,0,0,.94,2.35,3.48,3.48,0,0,0,2.13,1.31,4.3,4.3,0,0,0,2.52-.34,4.36,4.36,0,0,0,1.92-1.66,3.34,3.34,0,0,0,.42-1.22,2.9,2.9,0,0,0-.22-1.26,1.19,1.19,0,0,0-.36-.52A1.71,1.71,0,0,0,176,90a4.32,4.32,0,0,0-1.29-.12c-.22,0-.44,0-.65.08a.62.62,0,0,0-.53.32C173.28,90.6,173.14,91,172.91,91.39Z"/><path class="cls-2" d="M108.1,100.72l-.51.32c-.09.14-.18.35-.27.52-.19.36-.31.76-.47,1.13-.28.77-.64,1.5-1,2.25a47.27,47.27,0,0,1-2.33,4.32,33.56,33.56,0,0,1-6.38,7.54,31.36,31.36,0,0,1-4,3c-.7.45-1.41.87-2.15,1.25a4.59,4.59,0,0,0-.9.55,1.65,1.65,0,0,0-.29.31.49.49,0,0,0-.07.11s0,0,0,.11l-1.47,9.62-.6-1a12.87,12.87,0,0,0,1.41.44l1.59.22,3.2.45,6.4.95,3.19.47.8.12a1,1,0,0,0,.37,0s0,.07,0-.07a2.58,2.58,0,0,0,.11-.6l.74-6.42c.52-4.27,1-8.55,1.61-12.82l.88-6.41.22-1.6a8.51,8.51,0,0,0,.14-1.58C108.34,102.87,108.16,101.8,108.1,100.72Zm0,0c.16,1.07.45,2.1.57,3.19a9,9,0,0,1,0,1.64l-.11,1.62-.45,6.45c-.32,4.29-.69,8.59-1.06,12.88l-.59,6.44a4.19,4.19,0,0,1-.18,1,1.77,1.77,0,0,1-1,1.1,2.46,2.46,0,0,1-1.23.09l-.8-.11-3.2-.45-6.4-.9-3.19-.47-1.6-.24a11.55,11.55,0,0,1-1.68-.51l-.73-.21.13-.76,1.63-9.64a1.93,1.93,0,0,1,.15-.48,2.11,2.11,0,0,1,.24-.4,3.41,3.41,0,0,1,.57-.57,6.82,6.82,0,0,1,1.18-.71c.71-.35,1.42-.72,2.1-1.13a30.84,30.84,0,0,0,3.93-2.71,35.93,35.93,0,0,0,6.56-7,45.61,45.61,0,0,0,2.6-4.09c.38-.72.77-1.43,1.13-2.16.19-.35.35-.73.58-1.08.11-.17.19-.34.33-.52Z"/><path class="cls-3" d="M124.85,133.62c-.43-2.65-.93-5.29-1.19-8a13.8,13.8,0,0,0-.23-1.93,4.07,4.07,0,0,0-.79-1.6,11.5,11.5,0,0,0-3.12-2.21,27.59,27.59,0,0,1-6.29-5.32,31.11,31.11,0,0,1-2.49-3.31c-.37-.58-.73-1.17-1.06-1.78l-.25-.45-.11-.21a.49.49,0,0,0-.07-.11l-.63-.75,1.55-.45q-.63,6.85-1.35,13.69l-.75,6.84-.79,6.84-.72-.74c3-.14,5.94-.21,9-.29Zm0,0-8.94,1c-3,.32-6.14.64-9.26.9l-.78.06.06-.8.55-6.86.61-6.86q.61-6.85,1.35-13.69l.23-2.18,1.31,1.72c.19.24.39.45.66.8a2,2,0,0,1,.2.32l.13.23.23.44c.3.57.62,1.14,1,1.7a28.39,28.39,0,0,0,2.27,3.19,28.75,28.75,0,0,0,5.77,5.29c.55.38,1.08.7,1.68,1.11a6.5,6.5,0,0,1,1.58,1.52,5,5,0,0,1,.85,2,12.37,12.37,0,0,1,.08,2.08C124.41,128.25,124.75,130.93,124.85,133.62Z"/><path class="cls-4" d="M103,149.15c2.9.08,5.78.06,8.65-.1a75.71,75.71,0,0,0,8.53-1c.7-.12,1.4-.26,2.09-.41l1-.22a1.52,1.52,0,0,0,.48-.38.61.61,0,0,0,.11-.17c0,.21,0-.15,0-.28l0-1.08v-2.16c0-2.89,0-5.78.06-8.67l.88.83c-3.17.12-6.31,0-9.45-.08l-9.4-.37c3.12-.43,6.27-.62,9.4-.76s6.26-.23,9.36-.45l.86-.06v.89c.06,2.89.09,5.78.06,8.68l0,2.18,0,1.08v.28c0,.07,0,0,0,.18a1.26,1.26,0,0,1-.07.33,2.42,2.42,0,0,1-.45.76,3,3,0,0,1-1.27.87,2.41,2.41,0,0,1-.34.08l-.27,0-.55.1c-.72.13-1.44.25-2.17.34a52.37,52.37,0,0,1-8.75.44A51.33,51.33,0,0,1,103,149.15Z"/><path class="cls-5" d="M103,149.15l.81-7c.12-1.15.27-2.27.4-3.39s.28-2.22.43-3.33l.56.76c-3-.32-6-.7-9-1.08l-4.49-.6c-1.5-.2-3-.39-4.49-.62l1-.74c-.41,2.42-.79,4.85-1.22,7.27l-.32,1.82-.15.89a2.41,2.41,0,0,0,0,.68.58.58,0,0,0,.16.37,1.37,1.37,0,0,0,.52.29l1.73.54c2.36.74,4.65,1.61,7,2.3S100.58,148.48,103,149.15Zm0,0c-2.44-.29-4.88-.58-7.32-1s-4.8-1.2-7.16-1.82l-1.81-.45a2.9,2.9,0,0,1-1.09-.58,2.08,2.08,0,0,1-.66-1.25,4,4,0,0,1,0-1.15l.13-.92.26-1.82c.34-2.43.74-4.86,1.1-7.28l.13-.86.88.11c1.5.2,3,.44,4.48.65l4.49.67c3,.47,6,.94,9,1.45l.67.12-.12.64c-.22,1.17-.46,2.34-.71,3.49s-.48,2.31-.75,3.44Z"/><path class="cls-6" d="M100.88,71.85a13.77,13.77,0,0,0-6.35,3.54,8.81,8.81,0,0,0-2.75,6.27,5.56,5.56,0,0,0,3.08,5.24,9.27,9.27,0,0,0,3.35.72,27,27,0,0,1,3.74.55c-1.25.25-2.48.46-3.74.59a13.53,13.53,0,0,1-1.95.1,7,7,0,0,1-2.05-.41,5.77,5.77,0,0,1-1.84-1.1A5.6,5.6,0,0,1,91,85.66a6.9,6.9,0,0,1-.74-4.08,10.74,10.74,0,0,1,1.16-3.82,10.87,10.87,0,0,1,2.49-3A12.78,12.78,0,0,1,100.88,71.85Z"/><path class="cls-7" d="M119.27,85.43a5.89,5.89,0,0,0,1.38-2.89,12.29,12.29,0,0,0-.31-3.15,19,19,0,0,0-1-3.12,7.28,7.28,0,0,0-1.83-2.78,4.58,4.58,0,0,1,3.06,2.08A9.34,9.34,0,0,1,122.09,79a7.74,7.74,0,0,1-.06,3.82A4.19,4.19,0,0,1,119.27,85.43Z"/><path class="cls-8" d="M123.36,148.29c.71-.37,1.41-.74,2.13-1,.35-.16.74-.31,1.05-.44s.72-.31,1.08-.44c1.45-.55,2.92-1.06,4.4-1.51s3-.86,4.49-1.2c.76-.18,1.53-.31,2.3-.45.34-.05.73-.17,1.1-.26l.56-.16a1.23,1.23,0,0,0,.5-.24,2.5,2.5,0,0,1-.86.82,6.79,6.79,0,0,1-1.05.63c-.71.33-1.41.66-2.14.95-1.43.6-2.89,1.12-4.36,1.61s-3,.91-4.47,1.29c-.38.11-.76.18-1.14.27a7.36,7.36,0,0,1-1.19.16A10.69,10.69,0,0,1,123.36,148.29Z"/><path class="cls-9" d="M141,142.55a3.31,3.31,0,0,0,1.1-.48l1-.71,2-1.4c1.34-.93,2.71-1.82,4.07-2.73l4.07-2.63c1-.74,1-2.13.62-3.74-.13-.79-.29-1.6-.4-2.44a12.66,12.66,0,0,0-.33-2.19c-.14-.19.05,0-.15-.11a3.41,3.41,0,0,0-.92.16,12.82,12.82,0,0,0-2.16.8c-2.83,1.41-5.71,3.1-8.6,4.57l.34-.58c-.06,1.83-.18,3.66-.3,5.56Zm0,0-.36-5.56c-.12-1.93-.24-3.92-.3-5.92v-.36l.34-.21c1.4-.86,2.79-1.72,4.21-2.55s2.76-1.71,4.31-2.45a15.58,15.58,0,0,1,2.42-.94,5.11,5.11,0,0,1,1.48-.23,2.06,2.06,0,0,1,1.07.34,2.14,2.14,0,0,1,.65.88,11.54,11.54,0,0,1,.42,2.64c.1.78.24,1.58.36,2.4a9,9,0,0,1,.12,2.68,3.71,3.71,0,0,1-1.55,2.57,5.66,5.66,0,0,1-.58.34l-.53.3-1.08.59-2.14,1.19c-1.45.78-2.88,1.56-4.34,2.31l-2.18,1.13-1.1.55A3.47,3.47,0,0,1,141,142.55Z"/><path class="cls-10" d="M74.18,129.49c0,2-.83,4-1.19,5.87a9.42,9.42,0,0,0-.19,1.4c0,.5-.06,1,0,1.42a1.35,1.35,0,0,0,.07.51.35.35,0,0,0,.17.21,4.8,4.8,0,0,0,1.06.56c1.8.76,3.63,1.46,5.49,2.21a31,31,0,0,1,5.4,2.71c-2-.37-3.93-.8-5.87-1.3a36.39,36.39,0,0,1-5.73-2,5.81,5.81,0,0,1-1.52-.92,2,2,0,0,1-.59-1,2.82,2.82,0,0,1-.06-1,11.42,11.42,0,0,1,.25-1.55,13.94,13.94,0,0,1,.4-1.54C72.52,133.07,73.57,131.42,74.18,129.49Z"/><path class="cls-11" d="M124.85,133.62a79.87,79.87,0,0,1,9-1.78c1.51-.25,3-.52,4.45-.87a7.52,7.52,0,0,0,1-.32,1.91,1.91,0,0,0,.34-.2c.08-.07,0-.08,0,0s-.08-.25-.27-.55-.37-.69-.54-1.08a5.29,5.29,0,0,1-.39-1.28c0-.22-.06-.45-.07-.68v-.3h0v.12a.79.79,0,0,0,.12.31.49.49,0,0,0,.08.1s0,0,0,0a5,5,0,0,0-.86-.31l-1.07-.29c-1.45-.37-3-.71-4.43-1.11s-3-.82-4.43-1.34a16,16,0,0,1-4.18-2,31.53,31.53,0,0,0,4.45,1l4.5.8c1.51.27,3,.56,4.52.92.38.09.77.18,1.15.3a6.36,6.36,0,0,1,1.28.52,1.5,1.5,0,0,1,.25.19l.17.2a1,1,0,0,1,.18.45s0,.1,0,.15v.23c0,.15,0,.3,0,.46a5.43,5.43,0,0,0,.24.92c.11.32.26.64.42,1a4.86,4.86,0,0,1,.25.63,1.69,1.69,0,0,1,0,1,1.47,1.47,0,0,1-.66.87,3.07,3.07,0,0,1-.69.3c-.44.14-.82.2-1.21.29a45.72,45.72,0,0,1-4.61.58C130.94,133.11,127.89,133.21,124.85,133.62Z"/><path class="cls-12" d="M74.18,129.49l-5.92-1.68c-2-.58-3.92-1.17-5.88-1.91l1.1-.61c-.18,1.69-.44,3.36-.66,5l-.18,1.25-.14,1.06a1.26,1.26,0,0,0,.27.59,4.4,4.4,0,0,0,.38.27l.53.33L68,136.47a44.42,44.42,0,0,1,4.21,2.91c-1.58-.65-3.15-1.3-4.7-2s-3.11-1.39-4.63-2.21l-.57-.31a4.47,4.47,0,0,1-.67-.44,2.61,2.61,0,0,1-.86-1.63,4.16,4.16,0,0,1,0-.83l.07-.64.16-1.27c.26-1.69.53-3.36.86-5l.2-1,.89.38,5.63,2.39A53.49,53.49,0,0,1,74.18,129.49Z"/><path class="cls-13" d="M88,122.26a76.52,76.52,0,0,1-7.67,2.13c-1.29.31-2.6.55-3.9.79a5,5,0,0,0-1.51.39c-.07.06-.11.12-.17.35a5.09,5.09,0,0,0-.13.81,3.31,3.31,0,0,0,0,.68,1.41,1.41,0,0,0,.26.52c0,.07.14.1,0,0l.44.12c.33.09.65.2,1,.31,1.28.43,2.52.92,3.74,1.45,2.43,1.05,4.78,2.2,7.27,3.13a37.25,37.25,0,0,1-7.75-1.85c-1.26-.38-2.5-.8-3.75-1.14l-.93-.23-.51-.13a1.8,1.8,0,0,1-.8-.56,3.08,3.08,0,0,1-.65-1.21,2.21,2.21,0,0,1-.06-.77l0-.52a5.11,5.11,0,0,1,.19-1.14,2.33,2.33,0,0,1,.86-1.3,3.41,3.41,0,0,1,1.25-.48c.36-.07.7-.12,1-.17l3.92-.49C82.73,122.66,85.37,122.35,88,122.26Z"/><path class="cls-14" d="M61.44,124.22c-1.67-.58-3.28-1.27-4.88-2s-3.16-1.49-4.71-2.27l1.21-.44a10,10,0,0,0-.36,3.89,3.29,3.29,0,0,0,.13.84,3.18,3.18,0,0,0,.39.75,12.58,12.58,0,0,0,1.28,1.54c1,1,2,2,3,3.08s2,2.1,2.95,3.22c-1.24-.78-2.42-1.63-3.59-2.49s-2.32-1.74-3.46-2.68A10,10,0,0,1,51.8,126a4.85,4.85,0,0,1-.64-1.15,4.93,4.93,0,0,1-.25-1.29,13.8,13.8,0,0,1,0-2.32,9,9,0,0,1,.52-2.35l.36-.94.85.5c1.5.88,3,1.78,4.47,2.72S60.05,123.13,61.44,124.22Z"/><path class="cls-15" d="M156.49,133c2.94-4,6-7.93,9.1-11.81l.12,1-.5-.29.69.11c-.79.36-1.59.7-2.4,1s-1.63.57-2.46.82a22.67,22.67,0,0,1-5.19,1,22.41,22.41,0,0,1,4.62-2.53c.8-.32,1.61-.65,2.44-.91s1.66-.52,2.5-.74l.45-.11.23.22.42.38.54.51-.42.48C163.32,125.72,160,129.39,156.49,133Z"/><path class="cls-16" d="M75.12,123.91a13,13,0,0,1-3.13.42,21.29,21.29,0,0,1-3.09-.12,21.53,21.53,0,0,1-3.06-.53,15.25,15.25,0,0,1-1.51-.46,4.88,4.88,0,0,1-1.51-.81l.44-.13a5.71,5.71,0,0,0-.14.68l-.13.73c-.09.5-.17,1-.3,1.48,0-.5,0-1,0-1.5v-.75a4.75,4.75,0,0,1,0-.81l0-.2.4.07c.35,0,.93.07,1.41.09l1.52.07c1,.07,2,.17,3,.31s2,.31,3,.55A21.3,21.3,0,0,1,75.12,123.91Z"/><path class="cls-17" d="M146.66,127.48a1.75,1.75,0,0,1,.06-.57l.11-.53c0-.17.06-.33.07-.47s-.06-.27-.05-.09l.78.34a6,6,0,0,1-2,.6,10.21,10.21,0,0,1-2,0,12.62,12.62,0,0,1-3.84-.9,7.07,7.07,0,0,1,1.94-.62,14.3,14.3,0,0,1,1.92-.22c1.25-.08,2.49,0,3.6-.09l.68,0,.1.38a1.15,1.15,0,0,1-.14.93,2.1,2.1,0,0,1-.37.48,5.11,5.11,0,0,1-.42.39A2.78,2.78,0,0,0,146.66,127.48Z"/><path class="cls-18" d="M51.21,118.66c-1.05-.42-2.08-.89-3.1-1.37l-1.51-.74c-.51-.25-1-.5-1.51-.8l.85-.08-.2.26.1-.9c.46.56.95,1.1,1.42,1.68s.94,1.17,1.39,1.78a17,17,0,0,1,1.24,2,8.76,8.76,0,0,1,.86,2.2,28.79,28.79,0,0,1-3.4-3.08,19.29,19.29,0,0,1-1.47-1.76,11.89,11.89,0,0,1-1.26-2l-.3-.59.4-.3.27-.2.47-.36.38.27,2.71,1.95C49.45,117.25,50.35,117.92,51.21,118.66Z"/><path class="cls-19" d="M64.67,52.43a75.66,75.66,0,0,1,9.2-4.78,47.92,47.92,0,0,1,9.89-3.17c.85-.17,1.72-.27,2.58-.38L87.65,44l.65,0L89,44l1.32.05c.44,0,.87.13,1.31.2.88.11,1.7.34,2.55.52l5.07,1.15,2.53.61,1.27.32c.21.06.42.11.66.2l.1,0,.08,0,.06,0,0,0s0,0,.14.14a.56.56,0,0,1-.06.76.64.64,0,0,1-.29.15h-.31l-.37,0-.15,0-.14-.12-3.39-2.93-.26-.22,0-.41a13.78,13.78,0,0,0-2.77-10.14l-.9-1-1-.9a26.41,26.41,0,0,0-2.26-1.57,24,24,0,0,0-4.92-2.5,15.74,15.74,0,0,0-5.3-1,22.15,22.15,0,0,0-5.41.77,24.7,24.7,0,0,0-2.64.87l-1.31.5-1.27.59c-.86.38-1.68.83-2.52,1.27a15.28,15.28,0,0,0-2.35,1.42,20.47,20.47,0,0,0-3.87,4,24.66,24.66,0,0,0-2.91,4.77A12,12,0,0,0,58.87,47a15.18,15.18,0,0,1-.21,5.77,9.11,9.11,0,0,1-1.18,2.67,7.69,7.69,0,0,1-2,2.06,13.45,13.45,0,0,1-2.56,1.31l-.34.13a.49.49,0,0,1-.13,0s-.11,0-.07-.14l0,0,.05,0,.15-.1.63-.35,1.27-.66Zm0,0c-3.39,1.76-6.79,3.49-10.14,5.31l-1.25.7-.62.36-.14.09,0,0h0c0-.12-.05-.12-.06-.12s0,0,0,0l.33-.14a12.9,12.9,0,0,0,2.48-1.35,7.54,7.54,0,0,0,2.92-4.63,14.46,14.46,0,0,0,0-5.6,12.78,12.78,0,0,1,.71-5.81,25.69,25.69,0,0,1,2.84-5.11,21.67,21.67,0,0,1,3.95-4.35,16,16,0,0,1,2.47-1.64c.84-.49,1.67-1,2.56-1.39l1.3-.64,1.36-.56a29.33,29.33,0,0,1,2.77-1,21.86,21.86,0,0,1,5.88-.9,17.56,17.56,0,0,1,5.91,1,26,26,0,0,1,5.24,2.71,28.5,28.5,0,0,1,2.43,1.72l1.11,1,1,1.15a13.94,13.94,0,0,1,2.56,5.45,14.9,14.9,0,0,1,.21,6l-.21-.63,3.27,3.06-.29-.15.28.05h0a.5.5,0,0,0-.27.14.67.67,0,0,0-.17.39.57.57,0,0,0,.1.35.75.75,0,0,0,.13.12h0l0,0h0l0,0-.58-.19-1.23-.37L99,46.87l-5-1.35c-.83-.21-1.67-.47-2.5-.61-.42-.07-.83-.17-1.25-.23l-1.27-.1-.64,0h-.64l-1.28,0c-.86.08-1.71.15-2.56.28a45.2,45.2,0,0,0-9.91,2.89A73.57,73.57,0,0,0,64.67,52.43Z"/><path class="cls-20" d="M70.61,40.61s-.06,3.59.65,4.91-.58-5.79-.58-5.79Z"/></g></svg>