<svg xmlns="http://www.w3.org/2000/svg" xmlns:xlink="http://www.w3.org/1999/xlink" viewBox="0 0 192 192"><defs><style>.cls-1{fill:url(#linear-gradient);}.cls-2{fill:url(#linear-gradient-2);}.cls-3{fill:url(#linear-gradient-3);}.cls-4{fill:url(#linear-gradient-4);}.cls-5{fill:url(#linear-gradient-5);}.cls-6{fill:url(#linear-gradient-6);}.cls-7{fill:url(#linear-gradient-7);}.cls-8{fill:url(#linear-gradient-8);}.cls-9{fill:url(#linear-gradient-9);}.cls-10{fill:url(#linear-gradient-10);}.cls-11{fill:url(#linear-gradient-11);}.cls-12{fill:url(#linear-gradient-12);}.cls-13{fill:url(#linear-gradient-13);}.cls-14{fill:url(#linear-gradient-14);}.cls-15{fill:none;stroke-miterlimit:10;stroke-width:2.58px;stroke:url(#linear-gradient-15);}.cls-16{fill:url(#linear-gradient-16);}.cls-17{fill:url(#linear-gradient-17);}.cls-18{fill:url(#linear-gradient-18);}</style><linearGradient id="linear-gradient" x1="3.09" y1="94.66" x2="180.79" y2="94.66" gradientUnits="userSpaceOnUse"><stop offset="0.21" stop-color="#039be5"/><stop offset="0.24" stop-color="#1193dd"/><stop offset="0.43" stop-color="#5c6ab2"/><stop offset="0.6" stop-color="#974991"/><stop offset="0.74" stop-color="#c13278"/><stop offset="0.85" stop-color="#db236a"/><stop offset="0.91" stop-color="#e51e64"/><stop offset="1" stop-color="#e91e63"/></linearGradient><linearGradient id="linear-gradient-2" x1="31.97" y1="107.91" x2="46.06" y2="107.91" xlink:href="#linear-gradient"/><linearGradient id="linear-gradient-3" x1="53.79" y1="113.78" x2="60.27" y2="113.78" xlink:href="#linear-gradient"/><linearGradient id="linear-gradient-4" x1="30.42" y1="99.07" x2="38.28" y2="99.07" xlink:href="#linear-gradient"/><linearGradient id="linear-gradient-5" x1="40.42" y1="94.59" x2="53.5" y2="94.59" xlink:href="#linear-gradient"/><linearGradient id="linear-gradient-6" x1="39.62" y1="111.08" x2="48.97" y2="111.08" xlink:href="#linear-gradient"/><linearGradient id="linear-gradient-7" x1="35.58" y1="99.08" x2="56" y2="99.08" xlink:href="#linear-gradient"/><linearGradient id="linear-gradient-8" x1="51.56" y1="113.43" x2="53.59" y2="113.43" xlink:href="#linear-gradient"/><linearGradient id="linear-gradient-9" x1="51.56" y1="117.97" x2="53.59" y2="117.97" xlink:href="#linear-gradient"/><linearGradient id="linear-gradient-10" x1="53.65" y1="115.04" x2="55.92" y2="115.04" xlink:href="#linear-gradient"/><linearGradient id="linear-gradient-11" x1="34.71" y1="101.3" x2="51.11" y2="103.96" xlink:href="#linear-gradient"/><linearGradient id="linear-gradient-12" x1="37.52" y1="112.14" x2="42.45" y2="112.14" xlink:href="#linear-gradient"/><linearGradient id="linear-gradient-13" x1="36.43" y1="104.09" x2="40.05" y2="104.09" xlink:href="#linear-gradient"/><linearGradient id="linear-gradient-14" x1="32.34" y1="118.45" x2="37.66" y2="118.45" xlink:href="#linear-gradient"/><linearGradient id="linear-gradient-15" x1="36.15" y1="111.71" x2="38.82" y2="111.71" xlink:href="#linear-gradient"/><linearGradient id="linear-gradient-16" x1="40.01" y1="105.45" x2="42.96" y2="105.45" xlink:href="#linear-gradient"/><linearGradient id="linear-gradient-17" x1="28.75" y1="105.25" x2="31.63" y2="105.25" xlink:href="#linear-gradient"/><linearGradient id="linear-gradient-18" x1="39.1" y1="124.89" x2="44.69" y2="124.89" xlink:href="#linear-gradient"/></defs><title>ic_material_product_icon_192px</title><g id="Layer_21" data-name="Layer 21"><path class="cls-1" d="M24.43,123.47a57.13,57.13,0,0,1-13.49-16.22A60.36,60.36,0,0,1,4,87.09a58.89,58.89,0,0,1-.67-10.71A68.08,68.08,0,0,1,4.66,65.73,54.31,54.31,0,0,1,12.92,46a53.7,53.7,0,0,1,6.84-8.26A50.94,50.94,0,0,1,28,30.9,50,50,0,0,1,37.54,26a61,61,0,0,1,10.24-2.91,54.94,54.94,0,0,1,40.63,8.75,62.88,62.88,0,0,1,8.26,6.77,58.66,58.66,0,0,1,6.92,8.16,60.88,60.88,0,0,1,10.56,40.83,57.35,57.35,0,0,1-6,20.62l-.56,1.09a1.13,1.13,0,0,0,.05-.25,1.18,1.18,0,0,0-.24-.8c-.22-.23-.12-.11-.06-.08l.55.35,2.22,1.42,4.44,2.85,8.89,5.71c6,3.78,11.81,7.67,17.71,11.5,2.92,2,6,3.75,9,5.59l9,5.55c6,3.73,12,7.39,17.92,11.18l0,0a5.8,5.8,0,0,1,2.1,1.83,4.36,4.36,0,0,1,.81,2.66,5.89,5.89,0,0,1-.78,2.62c-.45.79-.91,1.48-1.36,2.23l-1.37,2.2-.69,1.1-.34.56a2.22,2.22,0,0,1-.43.54,3.84,3.84,0,0,1-2.46,1.09,5.59,5.59,0,0,1-2.62-.55h0L97.72,121.24l.09,0-.45,0,.09,0c-1.7,1.57-3.39,3.19-5.23,4.61a52.81,52.81,0,0,1-5.75,4A51.15,51.15,0,0,1,80.24,133c-2.13.94-4.35,1.63-6.54,2.38l-.09-.24c2.2-.76,4.41-1.45,6.53-2.39A50.69,50.69,0,0,0,92,125.65c1.83-1.42,3.5-3,5.2-4.6l0,0h0l.46,0h0l0,0L170,166.19h0a5.09,5.09,0,0,0,2.41.51,3.37,3.37,0,0,0,2.18-1,4.12,4.12,0,0,0,.69-1l.66-1.12,1.3-2.24c.84-1.5,1.94-2.93,1.91-4.56a4.27,4.27,0,0,0-2.56-3.69h0c-6.15-3.43-12.24-7-18.36-10.48L149,137.3c-3-1.78-6.11-3.51-9.08-5.41-6-3.74-12-7.41-17.92-11.21L113.11,115l-4.46-2.83-2.23-1.42-.57-.36a2.29,2.29,0,0,1-.57-.49,1.59,1.59,0,0,1-.34-1.1,1.84,1.84,0,0,1,.14-.57c.09-.21.14-.29.19-.39l.16-.3.29-.58a58.17,58.17,0,0,0,5.86-19.67A59.61,59.61,0,0,0,87.69,32.84a53.74,53.74,0,0,0-9-5.27A52.5,52.5,0,0,0,58.37,23a50.19,50.19,0,0,0-29.45,9.17,56.65,56.65,0,0,0-22.08,34A65.78,65.78,0,0,0,5.47,76.47,56.12,56.12,0,0,0,6,86.82,63.24,63.24,0,0,0,8.18,97a59.72,59.72,0,0,0,3.93,9.65,61.35,61.35,0,0,0,5.53,8.87c1.05,1.39,2.17,2.74,3.34,4,.6.65,1.19,1.29,1.8,1.92s1.24,1.17,1.89,1.92Z"/></g><g id="Layer_24" data-name="Layer 24"><path class="cls-2" d="M44.49,105.65A26.8,26.8,0,0,1,45.77,111a21.1,21.1,0,0,1,.21,2.76,10.49,10.49,0,0,1-.32,2.82,4.76,4.76,0,0,1-.63,1.38,2.5,2.5,0,0,1-1.29,1,2.79,2.79,0,0,1-1.52,0l-1.34-.31a12.09,12.09,0,0,1-2.62-.89,7,7,0,0,1-2.16-1.79,17,17,0,0,1-4.17-10.21,9.43,9.43,0,0,1,1.62-5.45,10.05,10.05,0,0,1,4.33-3.44l.07.12a12,12,0,0,0-3.54,3.85,9.41,9.41,0,0,0-1.1,4.9,15.93,15.93,0,0,0,1,5.06,21.42,21.42,0,0,0,1,2.41c.43.79.81,1.61,1.28,2.35a5.46,5.46,0,0,0,1.81,1.83,7.47,7.47,0,0,0,2.51.81c.45.07.89.12,1.34.15a2.16,2.16,0,0,0,1.16-.12,2.51,2.51,0,0,0,1.11-1.88,21.46,21.46,0,0,0,.22-5.22c-.1-1.78-.26-3.58-.43-5.38Z"/><path class="cls-3" d="M59.56,124.12a24,24,0,0,1-1-5.32c0-.89,0-1.81-.06-2.7a11.78,11.78,0,0,0-.63-2.62l-1.72-5.06a27,27,0,0,0-2-4.9l.09-.09A9.72,9.72,0,0,1,57.48,108a18.71,18.71,0,0,1,.74,2.66,16.51,16.51,0,0,1,.37,2.71A20.36,20.36,0,0,0,59,116c.18.88.51,1.75.71,2.64a15.12,15.12,0,0,1,0,5.45Z"/><path class="cls-4" d="M31,104.52a5.15,5.15,0,0,1-.3-1.84,5.29,5.29,0,0,1,.26-1.81c.21-.59.58-1.11.8-1.67a14.2,14.2,0,0,0,.58-1.74,4.67,4.67,0,0,1,.33-.88,3.49,3.49,0,0,1,.49-.83,5.48,5.48,0,0,1,1.36-1.4,4.72,4.72,0,0,1,3.75-.56v.13a13.45,13.45,0,0,0-3,1.55,5.9,5.9,0,0,1-.62.5,6.1,6.1,0,0,0-.59.55,6.66,6.66,0,0,0-.56.62,5.89,5.89,0,0,0-.57.65,4.32,4.32,0,0,0-.82,1.54A10.48,10.48,0,0,0,32,101.1a13.68,13.68,0,0,1-.88,3.42Z"/><path class="cls-5" d="M40.62,93.49A5.47,5.47,0,0,1,44,92.3a5.58,5.58,0,0,1,.9.13l.88.15a15,15,0,0,0,1.78.06l.92.06a9,9,0,0,1,.89.24,4.66,4.66,0,0,1,.87.35,3.31,3.31,0,0,1,.8.49,5.35,5.35,0,0,1,2,3l-.11.06c-1-.71-1.74-1.47-2.67-2a17.83,17.83,0,0,0-2.83-1.57A3.75,3.75,0,0,0,45.74,93a7.34,7.34,0,0,0-1.67.37,15.6,15.6,0,0,1-3.4.25Z"/><path class="cls-6" d="M48.2,123.09a47.28,47.28,0,0,1-.5-7c0-1.17.15-2.35.09-3.52a16.91,16.91,0,0,0-.57-3.45c-.32-1.12-.63-2.24-1-3.33A21,21,0,0,0,45,102.67,6,6,0,0,0,43,100.24a4,4,0,0,0-3.15-.38l-.05-.12c.27-.15.54-.28.82-.42a8.06,8.06,0,0,1,.91-.24,3.8,3.8,0,0,1,1.93.26A5.91,5.91,0,0,1,46.2,102a14.2,14.2,0,0,1,1.22,3.45,18.4,18.4,0,0,1,.49,3.54c.08,1.18.13,2.36.3,3.52s.41,2.33.56,3.51a20.91,20.91,0,0,1,0,3.54,19.36,19.36,0,0,1-.49,3.52Z"/><path class="cls-7" d="M55.34,104.17c-1.17-1.66-2.31-3.19-3.51-4.71a11.86,11.86,0,0,0-1.92-2.21,5.59,5.59,0,0,0-1.24-.8,5.46,5.46,0,0,0-1.36-.52,14.32,14.32,0,0,0-5.66-.49l-.71,0c-.24,0-.47.09-.71.12q-.7.12-1.44.21c-.95.19-1.9.45-2.92.6l0-.11a17.48,17.48,0,0,1,2.69-1.47L40,94.35c.25-.07.5-.15.76-.2l.78-.08A13.58,13.58,0,0,1,43.09,94l1.57.21a8,8,0,0,1,1.51.41c.25.09.5.17.73.28l.68.39a10.12,10.12,0,0,1,1.31.79c.41.3.88.52,1.27.84a19.7,19.7,0,0,1,2.47,1.83,9.8,9.8,0,0,1,1.81,2.49,8.8,8.8,0,0,1,1,2.9Z"/><path class="cls-8" d="M52.24,105.42a6.2,6.2,0,0,1,.61,2,8.5,8.5,0,0,1,.13,2c0,.67-.23,1.34-.24,2a8,8,0,0,0,.22,2,15,15,0,0,1,.33,2c.07.66.15,1.33.16,2a16.87,16.87,0,0,1-.44,4h-.13a15,15,0,0,1-.81-4c0-.67,0-1.34,0-2a13.86,13.86,0,0,1,.17-2,7.91,7.91,0,0,0,.07-2c-.07-.67-.3-1.32-.41-2a12.21,12.21,0,0,1,.21-4Z"/><path class="cls-9" d="M52.15,123.46a5.91,5.91,0,0,1-.1-1.43,5.11,5.11,0,0,1,.18-1.35,9.1,9.1,0,0,0,.46-1.33,3.64,3.64,0,0,0-.1-1.39,9.34,9.34,0,0,1-.3-1.35c-.09-.45-.16-.89-.22-1.33a13.31,13.31,0,0,1,0-2.81l.12,0a5.75,5.75,0,0,1,1.2,2.65,7,7,0,0,1-.15,2.88,5.62,5.62,0,0,0-.19,1.4c0,.47.17,1,.19,1.45a4.16,4.16,0,0,1-1,2.68Z"/><path class="cls-10" d="M54.66,124.65a16.74,16.74,0,0,1-.08-4.84c.12-.8.37-1.59.43-2.39a10.81,10.81,0,0,0-.09-2.41c-.12-.8-.24-1.6-.28-2.4s-.16-1.58-.22-2.37c-.08-1.58-.11-3.14-.22-4.78l.12,0a11,11,0,0,1,1.47,4.71,18.19,18.19,0,0,1,.06,2.45,15.37,15.37,0,0,1-.23,2.43,14.1,14.1,0,0,0-.19,2.42c0,.81.18,1.63.22,2.44a13,13,0,0,1-.86,4.79Z"/><path class="cls-11" d="M49.7,108.41c-.38-1.13-.78-2.23-1.18-3.32A27.63,27.63,0,0,0,47.14,102a9.66,9.66,0,0,0-1.85-2.81,3.82,3.82,0,0,0-3.1-1.06h0a8.68,8.68,0,0,0-2.95.81,5.92,5.92,0,0,0-2.28,1.74,7.35,7.35,0,0,0-1.33,2.58,17.55,17.55,0,0,0-.59,3.1h-.13a8.39,8.39,0,0,1-.32-3.32,6,6,0,0,1,1.31-3.24,6.27,6.27,0,0,1,2.94-1.92,8.08,8.08,0,0,1,3.38-.24h0a6.13,6.13,0,0,1,3.47,1.1,8.26,8.26,0,0,1,2.52,2.71,13.35,13.35,0,0,1,1.28,3.4,13.59,13.59,0,0,1,.39,3.59Z"/><path class="cls-12" d="M41.35,108.14a3.66,3.66,0,0,1,.68,1.25,3.7,3.7,0,0,1,.22,1.36c0,.47-.21.94-.24,1.39a7.3,7.3,0,0,0,.08,1.39,2.64,2.64,0,0,1-.19,1.54,1.88,1.88,0,0,1-.59.76,1.68,1.68,0,0,1-1,.31,2.55,2.55,0,0,1-1.53-.62,3.73,3.73,0,0,1-.92-1.14l.08-.11a10.51,10.51,0,0,0,2.34.5.68.68,0,0,0,.55-.3,5.13,5.13,0,0,0,.55-1,2.58,2.58,0,0,0,.2-1.29,7.44,7.44,0,0,0-.41-1.29,4.79,4.79,0,0,1-.14-1.31,5.24,5.24,0,0,1,.18-1.38Z"/><path class="cls-13" d="M39.74,99.89a7.88,7.88,0,0,1-1.05,2,4.24,4.24,0,0,0-.76.87,2.11,2.11,0,0,0-.19,1.12,17,17,0,0,1,0,2.25,7.37,7.37,0,0,1-.19,1.11,5.27,5.27,0,0,1-.36,1.18H37.1a4.5,4.5,0,0,1-.7-2.36,5,5,0,0,1,.19-1.21,4,4,0,0,1,.18-.59c.08-.19.19-.37.29-.56a4.69,4.69,0,0,0,.49-1.1c.1-.38.08-.84.2-1.25a2.31,2.31,0,0,1,.74-1,2,2,0,0,1,1.18-.55Z"/><path class="cls-14" d="M33,113.77a3.89,3.89,0,0,1,.92,1,3.76,3.76,0,0,1,.55,1.14,11,11,0,0,0,.22,1.3,3.26,3.26,0,0,0,.65,1.1,7.56,7.56,0,0,1,.75,1.06,9.32,9.32,0,0,1,.59,1.13,6.58,6.58,0,0,1,.46,2.58l-.11.05a6.68,6.68,0,0,1-1.61-2.07,8.55,8.55,0,0,1-.45-1.19,6.68,6.68,0,0,1-.28-1.27,3.35,3.35,0,0,0-.38-1.22c-.21-.37-.57-.68-.82-1a3.51,3.51,0,0,1-.49-1.18,4.16,4.16,0,0,1-.12-1.34Z"/><path class="cls-15" d="M37.47,110.2s-.19,1.63.44,2.25"/><path class="cls-16" d="M40.25,104.89c.09-.52.53-.73.87-.55.17.11.26.37.37.47a.76.76,0,0,0,.45.16.9.9,0,0,1,.51.23.94.94,0,0,1,.29.4,1,1,0,0,1-.35,1l-.13,0a1.68,1.68,0,0,1-.79-.49c-.06-.07,0-.18,0-.28a1.39,1.39,0,0,1,0-.38c0-.15,0-.28-.16-.29s-.27.14-.35.22-.14,0-.24-.05l-.4-.34Z"/><path class="cls-17" d="M30.19,98.7a10.36,10.36,0,0,1-.13,3.35,10.22,10.22,0,0,0-.44,1.62,4.43,4.43,0,0,0,.15,1.66c.29,1.09.53,2.13.78,3.18s.44,2.08.57,3.27l-.12.06a6.63,6.63,0,0,1-1.79-3A7.76,7.76,0,0,1,29,107.1a8.42,8.42,0,0,1,0-.87c0-.29.07-.58.11-.87a8.17,8.17,0,0,0,.13-1.7c0-.57-.18-1.15-.21-1.73a5.12,5.12,0,0,1,.28-1.69,4.94,4.94,0,0,1,.79-1.57Z"/><path class="cls-18" d="M39.76,120.9a3.59,3.59,0,0,1,.83.88,2.94,2.94,0,0,1,.5,1,8.64,8.64,0,0,0,.21,1.15,2.36,2.36,0,0,0,.67.9,6.76,6.76,0,0,1,.81.79,5.63,5.63,0,0,1,.71.9,4.28,4.28,0,0,1,.66,2.3l-.12.05a6.05,6.05,0,0,1-2.25-2.55,4,4,0,0,1-.42-1.13,3,3,0,0,0-.43-1.07c-.21-.32-.57-.57-.81-.88a2.73,2.73,0,0,1-.44-1.07,2.92,2.92,0,0,1,0-1.22Z"/></g></svg>