<svg xmlns="http://www.w3.org/2000/svg" xmlns:xlink="http://www.w3.org/1999/xlink" viewBox="0 0 192 192"><defs><style>.cls-1{fill:url(#linear-gradient);}.cls-2{fill:url(#linear-gradient-2);}</style><linearGradient id="linear-gradient" x1="3.8" y1="102.27" x2="187.34" y2="102.27" gradientUnits="userSpaceOnUse"><stop offset="0.21" stop-color="#039be5"/><stop offset="0.24" stop-color="#1193dd"/><stop offset="0.43" stop-color="#5c6ab2"/><stop offset="0.6" stop-color="#974991"/><stop offset="0.74" stop-color="#c13278"/><stop offset="0.85" stop-color="#db236a"/><stop offset="0.91" stop-color="#e51e64"/><stop offset="1" stop-color="#e91e63"/></linearGradient><linearGradient id="linear-gradient-2" x1="83.56" y1="17.05" x2="21.74" y2="37.7" xlink:href="#linear-gradient"/></defs><title>Artboard 6</title><g id="Layer_15" data-name="Layer 15"><path class="cls-1" d="M33.43,57.28a3.78,3.78,0,0,0,3,1.17,3.22,3.22,0,0,0,1.57-.55,5.3,5.3,0,0,0,1.2-1.21q2.23-2.71,4.58-5.34c.78-.87,1.57-1.74,2.37-2.59a26.86,26.86,0,0,1,2.54-2.46,37.6,37.6,0,0,1,6.07-3.6c8.42-4.16,17.24-7.36,26-10.62A22.27,22.27,0,0,1,84.23,31a13.63,13.63,0,0,1,7.13.43c1.13.36,2.25.77,3.34,1.24a44.74,44.74,0,0,1,11.94,7.59c1.79,1.55,3.42,3.3,5,4.95a66.75,66.75,0,0,0,5.14,4.68,46.84,46.84,0,0,0,5.64,4,31.18,31.18,0,0,0,3,1.59l.39.17.44.21a7.35,7.35,0,0,1,.85.51,7.5,7.5,0,0,1,3.09,4.87c.05.33.08.66.1,1s0,.61,0,.92a14.79,14.79,0,0,1-.13,1.86,6.89,6.89,0,0,1-1.47,3.71,3.88,3.88,0,0,1-1.92,1.18,4.49,4.49,0,0,1-2.12,0,6.85,6.85,0,0,1-1-.23l-.87-.31a18.1,18.1,0,0,1-1.69-.69c-1.11-.46-2.15-1-3.22-1.53-2.09-1.1-4.16-2.24-6.19-3.42-8.13-4.72-16-9.76-23.9-14.88l-1.47-1c-.23-.15-.52-.35-.7-.45a3.32,3.32,0,0,0-.6-.29,3.6,3.6,0,0,0-3.7.72,3.42,3.42,0,0,0-.44.49l-.52.7-2.09,2.82-1,1.41-.53.7c-.12.21-.28.39-.38.6a5.32,5.32,0,0,0,.15,5.46,5.06,5.06,0,0,0,.93,1.08,4.9,4.9,0,0,0,.57.45l.72.49Q90.41,70,101.81,78.23T124.13,95.4c1.82,1.47,3.58,3,5.38,4.55l2.63,2.35c.87.79,1.75,1.57,2.59,2.4s1.7,1.63,2.53,2.47l2.44,2.58c.8.88,1.53,1.83,2.29,2.74s1.41,1.84,2.17,2.72,1.52,1.72,2.33,2.53L149,120.2l5,4.92,2.51,2.47a26.58,26.58,0,0,1,2.37,2.71c.73,1,1.36,2,2,3l1.89,3,7.56,11.84a17.64,17.64,0,0,0,4.49,5.11,20.45,20.45,0,0,0,6,3.29,8.67,8.67,0,0,1,3.25,1.73,8.27,8.27,0,0,1,1.22,1.39,7.08,7.08,0,0,1,1,1.58,3,3,0,0,1-1.23,3.62,3,3,0,0,1-2,.42l-1.74-.21-13.95-1.69-1.74-.21a11.74,11.74,0,0,1-1.79-.3,7.32,7.32,0,0,1-3.19-1.84,7.72,7.72,0,0,1-1.14-1.47c-.31-.55-.54-1.08-.79-1.61l-1.54-3.14a133.73,133.73,0,0,0-6.86-12.2,68.83,68.83,0,0,0-4-5.69,30.84,30.84,0,0,0-4.77-5l-.66-.55-.72-.46-1.45-.95-3-1.9-5.92-3.79-23.67-15.15.07,0a25.92,25.92,0,0,1-3.07-2,2.23,2.23,0,0,0-1.21-.5c-.22,0-.51.27-.78.71l0-.1L99.65,111l0,0,0,0a2.4,2.4,0,0,0-.32,1.23l0-.15,5.9,28.48,0,.08v.1a4.36,4.36,0,0,0,2,3.66,4.25,4.25,0,0,0,2,.66c.78,0,1.74,0,2.6,0l10.6.06,10.6.07,5.3,0h1.32a7,7,0,0,1,1.55.16,6.79,6.79,0,0,1,4.74,3.87,22.72,22.72,0,0,1,.82,2.71l1.38,5.11,2.74,10.24a5.17,5.17,0,0,1-.29,3.42,5.28,5.28,0,0,1-2.37,2.46,4.71,4.71,0,0,1-3.5.28,7,7,0,0,1-2.7-1.71,14.86,14.86,0,0,1-1.85-2.24,14.68,14.68,0,0,0-1.5-2,13.82,13.82,0,0,0-3.76-3,11.88,11.88,0,0,0-4.55-1.37,9.68,9.68,0,0,0-1.21,0l-1.24,0c-.89.06-1.8.12-2.75.11l-10.63-.53-21.14-1.09-.34,0c-.16,0-.29,0-.44,0a6.5,6.5,0,0,1-.79-.14,8.18,8.18,0,0,1-1.48-.45,10,10,0,0,1-2.63-1.52A13.61,13.61,0,0,1,84.1,155a21.55,21.55,0,0,1-1.82-5.35c-.37-1.86-.59-3.58-.85-5.32-1-7-2.19-13.93-3.53-20.83h0l0-.11a10.32,10.32,0,0,0-.53-1.89,13.67,13.67,0,0,0-.87-1.91,16.37,16.37,0,0,0-2.5-3.43,18.57,18.57,0,0,0-3.27-2.78,31.51,31.51,0,0,0-3.85-2.21l-16.37-8.45,1.85-1.83,16.5,33.38-.1-.16a44.26,44.26,0,0,0,4.16,5c.39.4.76.75,1.17,1.16a8.14,8.14,0,0,1,1.26,1.55,8.45,8.45,0,0,1,.67,7.63c-.12.31-.28.6-.43.9l-.26.42-.13.21a1.89,1.89,0,0,1-.2.27,3.19,3.19,0,0,1-2.4,1.14,2.53,2.53,0,0,1-.68-.07l-.44-.1c-.29-.06-.58-.14-.87-.22-.57-.16-1.14-.34-1.7-.54a23.64,23.64,0,0,1-3.24-1.47,21.62,21.62,0,0,1-7.81-7.18c-.33-.5-.61-1-.92-1.53l-.8-1.5-6.28-12-6.26-12-3.12-6a39.34,39.34,0,0,0-3.6-5.58l-2.1-2.63c-.7-.89-1.43-1.73-2.12-2.71A16,16,0,0,1,30,92.41a16.87,16.87,0,0,1,.35-6.94l1.47-6.61.57.59a33.25,33.25,0,0,1-9.08-.08,25.62,25.62,0,0,1-8.61-2.76,20,20,0,0,1-6.76-6l-1.18-2a21.34,21.34,0,0,1-1-2,13.09,13.09,0,0,1-.91-4.46A9.1,9.1,0,0,1,6,57.75a12,12,0,0,1,2.94-3.47,17.51,17.51,0,0,1,3.84-2.39,13.85,13.85,0,0,1,4.38-1.16,15.18,15.18,0,0,1,4.51.24,25.58,25.58,0,0,1,4.29,1.39A21.4,21.4,0,0,1,33.43,57.28Zm-.19.18a21.47,21.47,0,0,0-7.42-4.8,26.74,26.74,0,0,0-4.24-1.34,14.78,14.78,0,0,0-4.4-.2,13.61,13.61,0,0,0-4.25,1.15,18,18,0,0,0-3.72,2.36A11.26,11.26,0,0,0,6.41,58a8.63,8.63,0,0,0-1,4.19,12.36,12.36,0,0,0,.9,4.27,19,19,0,0,0,1,2L8.43,70.3A18.74,18.74,0,0,0,15,76a25.15,25.15,0,0,0,8.4,2.53,32.41,32.41,0,0,0,8.8-.07l.71-.1-.14.7L31.46,85.7a15.53,15.53,0,0,0-.23,6.5,14.8,14.8,0,0,0,2.51,5.93c.62.85,1.39,1.71,2.11,2.58s1.44,1.72,2.17,2.62a40.82,40.82,0,0,1,3.84,5.72l3.25,6,6.48,11.89,6.46,11.9.81,1.48c.28.45.53.92.84,1.36a20,20,0,0,0,2,2.5A19.48,19.48,0,0,0,66.76,148a21.19,21.19,0,0,0,2.93,1.29c.51.17,1,.33,1.53.47.26.06.52.14.78.19l.39.09h.16a.78.78,0,0,0,.56-.29l0-.06.08-.15.18-.3a5.24,5.24,0,0,0,.29-.64,5.83,5.83,0,0,0,.39-2.74,5.92,5.92,0,0,0-.91-2.61,6,6,0,0,0-.89-1.07c-.39-.37-.84-.8-1.24-1.21a45.38,45.38,0,0,1-4.5-5.34l0-.07,0-.1L49.88,102.12,48,98.38l3.71,1.9,16.42,8.44c.69.36,1.36.66,2.07,1.09a20.39,20.39,0,0,1,2.08,1.28A21.23,21.23,0,0,1,76,114.26a19.12,19.12,0,0,1,2.92,4,18.82,18.82,0,0,1,1,2.28,13.39,13.39,0,0,1,.69,2.54l0-.11c1.36,7,2.56,14,3.59,21,.25,1.76.48,3.54.79,5.15a18.52,18.52,0,0,0,1.56,4.66,10.86,10.86,0,0,0,2.86,3.67,6.9,6.9,0,0,0,4,1.59l21.19,1.2,10.54.58c.82,0,1.67,0,2.55-.09l1.41,0a10,10,0,0,1,1.44,0,14.37,14.37,0,0,1,5.52,1.69A16.5,16.5,0,0,1,140.6,166a19.06,19.06,0,0,1,1.69,2.24,12.13,12.13,0,0,0,1.51,1.86,4.78,4.78,0,0,0,1.71,1.14,2.26,2.26,0,0,0,1.65-.13,2.8,2.8,0,0,0,1.24-1.28,2.67,2.67,0,0,0,.16-1.76l-2.67-10.26-1.33-5.13a23.32,23.32,0,0,0-.67-2.38,4.44,4.44,0,0,0-1.26-1.68,4.57,4.57,0,0,0-1.88-.94,5.25,5.25,0,0,0-1.08-.12l-1.33,0-5.3-.09-10.6-.17-10.6-.17c-.9,0-1.71,0-2.7-.06a6.12,6.12,0,0,1-2.93-1,6.21,6.21,0,0,1-2.85-5.24l0,.18-5.61-28.54v-.15a3.85,3.85,0,0,1,.55-2l0,.09,1.58-3.77,0-.07,0,0a4.53,4.53,0,0,1,.7-.87,3.07,3.07,0,0,1,.55-.36,2.06,2.06,0,0,1,.68-.17,3.43,3.43,0,0,1,2.09.76,26,26,0,0,0,2.9,2l0,0,0,0,23.49,15.4,5.87,3.84,2.94,1.92,1.49,1,.75.5.7.57a32.23,32.23,0,0,1,4.89,5.16,69.93,69.93,0,0,1,4.07,5.78,133.31,133.31,0,0,1,6.86,12.3l1.53,3.17c.25.53.49,1.08.76,1.55a6.26,6.26,0,0,0,1,1.3,6.45,6.45,0,0,0,2.82,1.65,11.72,11.72,0,0,0,1.66.28l1.75.2,13.95,1.62,1.75.2a2,2,0,0,0,1.38-.3,2.13,2.13,0,0,0,.85-2.53,6.37,6.37,0,0,0-.9-1.33,7.08,7.08,0,0,0-1.1-1.25,7.8,7.8,0,0,0-2.91-1.52A21.18,21.18,0,0,1,174.2,154a18.42,18.42,0,0,1-4.76-5.35l-7.68-11.76-1.93-2.93c-.65-1-1.26-2-2-2.85a24,24,0,0,0-2.29-2.54l-2.53-2.43L148,121.25l-2.53-2.42c-.87-.83-1.69-1.7-2.47-2.6s-1.51-1.87-2.25-2.75-1.46-1.77-2.25-2.61l-2.41-2.49c-.83-.82-1.69-1.6-2.53-2.4s-1.71-1.57-2.59-2.34l-2.64-2.3c-1.8-1.48-3.56-3-5.4-4.44-7.28-5.85-14.82-11.38-22.4-16.85s-15.29-10.77-23.07-16l-.73-.49a8.44,8.44,0,0,1-.81-.64,7.79,7.79,0,0,1-1.35-1.57,7.69,7.69,0,0,1-1.22-3.91,7.55,7.55,0,0,1,1-4,8,8,0,0,1,.56-.87l.52-.71,1-1.4,2.11-2.81.54-.71a7.86,7.86,0,0,1,.73-.8A6.06,6.06,0,0,1,81.65,45a5.93,5.93,0,0,1,4.27,0,5.28,5.28,0,0,1,1,.49c.33.19.51.33.77.5l1.46,1c7.79,5.16,15.65,10.26,23.68,15q3,1.79,6.08,3.43c1,.51,2,1.09,3.08,1.54.52.23,1,.49,1.56.67l.77.29a5.82,5.82,0,0,0,.72.18,2.31,2.31,0,0,0,2.38-.59,5.17,5.17,0,0,0,1.08-2.72,14.7,14.7,0,0,0,.14-1.64,9.16,9.16,0,0,0-.06-1.6,5.8,5.8,0,0,0-1.23-2.77,5.58,5.58,0,0,0-1.11-1.06c-.21-.15-.43-.28-.65-.41l-.35-.17-.41-.19a31.93,31.93,0,0,1-3.15-1.73A47.89,47.89,0,0,1,115.92,51a69.87,69.87,0,0,1-5.16-4.87c-1.63-1.72-3.16-3.42-4.89-5a44,44,0,0,0-11.54-7.62c-1.06-.47-2.14-.89-3.23-1.26a12.82,12.82,0,0,0-6.72-.52,21.62,21.62,0,0,0-3.32,1c-4.42,1.51-8.83,3.1-13.18,4.81S59.19,41,55,43.09a37.09,37.09,0,0,0-6,3.52A24.74,24.74,0,0,0,46.48,49c-.81.84-1.61,1.7-2.39,2.57q-2.36,2.59-4.6,5.3a5.84,5.84,0,0,1-1.27,1.26,3.51,3.51,0,0,1-1.71.59A4,4,0,0,1,33.24,57.46Z"/><path class="cls-2" d="M73.47,31.06a30.87,30.87,0,0,1,2-4.55,24.41,24.41,0,0,1,2.71-4.24,6.7,6.7,0,0,0,1.34-4.11,6.48,6.48,0,0,0-.1-1.08l-.11-.6-.11-.65c-.12-.86-.17-1.68-.25-2.48a29.47,29.47,0,0,0-.85-4.7c-.32-1.54-1-2.41-2.18-2.72a8,8,0,0,0-4.15.44,24.2,24.2,0,0,0-4.25,2A30,30,0,0,0,63.56,11a20.66,20.66,0,0,0-1.77,1.59c-.52.53-1.11,1.23-1.75,1.8a17.32,17.32,0,0,1-9.17,4.19,44.83,44.83,0,0,0-9.42,2.65,22.33,22.33,0,0,0-8,5.25,10.71,10.71,0,0,0-2.31,3.93l-.18.53c0,.18-.06.37-.1.56l-.18,1.1v1.13c0,.37,0,.73,0,1.17A47.29,47.29,0,0,1,30.88,40a15.41,15.41,0,0,1-1,5.21c-.31.83-.62,1.52-.81,2.21a10.34,10.34,0,0,0-.35,2.18l0,.54a.27.27,0,0,0,0-.18.29.29,0,0,0-.32-.15.37.37,0,0,0-.19.08l.35-.41.82-.94a92.68,92.68,0,0,1,7-7.18c1.25-1.13,2.53-2.22,3.89-3.24a26.47,26.47,0,0,1,4.38-2.78,12.18,12.18,0,0,1,2.56-.95,6.22,6.22,0,0,1,3-.06,26.28,26.28,0,0,0,4.65.89,17.81,17.81,0,0,0,2.31,0c.74,0,1.59-.17,2.39-.27,1.62-.22,3.23-.48,4.84-.79s3.2-.65,4.76-1.09A12.46,12.46,0,0,0,73.47,31.06Zm.22.14a11.26,11.26,0,0,1-4.29,2.65,38.28,38.28,0,0,1-4.74,1.6c-1.6.45-3.22.84-4.85,1.2-.82.17-1.59.35-2.49.49a14.38,14.38,0,0,1-2.62.13,26.78,26.78,0,0,1-5.1-.71,6.4,6.4,0,0,0-3.86,1,40.62,40.62,0,0,0-7.51,5.82c-2.38,2.19-4.62,4.56-6.84,6.95l-.82.9-.21.23-.1.11-.17.17a2.37,2.37,0,0,1-3.71-.41A2.31,2.31,0,0,1,26,50l.06-.7a13.39,13.39,0,0,1,.52-2.67,25.29,25.29,0,0,1,.95-2.41c1.14-2.71,1.1-6,1.05-9.24,0-.39,0-.85,0-1.3s0-.89.08-1.34L29,31c.06-.22.1-.44.17-.65l.26-.62a12.38,12.38,0,0,1,3-4.32,25.2,25.2,0,0,1,8.7-5.07,61.87,61.87,0,0,1,9.6-2.67,15.8,15.8,0,0,0,4.54-1.53A14.39,14.39,0,0,0,59,13.31c.55-.57,1-1.17,1.56-1.87a22.22,22.22,0,0,1,1.77-1.86,28.53,28.53,0,0,1,4-3.16A21.72,21.72,0,0,1,71,4.1a9.53,9.53,0,0,1,5.55-.46,5,5,0,0,1,2.63,1.77c.15.22.29.45.43.67l.32.7.22.7c.06.23.1.42.16.63a31.26,31.26,0,0,1,.7,5.06l.13,2.45.06.57.07.63a9.1,9.1,0,0,1,0,1.38,8,8,0,0,1-2,5A37.26,37.26,0,0,0,73.69,31.2Z"/></g></svg>