<svg xmlns="http://www.w3.org/2000/svg" xmlns:xlink="http://www.w3.org/1999/xlink" viewBox="0 0 192 192"><defs><style>.cls-1{fill:url(#linear-gradient);}.cls-2{fill:url(#linear-gradient-2);}.cls-3{fill:url(#linear-gradient-3);}.cls-4{fill:url(#linear-gradient-4);}.cls-5{fill:url(#linear-gradient-5);}.cls-6{fill:url(#linear-gradient-6);}.cls-7{fill:url(#linear-gradient-7);}.cls-8{fill:url(#linear-gradient-8);}.cls-9{fill:url(#linear-gradient-9);}.cls-10{fill:url(#linear-gradient-10);}.cls-11{fill:url(#linear-gradient-11);}.cls-12{fill:url(#linear-gradient-12);}.cls-13{fill:url(#linear-gradient-13);}.cls-14{fill:url(#linear-gradient-14);}.cls-15{fill:url(#linear-gradient-15);}.cls-16{fill:url(#linear-gradient-16);}.cls-17{fill:url(#linear-gradient-17);}.cls-18{fill:url(#linear-gradient-18);}.cls-19{fill:url(#linear-gradient-19);}</style><linearGradient id="linear-gradient" x1="8.5" y1="95.54" x2="179.71" y2="95.54" gradientUnits="userSpaceOnUse"><stop offset="0.21" stop-color="#039be5"/><stop offset="0.24" stop-color="#1193dd"/><stop offset="0.43" stop-color="#5c6ab2"/><stop offset="0.6" stop-color="#974991"/><stop offset="0.74" stop-color="#c13278"/><stop offset="0.85" stop-color="#db236a"/><stop offset="0.91" stop-color="#e51e64"/><stop offset="1" stop-color="#e91e63"/></linearGradient><linearGradient id="linear-gradient-2" x1="26.06" y1="59.48" x2="45.49" y2="59.48" xlink:href="#linear-gradient"/><linearGradient id="linear-gradient-3" x1="77.62" y1="51.95" x2="121.31" y2="51.95" xlink:href="#linear-gradient"/><linearGradient id="linear-gradient-4" x1="104.63" y1="53.86" x2="117.21" y2="53.86" xlink:href="#linear-gradient"/><linearGradient id="linear-gradient-5" x1="106.02" y1="53.72" x2="111.34" y2="53.72" xlink:href="#linear-gradient"/><linearGradient id="linear-gradient-6" x1="109.98" y1="54.03" x2="115.82" y2="54.03" xlink:href="#linear-gradient"/><linearGradient id="linear-gradient-7" x1="94.16" y1="63.81" x2="106.75" y2="63.81" xlink:href="#linear-gradient"/><linearGradient id="linear-gradient-8" x1="95.59" y1="66.15" x2="105.32" y2="66.15" xlink:href="#linear-gradient"/><linearGradient id="linear-gradient-9" x1="95.68" y1="61.31" x2="105.1" y2="61.31" xlink:href="#linear-gradient"/><linearGradient id="linear-gradient-10" x1="98.44" y1="41" x2="111.03" y2="41" xlink:href="#linear-gradient"/><linearGradient id="linear-gradient-11" x1="100.22" y1="39.58" x2="109.61" y2="39.58" xlink:href="#linear-gradient"/><linearGradient id="linear-gradient-12" x1="99.85" y1="43.03" x2="108.44" y2="43.03" xlink:href="#linear-gradient"/><linearGradient id="linear-gradient-13" x1="84.17" y1="42.91" x2="96.76" y2="42.91" xlink:href="#linear-gradient"/><linearGradient id="linear-gradient-14" x1="85.58" y1="42.43" x2="94.57" y2="42.43" xlink:href="#linear-gradient"/><linearGradient id="linear-gradient-15" x1="88.44" y1="44.45" x2="95.35" y2="44.45" xlink:href="#linear-gradient"/><linearGradient id="linear-gradient-16" x1="81.54" y1="57.02" x2="94.14" y2="57.02" xlink:href="#linear-gradient"/><linearGradient id="linear-gradient-17" x1="82.92" y1="57.19" x2="90.63" y2="57.19" xlink:href="#linear-gradient"/><linearGradient id="linear-gradient-18" x1="87.64" y1="56.23" x2="92.71" y2="56.23" xlink:href="#linear-gradient"/><linearGradient id="linear-gradient-19" x1="94.6" y1="51.91" x2="103.72" y2="51.91" xlink:href="#linear-gradient"/></defs><title>Artboard 10</title><g id="Layer_19" data-name="Layer 19"><path class="cls-1" d="M44.85,86.88l36.83-.07h8.06a.79.79,0,0,0,.75-.51.8.8,0,0,0-.23-.88,7,7,0,0,0-1-.48L87.15,84c-1.41-.61-2.76-1.36-4.14-2A44.75,44.75,0,0,1,68.87,70.23a30.13,30.13,0,0,1-4.5-8.09A30.75,30.75,0,0,1,62.59,53a41.39,41.39,0,0,1,4.07-18A43.63,43.63,0,0,1,68.87,31L70.2,29c.22-.32.43-.65.67-1l.75-.9a32.86,32.86,0,0,1,6.83-6.33,35.3,35.3,0,0,1,17.42-6.18,40.43,40.43,0,0,1,4.67-.07c.78.05,1.56,0,2.33.14l2.32.32a22.13,22.13,0,0,1,2.29.47,19.27,19.27,0,0,1,2.26.6l2.23.74,2.15.94a34.37,34.37,0,0,1,14,12l.67,1c.21.32.39.67.59,1l1.16,2a44.89,44.89,0,0,1,1.87,4.27,46.81,46.81,0,0,1,2.41,9,33.21,33.21,0,0,1,.07,9.34,29.26,29.26,0,0,1-2.82,8.9,35.33,35.33,0,0,1-2.34,4A41.05,41.05,0,0,1,126.87,73a44.54,44.54,0,0,1-3.29,3.3c-1.22,1-2.36,2-3.66,2.88A55.58,55.58,0,0,1,112,84l-2.11,1-1,.48c-.32.13-.44.25-.5.49a.63.63,0,0,0,.17.62c.17.16.36.17.8.18.77,0,1.54.08,2.32.15a23.38,23.38,0,0,1,9,2.28,17.06,17.06,0,0,1,6.81,6.35,20,20,0,0,1,2.53,8.94c.24,3.09.1,6.17.17,9.22l-.31-.33a64.77,64.77,0,0,0,8.79.43,20.07,20.07,0,0,0,4.29-.67,13.57,13.57,0,0,0,3.93-1.79,15.48,15.48,0,0,0,3.23-2.88c.92-1.1,1.79-2.34,2.77-3.44a79.17,79.17,0,0,1,6.28-6.28l3.23-3c.55-.51,1-1,1.62-1.53a6.86,6.86,0,0,1,2-1.09,22.52,22.52,0,0,1,4.31-1.16,21.38,21.38,0,0,1,4.45-.34A6.77,6.77,0,0,1,177,92a3.13,3.13,0,0,1,1.49,1.78,11.64,11.64,0,0,1,.66,4.44l0,8.85.11,35.4c0,5.9.09,11.81,0,17.71,0,1.47,0,2.94.05,4.41a12.08,12.08,0,0,1-.25,4.53A3.48,3.48,0,0,1,177.5,171a6.23,6.23,0,0,1-2.24.71,22,22,0,0,1-4.51.09,14.78,14.78,0,0,1-4.42-1,12.66,12.66,0,0,1-3.82-2.47,21.41,21.41,0,0,1-1.54-1.64l-1.5-1.61q-1.51-1.6-3.07-3.18l-6.22-6.29a22.24,22.24,0,0,0-6.94-5.09,14.75,14.75,0,0,0-8.37-1.07l-1.05.2-1,.27a2.92,2.92,0,0,0-1.57,1,4,4,0,0,0-.82,1.74c-.11.68-.2,1.41-.25,2.13-.23,2.88,0,5.9-.79,8.9a15.31,15.31,0,0,1-4.51,7.86,18,18,0,0,1-8.23,3.8,55.85,55.85,0,0,1-8.89,1c-5.93.23-11.82.2-17.73.25l-35.4-.08-8.85,0c-2.94,0-5.91.09-8.89-.07-1.48,0-3-.22-4.46-.36a39.8,39.8,0,0,1-4.43-.86,17.85,17.85,0,0,1-8-4.21,16.75,16.75,0,0,1-4.43-7.94,42.77,42.77,0,0,1-1.23-8.9c-.23-5.94.1-11.86.36-17.75a141.91,141.91,0,0,0,0-17.62c-.33-5.9-.64-11.87.44-17.83a17.63,17.63,0,0,1,3.68-8.31,17.47,17.47,0,0,1,7.59-5c.71-.25,1.43-.47,2.14-.7.46-.15.46-.15.56-.27a.37.37,0,0,0,0-.39.38.38,0,0,0-.14-.14L28.46,86l-1.06-.37c-.7-.26-1.4-.54-2.09-.83A28.9,28.9,0,0,1,17.67,80,25.52,25.52,0,0,1,12.13,73,26.8,26.8,0,0,1,12,47,25.78,25.78,0,0,1,25,35.18a29.8,29.8,0,0,1,17.55-1.55A25.21,25.21,0,0,1,57,43.46,30.85,30.85,0,0,1,62.82,60a22.51,22.51,0,0,1-1.52,8.71,26,26,0,0,1-4.59,7.56,33.35,33.35,0,0,1-6.65,5.84,39.29,39.29,0,0,1-3.8,2.27c-.65.34-1.36.65-1.95,1a.84.84,0,0,0,.54,1.47Zm0,.14a1,1,0,0,1-.64-1.72c.66-.41,1.32-.69,2-1A37.9,37.9,0,0,0,50,82a32.69,32.69,0,0,0,6.59-5.83,25.46,25.46,0,0,0,4.52-7.51A22.19,22.19,0,0,0,62.54,60a30.06,30.06,0,0,0-5.85-16.34,24.74,24.74,0,0,0-14.27-9.52,29.27,29.27,0,0,0-17.15,1.67A25,25,0,0,0,12.73,47.43a26.78,26.78,0,0,0-2.62,16.88,26.47,26.47,0,0,0,3,8.11,24.21,24.21,0,0,0,5.36,6.74,27.2,27.2,0,0,0,7.36,4.5c.66.29,1.34.55,2,.79l1,.35c.19.07.29.09.6.22a1.63,1.63,0,0,1,.67,2.31,1.55,1.55,0,0,1-.65.62,2.23,2.23,0,0,1-.37.14l-.26.09c-.68.23-1.38.44-2.05.69a16.13,16.13,0,0,0-7,4.66,16.85,16.85,0,0,0-3.36,7.7c-1,5.69-.76,11.62-.43,17.48a144.16,144.16,0,0,1,0,17.76c-.27,5.9-.6,11.78-.37,17.64a41,41,0,0,0,1.16,8.59A15.36,15.36,0,0,0,20.84,170a16.63,16.63,0,0,0,7.46,3.89,37.52,37.52,0,0,0,4.25.82c1.45.14,2.9.32,4.36.35,2.92.17,5.85.09,8.81.08l8.86,0,35.4.11c5.89,0,11.81,0,17.67-.23a55.68,55.68,0,0,0,8.69-1A16.59,16.59,0,0,0,124,170.6a14.12,14.12,0,0,0,4.2-7.24c.72-2.75.56-5.71.8-8.7.06-.75.15-1.48.29-2.26a5,5,0,0,1,1.06-2.22,4,4,0,0,1,2.11-1.32l1.11-.27,1.12-.21a15.78,15.78,0,0,1,8.94,1.2,23.24,23.24,0,0,1,7.22,5.34l6.18,6.33c1,1.06,2.06,2.12,3.07,3.2l1.5,1.65a18.64,18.64,0,0,0,1.48,1.58,12.32,12.32,0,0,0,7.72,3.31,21.59,21.59,0,0,0,4.33-.06c1.39-.17,2.76-.76,3.17-2.07a11.92,11.92,0,0,0,.22-4.25c0-1.48,0-3,0-4.44.12-5.9.06-11.79.08-17.7l0-35.4V98.22A11.12,11.12,0,0,0,178,94a2.76,2.76,0,0,0-1.25-1.55,6.53,6.53,0,0,0-2.08-.42,20.62,20.62,0,0,0-4.36.33,21.88,21.88,0,0,0-4.21,1.16,6.38,6.38,0,0,0-1.87,1c-.53.46-1.05,1-1.59,1.52l-3.23,3a83.34,83.34,0,0,0-6.2,6.27c-1,1.11-1.79,2.29-2.75,3.46a16,16,0,0,1-3.34,3,14.68,14.68,0,0,1-4.08,1.88,20.88,20.88,0,0,1-4.43.71,65.55,65.55,0,0,1-8.88-.38l-.3,0v-.3c-.08-3.08,0-6.16-.21-9.19a19.22,19.22,0,0,0-2.48-8.59,16.27,16.27,0,0,0-6.51-6,22.85,22.85,0,0,0-8.72-2.15c-.76-.06-1.52-.1-2.29-.13a4.23,4.23,0,0,1-.64,0,1.49,1.49,0,0,1-.72-.36,1.55,1.55,0,0,1-.44-1.48,1.59,1.59,0,0,1,1-1.11l1-.48,2.08-1a54.61,54.61,0,0,0,7.8-4.71c1.27-.84,2.38-1.88,3.57-2.83a42.26,42.26,0,0,0,3.19-3.23,38.65,38.65,0,0,0,2.82-3.56,34.57,34.57,0,0,0,2.25-3.92,28.23,28.23,0,0,0,2.67-8.59,31.63,31.63,0,0,0-.1-9,45.5,45.5,0,0,0-2.39-8.75,42.41,42.41,0,0,0-1.84-4.14l-1.13-2c-.2-.32-.37-.66-.58-1l-.65-.93a33.43,33.43,0,0,0-6-6.71,32.74,32.74,0,0,0-7.56-4.89L111.52,18l-2.14-.72a16.31,16.31,0,0,0-2.18-.59,21.2,21.2,0,0,0-2.21-.47l-2.24-.32c-.75-.11-1.51-.09-2.26-.14a40.27,40.27,0,0,0-4.53,0,34.37,34.37,0,0,0-16.9,5.91,33,33,0,0,0-6.67,6.1l-.73.86c-.24.29-.45.61-.67.92l-1.31,1.85A41.74,41.74,0,0,0,63.32,53a29.11,29.11,0,0,0,6,16.88A44.17,44.17,0,0,0,83.2,81.63c1.36.7,2.69,1.45,4.09,2.08l2.1.93a7.06,7.06,0,0,1,1.07.53,1.12,1.12,0,0,1,.31,1.22,1.09,1.09,0,0,1-1,.7H81.68Z"/><path class="cls-2" d="M33.6,68.42a8.57,8.57,0,0,0,6.62-1.3A9.49,9.49,0,0,0,44,61.83a8.84,8.84,0,0,0-.63-6.6A8,8,0,0,0,38,51.28a8.77,8.77,0,0,0-6.37,1.27,9.61,9.61,0,0,0-2.38,2.25,8.81,8.81,0,0,0-1.4,2.91,3,3,0,0,0-.18.78c0,.27-.1.53-.12.8a9.72,9.72,0,0,0,.06,1.62,10,10,0,0,0,.94,3.18c.24.51.57,1,.87,1.48a7.62,7.62,0,0,0,1.13,1.28A6.89,6.89,0,0,0,33.6,68.42Zm0,.13a9.23,9.23,0,0,1-3.3-1.39A7.82,7.82,0,0,1,28.88,66c-.38-.47-.82-.91-1.17-1.42a8.66,8.66,0,0,1-1.36-7.24l.28-.92.4-.88a4.9,4.9,0,0,1,.47-.83c.18-.26.34-.54.54-.78a10.75,10.75,0,0,1,2.85-2.49,9.06,9.06,0,0,1,7.26-.89A10.15,10.15,0,0,1,43.72,55a10.75,10.75,0,0,1,1.35,3.39,10.27,10.27,0,0,1,0,3.71,8.17,8.17,0,0,1-4.44,5.79A11.1,11.1,0,0,1,33.57,68.55Z"/><path class="cls-3" d="M120.54,51.89a20,20,0,0,0-6.44-14.62,21.94,21.94,0,0,0-14.61-5.94,20.48,20.48,0,0,0-14.78,5.74,20.13,20.13,0,0,0-6,14.77A21,21,0,0,0,85,66.31a20.71,20.71,0,0,0,14.45,5.93,21.44,21.44,0,0,0,14.62-5.75A20.18,20.18,0,0,0,120.54,51.89Zm.14,0a22.38,22.38,0,0,1-6,15.25A20.48,20.48,0,0,1,107.78,72a21.32,21.32,0,0,1-16.71,0,21.81,21.81,0,0,1-7-4.8,21.23,21.23,0,0,1-6.1-15.42A22.53,22.53,0,0,1,91.25,32a21.58,21.58,0,0,1,8.24-1.82,20.51,20.51,0,0,1,15.24,6.49A22.26,22.26,0,0,1,120.68,51.89Z"/><path class="cls-4" d="M110.87,59.92a6.6,6.6,0,0,1-4.35-1.64,5.61,5.61,0,0,1-1.83-4.38A6.5,6.5,0,0,1,111,47.81,6.1,6.1,0,0,1,117.21,54a5.79,5.79,0,0,1-2,4.35A6.48,6.48,0,0,1,110.87,59.92Zm0-.07a5.39,5.39,0,0,0,4-1.83,6.13,6.13,0,0,0,1.57-4A5.81,5.81,0,0,0,111,48.2a5.36,5.36,0,0,0-4.12,1.6,5.6,5.6,0,0,0-1.57,4.11A6.38,6.38,0,0,0,106.83,58,5.45,5.45,0,0,0,110.87,59.85Z"/><path class="cls-5" d="M109.1,58.07a16.82,16.82,0,0,0,1.52-4.92,10.77,10.77,0,0,0,.17-2.6c0-.22,0-.44-.09-.65a1,1,0,0,0-.08-.28c0-.06-.08-.07-.18-.06a4.17,4.17,0,0,0-1.21.39,4.49,4.49,0,0,0-2.48,4,4.8,4.8,0,0,0,.58,2.36A5,5,0,0,0,109.1,58.07Zm0,.07a4.09,4.09,0,0,1-2.25-1.55,4.77,4.77,0,0,1-.87-2.66,4.56,4.56,0,0,1,3.08-4.33,6.25,6.25,0,0,1,1.35-.29.42.42,0,0,1,.39.19,1.4,1.4,0,0,1,.1.36l.09.66a13.38,13.38,0,0,1,.19,2.69,8.29,8.29,0,0,1-.63,2.64A7.47,7.47,0,0,1,109.12,58.14Z"/><path class="cls-6" d="M110.61,58.48a12.12,12.12,0,0,0,1.55-.39,4.32,4.32,0,0,0,1.34-.76,4.46,4.46,0,0,0,1-1.17,5.89,5.89,0,0,0,.67-1.41,3.61,3.61,0,0,0,.12-1.57,4.06,4.06,0,0,0-.6-1.48,3.83,3.83,0,0,0-1.09-1.14,2.12,2.12,0,0,0-1.3-.47l.25-.35a12.54,12.54,0,0,1,.23,2.3,10.56,10.56,0,0,1-.26,2.31,12,12,0,0,1-.74,2.19A9.15,9.15,0,0,1,110.61,58.48Zm-.06,0c.28-.76.55-1.43.77-2.15a16.23,16.23,0,0,0,.61-6.53l0-.34h.29a2.34,2.34,0,0,1,1.69.73,4.84,4.84,0,0,1,1,1.36,5.39,5.39,0,0,1,.69,3.28,4.24,4.24,0,0,1-5,3.66Z"/><path class="cls-7" d="M106.43,63.76a6.55,6.55,0,0,1-1.56,4.38,5.57,5.57,0,0,1-4.33,1.94,6.53,6.53,0,0,1-6.22-6.15,6.11,6.11,0,0,1,6.06-6.38,5.86,5.86,0,0,1,4.4,1.86A6.51,6.51,0,0,1,106.43,63.76Zm-.07,0a5.39,5.39,0,0,0-1.91-4,6.17,6.17,0,0,0-4.07-1.46,5.68,5.68,0,0,0-3.93,1.66,5.92,5.92,0,0,0-1.75,4A5.37,5.37,0,0,0,96.4,68a5.7,5.7,0,0,0,4.14,1.48,6.24,6.24,0,0,0,4-1.66A5.43,5.43,0,0,0,106.36,63.76Z"/><path class="cls-8" d="M104.94,63.61a8.46,8.46,0,0,1-2.08,1,10,10,0,0,1-2.3.47,13.22,13.22,0,0,1-4.6-.61l.13-.11a3.94,3.94,0,0,0,1.68,2.8,4.11,4.11,0,0,0,3,.85,4.58,4.58,0,0,0,3.76-2.75A5.77,5.77,0,0,0,104.94,63.61Zm0-.06a4.14,4.14,0,0,1-.87,3.46,4.73,4.73,0,0,1-3.23,1.73,4.55,4.55,0,0,1-3.45-1.19,5,5,0,0,1-1.55-3.2l0-.15.15,0a14.19,14.19,0,0,0,4.5.19,16.84,16.84,0,0,0,2.23-.31C103.48,64,104.18,63.76,105,63.55Z"/><path class="cls-9" d="M96.11,62.87c.7.06,1.44.18,2.15.2a15.41,15.41,0,0,0,2.15,0,15.62,15.62,0,0,0,2.14-.26,6.91,6.91,0,0,0,2-.74l-.06.16a4.41,4.41,0,0,0-1.86-2,4.1,4.1,0,0,0-2.55-.53,5,5,0,0,0-2.45,1A4.44,4.44,0,0,0,96.11,62.87Zm-.06,0A4.42,4.42,0,0,1,103,59.73a4.91,4.91,0,0,1,1.77,2.38l0,.11-.11,0a15.12,15.12,0,0,1-4.24,1.41,8.92,8.92,0,0,1-2.25-.09A8.44,8.44,0,0,1,96.05,62.91Z"/><path class="cls-10" d="M98.76,40.93a6.45,6.45,0,0,1,1.63-4.35,5.68,5.68,0,0,1,4.37-1.86A6.53,6.53,0,0,1,110.87,41a6,6,0,0,1-1.73,4.43,6.11,6.11,0,0,1-4.44,1.86,5.81,5.81,0,0,1-4.35-2A6.61,6.61,0,0,1,98.76,40.93Zm.07,0a5.46,5.46,0,0,0,1.85,4,6.06,6.06,0,0,0,4,1.57A5.85,5.85,0,0,0,110.48,41a5.41,5.41,0,0,0-1.62-4.12,5.51,5.51,0,0,0-4.1-1.56,6.38,6.38,0,0,0-4.06,1.58A5.37,5.37,0,0,0,98.83,40.93Z"/><path class="cls-11" d="M100.75,39a8.56,8.56,0,0,1,2.28.22,10.32,10.32,0,0,1,2.21.76,12.87,12.87,0,0,1,3.63,2.88l-.17,0a3.8,3.8,0,0,0,0-3.29,4.42,4.42,0,0,0-2.2-2.34,4.66,4.66,0,0,0-3.19-.23A4.29,4.29,0,0,0,100.75,39Zm-.06,0a3.83,3.83,0,0,1,2.48-2.59,4.63,4.63,0,0,1,3.7.14,4.75,4.75,0,0,1,2.37,2.83,4.89,4.89,0,0,1-.35,3.57l-.07.13-.1-.1A14,14,0,0,0,105,40.51a18.69,18.69,0,0,0-2.06-.87C102.18,39.39,101.48,39.22,100.69,39Z"/><path class="cls-12" d="M107.93,44.07c-.57-.4-1.15-.87-1.75-1.25a15.89,15.89,0,0,0-1.84-1,14.84,14.84,0,0,0-2-.87,6.87,6.87,0,0,0-2.11-.41l.13-.09A3.6,3.6,0,0,0,101,43a4.59,4.59,0,0,0,1.92,1.74,4.86,4.86,0,0,0,2.56.42A4.62,4.62,0,0,0,107.93,44.07Zm.07,0a3.76,3.76,0,0,1-2.42,1.64,4.52,4.52,0,0,1-3-.33,4.68,4.68,0,0,1-2.11-2.13,4.15,4.15,0,0,1-.32-2.91l0-.1h.1c.73.08,1.45.19,2.18.31a8.51,8.51,0,0,1,2.14.64,8.84,8.84,0,0,1,1.87,1.22A8.21,8.21,0,0,1,108,44.07Z"/><path class="cls-13" d="M90.47,36.86a6.51,6.51,0,0,1,4.36,1.61,5.67,5.67,0,0,1,1.88,4.36A6.53,6.53,0,0,1,90.46,49,6,6,0,0,1,86,47.27a6.17,6.17,0,0,1-1.85-4.45,5.83,5.83,0,0,1,1.93-4.37A6.47,6.47,0,0,1,90.47,36.86Zm0,.07a5.39,5.39,0,0,0-4,1.85,6.14,6.14,0,0,0-1.53,4,5.75,5.75,0,0,0,5.56,5.76,5.44,5.44,0,0,0,4.12-1.64,5.58,5.58,0,0,0,1.55-4.11,6.5,6.5,0,0,0-1.61-4A5.43,5.43,0,0,0,90.47,36.93Z"/><path class="cls-14" d="M94,40.09a4.72,4.72,0,0,0-3.26-1.5,5.12,5.12,0,0,0-1.77.28,4.41,4.41,0,0,0-1.6.85A4,4,0,0,0,86.1,43.1a4.16,4.16,0,0,0,1.8,3l-.48.13a11.58,11.58,0,0,1,2.68-3.78A12.05,12.05,0,0,1,92,41.05,9.59,9.59,0,0,1,94,40.09Zm.07,0a22.86,22.86,0,0,0-1.87,1.32,14.68,14.68,0,0,0-1.64,1.51A16.64,16.64,0,0,0,88,46.54l-.18.34-.31-.21a4.31,4.31,0,0,1-1.74-3.55,5.74,5.74,0,0,1,.34-1.94,5.23,5.23,0,0,1,1-1.73A4.46,4.46,0,0,1,90.79,38,4.08,4.08,0,0,1,94.08,40.11Z"/><path class="cls-15" d="M94.74,41.35c-.52.42-1.13.8-1.65,1.23a20,20,0,0,0-1.54,1.34,15.5,15.5,0,0,0-1.44,1.48,7,7,0,0,0-1,1.78L89,47a5.67,5.67,0,0,0,2.43,0,4.29,4.29,0,0,0,2-1.19,4.77,4.77,0,0,0,1.23-2A6.81,6.81,0,0,0,94.74,41.35Zm0-.06a4.44,4.44,0,0,1,.41,2.61,4.29,4.29,0,0,1-1.26,2.39,4.52,4.52,0,0,1-2.4,1.26,5.59,5.59,0,0,1-2.61-.3l-.16,0,.07-.13c.32-.63.69-1.23,1-1.85a9.24,9.24,0,0,1,1.25-1.74,8.63,8.63,0,0,1,1.68-1.33A7.81,7.81,0,0,1,94.77,41.29Z"/><path class="cls-16" d="M81.86,56.91a6.63,6.63,0,0,1,1.65-4.35,5.66,5.66,0,0,1,4.39-1.81A6.51,6.51,0,0,1,94,57a6.16,6.16,0,0,1-6.22,6.25,5.85,5.85,0,0,1-4.34-2A6.57,6.57,0,0,1,81.86,56.91Zm.07,0A5.39,5.39,0,0,0,83.75,61a6.18,6.18,0,0,0,4,1.59,5.8,5.8,0,0,0,4-1.58A6,6,0,0,0,93.59,57,5.34,5.34,0,0,0,92,52.91a5.52,5.52,0,0,0-4.1-1.57,6.39,6.39,0,0,0-4.07,1.54A5.44,5.44,0,0,0,81.93,56.91Z"/><path class="cls-17" d="M86.52,52.69A4.63,4.63,0,0,0,84,55.2a4.73,4.73,0,0,0-.15,3.51,3.77,3.77,0,0,0,2.63,2.42,4.13,4.13,0,0,0,3.43-.58l0,.5a11.5,11.5,0,0,1-2.55-3.86A11.8,11.8,0,0,1,86.67,55,10.32,10.32,0,0,1,86.52,52.69Zm0,0c.18.79.33,1.49.56,2.21a14.81,14.81,0,0,0,.81,2.07,16.32,16.32,0,0,0,2.42,3.67l.25.29-.29.21a4.28,4.28,0,0,1-3.92.34,5.5,5.5,0,0,1-2.9-2.56A4.49,4.49,0,0,1,83,56.92a4.58,4.58,0,0,1,.48-2A4,4,0,0,1,86.56,52.64Z"/><path class="cls-18" d="M88,52.48a9.66,9.66,0,0,0,.44,2,19.08,19.08,0,0,0,.71,1.91A18,18,0,0,0,90,58.23a5,5,0,0,0,1.3,1.56h-.17A3.87,3.87,0,0,0,92,57.6a4.48,4.48,0,0,0-.37-2.29,5,5,0,0,0-1.41-1.84A5.21,5.21,0,0,0,88,52.48Zm-.05,0a3.88,3.88,0,0,1,2.57.57,4.44,4.44,0,0,1,1.77,2,4.66,4.66,0,0,1,.28,2.68A4.06,4.06,0,0,1,91.32,60l-.09.08L91.15,60a13.17,13.17,0,0,1-1.4-1.59,10.44,10.44,0,0,1-1.14-1.79,9.58,9.58,0,0,1-.64-2A5,5,0,0,1,88,52.43Z"/><path class="cls-19" d="M99.21,47.6a4.84,4.84,0,0,1,3.11,1.14,3.92,3.92,0,0,1,1.34,3.13,4.51,4.51,0,0,1-1.48,3,4.76,4.76,0,0,1-3.07,1.31A4.29,4.29,0,0,1,95.92,55a4.43,4.43,0,0,1-1.34-3.21,4.15,4.15,0,0,1,1.48-3.11A4.85,4.85,0,0,1,99.21,47.6Zm0,.07A3.74,3.74,0,0,0,96.39,49a4.22,4.22,0,0,0-1,2.78,3.93,3.93,0,0,0,1.06,2.74,4.18,4.18,0,0,0,2.72,1.3,3.68,3.68,0,0,0,2.9-1.08,3.89,3.89,0,0,0,1-2.87A4.69,4.69,0,0,0,102,49.05,3.71,3.71,0,0,0,99.21,47.67Z"/></g></svg>