<svg xmlns="http://www.w3.org/2000/svg" xmlns:xlink="http://www.w3.org/1999/xlink" viewBox="0 0 192 192"><defs><style>.cls-1{fill:#fff;fill-opacity:0.2;}.cls-2{fill:url(#linear-gradient);}.cls-3{fill:url(#linear-gradient-2);}.cls-4{fill:url(#linear-gradient-3);}.cls-5{fill:url(#linear-gradient-4);}.cls-6{fill:url(#linear-gradient-5);}.cls-7{fill:url(#linear-gradient-6);}.cls-8{fill:url(#linear-gradient-7);}.cls-9{fill:url(#linear-gradient-8);}.cls-10{fill:url(#linear-gradient-9);}.cls-11{fill:url(#linear-gradient-10);}.cls-12{fill:url(#linear-gradient-11);}.cls-13{fill:url(#linear-gradient-12);}.cls-14{fill:url(#linear-gradient-13);}.cls-15{fill:url(#linear-gradient-14);}.cls-16{fill:url(#linear-gradient-15);}.cls-17{fill:url(#linear-gradient-16);}.cls-18{fill:url(#linear-gradient-17);}.cls-19{fill:url(#linear-gradient-18);}.cls-20{fill:url(#linear-gradient-19);}.cls-21{fill:url(#linear-gradient-20);}.cls-22{fill:url(#linear-gradient-21);}</style><linearGradient id="linear-gradient" x1="64.39" y1="123.79" x2="130.02" y2="123.79" gradientUnits="userSpaceOnUse"><stop offset="0.21" stop-color="#039be5"/><stop offset="0.25" stop-color="#1293dc"/><stop offset="0.43" stop-color="#5d6ab2"/><stop offset="0.6" stop-color="#984991"/><stop offset="0.74" stop-color="#c23278"/><stop offset="0.85" stop-color="#dc236a"/><stop offset="0.91" stop-color="#e61e64"/><stop offset="1" stop-color="#e91e63"/></linearGradient><linearGradient id="linear-gradient-2" x1="22.49" y1="31.48" x2="29.32" y2="31.48" xlink:href="#linear-gradient"/><linearGradient id="linear-gradient-3" x1="53.84" y1="38.18" x2="60.67" y2="38.18" xlink:href="#linear-gradient"/><linearGradient id="linear-gradient-4" x1="72.25" y1="33.62" x2="79.08" y2="33.62" xlink:href="#linear-gradient"/><linearGradient id="linear-gradient-5" x1="27.53" y1="101.13" x2="34.36" y2="101.13" xlink:href="#linear-gradient"/><linearGradient id="linear-gradient-6" x1="65.09" y1="94.68" x2="71.93" y2="94.68" xlink:href="#linear-gradient"/><linearGradient id="linear-gradient-7" x1="56.77" y1="56.99" x2="63.6" y2="56.99" xlink:href="#linear-gradient"/><linearGradient id="linear-gradient-8" x1="113.4" y1="31.48" x2="120.23" y2="31.48" xlink:href="#linear-gradient"/><linearGradient id="linear-gradient-9" x1="43.55" y1="22.47" x2="50.38" y2="22.47" xlink:href="#linear-gradient"/><linearGradient id="linear-gradient-10" x1="61.04" y1="20.62" x2="67.88" y2="20.62" xlink:href="#linear-gradient"/><linearGradient id="linear-gradient-11" x1="83.45" y1="20.95" x2="90.28" y2="20.95" xlink:href="#linear-gradient"/><linearGradient id="linear-gradient-12" x1="53.76" y1="7.96" x2="60.59" y2="7.96" xlink:href="#linear-gradient"/><linearGradient id="linear-gradient-13" x1="59.47" y1="75.81" x2="66.31" y2="75.81" xlink:href="#linear-gradient"/><linearGradient id="linear-gradient-14" x1="82.25" y1="56.99" x2="89.08" y2="56.99" xlink:href="#linear-gradient"/><linearGradient id="linear-gradient-15" x1="37.32" y1="69.29" x2="44.15" y2="69.29" xlink:href="#linear-gradient"/><linearGradient id="linear-gradient-16" x1="25.34" y1="50.87" x2="32.17" y2="50.87" xlink:href="#linear-gradient"/><linearGradient id="linear-gradient-17" x1="15.55" y1="79.37" x2="22.39" y2="79.37" xlink:href="#linear-gradient"/><linearGradient id="linear-gradient-18" x1="97.11" y1="36.67" x2="103.94" y2="36.67" xlink:href="#linear-gradient"/><linearGradient id="linear-gradient-19" x1="45.74" y1="84.07" x2="52.58" y2="84.07" xlink:href="#linear-gradient"/><linearGradient id="linear-gradient-20" x1="138.59" y1="142.75" x2="185.22" y2="142.75" xlink:href="#linear-gradient"/><linearGradient id="linear-gradient-21" x1="135.62" y1="131.36" x2="164.98" y2="131.36" xlink:href="#linear-gradient"/></defs><title>ic_material_product_icon_192px</title><g id="back_edge" data-name="back, edge"><path class="cls-1" d="M160,20H32A12,12,0,0,0,20,32v1A12,12,0,0,1,32,21H160a12,12,0,0,1,12,12V32A12,12,0,0,0,160,20Z"/></g><g id="drama"><path class="cls-2" d="M103.54,65.85a.16.16,0,0,1-.09,0h-.09l-.11,0-.21,0a2.75,2.75,0,0,0-.41.11,2,2,0,0,0-.37.15c-.13.08-.12.11-.28.29a2.71,2.71,0,0,1-.83.45,8.63,8.63,0,0,1-.86.28h-.07a1.27,1.27,0,0,0-1.26.69,2.45,2.45,0,0,0,.18,1.58,23,23,0,0,0,1.47,3.29.08.08,0,0,1,0,0,12.47,12.47,0,0,1,.56,2,4.88,4.88,0,0,1,0,2.16,2,2,0,0,1-.29.6l-.16.21-.11.16a3.05,3.05,0,0,0-.33.78,7.52,7.52,0,0,0-.25,1.8c0,1.24.18,2.55.08,4A4,4,0,0,1,100,85.6a1.24,1.24,0,0,1-.66.73c-.08,0-.07,0,0,0h0s0,0,0,0a1.11,1.11,0,0,0-.11.11c-.35.42-.71,1-1.09,1.55-.19.28-.39.56-.62.84a3.62,3.62,0,0,1-.89.83,1.27,1.27,0,0,1-.42.17l-.11,0h0c-.05,0-.16.09-.27.18a6.93,6.93,0,0,0-.67.58,19.84,19.84,0,0,0-2.37,2.93,20.16,20.16,0,0,0-1.8,3.32,15.46,15.46,0,0,0-1,3.59,67.91,67.91,0,0,0-.64,7.72c0,1.3-.07,2.6-.07,3.9s.06,2.61.09,3.92l.44,15.72v-.12c.31,2.24.59,4.44.69,6.75,0,.29,0,.58,0,.89a6.42,6.42,0,0,1-.1,1.05l0,.19a1.39,1.39,0,0,1-.12.28,1.72,1.72,0,0,1-.35.43l0,0s0,0,0,.08a2,2,0,0,0-.19.55,15.15,15.15,0,0,0-.28,1.55l0,.11,0,.21c0,.16-.09.23-.13.34a4.16,4.16,0,0,1-.26.48c-.16.28-.33.52-.49.76-.32.46-.63.9-.88,1.32a6.52,6.52,0,0,0-.3.58l-.12.36c0,.18-.12.31-.18.47a11.81,11.81,0,0,1-2,3.06,12.18,12.18,0,0,1-6.12,3.72l.67-.62a20,20,0,0,1-1.17,2.58,9.71,9.71,0,0,1-.77,1.24,5.36,5.36,0,0,1-1.08,1.18l.25-.32c-.66,1.39-1.32,2.82-1.87,4.25-.14.35-.27.71-.37,1-.06.18-.1.34-.14.51s0,.32,0,.25a2.23,2.23,0,0,1,0,1,3,3,0,0,1-.37.76,4.16,4.16,0,0,1-1,1l.14-.12-4.64,5.28.11-.18a13.21,13.21,0,0,0-.64,2,2.57,2.57,0,0,0-.06.88,1.8,1.8,0,0,1,.09.78,1.74,1.74,0,0,1-.34.75,6.62,6.62,0,0,1-.83.89,3.2,3.2,0,0,0-.32.36s0,.09-.06.09,0-.05,0,0l0,.16a16.11,16.11,0,0,0-.17,2.17,5.39,5.39,0,0,0,1.25,3.85,4.68,4.68,0,0,0,1.77,1,12.52,12.52,0,0,0,2.1.57,33.45,33.45,0,0,0,8.89.31,49,49,0,0,0,8.82-1.6H89c3.32-.48,6.65-1,9.92-1.71a24.07,24.07,0,0,0,4.74-1.45A26,26,0,0,0,108,179.4a.49.49,0,0,1,.44-.06h0a15,15,0,0,0,3.55.72,2,2,0,0,0,.7-.07c-.11.06,0,0,0-.06s.07-.23.11-.36a12.37,12.37,0,0,0,.22-1.78,69.17,69.17,0,0,0,0-7.48v-.06a.61.61,0,0,1,.31-.55.79.79,0,0,1,.43-.13l.24,0a1,1,0,0,1,.31.12,1.6,1.6,0,0,1,.37.26,3.53,3.53,0,0,1,.46.51,10.27,10.27,0,0,1,.67,1c.39.65.77,1.3,1.14,2,.74,1.33,1.45,2.65,2.08,4.07.15.36.3.72.43,1.14a3.41,3.41,0,0,1,.15.71c0,.16,0,.32.07.49.06.35.14.71.2,1.14a3.1,3.1,0,0,1-.14,1.53,2.41,2.41,0,0,1-.45.74c-.1.11-.2.19-.29.28s0,.06-.08.08a1.09,1.09,0,0,0-.14.55,5.49,5.49,0,0,0,.34,1.81l-.59-.56a7.11,7.11,0,0,0,2.75.19,2.52,2.52,0,0,0,.58-.15,1.5,1.5,0,0,0,.33-.25,7.14,7.14,0,0,0,.86-1.09,33.93,33.93,0,0,0,2.83-5.5l0,.14c.27-1.07.52-2.19.68-3.24a5.39,5.39,0,0,0,.09-.76v-2.54l0-6.78a1.22,1.22,0,0,1,.08-.43c.25-.66.5-1.33.72-2l.14-.46a1.53,1.53,0,0,0,.05-.34c0-.32,0-.67.07-1,0-.7,0-1.4,0-2.09,0-.35,0-.69,0-1,0-.16,0-.33,0-.47s0-.15,0-.19v-.08h0a2.88,2.88,0,0,0-2.3-1.81,8.15,8.15,0,0,0-1.89,0c-.38,0-.75,0-1.18,0a4,4,0,0,1-.75-.09c-.11,0-.16,0-.33-.11a1.52,1.52,0,0,1-.71-.66,1.3,1.3,0,0,1-.14-.58,1.36,1.36,0,0,1,.09-.47,1.24,1.24,0,0,1,.1-.2l.07-.1a.9.9,0,0,1,.15-.18,1.65,1.65,0,0,1,.43-.31l-.63.76a21.79,21.79,0,0,0,.66-4.33,11.28,11.28,0,0,0-.09-2.11,6.55,6.55,0,0,0-.2-1l-.32-1.12-2.5-9v0l0-.1c-.26-1.49-.45-2.93-.58-4.43-.06-.75-.12-1.5-.11-2.28a8.74,8.74,0,0,1,.31-2.56l.15-.4c.05-.12.09-.19.14-.29s.2-.36.3-.53l.6-1a7.45,7.45,0,0,0,.86-1.64,5.65,5.65,0,0,0,.28-1.73l0-2.15.21-17.39,0,.27c-.65-3-1.39-6-2.24-8.88-.44-1.46-.91-2.9-1.45-4.29a21.38,21.38,0,0,0-.9-2,7.34,7.34,0,0,0-.53-.85,2.07,2.07,0,0,0-.41-.43.27.27,0,0,1-.36-.1v0l-.18-.36a3.27,3.27,0,0,1-.32-1,1.51,1.51,0,0,1,.21-1,1.31,1.31,0,0,1,.65-.5,1.57,1.57,0,0,1,.52-.08h.2l.11,0,.21,0,.34.07.6.11a8.7,8.7,0,0,0,2.44,0,16,16,0,0,0,2.49-.57,6,6,0,0,0,2.07-1.08,9.13,9.13,0,0,0,2.65-4.09c.07-.19.13-.4.18-.59a5.11,5.11,0,0,0,.13-.59c.08-.43.14-.86.19-1.3a20.66,20.66,0,0,0,.12-2.6,11.59,11.59,0,0,0-.31-2.52,6.59,6.59,0,0,0-.42-1.13,7.53,7.53,0,0,0-.66-1.06A19.16,19.16,0,0,0,122,63.09a9.67,9.67,0,0,0-2.16-1.36,7.86,7.86,0,0,0-2.46-.6,26.28,26.28,0,0,0-5.32,0l.1,0a.75.75,0,0,0-.25.14c0-.18,0,.08,0,.25a2,2,0,0,1-.49,1.1,1.26,1.26,0,0,1-1.27.31l-.94-.31L105.4,61.4h.11c.1,0,0,0-.07.12a2,2,0,0,0-.11.32,4.28,4.28,0,0,0-.11.73,13.41,13.41,0,0,0,0,1.55v0a.1.1,0,0,1,0,.09,1.07,1.07,0,0,1-.25.31.45.45,0,0,1-.5.08c-.19-.1-.29-.11-.42,0a1.5,1.5,0,0,0-.3.51C103.68,65.35,103.64,65.57,103.54,65.85Zm-.16-.18a1.92,1.92,0,0,1,.12-.6,1.54,1.54,0,0,1,.34-.64.6.6,0,0,1,.38-.21.8.8,0,0,1,.41.1s.19-.09.26-.25l0,.1a14.19,14.19,0,0,1-.11-1.61,4,4,0,0,1,.08-.83,2.39,2.39,0,0,1,.14-.43c.1-.15.12-.32.49-.42a.06.06,0,0,1,.06,0h0L109.32,62l.93.26a.5.5,0,0,0,.54-.12,1.24,1.24,0,0,0,.24-.68l0-.23a.74.74,0,0,1,0-.19.62.62,0,0,1,.14-.27,1.68,1.68,0,0,1,.56-.39l.08,0h0a26.86,26.86,0,0,1,5.53-.28,8.79,8.79,0,0,1,2.82.6,10.9,10.9,0,0,1,2.48,1.45,20.39,20.39,0,0,1,3.9,4,10.33,10.33,0,0,1,.82,1.22,8,8,0,0,1,.56,1.4,12.9,12.9,0,0,1,.45,2.86,20.37,20.37,0,0,1,0,2.82c0,.47-.09.94-.16,1.41a7.34,7.34,0,0,1-.14.74c0,.24-.12.48-.19.71a10.59,10.59,0,0,1-3.1,5,7.88,7.88,0,0,1-2.69,1.47,17.26,17.26,0,0,1-2.79.7,10.58,10.58,0,0,1-3,.09l-.74-.11-.49-.09a.61.61,0,0,0,.19,0,.74.74,0,0,0,.38-.31c.17-.3.11-.36.12-.36a2.07,2.07,0,0,0,.11.28l-.53-.48a3.45,3.45,0,0,1,1.31,1.08,8.59,8.59,0,0,1,.71,1.11,21.07,21.07,0,0,1,1.06,2.2c.6,1.47,1.11,3,1.59,4.45.94,3,1.74,6,2.46,9a2,2,0,0,1,0,.23v0l0,17.36v2.19a8.46,8.46,0,0,1-.4,2.54c-.59,1.7-1.76,2.92-2,3.81a6.85,6.85,0,0,0-.18,1.73c0,.67,0,1.37.1,2.06.12,1.38.31,2.81.54,4.18l0-.12,2.47,9.06.3,1.13a8.66,8.66,0,0,1,.25,1.29,14.75,14.75,0,0,1,.09,2.56,24.7,24.7,0,0,1-.81,4.9l-.63.76a.8.8,0,0,0,.2-.15l.11-.13.05-.08.09-.17a1.51,1.51,0,0,0,.07-.4,1.17,1.17,0,0,0-.12-.52,1,1,0,0,0-.36-.42l-.14-.08-.08,0,.32,0c.29,0,.64,0,1,0a10.66,10.66,0,0,1,2.4.11,5.62,5.62,0,0,1,2.48,1.12,5.41,5.41,0,0,1,1.6,2.26c0,.09.06.2.08.28l0,.18a2.54,2.54,0,0,1,.05.34c0,.22,0,.41,0,.61,0,.38,0,.76,0,1.13q0,1.11-.06,2.22c0,.37-.05.74-.09,1.14a3.35,3.35,0,0,1-.13.71l-.18.57c-.25.72-.51,1.39-.78,2.07l.08-.43,0,6.92v2.59c0,.32-.07.64-.12.94-.21,1.19-.49,2.3-.79,3.44v0s0,.08,0,.12a38,38,0,0,1-3.13,5.81,9,9,0,0,1-1.16,1.38,3.26,3.26,0,0,1-1,.64,4.08,4.08,0,0,1-1,.23,8.71,8.71,0,0,1-3.59-.31h0a.88.88,0,0,1-.58-.56,6.63,6.63,0,0,1-.4-2.58,2.73,2.73,0,0,1,.56-1.55c.1-.11.25-.26.32-.32a1.31,1.31,0,0,0,.12-.11.81.81,0,0,0,.14-.2,4,4,0,0,0-.11-1.76c0-.2,0-.41-.06-.62s0-.21-.08-.38a9.45,9.45,0,0,0-.34-1c-.55-1.33-1.22-2.67-1.9-4-.35-.66-.7-1.31-1.06-1.95-.19-.31-.37-.63-.55-.88a3.63,3.63,0,0,0-.28-.33l-.08-.07h.15c.07,0,0,0,.29-.1l.31-.6a72.31,72.31,0,0,1-.15,7.64,12.78,12.78,0,0,1-.3,2,3.42,3.42,0,0,1-.18.54,1.21,1.21,0,0,1-.61.65,3.1,3.1,0,0,1-1.16.13,16.44,16.44,0,0,1-3.83-.87l.45-.06A29.18,29.18,0,0,1,104,182.6a25.12,25.12,0,0,1-4.91,1.45c-3.32.69-6.65,1.19-10,1.64h0a60.21,60.21,0,0,1-9,1.63,34.42,34.42,0,0,1-9.12-.21,13.92,13.92,0,0,1-2.26-.59,5.49,5.49,0,0,1-2.11-1.21,6.53,6.53,0,0,1-1.62-4.5,14.84,14.84,0,0,1,.12-2.32v-.13a1.25,1.25,0,0,1,0-.26,1.65,1.65,0,0,1,.2-.4,5.8,5.8,0,0,1,.42-.49,7.3,7.3,0,0,0,.69-.78.62.62,0,0,0,.12-.27c0-.08,0,.11-.09-.32a3.66,3.66,0,0,1,0-1.37,12.53,12.53,0,0,1,.65-2.29.8.8,0,0,1,.08-.16l0,0,4.49-5.42.09-.09,0,0a2.93,2.93,0,0,0,.62-.65,1.11,1.11,0,0,0,.14-.3.52.52,0,0,0,0-.21,2.52,2.52,0,0,1,0-.91c0-.22.09-.45.15-.64.11-.41.24-.8.38-1.18.54-1.52,1.16-3,1.81-4.44a.8.8,0,0,1,.2-.28l0,0a6.3,6.3,0,0,0,1.31-1.88,18.5,18.5,0,0,0,1-2.35,1,1,0,0,1,.64-.61h0a10.51,10.51,0,0,0,5.06-3.22A10.22,10.22,0,0,0,85,147.2c0-.1.09-.22.11-.31l.14-.44a5.93,5.93,0,0,1,.44-.91c.31-.54.64-1,1-1.47a3.69,3.69,0,0,0,.59-1c.08-.51.16-1.11.31-1.73a5.1,5.1,0,0,1,.37-1,2.55,2.55,0,0,1,.43-.61l.18-.15s-.21.2-.23.26a.19.19,0,0,0,0,.08s0,0,0,0a4,4,0,0,0,0-.6c0-.25,0-.52,0-.78-.11-2.14-.38-4.36-.64-6.53v-.13l-.27-15.74c0-1.32-.06-2.61,0-4s.05-2.64.11-4a61.3,61.3,0,0,1,.78-8,17.13,17.13,0,0,1,1.18-4,21.76,21.76,0,0,1,2-3.54,20.48,20.48,0,0,1,2.66-3.1,8.21,8.21,0,0,1,.83-.69,2.69,2.69,0,0,1,.57-.32l.22-.08.12,0s0,0,0,0,0,0,0,0A5.56,5.56,0,0,0,97,87.24c.39-.52.72-1.06,1.22-1.63a2.71,2.71,0,0,1,.24-.24.67.67,0,0,1,.19-.13l.14-.08c.06,0,.11,0,.06,0s-.08.1,0,0a3.48,3.48,0,0,0,.15-.78c.13-1.22-.06-2.53,0-3.91a8.35,8.35,0,0,1,.37-2.07,4,4,0,0,1,.5-1c0-.08.11-.15.17-.23a.79.79,0,0,0,.15-.18.81.81,0,0,0,.14-.28,4,4,0,0,0,0-1.74,11.73,11.73,0,0,0-.44-1.84l0,0a24.82,24.82,0,0,1-1.38-3.47,6.79,6.79,0,0,1-.2-.94,2.85,2.85,0,0,1,0-.51,1.54,1.54,0,0,1,.15-.54,1.52,1.52,0,0,1,.78-.74,2,2,0,0,1,1-.16h-.07a5.93,5.93,0,0,0,.83-.21,2.45,2.45,0,0,0,.73-.33s.21-.27.35-.32a2.69,2.69,0,0,1,.45-.16,3.54,3.54,0,0,1,.45-.08l.22,0h.21A.05.05,0,0,0,103.38,65.67Z"/><path class="cls-3" d="M28.07,33.52c-.18.16-.45.07-.67,0l-.7-.15c-.48-.1-1-.19-1.47-.32a5.89,5.89,0,0,1-1.47-.57,3.54,3.54,0,0,1-.69-.53,2.27,2.27,0,0,1-.35-.45,1.67,1.67,0,0,1-.19-.47A1.46,1.46,0,0,1,22.72,30a1.38,1.38,0,0,1,.94-.6,2.39,2.39,0,0,1,.51,0,2.61,2.61,0,0,1,.56.15,3.08,3.08,0,0,1,.76.43,5.83,5.83,0,0,1,1.09,1.13c.31.41.59.83.87,1.23l.41.59C28,33.07,28.16,33.29,28.07,33.52Zm0,0c.07-.24-.13-.43-.28-.59a2.35,2.35,0,0,0-.56-.39,5.24,5.24,0,0,0-1.33-.46c-.45-.1-.91-.16-1.31-.23a4.59,4.59,0,0,0-.53-.08.19.19,0,0,0-.12,0,.55.55,0,0,0,.17,0,1,1,0,0,0,.65-.44,1,1,0,0,0,.15-.77c0-.14-.05-.13-.06-.15s0,.05,0,.11.17.29.28.46c.22.34.46.73.73,1.11a4.66,4.66,0,0,0,.94,1,2.34,2.34,0,0,0,.58.36C27.62,33.56,27.88,33.67,28.07,33.52Z"/><path class="cls-4" d="M59.43,40.21c-.18.17-.46.08-.68.06l-.7-.15c-.47-.1-1-.19-1.47-.32a5.82,5.82,0,0,1-1.46-.57,3.27,3.27,0,0,1-.69-.53,2.7,2.7,0,0,1-.36-.45,2.1,2.1,0,0,1-.18-.47,1.44,1.44,0,0,1,.18-1.11,1.42,1.42,0,0,1,1-.6,2.29,2.29,0,0,1,.5,0,2.72,2.72,0,0,1,.57.15,3,3,0,0,1,.75.43,5.6,5.6,0,0,1,1.1,1.13c.31.41.59.83.87,1.22l.4.6C59.32,39.77,59.51,40,59.43,40.21Zm0,0c.07-.23-.14-.42-.28-.58a2.22,2.22,0,0,0-.57-.39,5,5,0,0,0-1.32-.46c-.46-.1-.92-.16-1.31-.24l-.54-.07c-.06,0-.12,0-.11,0a.48.48,0,0,0,.16,0,1,1,0,0,0,.65-.44,1,1,0,0,0,.15-.77c0-.14,0-.13,0-.15s0,0,0,.11.17.29.28.46c.22.34.46.73.73,1.11a4.88,4.88,0,0,0,.93,1,2.39,2.39,0,0,0,.59.36C59,40.26,59.24,40.37,59.43,40.21Z"/><path class="cls-5" d="M77.83,35.66c-.18.17-.45.07-.67.05l-.7-.14c-.48-.11-1-.2-1.47-.33a5.85,5.85,0,0,1-1.47-.56,3.54,3.54,0,0,1-.69-.53,2.38,2.38,0,0,1-.35-.46,1.55,1.55,0,0,1-.19-.47,1.44,1.44,0,0,1,.19-1.1,1.41,1.41,0,0,1,.94-.61,1.77,1.77,0,0,1,.51,0,2.13,2.13,0,0,1,.56.15,3.42,3.42,0,0,1,.76.42,6.12,6.12,0,0,1,1.09,1.13c.31.41.59.84.87,1.23l.41.59C77.72,35.22,77.92,35.43,77.83,35.66Zm0,0c.07-.23-.13-.43-.28-.58a2.73,2.73,0,0,0-.56-.4,5.22,5.22,0,0,0-1.33-.45c-.46-.1-.91-.17-1.31-.24l-.53-.08H73.7s0,0,.16,0a1,1,0,0,0,.81-1.22.72.72,0,0,0-.06-.15s0,.05,0,.11.17.29.28.46c.22.34.46.74.73,1.12a5.15,5.15,0,0,0,.94,1,2.68,2.68,0,0,0,.58.36C77.38,35.71,77.64,35.82,77.83,35.66Z"/><path class="cls-6" d="M33.11,103.17c-.17.17-.45.07-.67,0l-.7-.14c-.47-.11-1-.2-1.47-.33a5.46,5.46,0,0,1-1.46-.57,2.91,2.91,0,0,1-.69-.52,2.84,2.84,0,0,1-.36-.46,1.92,1.92,0,0,1-.18-.47,1.44,1.44,0,0,1,.18-1.11,1.46,1.46,0,0,1,.95-.6,1.71,1.71,0,0,1,.5,0,2.26,2.26,0,0,1,.57.14,3.35,3.35,0,0,1,.75.43,5.6,5.6,0,0,1,1.1,1.13c.31.41.59.83.87,1.23l.4.59C33,102.72,33.2,102.94,33.11,103.17Zm0,0c.08-.23-.13-.43-.28-.59a2.54,2.54,0,0,0-.56-.39,5.44,5.44,0,0,0-1.32-.46l-1.32-.23c-.19,0-.39-.07-.53-.08a.31.31,0,0,0-.11,0,.63.63,0,0,0,.16,0,1,1,0,0,0,.65-.45,1,1,0,0,0,.15-.77.51.51,0,0,0-.05-.15s0,0,0,.11.17.29.28.46c.22.34.46.73.73,1.11a4.88,4.88,0,0,0,.93,1,2.43,2.43,0,0,0,.59.37C32.67,103.21,32.93,103.33,33.11,103.17Z"/><path class="cls-7" d="M70.68,96.71c-.18.17-.46.08-.68.06l-.7-.15c-.47-.1-1-.2-1.46-.32a5.89,5.89,0,0,1-1.47-.57,3.27,3.27,0,0,1-.69-.53,2.7,2.7,0,0,1-.36-.45,2,2,0,0,1-.18-.48,1.36,1.36,0,0,1,1.13-1.7,2.36,2.36,0,0,1,.51,0,2.78,2.78,0,0,1,.56.15,3,3,0,0,1,.75.43,5.6,5.6,0,0,1,1.1,1.13c.31.41.59.83.87,1.22l.4.6C70.57,96.27,70.76,96.48,70.68,96.71Zm0,0c.07-.23-.14-.43-.28-.58a2.54,2.54,0,0,0-.57-.4,5.41,5.41,0,0,0-1.32-.45c-.46-.1-.92-.17-1.31-.24L66.67,95c-.07,0-.13,0-.12,0a.48.48,0,0,0,.16,0,1,1,0,0,0,.8-1.21c0-.14,0-.13-.05-.15s0,.05,0,.11.17.28.28.46c.22.34.46.73.73,1.11a4.88,4.88,0,0,0,.93,1,2.39,2.39,0,0,0,.59.36C70.23,96.76,70.49,96.87,70.68,96.71Z"/><path class="cls-8" d="M62.35,59c-.18.17-.45.07-.67,0l-.7-.14c-.48-.11-1-.2-1.47-.33A5.85,5.85,0,0,1,58,58.05a3.54,3.54,0,0,1-.69-.53,2.38,2.38,0,0,1-.35-.46,1.86,1.86,0,0,1-.19-.47A1.46,1.46,0,0,1,57,55.48a1.42,1.42,0,0,1,.94-.6,1.77,1.77,0,0,1,.51,0A2.13,2.13,0,0,1,59,55a3.06,3.06,0,0,1,.76.42,6.12,6.12,0,0,1,1.09,1.13c.31.41.59.84.87,1.23l.41.59C62.24,58.59,62.44,58.8,62.35,59Zm0,0c.07-.23-.13-.43-.28-.58a2.73,2.73,0,0,0-.56-.4,5.09,5.09,0,0,0-1.33-.45c-.45-.1-.91-.17-1.31-.24-.2,0-.39-.07-.53-.08h0a1,1,0,0,0,.65-.45,1,1,0,0,0,.15-.77.72.72,0,0,0-.06-.15s0,.05,0,.11.17.29.28.46c.22.34.46.74.73,1.12a5.15,5.15,0,0,0,.94,1,2.68,2.68,0,0,0,.58.36C61.9,59.08,62.17,59.19,62.35,59Z"/><path class="cls-9" d="M119,33.52c-.18.16-.45.07-.67,0l-.7-.15c-.47-.1-1-.19-1.47-.32a5.89,5.89,0,0,1-1.47-.57A3.54,3.54,0,0,1,114,32a2.27,2.27,0,0,1-.35-.45,2,2,0,0,1-.19-.47,1.46,1.46,0,0,1,.19-1.11,1.42,1.42,0,0,1,1-.6,2.29,2.29,0,0,1,.5,0,2.61,2.61,0,0,1,.56.15,3.08,3.08,0,0,1,.76.43,5.29,5.29,0,0,1,1.09,1.13c.31.41.59.83.87,1.23l.41.59C118.87,33.07,119.07,33.29,119,33.52Zm0,0c.07-.24-.13-.43-.28-.59a2.35,2.35,0,0,0-.56-.39,5.11,5.11,0,0,0-1.33-.46c-.45-.1-.91-.16-1.31-.23a4.59,4.59,0,0,0-.53-.08c-.07,0-.13,0-.11,0a.47.47,0,0,0,.16,0,1,1,0,0,0,.65-.44,1,1,0,0,0,.15-.77c0-.14,0-.13-.06-.15s0,.05,0,.11l.28.46c.22.34.46.73.73,1.11a5.21,5.21,0,0,0,.94,1,2.34,2.34,0,0,0,.58.36C118.53,33.56,118.8,33.67,119,33.52Z"/><path class="cls-10" d="M49.13,24.51c-.17.17-.45.07-.67,0l-.7-.14c-.47-.11-1-.2-1.47-.33a5.79,5.79,0,0,1-1.46-.56,3.27,3.27,0,0,1-.69-.53,2.84,2.84,0,0,1-.36-.46,1.92,1.92,0,0,1-.18-.47A1.44,1.44,0,0,1,43.78,21a1.46,1.46,0,0,1,.95-.6,1.71,1.71,0,0,1,.5,0,2.17,2.17,0,0,1,.56.14,3.22,3.22,0,0,1,.76.43,5.29,5.29,0,0,1,1.09,1.13c.32.41.6.83.88,1.23l.4.59C49,24.06,49.22,24.28,49.13,24.51Zm0,0c.08-.23-.13-.43-.28-.59a2.8,2.8,0,0,0-.56-.39A5.09,5.09,0,0,0,47,23.08c-.45-.1-.91-.17-1.31-.24-.2,0-.39-.07-.53-.08a.31.31,0,0,0-.11,0h.16a1,1,0,0,0,.8-1.22c0-.13,0-.12-.06-.15s0,.05.05.11.17.29.27.46c.22.34.46.74.73,1.12a5.82,5.82,0,0,0,.94,1,2.74,2.74,0,0,0,.59.36C48.69,24.55,49,24.67,49.13,24.51Z"/><path class="cls-11" d="M66.63,22.66c-.18.17-.45.07-.67.05l-.71-.14c-.47-.11-1-.2-1.46-.33a5.85,5.85,0,0,1-1.47-.56,3.54,3.54,0,0,1-.69-.53,2.38,2.38,0,0,1-.35-.46,1.55,1.55,0,0,1-.19-.47,1.44,1.44,0,0,1,.18-1.11,1.46,1.46,0,0,1,.95-.6,1.78,1.78,0,0,1,.51,0,2.84,2.84,0,0,1,.56.14,3.14,3.14,0,0,1,.75.43,5.87,5.87,0,0,1,1.1,1.13c.31.41.59.83.87,1.23l.4.59C66.52,22.21,66.71,22.43,66.63,22.66Zm0,0c.07-.23-.13-.43-.28-.58a2.54,2.54,0,0,0-.57-.4,5,5,0,0,0-1.32-.45c-.46-.1-.91-.17-1.31-.24-.2,0-.39-.07-.53-.08a.36.36,0,0,0-.12,0,.63.63,0,0,0,.16,0,1.06,1.06,0,0,0,.81-1.22.72.72,0,0,0-.06-.15s0,.05,0,.11.17.29.28.46c.22.34.46.74.73,1.12a5.15,5.15,0,0,0,.94,1,2.68,2.68,0,0,0,.58.36C66.18,22.7,66.44,22.82,66.63,22.66Z"/><path class="cls-12" d="M89,23c-.17.17-.45.08-.67.06l-.7-.15c-.47-.1-1-.19-1.47-.32A5.82,5.82,0,0,1,84.73,22a3.27,3.27,0,0,1-.69-.53,2.7,2.7,0,0,1-.36-.45,2.1,2.1,0,0,1-.18-.47,1.44,1.44,0,0,1,.18-1.11,1.42,1.42,0,0,1,.95-.6,2.29,2.29,0,0,1,.5,0,2.72,2.72,0,0,1,.57.15,3,3,0,0,1,.75.43,5.6,5.6,0,0,1,1.1,1.13c.31.41.59.83.87,1.22l.4.6C88.93,22.54,89.12,22.75,89,23Zm0,0c.08-.23-.13-.42-.28-.58a2,2,0,0,0-.56-.39,5,5,0,0,0-1.32-.46c-.46-.1-.92-.17-1.32-.24L85,21.24c-.06,0-.12,0-.11,0a.48.48,0,0,0,.16,0,1,1,0,0,0,.65-.44,1,1,0,0,0,.15-.77c0-.14,0-.13-.05-.15s0,.05,0,.11.17.29.28.46c.22.34.46.73.73,1.11a4.88,4.88,0,0,0,.93,1,2.39,2.39,0,0,0,.59.36C88.59,23,88.85,23.14,89,23Z"/><path class="cls-13" d="M59.34,10c-.17.17-.45.08-.67.06L58,9.9c-.47-.1-1-.2-1.47-.32A5.82,5.82,0,0,1,55,9a3.27,3.27,0,0,1-.69-.53A2.84,2.84,0,0,1,54,8a1.77,1.77,0,0,1-.18-.47A1.42,1.42,0,0,1,54,6.45a1.38,1.38,0,0,1,.95-.6,1.47,1.47,0,0,1,.5,0A2,2,0,0,1,56,6a2.9,2.9,0,0,1,.76.43,5.29,5.29,0,0,1,1.09,1.13c.32.41.6.83.88,1.22l.4.6C59.24,9.55,59.43,9.76,59.34,10Zm0,0c.08-.23-.13-.43-.28-.58A2.28,2.28,0,0,0,58.5,9a5.15,5.15,0,0,0-1.32-.45c-.46-.1-.92-.17-1.32-.24l-.53-.08c-.06,0-.12,0-.11,0a.48.48,0,0,0,.16,0A1,1,0,0,0,56,7.8,1,1,0,0,0,56.18,7a.58.58,0,0,0,0-.15s0,0,0,.11.17.28.27.45c.22.35.46.74.74,1.12a5.13,5.13,0,0,0,.93,1,2.39,2.39,0,0,0,.59.36C58.9,10,59.16,10.15,59.34,10Z"/><path class="cls-14" d="M65.06,77.85c-.18.16-.45.07-.67.05l-.71-.15c-.47-.1-1-.19-1.46-.32a5.89,5.89,0,0,1-1.47-.57,3.27,3.27,0,0,1-.69-.53,2.27,2.27,0,0,1-.35-.45,1.67,1.67,0,0,1-.19-.47,1.44,1.44,0,0,1,.18-1.11,1.42,1.42,0,0,1,.95-.6,1.78,1.78,0,0,1,.51,0,2.28,2.28,0,0,1,.56.14,3,3,0,0,1,.75.43,5.6,5.6,0,0,1,1.1,1.13c.31.41.59.83.87,1.23l.4.59C65,77.4,65.14,77.62,65.06,77.85Zm0,0c.07-.24-.14-.43-.28-.59a2.5,2.5,0,0,0-.57-.39,5,5,0,0,0-1.32-.46c-.46-.1-.91-.16-1.31-.23a4.59,4.59,0,0,0-.53-.08.19.19,0,0,0-.12,0,.48.48,0,0,0,.16,0,.93.93,0,0,0,.65-.44,1,1,0,0,0,.16-.77c0-.14,0-.13-.06-.15s0,0,0,.11.17.29.28.46c.22.34.46.73.73,1.11a4.66,4.66,0,0,0,.94,1,2.72,2.72,0,0,0,.58.37C64.61,77.89,64.87,78,65.06,77.85Z"/><path class="cls-15" d="M87.83,59c-.18.17-.45.07-.67,0l-.7-.14c-.47-.11-1-.2-1.47-.33a5.85,5.85,0,0,1-1.47-.56,3.54,3.54,0,0,1-.69-.53,2.38,2.38,0,0,1-.35-.46,1.86,1.86,0,0,1-.19-.47,1.38,1.38,0,0,1,1.14-1.71,1.71,1.71,0,0,1,.5,0,2.13,2.13,0,0,1,.56.15,3.06,3.06,0,0,1,.76.42,5.54,5.54,0,0,1,1.09,1.13c.31.41.59.84.87,1.23l.41.59C87.72,58.59,87.92,58.8,87.83,59Zm0,0c.07-.23-.13-.43-.28-.58a2.73,2.73,0,0,0-.56-.4,5.09,5.09,0,0,0-1.33-.45c-.45-.1-.91-.17-1.31-.24-.2,0-.39-.07-.53-.08h.05a1,1,0,0,0,.65-.45,1,1,0,0,0,.15-.77c0-.13,0-.12-.06-.15s0,.05,0,.11.18.29.28.46c.22.34.46.74.73,1.12a5.82,5.82,0,0,0,.94,1,2.68,2.68,0,0,0,.58.36C87.38,59.08,87.65,59.19,87.83,59Z"/><path class="cls-16" d="M42.9,71.33c-.18.17-.45.07-.67,0l-.7-.14c-.48-.11-1-.2-1.47-.33a5.53,5.53,0,0,1-1.47-.57,3.12,3.12,0,0,1-.69-.52,2.38,2.38,0,0,1-.35-.46,1.55,1.55,0,0,1-.19-.47,1.46,1.46,0,0,1,.19-1.11,1.42,1.42,0,0,1,.94-.6,1.77,1.77,0,0,1,.51,0,2.17,2.17,0,0,1,.56.14,3.43,3.43,0,0,1,.76.43,5.83,5.83,0,0,1,1.09,1.13c.31.41.59.83.87,1.23l.41.59C42.79,70.88,43,71.1,42.9,71.33Zm0,0c.07-.23-.13-.43-.28-.59a3.12,3.12,0,0,0-.56-.39,5.66,5.66,0,0,0-1.33-.46l-1.31-.23c-.2,0-.39-.07-.53-.08a.36.36,0,0,0-.12,0,.67.67,0,0,0,.16,0,1.06,1.06,0,0,0,.81-1.22.72.72,0,0,0-.06-.15s0,.05,0,.11.17.29.28.46c.22.34.46.74.73,1.11a4.66,4.66,0,0,0,.94,1,2.38,2.38,0,0,0,.58.37C42.45,71.37,42.71,71.49,42.9,71.33Z"/><path class="cls-17" d="M30.92,52.9c-.18.17-.45.08-.67.06l-.7-.15c-.47-.1-1-.2-1.47-.32a6,6,0,0,1-1.47-.57,3.54,3.54,0,0,1-.69-.53,2.38,2.38,0,0,1-.35-.46,1.48,1.48,0,0,1-.18-.47,1.36,1.36,0,0,1,1.13-1.7,1.47,1.47,0,0,1,.5,0,2.13,2.13,0,0,1,.56.15,3.08,3.08,0,0,1,.76.43,5.29,5.29,0,0,1,1.09,1.13c.31.41.59.83.87,1.22l.41.6C30.81,52.46,31,52.67,30.92,52.9Zm0,0c.07-.23-.13-.43-.28-.58a2.73,2.73,0,0,0-.56-.4,5.09,5.09,0,0,0-1.33-.45c-.45-.1-.91-.17-1.31-.24l-.53-.08c-.07,0-.13,0-.11,0a.47.47,0,0,0,.16,0,1,1,0,0,0,.8-1.21c0-.14,0-.13-.06-.15s0,.05,0,.11l.28.45c.22.35.46.74.73,1.12a5.49,5.49,0,0,0,.94,1,2.39,2.39,0,0,0,.59.36C30.47,53,30.74,53.06,30.92,52.9Z"/><path class="cls-18" d="M21.14,81.41c-.18.17-.45.07-.67,0l-.71-.14c-.47-.11-1-.2-1.46-.33a5.85,5.85,0,0,1-1.47-.56,3.27,3.27,0,0,1-.69-.53,2.38,2.38,0,0,1-.35-.46A1.55,1.55,0,0,1,15.6,79a1.44,1.44,0,0,1,.18-1.11,1.46,1.46,0,0,1,1-.6,1.78,1.78,0,0,1,.51,0,2.25,2.25,0,0,1,.56.15,3,3,0,0,1,.75.42A5.87,5.87,0,0,1,19.65,79c.31.41.59.83.87,1.23l.4.59C21,81,21.22,81.18,21.14,81.41Zm0,0c.07-.23-.14-.43-.28-.58a2.54,2.54,0,0,0-.57-.4A5,5,0,0,0,19,80c-.46-.1-.91-.17-1.31-.24-.2,0-.39-.07-.53-.08H17s0,0,.16,0a1,1,0,0,0,.65-.45,1,1,0,0,0,.16-.77.72.72,0,0,0-.06-.15s0,0,0,.11a4.38,4.38,0,0,0,.28.46c.22.34.46.74.73,1.12a5.41,5.41,0,0,0,.93,1,3,3,0,0,0,.59.36C20.69,81.46,21,81.57,21.14,81.41Z"/><path class="cls-19" d="M102.69,38.71c-.17.17-.45.07-.67,0l-.7-.14c-.47-.11-1-.2-1.47-.33a5.46,5.46,0,0,1-1.46-.57,2.91,2.91,0,0,1-.69-.52,2.84,2.84,0,0,1-.36-.46,1.92,1.92,0,0,1-.18-.47,1.44,1.44,0,0,1,.18-1.11,1.46,1.46,0,0,1,1-.6,1.71,1.71,0,0,1,.5,0,2.06,2.06,0,0,1,.56.14,3.22,3.22,0,0,1,.76.43,5.29,5.29,0,0,1,1.09,1.13c.32.41.6.83.88,1.23l.4.59C102.59,38.26,102.78,38.48,102.69,38.71Zm0,0c.08-.23-.13-.43-.28-.59a2.54,2.54,0,0,0-.56-.39,5,5,0,0,0-1.32-.45c-.46-.1-.92-.17-1.32-.24-.19,0-.39-.07-.53-.08h0a1,1,0,0,0,.8-1.22l0-.15s0,0,0,.11.17.29.28.46c.22.34.46.74.73,1.12a5.41,5.41,0,0,0,.93,1,2.74,2.74,0,0,0,.59.36C102.25,38.75,102.51,38.87,102.69,38.71Z"/><path class="cls-20" d="M51.33,86.11c-.18.17-.45.07-.67,0L50,86c-.47-.11-1-.2-1.46-.33A5.89,5.89,0,0,1,47,85.12a3.2,3.2,0,0,1-.69-.52,2.38,2.38,0,0,1-.35-.46,1.67,1.67,0,0,1-.19-.47A1.44,1.44,0,0,1,46,82.56a1.42,1.42,0,0,1,1-.6,1.78,1.78,0,0,1,.51,0,2.28,2.28,0,0,1,.56.14,3.35,3.35,0,0,1,.75.43,5.6,5.6,0,0,1,1.1,1.13c.31.41.59.83.87,1.23l.4.59C51.22,85.66,51.41,85.88,51.33,86.11Zm0,0c.07-.24-.14-.43-.28-.59a2.87,2.87,0,0,0-.57-.39,5,5,0,0,0-1.32-.46c-.46-.1-.91-.16-1.31-.23a4.59,4.59,0,0,0-.53-.08.36.36,0,0,0-.12,0,.48.48,0,0,0,.16,0,.93.93,0,0,0,.65-.44,1,1,0,0,0,.16-.77.49.49,0,0,0-.06-.15s0,.05,0,.11.17.29.28.46c.22.34.46.73.73,1.11a4.88,4.88,0,0,0,.93,1,3.06,3.06,0,0,0,.59.37C50.88,86.15,51.14,86.26,51.33,86.11Z"/><path class="cls-21" d="M184.09,110.82a7.68,7.68,0,0,1-.09,1.35c0,.41-.09.82-.15,1.23-.12.83-.27,1.64-.41,2.46-.3,1.64-.63,3.27-1.06,4.88l-.63,2.41c-.23.8-.5,1.59-.74,2.38-.48,1.6-1,3.16-1.64,4.72A84.74,84.74,0,0,1,170.18,148c-1.86,2.77-4,5.32-6.13,7.89-2.29,2.42-4.49,4.91-6.94,7.15s-4.92,4.44-7.39,6.65c-1.28,1.06-2.59,2.09-4,3a18.57,18.57,0,0,1-2.21,1.3,7.74,7.74,0,0,1-1.25.49,3.66,3.66,0,0,1-1.51.14,2.06,2.06,0,0,1-1.44-1.14,4,4,0,0,1-.26-1.51,10.2,10.2,0,0,1,.38-2.64,32.37,32.37,0,0,1,1.66-4.8,95.74,95.74,0,0,1,4.43-9,189.41,189.41,0,0,1,10.57-16.88,182.16,182.16,0,0,1,12.34-15.63,92.2,92.2,0,0,1,7-7.1,35.76,35.76,0,0,1,3.92-3.12,18.24,18.24,0,0,1,2.17-1.29,7.06,7.06,0,0,1,1.17-.49c.21-.06.4-.13.62-.18A4.85,4.85,0,0,1,184.09,110.82Zm-.18.18a4.17,4.17,0,0,1-.48.2l-.54.24a8.43,8.43,0,0,0-1.06.59,17,17,0,0,0-2,1.45,47,47,0,0,0-3.54,3.38c-2.28,2.35-4.35,4.9-6.42,7.45-4.11,5.11-7.93,10.47-11.66,15.88s-7.37,10.88-10.71,16.53c-1.64,2.83-3.26,5.69-4.65,8.62a39.48,39.48,0,0,0-1.83,4.46,9.36,9.36,0,0,0-.49,2.22,3,3,0,0,0,.07.93.68.68,0,0,0,.4.38,3.87,3.87,0,0,0,2-.41,18.6,18.6,0,0,0,2.13-1.09,36.7,36.7,0,0,0,4-2.81,77.53,77.53,0,0,0,7.35-6.56l1.71-1.78a19,19,0,0,0,1.63-1.84L163,155c1.9-2.68,3.83-5.32,5.48-8.15a127.73,127.73,0,0,0,9.14-17.32c.63-1.51,1.29-3,1.85-4.55s1.14-3.07,1.68-4.62c.28-.77.5-1.56.76-2.34s.51-1.57.73-2.36.46-1.58.65-2.38l.31-1.19A6.69,6.69,0,0,1,183.91,111Z"/><path class="cls-22" d="M163.19,143.47a22.55,22.55,0,0,1-3.55-1.86,38.12,38.12,0,0,1-3.23-2.26c-2.07-1.61-3.57-3.95-5.72-5.46s-4.57-2.7-6.65-4.29c-1.08-.76-2.16-1.51-3.19-2.31s-2-1.68-3-2.59l-.08-.07a8.14,8.14,0,0,1-1.07-1.51,4.35,4.35,0,0,1-.61-1.94,1.87,1.87,0,0,1,.34-1.2,1.72,1.72,0,0,1,.94-.63,3.09,3.09,0,0,1,.93-.14c.29,0,.58.06.86.09l.12,0v.18l-.11,0-.76.29a3.19,3.19,0,0,0-.61.38c-.36.31-.31.5-.2.77a4,4,0,0,0,.7,1,10.33,10.33,0,0,0,1,1l-.08-.06c1.1.72,2.17,1.49,3.2,2.3s2,1.71,3,2.58c2,1.67,3.66,3.83,5.7,5.5s4.58,2.67,6.62,4.32a38.58,38.58,0,0,1,2.94,2.63,22.54,22.54,0,0,1,2.62,3l.08.11-.11.13Z"/></g></svg>