<svg xmlns="http://www.w3.org/2000/svg" xmlns:xlink="http://www.w3.org/1999/xlink" viewBox="0 0 192 192"><defs><style>.cls-1{fill:url(#linear-gradient);}.cls-2{fill:url(#linear-gradient-2);}.cls-3{fill:url(#linear-gradient-3);}.cls-4{fill:url(#linear-gradient-4);}.cls-5{fill:url(#linear-gradient-5);}.cls-6{fill:url(#linear-gradient-6);}.cls-7{fill:url(#linear-gradient-7);}.cls-8{fill:url(#linear-gradient-8);}.cls-9{fill:url(#linear-gradient-9);}</style><linearGradient id="linear-gradient" x1="56.03" y1="125.91" x2="136.94" y2="125.91" gradientUnits="userSpaceOnUse"><stop offset="0.21" stop-color="#039be5"/><stop offset="0.24" stop-color="#1193dd"/><stop offset="0.43" stop-color="#5c6ab2"/><stop offset="0.6" stop-color="#974991"/><stop offset="0.74" stop-color="#c13278"/><stop offset="0.85" stop-color="#db236a"/><stop offset="0.91" stop-color="#e51e64"/><stop offset="1" stop-color="#e91e63"/></linearGradient><linearGradient id="linear-gradient-2" x1="65.35" y1="116.6" x2="87.42" y2="116.6" xlink:href="#linear-gradient"/><linearGradient id="linear-gradient-3" x1="89.05" y1="170.08" x2="91.62" y2="170.08" xlink:href="#linear-gradient"/><linearGradient id="linear-gradient-4" x1="99.95" y1="167.02" x2="102.27" y2="167.02" xlink:href="#linear-gradient"/><linearGradient id="linear-gradient-5" x1="107.27" y1="175.78" x2="111.7" y2="175.78" xlink:href="#linear-gradient"/><linearGradient id="linear-gradient-6" x1="55.37" y1="138.5" x2="130.53" y2="138.5" xlink:href="#linear-gradient"/><linearGradient id="linear-gradient-7" x1="67.41" y1="68.53" x2="97.11" y2="68.53" xlink:href="#linear-gradient"/><linearGradient id="linear-gradient-8" x1="125.74" y1="72.77" x2="96.71" y2="72.77" xlink:href="#linear-gradient"/><linearGradient id="linear-gradient-9" x1="110.57" y1="61.85" x2="87.55" y2="61.85" xlink:href="#linear-gradient"/></defs><title>Artboard 5</title><g id="Layer_13" data-name="Layer 13"><path class="cls-1" d="M70.58,171.45A23.47,23.47,0,0,1,63,165.34a27.39,27.39,0,0,1-4.81-8.52A35.87,35.87,0,0,1,57,152.05a35.23,35.23,0,0,1-.5-4.9,44.53,44.53,0,0,1,.76-9.79l0,.14q.31-12.89.77-25.78v.18a46.27,46.27,0,0,1,.26-11A32.23,32.23,0,0,1,61.62,90.3a20.5,20.5,0,0,1,7.6-8.1,13.48,13.48,0,0,1,1.24-.68l.64-.32c.29-.11.47-.17.71-.24a14.69,14.69,0,0,1,2.78-.54,9.33,9.33,0,0,1,5.6,1.08,7.56,7.56,0,0,1,2.13,2,14.78,14.78,0,0,1,1.33,2.46c.75,1.65,1.46,3.3,2.15,5,1.38,3.32,2.76,6.64,4.09,10l8.09,20-1,0L105.74,101l2.18-5L109,93.54a7.87,7.87,0,0,0,.4-1.15,12.05,12.05,0,0,1,.46-1.4,13.65,13.65,0,0,1,3.25-4.83A15.68,15.68,0,0,1,118,83l-.14.07A16.06,16.06,0,0,1,122,81.59a11.44,11.44,0,0,1,4.49-.17,8,8,0,0,1,4.17,2.13,10.59,10.59,0,0,1,2.43,3.85,17.91,17.91,0,0,1,.64,2.09c.17.7.29,1.35.43,2,.27,1.34.53,2.68.75,4,.45,2.69.81,5.39,1.12,8.1s.52,5.42.7,8.14.32,5.39.32,8.21c0,1.43-.15,2.75-.22,4.1l-.25,4.05-.5,8.1-.54,8.09a45.16,45.16,0,0,1-1.19,8.21,41.44,41.44,0,0,1-7.08,14.91,20.47,20.47,0,0,1-1.36,1.62,7.12,7.12,0,0,1-1.8,1.44,3.41,3.41,0,0,1-.64.24,2.5,2.5,0,0,1-.38.06h-.3a2.1,2.1,0,0,1-.77-.12,1.5,1.5,0,0,1-.77-.64,1.43,1.43,0,0,1-.11-.21l0-.11-.09-.22-.2-.43c-.14-.29-.3-.57-.46-.85a20.75,20.75,0,0,0-5.24-5.84,18.7,18.7,0,0,1-4.39-7,46.87,46.87,0,0,1-2.27-7.82l.25-.06a51.5,51.5,0,0,0,2.68,7.6,17.71,17.71,0,0,0,4.45,6.43,21.93,21.93,0,0,1,5.75,6c.18.3.36.61.53.92l.24.48.12.24,0,.13,0,0s0,0,0,0a.75.75,0,0,0,.24,0h.19l.13,0a1.19,1.19,0,0,0,.29-.13,9.52,9.52,0,0,0,2.49-2.68,39.61,39.61,0,0,0,2.09-3.37c.66-1.16,1.27-2.32,1.81-3.53a38.61,38.61,0,0,0,2.48-7.48,42,42,0,0,0,.95-7.85l.37-8.11L134,128l.21-4c.06-1.34.16-2.72.18-4-.07-5.27-.45-10.71-1-16q-.4-4-1-8c-.21-1.32-.44-2.64-.68-4a24.66,24.66,0,0,0-.91-3.74,8.36,8.36,0,0,0-1.81-3A5.66,5.66,0,0,0,126,83.74,11.82,11.82,0,0,0,119,85.07l-.11.05,0,0a13.25,13.25,0,0,0-4.25,2.57,11.6,11.6,0,0,0-2.85,4,11.38,11.38,0,0,0-.41,1.16,11,11,0,0,1-.51,1.4l-1.16,2.48-2.34,4.89L98,121.25l-.53,1.11L97,121.22c-2.52-6.72-5.16-13.4-7.83-20.07-1.38-3.31-2.73-6.64-4.2-9.91-.72-1.64-1.46-3.27-2.24-4.88a13.74,13.74,0,0,0-1.3-2.23,6.43,6.43,0,0,0-1.86-1.59,8,8,0,0,0-4.85-.74,13.12,13.12,0,0,0-2.48.57c-.19.07-.43.15-.55.21l-.56.31a12.21,12.21,0,0,0-1.1.65,18.79,18.79,0,0,0-6.69,7.66,32,32,0,0,0-2.88,10,45.17,45.17,0,0,0-.22,10.45v.18q-.51,12.89-1.12,25.77v.15a44.41,44.41,0,0,0-1,9.39,33.68,33.68,0,0,0,.32,4.71,31.48,31.48,0,0,0,1,4.6,27.66,27.66,0,0,0,4.23,8.42,24.52,24.52,0,0,0,7,6.38Z"/><path class="cls-2" d="M86.06,147.47a68,68,0,0,0-3.62-7.54c-1.34-2.42-2.84-4.71-4.37-7-.76-1.16-1.54-2.26-2.36-3.49s-1.54-2.42-2.26-3.65c-1.47-2.44-2.89-4.89-4.25-7.41a36.31,36.31,0,0,1-3.28-8,22.73,22.73,0,0,1-.61-4.41,39.29,39.29,0,0,1,0-4.34A33.28,33.28,0,0,1,67,93.08a21.7,21.7,0,0,1,1.85-4,16.25,16.25,0,0,1,2.73-3.37l.2.16A25.15,25.15,0,0,0,69,93.62a50.35,50.35,0,0,0-.93,8.14c-.07,1.37-.08,2.75-.08,4.12a21.2,21.2,0,0,0,.31,4,38.19,38.19,0,0,0,1,4c.39,1.33.77,2.68,1.23,4a30.66,30.66,0,0,0,3.67,7.52,23.46,23.46,0,0,0,2.66,3.22c1,1,2,2,2.94,3.11a30.45,30.45,0,0,1,4.46,7.4,25.18,25.18,0,0,1,2.11,8.34Z"/><path class="cls-3" d="M91.62,169.65a1.42,1.42,0,0,1-.43.69,1,1,0,0,1-.73.25,2.5,2.5,0,0,1-1.29-.51,2.42,2.42,0,0,0,1.27.26.75.75,0,0,0,.49-.27,1,1,0,0,0,.19-.5Z"/><path class="cls-4" d="M100.5,166.2a2.51,2.51,0,0,0-.1.77.68.68,0,0,0,1,.75,5.06,5.06,0,0,0,.78-.31,5.48,5.48,0,0,1-.74.43,1.07,1.07,0,0,1-.91,0A1.2,1.2,0,0,1,100,167a3.46,3.46,0,0,1,0-.91Z"/><path class="cls-5" d="M107.4,173.7a5.74,5.74,0,0,1,1.34.71,4.45,4.45,0,0,1,1.12,1.09,3.07,3.07,0,0,1,.2.36,3,3,0,0,0,.15.31,3.7,3.7,0,0,0,.38.59,10,10,0,0,0,1,1.1,4,4,0,0,1-1.27-.84,3.25,3.25,0,0,1-.5-.61,3,3,0,0,1-.19-.35,2.19,2.19,0,0,0-.17-.29,7.68,7.68,0,0,0-.94-1.06Z"/><path class="cls-6" d="M97.79,121.14c-2.55,6.74-5.19,13.44-7.84,20.14-1.31,3.36-2.68,6.69-4,10l-4.05,10,0,.08,0,.06a34.21,34.21,0,0,1-3.1,3.38,15.58,15.58,0,0,1-1.82,1.47l-.52.31-.43.27c-.28.21-.57.42-.84.66-1.11.95-2.15,2-3.18,3.1s-2,2.19-3,3.32l0,0,0,0-8.68,6,0,0h0a15.31,15.31,0,0,0-2.57,1,3.67,3.67,0,0,0-1.06.75.58.58,0,0,0-.18.47,1.56,1.56,0,0,0,.15.59,3.91,3.91,0,0,0,2,1.68c.22.09.39.13.66.22a1.92,1.92,0,0,1,.66.4c.39.33.66.74,1,1a.82.82,0,0,0,.5.26.89.89,0,0,0,.27,0,1.88,1.88,0,0,1,.4-.08,2.56,2.56,0,0,1,1.36.65,3,3,0,0,0,1.17.59,2.3,2.3,0,0,0,1.28-.22,1.69,1.69,0,0,1,1.51.17,1.67,1.67,0,0,0,.56.27,1.13,1.13,0,0,0,.58-.11,3.22,3.22,0,0,1,1.41-.4,1.9,1.9,0,0,1,1.44.58l-.22-.07A26.59,26.59,0,0,0,77.4,185a11.6,11.6,0,0,0,2.69-2.17c.38-.42.68-.9,1.06-1.41s.77-.93,1.19-1.36a50,50,0,0,1,5.41-4.7q1.43-1.1,2.88-2.13l.74-.51.36-.25a1,1,0,0,0,.23-.23,4.76,4.76,0,0,0,.76-1.41,12.74,12.74,0,0,0,.63-3.34c0-.58.05-1.16,0-1.74,0-.27,0-.6,0-.94a5.83,5.83,0,0,1,.17-1,19,19,0,0,1,3.58-6.37,79.16,79.16,0,0,1,10-10.27l-.11.12,1.2-1.66c.42-.56.86-1.09,1.27-1.62l2.49-3.23c1.64-2.17,3.24-4.36,4.79-6.6a108.67,108.67,0,0,0,8.4-13.89,26.41,26.41,0,0,0,2.53-7.59c.41-2.69.82-5.39,1.17-8.08s.64-5.41.74-8.12a26.07,26.07,0,0,0-.12-4,6,6,0,0,0-1.44-3.68l.09-.09a6.21,6.21,0,0,1,1.64,3.72,27,27,0,0,1,.28,4.11,77.24,77.24,0,0,1-.48,8.19c-.27,2.72-.61,5.42-.95,8.13a27.1,27.1,0,0,1-2.48,7.91A98.91,98.91,0,0,1,117.88,135q-2.32,3.38-4.79,6.66l-2.5,3.26c-.42.54-.85,1.06-1.25,1.6l-1.18,1.64,0,.07-.07.05a78.17,78.17,0,0,0-9.94,10,18.34,18.34,0,0,0-3.43,5.91,5.49,5.49,0,0,0-.15.79c0,.25,0,.51,0,.83,0,.6,0,1.21-.08,1.82a13.08,13.08,0,0,1-.76,3.61,6,6,0,0,1-1,1.69,2.65,2.65,0,0,1-.42.38l-.37.24-.74.49c-1,.66-1.94,1.35-2.89,2a48,48,0,0,0-5.42,4.51,16,16,0,0,0-1.18,1.29c-.34.43-.68.95-1.11,1.41a12.21,12.21,0,0,1-2.87,2.22A29.24,29.24,0,0,1,71,188.21l-.12,0-.1-.11a1.54,1.54,0,0,0-1.1-.44,3.16,3.16,0,0,0-1.27.37,1.48,1.48,0,0,1-.79.12,1.73,1.73,0,0,1-.71-.33,1.31,1.31,0,0,0-1.19-.13,2.69,2.69,0,0,1-1.46.21A3.58,3.58,0,0,1,63,187.3a2.18,2.18,0,0,0-1.13-.56.93.93,0,0,0-.29.06,1.16,1.16,0,0,1-.42,0,1.24,1.24,0,0,1-.74-.36c-.37-.35-.63-.73-1-1a1.71,1.71,0,0,0-.53-.32c-.18-.06-.46-.13-.68-.22A4.31,4.31,0,0,1,56,183.06a2,2,0,0,1-.22-.77,1.11,1.11,0,0,1,.29-.81,4.21,4.21,0,0,1,1.2-.89,15,15,0,0,1,2.65-1.1l-.09,0,8.51-6.19-.08.08c1-1.17,1.94-2.31,3-3.44a36.24,36.24,0,0,1,3.22-3.22c.29-.26.6-.5.92-.74l1-.6A12.66,12.66,0,0,0,78,164.05a31.66,31.66,0,0,0,3-3.28l-.07.14,4.14-10c1.39-3.33,2.75-6.67,4.17-10,2.8-6.63,5.62-13.27,8.53-19.86Z"/><path class="cls-7" d="M96.42,116.64q-1.35-8-3.3-15.91c-.65-2.62-1.4-5.22-2.21-7.79A60,60,0,0,0,88,85.41a28,28,0,0,0-1.93-3.49,39.37,39.37,0,0,1-2.19-3.48,47.83,47.83,0,0,1-3.22-7.56,76.85,76.85,0,0,1-3.3-16v-.05c.28-3.66.49-7.33.72-11s.41-7.33.62-11l.44,0a30.75,30.75,0,0,0,.3,6.65A6.79,6.79,0,0,0,79.92,41c.22.48.55.84.91.75a13,13,0,0,1,1.65-.39,4,4,0,0,1,.92,0,1.91,1.91,0,0,1,.5.12.9.9,0,0,1,.52.46l-.48-.21a1.27,1.27,0,0,0,.49-.53,2.06,2.06,0,0,0,.22-.79,4.7,4.7,0,0,0-.23-1.76,14.46,14.46,0,0,0-1.66-3.37L82,34.1l1.31.53a8.93,8.93,0,0,0,2.19.61,2.35,2.35,0,0,0,1.89-.36l0,0,.07,0a3.22,3.22,0,0,0,1-.91c.23-.37.23-.59,0-.87a3.24,3.24,0,0,0-1.1-.76A10.65,10.65,0,0,0,86,31.75l-1.26-.37,1.14-.7a10,10,0,0,0,2.25-1.75,1.47,1.47,0,0,0,.28-.44c0-.13,0,0,0-.07a2.57,2.57,0,0,0-1.1-.32,11.35,11.35,0,0,1-1.58-.32A4.31,4.31,0,0,1,84.1,27a1.47,1.47,0,0,1-.59-1.14,1.74,1.74,0,0,1,.43-1.11,4.77,4.77,0,0,1,1.41-1.12l-.26.93A8.34,8.34,0,0,0,83.78,23c-.49-.45-1-.68-1.34-.53a2.44,2.44,0,0,0-1,1.39A13.22,13.22,0,0,0,81,25.93l-.29,1.6-.89-1.36c-.52-.78-1.09-1.56-1.69-2.29A10.3,10.3,0,0,0,76.15,22c-.34-.24-.71-.31-.72-.26a1.28,1.28,0,0,0-.33.79,11.44,11.44,0,0,0,0,2.75l.06.88-.86-.22a4.07,4.07,0,0,0-2.41-.06.67.67,0,0,0-.42.65,3,3,0,0,0,.21,1.18,6,6,0,0,1,.61,3,3.32,3.32,0,0,1-2,2.6l.08,0a6.69,6.69,0,0,0-1.54,1.28c-.2.23-.28.49-.24.54s.25.25.54.33a7.79,7.79,0,0,0,2,.28c.71,0,1.43,0,2.15,0l1.3,0-1,.77a16.69,16.69,0,0,0-2.39,2.12,2.74,2.74,0,0,0-.73,1.22.32.32,0,0,0,.19.37,1.82,1.82,0,0,0,.67.19c1,.1,2.14-.11,3.26,0a5,5,0,0,1,.85.1,2,2,0,0,1,.44.14.68.68,0,0,1,.39.42.66.66,0,0,1-.15.54,2,2,0,0,1-.31.33,4.19,4.19,0,0,1-.7.49l0-.3a3.4,3.4,0,0,0,1.82.07,3.28,3.28,0,0,0,1.59-.94l.09.08A3.4,3.4,0,0,1,76.9,42.3a3.7,3.7,0,0,1-2,0l-.36-.09.32-.2a4.19,4.19,0,0,0,.63-.48c.18-.16.35-.42.31-.5s-.29-.2-.53-.23a4.93,4.93,0,0,0-.78-.06c-1.07,0-2.12.23-3.3.15a2.47,2.47,0,0,1-.91-.24,1,1,0,0,1-.54-1,3.31,3.31,0,0,1,.84-1.61,16.69,16.69,0,0,1,2.45-2.31l.27.72c-.74,0-1.48.1-2.23.1a8.83,8.83,0,0,1-2.3-.26,1.69,1.69,0,0,1-1.17-.91,1.23,1.23,0,0,1,0-.87A2.47,2.47,0,0,1,68,34a7.63,7.63,0,0,1,1.78-1.55h0l.08,0a2.27,2.27,0,0,0,1.32-1.79,3,3,0,0,0-.12-1.21,11.08,11.08,0,0,0-.49-1.31,4.07,4.07,0,0,1-.3-1.64,2.13,2.13,0,0,1,.29-1,2,2,0,0,1,.78-.68,3.81,3.81,0,0,1,1.7-.3,8.38,8.38,0,0,1,1.57.23l-.79.66a12.73,12.73,0,0,1,0-3.08,3.37,3.37,0,0,1,.25-.85,1.71,1.71,0,0,1,.75-.85A1.54,1.54,0,0,1,76,20.49a3.14,3.14,0,0,1,.82.41,11.19,11.19,0,0,1,2.23,2.16,26.77,26.77,0,0,1,1.78,2.41l-1.19.24a13.63,13.63,0,0,1,.59-2.3,5.3,5.3,0,0,1,.56-1.15,2.53,2.53,0,0,1,1.11-1,2.1,2.1,0,0,1,1.6,0,3.8,3.8,0,0,1,1.13.73,8.77,8.77,0,0,1,1.57,1.88l.37.59-.63.34a3.66,3.66,0,0,0-1,.78.67.67,0,0,0-.16.27s0,.05.12.16a3.53,3.53,0,0,0,1.15.51c.45.12.94.22,1.43.3a3.3,3.3,0,0,1,1.76.67,1.24,1.24,0,0,1,.37.64,1.45,1.45,0,0,1,0,.7,2.63,2.63,0,0,1-.53.86,11,11,0,0,1-2.6,2l-.12-1.07a11,11,0,0,1,1.59.61,3.75,3.75,0,0,1,1.5,1.13,1.71,1.71,0,0,1,.35,1.1,2.06,2.06,0,0,1-.39,1A4.38,4.38,0,0,1,88,35.69l.09-.07a2.5,2.5,0,0,1-1.36.59,5,5,0,0,1-1.34,0A9.74,9.74,0,0,1,83,35.45l.56-.65a15.58,15.58,0,0,1,1.68,3.63,5.5,5.5,0,0,1,.21,2.07,2.37,2.37,0,0,1-1.18,1.9l-.48-.21c0,.08,0,0-.12,0a1,1,0,0,0-.32-.08,3.16,3.16,0,0,0-.75,0,13,13,0,0,0-1.63.35,1.2,1.2,0,0,1-1-.34,2.38,2.38,0,0,1-.53-.8,7.37,7.37,0,0,1-.46-1.68,24.39,24.39,0,0,1-.25-3.39c0-1.13,0-2.25.07-3.38l.44,0c-.21,3.67-.47,7.34-.64,11s-.39,7.33-.54,11v0a80.56,80.56,0,0,0,3.69,15.72,47.24,47.24,0,0,0,3.21,7.36c.65,1.18,1.36,2.25,2.13,3.42A27.8,27.8,0,0,1,89,85a79.73,79.73,0,0,1,4.89,15.6,153.25,153.25,0,0,1,2.68,16.06Z"/><path class="cls-8" d="M97.27,120.87A153.44,153.44,0,0,1,100,104.8a80.51,80.51,0,0,1,4.88-15.59,30,30,0,0,1,2-3.65c.77-1.16,1.48-2.23,2.12-3.41a47.28,47.28,0,0,0,3.22-7.36,81.26,81.26,0,0,0,3.68-15.72v0c-.14-3.67-.35-7.34-.53-11s-.42-7.33-.64-11l.44,0c.08,1.11.11,2.21.09,3.32a20.74,20.74,0,0,1-.25,3.33,7.06,7.06,0,0,1-.48,1.65,1.9,1.9,0,0,1-1.4,1.25,5.85,5.85,0,0,1-.88,0l-.81,0h-.81l-.38,0-.17,0s-.16.06-.06,0l-.14.06a2.36,2.36,0,0,1-1,0,1.47,1.47,0,0,1-.92-.59,2.45,2.45,0,0,1-.13-2A12.84,12.84,0,0,1,109.23,41l.55.65a6.84,6.84,0,0,1-2,.51,1.71,1.71,0,0,1-1.24-.35,1.2,1.2,0,0,1-.38-.69,2.28,2.28,0,0,1,0-.64l.38.57a3.09,3.09,0,0,1-1.8-1.06,1.46,1.46,0,0,1-.18-1.31,2.77,2.77,0,0,1,.6-.93,8.33,8.33,0,0,1,1.5-1.15c.52-.31,1-.59,1.59-.86l.11,1.12a14.34,14.34,0,0,1-3.17-1.2,3.58,3.58,0,0,1-1.46-1.29,1.56,1.56,0,0,1-.1-1.29,2.41,2.41,0,0,1,.66-.89,6.21,6.21,0,0,1,1.54-.92,9.46,9.46,0,0,0,1.35-.7,2.12,2.12,0,0,0,.83-.85.42.42,0,0,0,0-.33,1,1,0,0,0-.25-.35l-.63-.48.57-.53a8.41,8.41,0,0,1,1.75-1.27,3.8,3.8,0,0,1,2.32-.55,2.31,2.31,0,0,1,1.24.63,3,3,0,0,1,.68,1.05,7,7,0,0,1,.46,2.14l-1.19-.3a29.94,29.94,0,0,1,1.78-2.41A11.41,11.41,0,0,1,117,25.14a3.48,3.48,0,0,1,.82-.4,1.57,1.57,0,0,1,1.19.08,1.67,1.67,0,0,1,.75.85,3.62,3.62,0,0,1,.25.84,12.74,12.74,0,0,1,0,3.08l-.88-.62a4.75,4.75,0,0,1,1.53-.36,2.52,2.52,0,0,1,1.7.47,2.41,2.41,0,0,1,.82,1.55,5.51,5.51,0,0,1,0,1.52c-.07.5-.16.9-.19,1.32a5.52,5.52,0,0,0,0,1.22,3,3,0,0,0,1,2l.12.09,0,.07a13.27,13.27,0,0,1,.77,1.37,6.25,6.25,0,0,1,.55,1.54,2,2,0,0,1,0,1,1.15,1.15,0,0,1-.86.77,3.32,3.32,0,0,1-1.71-.22l.41-.65a8,8,0,0,1,.94,1.3,3.62,3.62,0,0,1,.54,1.61,1.45,1.45,0,0,1-.29.93,1.76,1.76,0,0,1-.77.53,4.66,4.66,0,0,1-1.63.21c-1.06,0-2-.21-3-.16a4.18,4.18,0,0,0-.72.08c-.23,0-.4.16-.38.24a1,1,0,0,0,.36.5,4.21,4.21,0,0,0,.58.44l.27.18-.28.11a3.45,3.45,0,0,1-2,.22,2.92,2.92,0,0,1-1.66-1l.1-.09a2.62,2.62,0,0,0,1.59.86,3.2,3.2,0,0,0,1.78-.28v.29a4.33,4.33,0,0,1-.66-.46,1.25,1.25,0,0,1-.51-.72.55.55,0,0,1,.25-.51,1.36,1.36,0,0,1,.41-.19,3.81,3.81,0,0,1,.8-.13c1-.09,2.1,0,3.07,0a4.24,4.24,0,0,0,1.4-.22.79.79,0,0,0,.59-.84,4.76,4.76,0,0,0-1.37-2.39l-1-1.05,1.37.4a2.74,2.74,0,0,0,1.26.13c.15,0,.16-.08.2-.19a1.2,1.2,0,0,0,0-.52,8.72,8.72,0,0,0-1.25-2.52l.16.15a3.94,3.94,0,0,1-1.58-2.66,6.68,6.68,0,0,1-.07-1.48c0-.49.12-1,.16-1.38.11-.81,0-1.7-.41-2a2.28,2.28,0,0,0-2,.09l-.95.42.07-1a11.44,11.44,0,0,0,0-2.75c0-.41-.26-.79-.34-.79s-.37,0-.71.26a10.27,10.27,0,0,0-1.94,1.91c-.59.73-1.16,1.52-1.68,2.3L113,32l-.17-1.85a6,6,0,0,0-.38-1.75c-.22-.51-.52-.82-.91-.87a2.55,2.55,0,0,0-1.48.4A7.79,7.79,0,0,0,108.62,29l-.06-1a2.09,2.09,0,0,1,.69.95,1.79,1.79,0,0,1,0,1.25,3.27,3.27,0,0,1-1.36,1.47,11,11,0,0,1-1.53.77,5.11,5.11,0,0,0-1.24.72,1.26,1.26,0,0,0-.32.38.3.3,0,0,0,0,.27,2.68,2.68,0,0,0,1,.81,13.42,13.42,0,0,0,2.87,1.1l1.54.43-1.43.69a16.38,16.38,0,0,0-1.5.78,6.69,6.69,0,0,0-1.29.94,1.55,1.55,0,0,0-.37.51.36.36,0,0,0,0,.35,2.24,2.24,0,0,0,1.16.68l.45.13-.08.44c0,.25,0,.4,0,.44a.87.87,0,0,0,.56.12,5.82,5.82,0,0,0,1.69-.39l1.26-.47L110,41.45a12.17,12.17,0,0,0-1.45,2.88,1.73,1.73,0,0,0,0,1.31c.15.29.68.39,1.13.32l-.14.06a1,1,0,0,1,.34-.12l.24,0a3.17,3.17,0,0,1,.43,0,8,8,0,0,1,.85,0l.84.06A6,6,0,0,0,113,46c.39,0,.72-.41.93-.87a6.72,6.72,0,0,0,.47-1.5,27.29,27.29,0,0,0,.27-6.52l.44,0c.2,3.67.37,7.34.62,11s.44,7.33.72,11v0a76.94,76.94,0,0,1-3.3,16,48.23,48.23,0,0,1-3.22,7.56,40.07,40.07,0,0,1-2.19,3.47,26.93,26.93,0,0,0-1.93,3.49,60.54,60.54,0,0,0-2.88,7.53q-1.23,3.85-2.21,7.8-2,7.88-3.31,15.91Z"/><path class="cls-9" d="M97.92,116.64a172.51,172.51,0,0,1-3.25-18.91c-.38-3.18-.63-6.38-.73-9.59a62.48,62.48,0,0,1,.36-9.66,24.12,24.12,0,0,1,1.06-4.77,13.59,13.59,0,0,1,1-2.29c.43-.76.9-1.36,1.28-2a26,26,0,0,0,2.89-8.88A52.75,52.75,0,0,0,101,51a64.15,64.15,0,0,0-1-9.49v0h0c-.18-3.67-.41-7.34-.64-11s-.47-7.33-.72-11l.62,0a37.68,37.68,0,0,1-.22,6.79A8.21,8.21,0,0,1,98.67,28a2.6,2.6,0,0,1-.49.86,1.18,1.18,0,0,1-1.18.36,1.69,1.69,0,0,1-.27-.1L96.56,29c-.11-.05-.23-.08-.34-.12a3,3,0,0,0-.72-.09,3.6,3.6,0,0,0-1.43.31l-.06,0h0a1.92,1.92,0,0,1-.86,0,1.36,1.36,0,0,1-.8-.56A2.29,2.29,0,0,1,92.13,27a10.07,10.07,0,0,1,1-2.54c.09-.07,0-.53-.09-.81a.65.65,0,0,0-.09-.17s-.06,0,.1,0h0l-.17,0-.35.06a4.62,4.62,0,0,1-1.44,0A2.61,2.61,0,0,1,89.65,23l.13.09a4.34,4.34,0,0,1-1.62-1.38,2,2,0,0,1-.34-1.22,2.05,2.05,0,0,1,.49-1.16A5.33,5.33,0,0,1,90,18.06a15.13,15.13,0,0,1,1.78-.73l.1,1.17a11.35,11.35,0,0,1-3-.84,4.12,4.12,0,0,1-.74-.47,1.62,1.62,0,0,1-.6-1,1.53,1.53,0,0,1,.32-1.16,3.66,3.66,0,0,1,.65-.61,7.85,7.85,0,0,1,1.35-.8A4.16,4.16,0,0,0,91,13a2.16,2.16,0,0,0,.6-.91,2.26,2.26,0,0,0,.08-1l-.06-.3.14-.21a9,9,0,0,1,1.56-1.88,3.93,3.93,0,0,1,1.13-.73,2.1,2.1,0,0,1,1.6,0,2.58,2.58,0,0,1,1.11,1,5.8,5.8,0,0,1,.56,1.15,13.63,13.63,0,0,1,.59,2.3L97.1,12.1a28,28,0,0,1,1.77-2.4,11.19,11.19,0,0,1,2.23-2.16,2.85,2.85,0,0,1,.82-.4,1.54,1.54,0,0,1,1.18.07,1.71,1.71,0,0,1,.75.85,3.69,3.69,0,0,1,.25.85,12.15,12.15,0,0,1,0,3.07l-.8-.63a6.86,6.86,0,0,1,1.61-.27,3.08,3.08,0,0,1,1.76.4,1.8,1.8,0,0,1,.68.79,2.54,2.54,0,0,1,.21.94,5.25,5.25,0,0,1-.3,1.63,8.07,8.07,0,0,0-.61,2.67,1.73,1.73,0,0,0,.33,1,1.29,1.29,0,0,0,.89.42h.24l.12.12A11.79,11.79,0,0,1,109.87,21a3.37,3.37,0,0,1,.53,1.29,1.21,1.21,0,0,1-.21.89,1.39,1.39,0,0,1-.71.49,6.15,6.15,0,0,1-2.57,0c-.8-.14-1.58-.34-2.35-.55l.33-.68a17.17,17.17,0,0,1,2.45,2.3,3.36,3.36,0,0,1,.84,1.61,1,1,0,0,1-.53,1,2.47,2.47,0,0,1-.91.24c-1.17.07-2.22-.19-3.3-.15a5.16,5.16,0,0,0-.79.06c-.24,0-.51.14-.53.24s.13.36.31.52a4.19,4.19,0,0,0,.63.48l.31.2L103,29a4,4,0,0,1-2-.14,3.66,3.66,0,0,1-1.62-1.11l.1-.08a3.46,3.46,0,0,0,1.58,1,3.63,3.63,0,0,0,1.85.05l0,.27a4.19,4.19,0,0,1-.7-.49,1,1,0,0,1-.45-.85c.18-.44.55-.46.82-.54a4.81,4.81,0,0,1,.84-.1c1.12-.09,2.25.12,3.26,0a1.82,1.82,0,0,0,.67-.19c.18-.11.23-.2.21-.38a2.81,2.81,0,0,0-.73-1.23,16.25,16.25,0,0,0-2.4-2.13l-1.51-1.12,1.84.45c.76.18,1.52.35,2.28.46a5.34,5.34,0,0,0,2.15,0c.28-.13.3-.16.28-.4a2.54,2.54,0,0,0-.41-.88,10.74,10.74,0,0,0-1.49-1.68l.36.13a2.24,2.24,0,0,1-1.71-.74,2.72,2.72,0,0,1-.61-1.69,9.19,9.19,0,0,1,.61-3.05c.29-.85.33-1.81-.16-2a3.37,3.37,0,0,0-2.36,0l-.86.27.06-.9a12,12,0,0,0,0-2.75c-.06-.41-.26-.79-.34-.79s-.38,0-.72.26a10,10,0,0,0-1.93,1.91c-.6.73-1.17,1.52-1.69,2.3l-.88,1.35L97,12.57a12.3,12.3,0,0,0-.53-2.07,2.41,2.41,0,0,0-1-1.38c-.3-.16-.85.07-1.34.53a7.7,7.7,0,0,0-1.31,1.58l.08-.51A3.39,3.39,0,0,1,91.84,14a4.91,4.91,0,0,1-1.39.84,7.73,7.73,0,0,0-1.14.65,2.53,2.53,0,0,0-.41.37c-.08.12-.09.18-.08.18s.28.36.65.52a10.3,10.3,0,0,0,2.58.77l2.32.42-2.22.75a13.84,13.84,0,0,0-1.63.65,4,4,0,0,0-1.3.91.76.76,0,0,0-.09,1,3.44,3.44,0,0,0,1.16,1l.08,0,0,.05a2.52,2.52,0,0,0,2,.39l.3-.05.14,0h.08a.86.86,0,0,1,.28,0,.91.91,0,0,1,.6.41,1.86,1.86,0,0,1,.2.4,2.61,2.61,0,0,1,.18.77,1.54,1.54,0,0,1,0,.43,1.09,1.09,0,0,1-.06.28l-.1.21a9,9,0,0,0-.93,2.24,1.39,1.39,0,0,0,0,.9c.06.15.37.24.66.19l-.11,0a4.31,4.31,0,0,1,1.85-.37,3.82,3.82,0,0,1,.94.14,2.45,2.45,0,0,1,.45.17l.21.1.12.05c.14,0,.2,0,.34-.12a2,2,0,0,0,.35-.58,8.39,8.39,0,0,0,.41-1.55,38.59,38.59,0,0,0,.36-6.64l.62,0c.17,3.67.33,7.34.54,11s.38,7.34.62,11v0A75,75,0,0,1,101.63,51a52.68,52.68,0,0,1-.24,9.64,25.18,25.18,0,0,1-2.83,9.29c-.4.73-.91,1.4-1.25,2a12.28,12.28,0,0,0-.9,2.11,27,27,0,0,0-1,4.57c-.83,6.27-.41,12.68.1,19s1.46,12.68,2.54,19Z"/></g></svg>