<svg xmlns="http://www.w3.org/2000/svg" xmlns:xlink="http://www.w3.org/1999/xlink" viewBox="0 0 192 192"><defs><style>.cls-1,.cls-11,.cls-12,.cls-14,.cls-6,.cls-8,.cls-9{fill:none;stroke-miterlimit:10;}.cls-1,.cls-11,.cls-6,.cls-8{stroke-width:1.32px;}.cls-1{stroke:url(#linear-gradient);}.cls-2{fill:url(#linear-gradient-2);}.cls-3{fill:url(#linear-gradient-3);}.cls-4{fill:url(#linear-gradient-4);}.cls-5{fill:url(#linear-gradient-5);}.cls-6{stroke:url(#linear-gradient-6);}.cls-7{fill:url(#linear-gradient-7);}.cls-8{stroke:url(#linear-gradient-8);}.cls-14,.cls-9{stroke-width:0.66px;}.cls-9{stroke:url(#linear-gradient-9);}.cls-10{fill:url(#linear-gradient-10);}.cls-11{stroke:url(#linear-gradient-11);}.cls-12{stroke-width:2.64px;stroke:url(#linear-gradient-12);}.cls-13{fill:url(#linear-gradient-13);}.cls-14{stroke:url(#linear-gradient-14);}.cls-15{fill:url(#linear-gradient-15);}.cls-16{fill:url(#linear-gradient-16);}</style><linearGradient id="linear-gradient" x1="5.58" y1="150.72" x2="65.06" y2="150.72" gradientUnits="userSpaceOnUse"><stop offset="0.21" stop-color="#039be5"/><stop offset="0.25" stop-color="#1293dc"/><stop offset="0.43" stop-color="#5d6ab2"/><stop offset="0.6" stop-color="#984991"/><stop offset="0.74" stop-color="#c23278"/><stop offset="0.85" stop-color="#dc236a"/><stop offset="0.91" stop-color="#e61e64"/><stop offset="1" stop-color="#e91e63"/></linearGradient><linearGradient id="linear-gradient-2" x1="56.53" y1="162.3" x2="106.9" y2="162.3" xlink:href="#linear-gradient"/><linearGradient id="linear-gradient-3" x1="94.75" y1="74.05" x2="175.39" y2="74.05" xlink:href="#linear-gradient"/><linearGradient id="linear-gradient-4" x1="112.12" y1="54.5" x2="128.8" y2="54.5" xlink:href="#linear-gradient"/><linearGradient id="linear-gradient-5" x1="86.47" y1="54.17" x2="106.74" y2="54.17" xlink:href="#linear-gradient"/><linearGradient id="linear-gradient-6" x1="97.72" y1="134.09" x2="109.19" y2="134.09" xlink:href="#linear-gradient"/><linearGradient id="linear-gradient-7" x1="55.26" y1="68.9" x2="105.51" y2="68.9" xlink:href="#linear-gradient"/><linearGradient id="linear-gradient-8" x1="89.82" y1="147.48" x2="94.86" y2="147.48" xlink:href="#linear-gradient"/><linearGradient id="linear-gradient-9" x1="109.23" y1="75.16" x2="112.71" y2="75.16" xlink:href="#linear-gradient"/><linearGradient id="linear-gradient-10" x1="120.2" y1="29.66" x2="124.68" y2="29.66" xlink:href="#linear-gradient"/><linearGradient id="linear-gradient-11" x1="92.35" y1="157.59" x2="98.44" y2="157.59" xlink:href="#linear-gradient"/><linearGradient id="linear-gradient-12" x1="112.12" y1="55.19" x2="128.8" y2="55.19" xlink:href="#linear-gradient"/><linearGradient id="linear-gradient-13" x1="113.88" y1="85.62" x2="114.7" y2="85.19" xlink:href="#linear-gradient"/><linearGradient id="linear-gradient-14" x1="-160.45" y1="319.32" x2="-157.77" y2="319.32" gradientTransform="translate(-228.91 4.46) rotate(-101.07)" xlink:href="#linear-gradient"/><linearGradient id="linear-gradient-15" x1="61.75" y1="104.8" x2="113.16" y2="104.8" xlink:href="#linear-gradient"/><linearGradient id="linear-gradient-16" x1="56.95" y1="82" x2="116.03" y2="82" xlink:href="#linear-gradient"/></defs><title>ic_material_product_icon_192px copy</title><g id="fantasy2"><path class="cls-1" d="M11.3,156.51l-3.48-4.77c1.78.95,3.65,2.12,5.66,3,5.44,2.39,11,3.3,16.86,1.41A15,15,0,0,0,36.67,152a8.15,8.15,0,0,0,2.22-6.42c-.3-4.44-2.29-8.19-4.85-11.67a16.13,16.13,0,0,1,4.69,4.82c2.33,3.44,4.59,6.94,7.19,10.17a32.08,32.08,0,0,0,16.89,11c.45.13.88.29,1.33.44,0,.1-.08.21-.11.21-5,.11-9.49,2-13.88,4.2a32.42,32.42,0,0,1-21.47,3.29,26.63,26.63,0,0,1-13.18-7.32c-.58-.55-1.21-1-1.82-1.55Z"/><path class="cls-2" d="M100.71,170.23a5.06,5.06,0,0,1-2.68.58,10,10,0,0,1-2.71-.61c-1.74-.6-3.52-1.08-5.27-1.63-3.53-1-7-2.16-10.55-3.24-1.76-.54-3.51-1.11-5.27-1.62s-3.55-1-5.31-1.6a24.66,24.66,0,0,1-9.71-5.62l-2.68-2.71,3.4,1.74c.08,0,.22.09.4.19a1.34,1.34,0,0,1,.28.18l.17.12.66.51c.45.32.91.64,1.38.93A27.94,27.94,0,0,0,65.77,159a43.56,43.56,0,0,0,6.34,2.3L85.32,165l3.31.91c1.1.33,2.2.55,3.34,1s2.1.92,3.14,1.35a6.27,6.27,0,0,0,3.09.51,3.64,3.64,0,0,0,2.46-1.66,14.09,14.09,0,0,0,1.4-3l1.17-3.22c.21-.55.37-1,.66-1.64a8.24,8.24,0,0,1,1.28-1.25l.14-.13.17.07.17.07h0a1.22,1.22,0,0,1,.77.49,1.11,1.11,0,0,1,.05.92c-.18.5-.39.91-.58,1.37l-1.19,2.68-2.4,5.36,2.12-5.47,1.07-2.73c.29-.87,1-2,0-2.08h0l-.17-.07.31-.06a7.57,7.57,0,0,0-1.13,1.17c-.19.44-.39,1-.57,1.55l-1.08,3.26a14.71,14.71,0,0,1-1.42,3.22,4.55,4.55,0,0,1-3,2.13,7.18,7.18,0,0,1-3.61-.47l-3.18-1.29c-1-.39-2.15-.62-3.25-.93L85,166.12,71.75,162.6a39.1,39.1,0,0,1-6.53-2.4,27.62,27.62,0,0,1-3.06-1.69c-.5-.32-1-.65-1.45-1L60,157l-.17-.14-.08-.05-.38-.18.72-1A23.46,23.46,0,0,0,69.3,161c1.71.6,3.46,1.15,5.22,1.71s3.5,1.17,5.24,1.75c3.49,1.19,7,2.35,10.45,3.58,1.74.62,3.49,1.17,5.2,1.85a11.19,11.19,0,0,0,2.63.73A5,5,0,0,0,100.71,170.23Z"/><path class="cls-3" d="M122.67,32.32a1.69,1.69,0,0,1,.72-1.54,5.09,5.09,0,0,0,1.29-1.2,4,4,0,0,0,.72-1.6,3,3,0,0,0-.23-1.73,3.43,3.43,0,0,0-1-1.42,2.88,2.88,0,0,0-1.63-.55,5.74,5.74,0,0,0-3.36.86,4.89,4.89,0,0,0-2,2.77,11.42,11.42,0,0,0-.18,3.51,7.83,7.83,0,0,1-.72,3.5,6.91,6.91,0,0,1-2.34,2.69A33.35,33.35,0,0,0,108,41.55a15.18,15.18,0,0,0-4.12,5.62,14.68,14.68,0,0,0,.93,10.24,8.16,8.16,0,0,0,.92,1.46A6,6,0,0,0,107,60l-.36.28c-1-2-2.23-3.84-2.73-6.06a11.49,11.49,0,0,1,.23-6.67A13.35,13.35,0,0,1,108,42.08a20.42,20.42,0,0,1,5.67-3.55,14.5,14.5,0,0,1,6.58-1.35,12,12,0,0,1,6.29,2.39A20.69,20.69,0,0,1,129,41.8a15.44,15.44,0,0,0,2.58,1.92A8.51,8.51,0,0,0,134.45,45a5,5,0,0,0,3-.31l.44-.18.15.45.11.3.1.31-.29.21a6.46,6.46,0,0,1-6.76.28,37.09,37.09,0,0,1-5.54-3.87A8.79,8.79,0,0,0,120,39.65a12.83,12.83,0,0,0-6.08,1.7,13.82,13.82,0,0,0-5,4,10.12,10.12,0,0,0-1.84,5.9,11.79,11.79,0,0,0,1.53,6,43.13,43.13,0,0,0,3.76,5.34l-1.1.71c-.7-1.46-1.51-3-2.1-4.54a21.24,21.24,0,0,1-1.6-4.85,8.54,8.54,0,0,1,.9-5.22,10.4,10.4,0,0,1,3.65-3.77,15.26,15.26,0,0,1,9.9-2.44,11.34,11.34,0,0,1,1.32.19,7.23,7.23,0,0,1,1.29.43c.81.34,1.55.72,2.29,1.12a44.59,44.59,0,0,0,4.31,2.24,7.34,7.34,0,0,0,4.41.32,7.26,7.26,0,0,0,3.71-2.4,10.3,10.3,0,0,0,.7-.9l.68-1,1.37-2.07,2.73-4.14,2.74-4.13A15.91,15.91,0,0,1,151,28.22a11,11,0,0,1,4.77-2.34,10.18,10.18,0,0,1,5.3.6l6,2.21-6.37-.58a11.93,11.93,0,0,0-8.33,2.38,13.77,13.77,0,0,0-4.83,7.31,17.09,17.09,0,0,1-4.77,8.63,12.49,12.49,0,0,1-4.36,2.62,12,12,0,0,1-5.07.53,16.35,16.35,0,0,1-4.84-1.29c-.75-.32-1.48-.67-2.19-1a16.76,16.76,0,0,0-2.08-.84,14.09,14.09,0,0,0-4.37-.67,15,15,0,0,0-2.22.17,7.05,7.05,0,0,0-2,.59,9.17,9.17,0,0,0-5,6.52,6.52,6.52,0,0,0,0,2,2.83,2.83,0,0,0,.26.85l.55,1a38.42,38.42,0,0,0,2.5,3.89l-1.81.79L111.25,57a9.64,9.64,0,0,1,.26-5.17,8.71,8.71,0,0,1,3.23-4.15,12.89,12.89,0,0,1,4.69-2,12.29,12.29,0,0,1,5.09-.08A27,27,0,0,1,129.19,47c1.46.55,2.94,1.11,4.38,1.61.73.25,1.45.48,2.18.67a6.72,6.72,0,0,0,2,.26,6.61,6.61,0,0,0,3.73-1.36,18.83,18.83,0,0,0,3.16-3.09,23.13,23.13,0,0,0,2.5-3.73,32.27,32.27,0,0,1,2.49-4.17,10.58,10.58,0,0,1,4-3.37A13.93,13.93,0,0,1,156,33c.79-.21,1.58-.38,2.37-.53a22.68,22.68,0,0,0,4.35-1.09,8.14,8.14,0,0,0,3.31-2.4l2.54-3.13-.53,4a4.69,4.69,0,0,1-1.21,2.58,6.86,6.86,0,0,1-2.16,1.47,25.33,25.33,0,0,1-4.28,1.72c-.81.23-1.42.34-2.08.57a13.56,13.56,0,0,0-1.89.76,11.19,11.19,0,0,0-3.21,2.37A12.83,12.83,0,0,0,151,42.65a18.75,18.75,0,0,0-.77,1.92,12.78,12.78,0,0,1-1,2.22,14.26,14.26,0,0,1-3,3.71A21.42,21.42,0,0,1,144.41,52c-.58.43-1.46.92-1.58,1.09L142,51.12a11.54,11.54,0,0,0,4.61-.8,8.11,8.11,0,0,0,1.94-1.16c.6-.5,1.25-1.1,1.86-1.68,1.24-1.17,2.38-2.36,3.62-3.66a12,12,0,0,1,4.85-3,15.46,15.46,0,0,1,2.74-.61c.46-.06.92-.1,1.37-.13a11.41,11.41,0,0,1,1.44,0,9.14,9.14,0,0,1,5.37,2.36,10.81,10.81,0,0,1,3.14,4.85,13.84,13.84,0,0,1,.28,5.63l-1,8.74L170.81,53l-.33-2.15a5.7,5.7,0,0,0-.67-1.76A3.63,3.63,0,0,0,167,47.27a10.69,10.69,0,0,0-4,.45,12.54,12.54,0,0,0-3.71,1.81A32.33,32.33,0,0,0,156,52.37c-1.08,1-2,2.11-3.18,3.24a28.15,28.15,0,0,1-3.68,3A30.68,30.68,0,0,1,145,60.91l.68-1.27c0,.11,0,.2,0,.24h0a.55.55,0,0,1,0-.12,1.2,1.2,0,0,0-.2-.41,1.15,1.15,0,0,0-.16-.18.7.7,0,0,0-.18-.13h0l.06,0,.12.07.47.27.93.56,1.87,1.11,3.73,2.23,1.87,1.11a6.36,6.36,0,0,0,1.7.66,4.65,4.65,0,0,0,3.36-.49,6.69,6.69,0,0,0,1.46-1.12,2.29,2.29,0,0,0,.74-1.22,2.87,2.87,0,0,0-2.6-2.9.93.93,0,0,0-.81.44,1.42,1.42,0,0,0-.18,1.12c.09.42.29.64.88,1.34l2,2.31-3.06-.29a3.94,3.94,0,0,1-3-2.12,4.79,4.79,0,0,1-.39-3.46A6,6,0,0,1,159,54.54a6.39,6.39,0,0,1,3.24.26,6.7,6.7,0,0,1,2.62,1.82,8.89,8.89,0,0,1,2.4,5.51,8.62,8.62,0,0,1-.34,3,9,9,0,0,1-1.32,2.73,10.39,10.39,0,0,1-2.07,2.17,13.92,13.92,0,0,1-2.5,1.48,12.75,12.75,0,0,1-5.65,1.22,13.76,13.76,0,0,1-2.87-.37l-2.58-.68,1.5-1.77A8,8,0,0,0,156,73.8a3.45,3.45,0,0,0,1.31.17l1.78-.22,3.55-.46c1.19-.14,2.35-.41,3.52-.61a9.51,9.51,0,0,1,2-.22,7,7,0,0,1,2.17.38,8.58,8.58,0,0,1,3.5,2.34,4.28,4.28,0,0,1,.76,1,3,3,0,0,1,.31,1.58,3.08,3.08,0,0,1-.15.71.66.66,0,0,0,0-.38,1,1,0,0,0,.1.21,4.4,4.4,0,0,1,.29.55l.17.38-.12.44-.33,1.22a10.07,10.07,0,0,1-.36,1.22l-1,2.29-1.11,2.48-1.25-2.45-.11-.21,0-.11,0-.08,0-.08a1.11,1.11,0,0,1-.12-.37,1.25,1.25,0,0,1,0-.36,1.33,1.33,0,0,1,.18-.53h0l0,0,0,0,.06-.1.1-.19a3.78,3.78,0,0,0,.3-.78,2.49,2.49,0,0,0,0-1.43,3.68,3.68,0,0,0-.84-1.35,5.43,5.43,0,0,0-1.35-1.1,5.36,5.36,0,0,0-3.39-.61,31.73,31.73,0,0,0-4,1.16l.31-2.39c.63.38,1.29.71,2,1.19a7,7,0,0,1,1.09.86,8.62,8.62,0,0,1,.93,1,9.81,9.81,0,0,1,2.12,4.87,10.44,10.44,0,0,1-.62,5.25,10.78,10.78,0,0,1-3.05,4.25,16.61,16.61,0,0,1-9.2,3.88,17.27,17.27,0,0,1-5-.21,16.19,16.19,0,0,1-2.45-.68c-.39-.17-.8-.3-1.18-.5l-.57-.28-.29-.15.08,0,.21.06-.15,0,1.19-2.13a7.94,7.94,0,0,0,3.78,2.36,10.73,10.73,0,0,0,4.66.14,22.61,22.61,0,0,0,9-4.06l1.61,2a26.9,26.9,0,0,1-5.95,4.28,14.39,14.39,0,0,1-7.38,1.66A14.85,14.85,0,0,1,146,97.17a28.54,28.54,0,0,1-5.55-4.75l-2-2.16,3,0c2.06,0,4.16,0,6.3.1a11.09,11.09,0,0,0,2.65,0c.11,0,.11-.05.12-.07s.05,0,.08-.18A4,4,0,0,0,150.6,89l-.1-1.65,1.63.37c.53.12,1.16.29,1.61.37a6.49,6.49,0,0,0,1.46.1,7.41,7.41,0,0,0,2.84-.69,7,7,0,0,0,2.33-1.75,4.22,4.22,0,0,0,.72-1.1,2.56,2.56,0,0,0,.21-1.14,2.13,2.13,0,0,0-1.13-1.79,1.59,1.59,0,0,0-1.82.11,1,1,0,0,0-.38.67.52.52,0,0,0,.18.49.67.67,0,0,0,.28.16.19.19,0,0,0,.15,0,1.16,1.16,0,0,0,.55-.56L160,81l1.12,1.47a3.77,3.77,0,0,1,.68,1.33,2.66,2.66,0,0,1-.15,1.76,3.67,3.67,0,0,1-.87,1.19,5.47,5.47,0,0,1-1,.77A4.06,4.06,0,0,1,157,88a3.74,3.74,0,0,1-1.34-.54,7.29,7.29,0,0,1-1-.77A5.3,5.3,0,0,1,153.13,82a6.1,6.1,0,0,1,.87-2.29A11.34,11.34,0,0,1,155.4,78l.19,1.81L147.53,74l1.85-1.37c.23.7.53,1.38.79,2.26a6.52,6.52,0,0,1,.17.7l.09.58.2,1.16c.13.78.24,1.58.33,2.39,0,.4.08.81.1,1.22s0,.76.07,1.07a5.84,5.84,0,0,0,1.73,3.4,5.22,5.22,0,0,0,1.58,1.06,4.76,4.76,0,0,0,.9.3l.48.1a3.21,3.21,0,0,1,.85.22l4,1.66-4.28.62a8.13,8.13,0,0,1-5-1l-.27-.16a2,2,0,0,1-.41-.27,2.43,2.43,0,0,1-.6-.83c-.15-.31-.37-.76-.5-1.11a5.93,5.93,0,0,0-.36-.83.93.93,0,0,0-.15-.2l-.44-.48a15,15,0,0,1-2.3-4.18c-.29-.68-.56-1.33-.87-1.92a8.73,8.73,0,0,0-.48-.83,1.28,1.28,0,0,0-.41-.4l1.74-1.26.6,2.94.87,4.27-2.91-3.25-5.17-5.79c-.4-.45-.85-.88-1.33-1.41A11.66,11.66,0,0,1,137.1,71l-1-1.61a4.18,4.18,0,0,0-.5-.64l-.66-.72,2-.4-.59,1.71-.81,2.33-1.28-2.11-2.87-4.68,1.55.42-.45.24.58-.77a2.14,2.14,0,0,0,.29,1.38,12.62,12.62,0,0,1,.89,2.22l.85,3.4-2.71-2.23-4-3.33,1.7-.28a.58.58,0,0,0-.11.28,1.22,1.22,0,0,0,.26.42c.2.24.48.55.74.87a7,7,0,0,1,.73,1.12l1.68,3.26L130,70.17l-2.93-1.55,1.24-.11-.39.3.31-1.43c.2.38.3.69.39.89l.1.17h0l.16.12c.44.34.94.66,1.46,1A15,15,0,0,1,132,70.75c.54.48,1,1,1.36,1.36l.65.64-.48.78-.24.37-.38.62-.72-.09c-.74-.09-1.39-.22-2-.26l-.43,0-.09,0c-.16.06-.44.25-.88.44l.24-1.94c.28.22.45.4.58.51s.22.14.05.09l1.35.25c.91.17,1.81.33,2.7.47s1.79.26,2.68.33a4.94,4.94,0,0,1,3.17,1.45,7.37,7.37,0,0,1,1,1.3l.7,1.19,1.42,2.4,2.84,4.8.93,1.58-1.86.11-1.23.07a7.31,7.31,0,0,1-1.47,0l-2.52-.33-5-.66-5-.66a8.66,8.66,0,0,0-4.42.58c-.23.1-.16.06-.25.13s-.1.14-.09.11l-.3,1.1-.66,2.42L123,92.3c-.18.83-.37,1.63-.48,2.4a6.71,6.71,0,0,0,0,2.19,3.38,3.38,0,0,0,.77,1.72c.76.84,2.26.87,3.7.43l-.59,1.53-1.18-2a7.71,7.71,0,0,1-.86-2.47,5.55,5.55,0,0,1,.29-2.73,5.19,5.19,0,0,1,1.64-2.24,8,8,0,0,1,4.85-1.5c.81,0,1.59,0,2.35.07l1.12.07h.6l.2,0a2.1,2.1,0,0,1,.93.63,2.93,2.93,0,0,1,.18.26l.07.11.12.21c.1.13.18.27.28.39a5.39,5.39,0,0,0,.65.7,6.5,6.5,0,0,0,1.64,1.06,18.11,18.11,0,0,0,2,.75,12.89,12.89,0,0,1,2.22,1.06A9.82,9.82,0,0,1,147,98.62a7.53,7.53,0,0,1,.88,2.4,16.74,16.74,0,0,1,.25,2.38l-1.9.24a7.53,7.53,0,0,0-1.69-3.47,11.47,11.47,0,0,0-3.18-2.46l1.15-1.45c.75.85,1.67,1.66,2.47,2.74a8.09,8.09,0,0,1,1,1.78,6.71,6.71,0,0,1,.45,2,7.9,7.9,0,0,1-.92,3.91,15,15,0,0,1-1,1.66,9.62,9.62,0,0,1-1.24,1.54,36.56,36.56,0,0,1-2.87,2.32c-.52.42-1,.75-1.52,1.07a4.73,4.73,0,0,0-1.13,1,1.45,1.45,0,0,0-.29,1.07,2.65,2.65,0,0,0,.52,1.22,1.89,1.89,0,0,0,1,.71,4.36,4.36,0,0,0,1.49,0l3.24-.18L141,118.94a4.85,4.85,0,0,1-3.22.91,4.39,4.39,0,0,1-2.91-1.78,4.3,4.3,0,0,1-.91-3.27,6.92,6.92,0,0,1,1.26-2.94l.42,1.29c-.92-.32-2-.54-3-1a4.37,4.37,0,0,1-1.59-1,3.87,3.87,0,0,1-.9-1.75,5.4,5.4,0,0,1-.08-1.83,4.11,4.11,0,0,1,3.74-3.76l1.67-.25-.83,1.45a4.23,4.23,0,0,0-.64,1.38c0,.08,0,0,.1.16a.69.69,0,0,0,.41.14c.22,0,.6-.27.75-.64a2.32,2.32,0,0,0,.17-.7,2.75,2.75,0,0,0,0-.41,1.77,1.77,0,0,0,0-.33,7.9,7.9,0,0,0-.65-1.58,3.83,3.83,0,0,0-.91-1.28c-.53-.49-1.79-.07-2.93.41l.47-.87a13.42,13.42,0,0,1-1.22,8c-1.07,2.43-2.44,4.6-3.51,6.89a16.83,16.83,0,0,0-1.32,3.41,9.6,9.6,0,0,0-.19,1.78,3.56,3.56,0,0,0,.21,1.57,2.65,2.65,0,0,0,2.48,1.43,2.34,2.34,0,0,0,2.17-1.78l.81-2.13.54,2.22a3.15,3.15,0,0,1,0,1.5,2.76,2.76,0,0,1-.76,1.32,4.84,4.84,0,0,1-1.06.83,4.69,4.69,0,0,1-1.28.54,3.58,3.58,0,0,1-2.78-.5,6.7,6.7,0,0,1-1.81-1.91,5.41,5.41,0,0,1-.79-2.54,11.55,11.55,0,0,1,.25-2.49,39,39,0,0,1,1.16-4.62l1,.77-1.44.87c-.22.14-.44.28-.63.43l-.13.11,0,0a1.61,1.61,0,0,0-.09.21,6.43,6.43,0,0,0-.09,1.49,7.89,7.89,0,0,1-.21,1.82l-.87,3.37-.4-3.46-.37-3.32.66.56-2.93.15-.91,0,.28-.87c1-2.9,1.93-5.8,2.95-8.7l.76-2.17A2,2,0,0,1,123,105a2.24,2.24,0,0,1,.38-.11l.25,0c.17,0,.34-.09.5-.15a5.44,5.44,0,0,0,3-2.75l.51.81-2.05.09a6.68,6.68,0,0,1-2.16-.14,4.67,4.67,0,0,1-2-1.07,6.07,6.07,0,0,1-1.31-1.78,8.69,8.69,0,0,1-1-4.16,9.42,9.42,0,0,1,.29-2.12l.45-2,.9-4a4.79,4.79,0,0,0,.25-1.76,1.07,1.07,0,0,0-.46-.53,3.32,3.32,0,0,1-.86-.74,5.55,5.55,0,0,1-1-2c-.2-.66-.37-1.32-.53-2s-.29-1.34-.42-2l-.1-.5,0-.24,0-.14a1.85,1.85,0,0,1,0-.23,4.41,4.41,0,0,1,.38-1l.15.46a2,2,0,0,1-.88-1.69,2.3,2.3,0,0,1,.27-.92c.07-.13.15-.26.23-.38l.12-.17s0,0,0,0a1.07,1.07,0,0,0,0-.53c-.07-.14-.26-.42-.38-.62l-.87-1.32a23.94,23.94,0,0,1-1.67-2.77,5,5,0,0,0-1.9-2.21,3.29,3.29,0,0,0-2.78-.12c-.48.17-.87.42-1.43.67a2.25,2.25,0,0,1-1.8,0,9.74,9.74,0,0,1-1.38-.94L104.32,65l-2.56-1.89c-.85-.64-1.69-1.3-2.5-2A10.27,10.27,0,0,1,97,58.77a8,8,0,0,1-.94-6.32,15.23,15.23,0,0,1,1.07-3c.41-1,.79-2,1.24-2.93a15.84,15.84,0,0,0,1.52-6c0-.52-.06-1,0-1.6a2.08,2.08,0,0,1,.74-1.53,3.23,3.23,0,0,1,1.56-.57l1.56-.3c2.06-.51,4.25-.5,6.14-1.41a7.18,7.18,0,0,0,2.45-1.88,7.9,7.9,0,0,0,1.43-2.76c.29-1,.42-2.07.81-3.08a10.1,10.1,0,0,1,1.51-2.82,8.2,8.2,0,0,1,5.34-3.28c1.2,0,1.77,1.28,3,.87a2.48,2.48,0,0,1,1.42.74,12.14,12.14,0,0,1,1,1.21,7.64,7.64,0,0,1,1.52,2.78,4.37,4.37,0,0,1-.26,3.12A4.47,4.47,0,0,1,125.8,32a4.13,4.13,0,0,1-1.55.36C123.72,32.38,123.19,32.31,122.67,32.32Zm0,0c.52,0,1.06,0,1.58,0a4.29,4.29,0,0,0,1.54-.37,4.43,4.43,0,0,0,2.28-2.09,4.32,4.32,0,0,0,.24-3.08,7.64,7.64,0,0,0-1.53-2.74c-.66-.79-1.34-1.76-2.4-1.88a3.55,3.55,0,0,0-.79,0,2,2,0,0,1-.75-.34l-.69-.39a.82.82,0,0,0-.7-.16,8.1,8.1,0,0,0-5.2,3.25,10.1,10.1,0,0,0-1.45,2.78c-.37,1-.48,2-.78,3.08a8.26,8.26,0,0,1-1.46,2.86,7.44,7.44,0,0,1-2.54,2,11.38,11.38,0,0,1-3.08.91c-1,.15-2.08.35-3.12.57l-1.56.32a2.93,2.93,0,0,0-1.39.5,1.72,1.72,0,0,0-.58,1.26c0,.49,0,1,0,1.58a16.15,16.15,0,0,1-1.5,6.23c-.45,1-.81,1.95-1.22,2.92a16.3,16.3,0,0,0-1,3,7.48,7.48,0,0,0,.92,5.9,10,10,0,0,0,2.15,2.21c.81.67,1.64,1.31,2.49,1.94l2.57,1.86,1.29.94a10.3,10.3,0,0,0,1.25.85,1.55,1.55,0,0,0,1.28-.05c.41-.19.93-.51,1.45-.7a4,4,0,0,1,3.37.15,5.78,5.78,0,0,1,2.22,2.51,22.41,22.41,0,0,0,1.64,2.66l.89,1.33c.15.25.27.4.45.74a1.76,1.76,0,0,1,.1,1,1.12,1.12,0,0,1-.14.33l-.11.15a2.38,2.38,0,0,0-.18.3,1.58,1.58,0,0,0-.18.6,1.14,1.14,0,0,0,.56,1l.25.18-.1.29a6.41,6.41,0,0,0-.33.84v0l0,.12,0,.25.11.49c.13.67.27,1.33.43,2s.33,1.3.53,1.93A4.57,4.57,0,0,0,120.4,84a2.57,2.57,0,0,0,.68.57,2,2,0,0,1,.83,1,2.3,2.3,0,0,1,0,1.25l-.21,1-.88,4-.43,2a8.27,8.27,0,0,0-.25,1.91,7.64,7.64,0,0,0,.9,3.67,4,4,0,0,0,2.65,2.29,5.79,5.79,0,0,0,1.88.09l2-.11,1-.05-.45.86a6.54,6.54,0,0,1-3.59,3.3,4.56,4.56,0,0,1-.6.18l-.31.07a.49.49,0,0,0-.17,0c-.22.08-.48.31-.49.42l-.74,2.17c-1,2.87-1.92,5.78-2.87,8.69l-.62-.81,2.93-.18.59,0,.08.59.4,3.32-1.27-.09a6,6,0,0,0,.15-1.51v-.85a3.43,3.43,0,0,1,.14-1,1.94,1.94,0,0,1,.25-.56,1.56,1.56,0,0,1,.25-.29l.19-.16c.25-.19.5-.36.74-.52l1.44-.87,1.6-1-.61,1.74a37.71,37.71,0,0,0-1.09,4.46,10.62,10.62,0,0,0-.23,2.17,4,4,0,0,0,.61,1.88,5.14,5.14,0,0,0,1.39,1.47,2.14,2.14,0,0,0,1.7.3,3.12,3.12,0,0,0,.87-.37,4.39,4.39,0,0,0,.78-.61A1.42,1.42,0,0,0,130,123l1.35.09a4.68,4.68,0,0,1-1.24,1.88,3.45,3.45,0,0,1-2.23.82,3.88,3.88,0,0,1-4.14-3.4c0-.42,0-.7,0-1.06a11,11,0,0,1,.21-2,9.18,9.18,0,0,1,.63-2c.25-.61.51-1.21.79-1.8,1.1-2.38,2.47-4.58,3.46-6.86a11.85,11.85,0,0,0,1.08-7l-.12-.62.58-.24a11.62,11.62,0,0,1,2-.67,3.74,3.74,0,0,1,1.22-.07,2.56,2.56,0,0,1,1.27.5,5.17,5.17,0,0,1,1.38,1.82,8.68,8.68,0,0,1,.81,2,3.47,3.47,0,0,1,.06.64c0,.18,0,.37,0,.56a4.15,4.15,0,0,1-.29,1.18,2.93,2.93,0,0,1-.8,1.08,2.34,2.34,0,0,1-1.37.54,2.3,2.3,0,0,1-1.41-.44,2.1,2.1,0,0,1-.57-.61,1.87,1.87,0,0,1-.22-.87,3,3,0,0,1,.36-1.29c.17-.34.32-.59.48-.89l.85,1.21a2.72,2.72,0,0,0-2,1.2,3.49,3.49,0,0,0-.3,2.4,2,2,0,0,0,.51,1,2.66,2.66,0,0,0,1,.63c.85.36,1.86.58,2.9.92l1.07.35-.64.94a5.22,5.22,0,0,0-1,2.19,2.51,2.51,0,0,0,.58,2,2.65,2.65,0,0,0,1.75,1.12,3.17,3.17,0,0,0,2.06-.65l.53,1.6a5.84,5.84,0,0,1-2.08-.1,3.64,3.64,0,0,1-1.9-1.34,4.41,4.41,0,0,1-.87-2.06,3.28,3.28,0,0,1,.61-2.32,15.37,15.37,0,0,1,3-2.4c1-.79,2-1.46,2.72-2.22a11.3,11.3,0,0,0,1.84-2.72,6,6,0,0,0,.72-3,5.34,5.34,0,0,0-1.09-2.82c-.64-.86-1.52-1.65-2.37-2.59l-3.73-4.13,4.88,2.68A13.6,13.6,0,0,1,146,98.93a9.6,9.6,0,0,1,2.13,4.32l-1.9.25a15.5,15.5,0,0,0-.22-2.12,5.32,5.32,0,0,0-.68-1.81,7.75,7.75,0,0,0-2.78-2.85,10.58,10.58,0,0,0-1.86-.88,20.13,20.13,0,0,1-2.2-.8,8.78,8.78,0,0,1-2.14-1.38,8,8,0,0,1-.89-1c-.13-.17-.25-.35-.38-.53l-.17-.27-.08-.14,0,0c-.16-.06.31,0-.3,0l-1.14-.06c-.74,0-1.47-.08-2.17-.06a8.32,8.32,0,0,0-2,.27,4.18,4.18,0,0,0-1.65.81,3.23,3.23,0,0,0-1.16,3.07,5.7,5.7,0,0,0,.63,1.77l1.15,1.9.69,1.14-1.28.39a7.61,7.61,0,0,1-2.89.36,4.58,4.58,0,0,1-2.93-1.33,5.41,5.41,0,0,1-1.34-2.8,9.46,9.46,0,0,1,0-2.86c.13-.9.33-1.75.51-2.57l.66-2.47.66-2.48.16-.62.09-.31,0-.15,0-.08.06-.17a2.6,2.6,0,0,1,.65-.91,2.69,2.69,0,0,1,.83-.51,10.85,10.85,0,0,1,5.51-.78l5.07.65,5,.64,2.51.33a16.27,16.27,0,0,0,2.35-.06l-.92,1.68-2.83-4.75-1.41-2.38-.7-1.19a4.73,4.73,0,0,0-.69-.9,2.62,2.62,0,0,0-1.77-.79c-1-.08-1.9-.2-2.83-.35s-1.86-.31-2.77-.48l-1.38-.25a2.48,2.48,0,0,1-1.13-.62c-.21-.19-.36-.35-.44-.41l-1.64-1.2,1.88-.75c.19-.07.47-.27.95-.47a2.54,2.54,0,0,1,.91-.18l.6,0c.78.06,1.47.2,2.1.28l-1.11.52.23-.37.17,1.42c-.49-.48-.89-.94-1.27-1.28a15,15,0,0,0-1.39-1c-.52-.33-1.07-.68-1.62-1.1l-.2-.16a2.18,2.18,0,0,1-.34-.34,3.15,3.15,0,0,1-.38-.62c-.17-.36-.27-.65-.36-.82l-.46-.84.77-.6.39-.3.59-.46.65.35,2.94,1.54-1.56,1.55a4.66,4.66,0,0,0-.5-.75c-.21-.26-.43-.51-.7-.83a3.21,3.21,0,0,1-.77-1.56A2.75,2.75,0,0,1,128,64.7l.71-1.1,1,.83,4.05,3.33-1.86,1.17a11,11,0,0,0-.75-1.82,6,6,0,0,1-.44-1.26,3.66,3.66,0,0,1,0-1.58l.12-.52.46-.25.45-.24,1-.53.57.94,2.87,4.68-2.09.22.59-1.7.63-1.84,1.34,1.45.66.71a8.07,8.07,0,0,1,.69.88l1.07,1.64a10.67,10.67,0,0,0,1.06,1.4c.4.44.89.9,1.35,1.42l5.19,5.79-2,1L144,76.4l-.51-2.49,2.25,1.23a3.61,3.61,0,0,1,1.19,1.1c.26.39.44.72.64,1.08.37.72.67,1.43.95,2.11A12.78,12.78,0,0,0,150.45,83l.31.34a3.16,3.16,0,0,1,.52.68,6.84,6.84,0,0,1,.54,1.18c.13.34.24.56.41.92.05.12.12.18,0,.07s0,0,.05,0l.21.12a5.69,5.69,0,0,0,3.54.73l-.31,2.29a1,1,0,0,0-.28-.06c-.2,0-.44-.09-.66-.13a6.82,6.82,0,0,1-1.32-.44,7.68,7.68,0,0,1-2.28-1.53,8.16,8.16,0,0,1-2.45-4.79c-.06-.46-.07-.93-.09-1.26s0-.74-.09-1.11c-.08-.74-.19-1.49-.32-2.25l-.19-1.15L148,76a2.93,2.93,0,0,0-.11-.45c-.18-.62-.5-1.37-.76-2.15l-1.17-3.52,3,2.15L157,77.83l1.16.83-1,1a5.07,5.07,0,0,0-1.66,2.74,2.83,2.83,0,0,0,.89,2.54,4.34,4.34,0,0,0,.59.47,1.3,1.3,0,0,0,.49.2,1.65,1.65,0,0,0,1.09-.21,2.5,2.5,0,0,0,.86-.8.23.23,0,0,0,0-.18,1.37,1.37,0,0,0-.24-.42l2-.14a3.52,3.52,0,0,1-2,1.69,2.69,2.69,0,0,1-1.54,0,3.09,3.09,0,0,1-1.22-.67,3,3,0,0,1-1-2.6A3.49,3.49,0,0,1,156.75,80a4.07,4.07,0,0,1,4.63-.39,4.6,4.6,0,0,1,2.39,3.81,5.06,5.06,0,0,1-.39,2.22,6.76,6.76,0,0,1-1.13,1.79,9.59,9.59,0,0,1-3.15,2.37,9.84,9.84,0,0,1-3.81.93,8.76,8.76,0,0,1-2-.14c-.68-.12-1.17-.26-1.76-.39l1.54-1.29a6.27,6.27,0,0,1-.15,2,3,3,0,0,1-.62,1.19,2.66,2.66,0,0,1-1.18.76,5.13,5.13,0,0,1-2,.21l-1.56-.08c-2-.09-4.11-.06-6.23-.09l.94-2.12A26.05,26.05,0,0,0,147.33,95a12.32,12.32,0,0,0,5.95,2,12,12,0,0,0,6.09-1.4,24.64,24.64,0,0,0,5.35-3.88l1.62,2a25,25,0,0,1-10.06,4.52,13.31,13.31,0,0,1-5.78-.2,10.44,10.44,0,0,1-5-3.14l1.18-2.13.14,0a1.2,1.2,0,0,1,.35.1l.21.1.23.11.47.24c.31.16.65.26,1,.4a14,14,0,0,0,2,.57,14.89,14.89,0,0,0,4.27.17,14,14,0,0,0,7.73-3.25A8.31,8.31,0,0,0,165.4,88a8,8,0,0,0,.46-3.92,7.2,7.2,0,0,0-1.56-3.57,6.5,6.5,0,0,0-.68-.71,4.43,4.43,0,0,0-.73-.58c-.56-.36-1.29-.73-2-1.16l-2.6-1.59,2.92-.8a30.9,30.9,0,0,1,4.38-1.24,7.94,7.94,0,0,1,5,.94,7.6,7.6,0,0,1,2,1.64,6.22,6.22,0,0,1,1.4,2.34,5.28,5.28,0,0,1,0,2.87,6.92,6.92,0,0,1-.49,1.25l-.14.28-.08.14,0,.07,0,0h0a1.4,1.4,0,0,0,.17-.51,1.08,1.08,0,0,0,0-.34,1.25,1.25,0,0,0-.09-.31,0,0,0,0,1,0,0l0,0,.07.14.14.27-2.36,0,1-2.11a8.48,8.48,0,0,0,.32-1.09l.3-1.1,0,.81-.14-.25a3.46,3.46,0,0,1-.28-.6,1.94,1.94,0,0,1-.06-1.27.67.67,0,0,0,0-.17.21.21,0,0,0,0-.17A2.13,2.13,0,0,0,172,77a6.18,6.18,0,0,0-2.44-1.67,4.65,4.65,0,0,0-1.38-.24,6.73,6.73,0,0,0-1.56.18c-1.2.21-2.4.48-3.61.62l-3.63.46-1.82.23a6.16,6.16,0,0,1-2.26-.27,10,10,0,0,1-3.61-2A9.7,9.7,0,0,1,149.1,71l-1.17-2.47,2.67.7,2.51.67a10.86,10.86,0,0,0,2.33.3,10.26,10.26,0,0,0,4.54-1,8.66,8.66,0,0,0,3.56-2.8,6.24,6.24,0,0,0,1-2,5.7,5.7,0,0,0,.25-2.17A6.29,6.29,0,0,0,163,58.34a4.31,4.31,0,0,0-1.63-1.18,3.93,3.93,0,0,0-1.93-.15,3.52,3.52,0,0,0-2.79,2.35,2.31,2.31,0,0,0,.18,1.64,1.43,1.43,0,0,0,1.08.82l-1.11,2c-.18-.23-.45-.51-.74-.92a4.3,4.3,0,0,1-.62-1.42,3.91,3.91,0,0,1,.54-3.07,3.45,3.45,0,0,1,2.87-1.54,4.94,4.94,0,0,1,2.73.9,5.56,5.56,0,0,1,1.87,2.06,4.38,4.38,0,0,1,.44,2.93,4.8,4.8,0,0,1-1.43,2.49,9.12,9.12,0,0,1-2,1.51,7.1,7.1,0,0,1-5.09.74,9.11,9.11,0,0,1-2.35-.91l-1.88-1.13-3.77-2.25-1.88-1.12-.94-.56-.47-.29-.12-.07-.06,0,0,0h0a1.06,1.06,0,0,1-.2-.14l-.17-.19a1.42,1.42,0,0,1-.22-.48c0-.09,0-.14,0-.18V60l.68-1.27a26.36,26.36,0,0,0,3.83-2.09,25,25,0,0,0,3.35-2.74c1-1,2.08-2.18,3.19-3.24a34.81,34.81,0,0,1,3.6-3.07,14.86,14.86,0,0,1,4.42-2.15,12.88,12.88,0,0,1,5-.53,6.35,6.35,0,0,1,2.61.92,6.16,6.16,0,0,1,2,2,8.24,8.24,0,0,1,.95,2.47c.14.79.24,1.56.36,2.34l-2.37,0a11.6,11.6,0,0,0-.2-4.65,8.31,8.31,0,0,0-2.43-3.75,6.77,6.77,0,0,0-3.94-1.78,11.21,11.21,0,0,0-1.15,0c-.4,0-.81.06-1.2.11a12.61,12.61,0,0,0-2.32.52,9.67,9.67,0,0,0-3.91,2.38c-1.16,1.21-2.41,2.52-3.68,3.71-.66.61-1.27,1.18-2,1.79a9.91,9.91,0,0,1-2.5,1.49,13.91,13.91,0,0,1-5.53,1H139.4l1.68-1.92a4.41,4.41,0,0,1,1.13-.88c.29-.19.58-.38.86-.58a17,17,0,0,0,1.62-1.29,12,12,0,0,0,2.54-3.11,11,11,0,0,0,.8-1.82,19.41,19.41,0,0,1,.87-2.18,15.23,15.23,0,0,1,2.65-3.94,13.3,13.3,0,0,1,3.87-2.84,15.35,15.35,0,0,1,2.2-.89c.73-.25,1.56-.42,2.17-.59a23.74,23.74,0,0,0,3.9-1.57c1.29-.58,2-1.23,2.12-2.32l2,.88a10.31,10.31,0,0,1-4.22,3.06,24.16,24.16,0,0,1-4.77,1.2c-.75.15-1.49.31-2.22.51a10.87,10.87,0,0,0-2,.69,8.43,8.43,0,0,0-3.13,2.68,29.88,29.88,0,0,0-2.32,3.91,26.36,26.36,0,0,1-2.74,4.07A21,21,0,0,1,142.81,50a8.6,8.6,0,0,1-7.62,1.42c-.79-.21-1.57-.46-2.32-.72-1.52-.53-3-1.1-4.45-1.66a25.06,25.06,0,0,0-4.3-1.35,10,10,0,0,0-4.25.05c-2.8.58-5.53,2.22-6.41,4.78a7.48,7.48,0,0,0-.19,4.11l.86,4.62.83,4.42L112.32,62a39.94,39.94,0,0,1-2.62-4.09l-.59-1.09a5.15,5.15,0,0,1-.44-1.4,8.72,8.72,0,0,1,0-2.7,11.16,11.16,0,0,1,6.17-8,9,9,0,0,1,2.53-.72,16.1,16.1,0,0,1,2.5-.19,15.8,15.8,0,0,1,5,.79,16.68,16.68,0,0,1,2.31.94c.71.35,1.41.69,2.11,1a14.56,14.56,0,0,0,4.29,1.17,10.22,10.22,0,0,0,4.3-.43,10.69,10.69,0,0,0,3.73-2.22,15.45,15.45,0,0,0,4.28-7.75,15.4,15.4,0,0,1,5.49-8.22,13.61,13.61,0,0,1,9.52-2.68l-.37,1.62a8.5,8.5,0,0,0-4.42-.55,9.53,9.53,0,0,0-4,2A14.68,14.68,0,0,0,149,33l-2.75,4.12-2.75,4.12-1.38,2.06-.68,1a11.84,11.84,0,0,1-.82,1,8.64,8.64,0,0,1-4.51,2.86,8.83,8.83,0,0,1-5.31-.39,41.76,41.76,0,0,1-4.48-2.34c-.71-.38-1.45-.76-2.16-1.07a6.06,6.06,0,0,0-2.18-.52,13.8,13.8,0,0,0-9,2.17,9,9,0,0,0-3.2,3.25,7.26,7.26,0,0,0-.77,4.38,21.16,21.16,0,0,0,1.5,4.54c.56,1.52,1.32,2.94,2,4.46l2.3,4.89-3.4-4.18a44.38,44.38,0,0,1-3.85-5.56,13,13,0,0,1-1.65-6.7,11.34,11.34,0,0,1,2.14-6.58,15,15,0,0,1,5.37-4.25A13.83,13.83,0,0,1,120,38.6a9.86,9.86,0,0,1,6.25,2.81,36.05,36.05,0,0,0,5.32,3.79,6.27,6.27,0,0,0,3,.74,5.54,5.54,0,0,0,1.51-.24,4.72,4.72,0,0,0,.7-.25c.19-.1.4-.27.66-.44l-.18.52-.1-.31.59.27a6,6,0,0,1-3.49.34,9.55,9.55,0,0,1-3.15-1.4,16.49,16.49,0,0,1-2.69-2A21.28,21.28,0,0,0,126,40.2a11.07,11.07,0,0,0-5.88-2.29,13.6,13.6,0,0,0-6.27,1.25,19.57,19.57,0,0,0-5.52,3.38,12.8,12.8,0,0,0-3.66,5.24,10.83,10.83,0,0,0-.27,6.35c.45,2.13,1.67,4,2.64,6l.47,1-.82-.67-.69-.56a3.11,3.11,0,0,1-.63-.68,8.88,8.88,0,0,1-1-1.55,14.33,14.33,0,0,1-1.14-3.42,14,14,0,0,1,.28-7.12,15.22,15.22,0,0,1,4.25-5.72,33.45,33.45,0,0,1,5.93-3.92,6.75,6.75,0,0,0,2.3-2.59,7.67,7.67,0,0,0,.73-3.41,11.18,11.18,0,0,1,.21-3.55A5.07,5.07,0,0,1,119.1,25a5.85,5.85,0,0,1,3.43-.84,2.89,2.89,0,0,1,1.68.58,3.46,3.46,0,0,1,1,1.45,3.1,3.1,0,0,1,.22,1.75,4.15,4.15,0,0,1-.74,1.61,5.34,5.34,0,0,1-1.31,1.2A1.7,1.7,0,0,0,122.67,32.32Z"/><path class="cls-4" d="M113.71,60.24a3.46,3.46,0,0,0,.37-.11l-.06.06a11.79,11.79,0,0,1,.69-3.68,10.5,10.5,0,0,1,2-3.35,11,11,0,0,1,3.08-2.48,14.88,14.88,0,0,1,3.65-1.4l-.09,2.52a10.65,10.65,0,0,0-3.93-.44,8.7,8.7,0,0,0-3.65,1.19,3.13,3.13,0,0,0-1.15,1.25,3.85,3.85,0,0,0-.28.85c-.07.33-.11.71-.15,1.07C114,57.18,114,58.71,113.71,60.24Zm0,0a33.76,33.76,0,0,1-1-4.51,11.51,11.51,0,0,1-.08-1.2,4.57,4.57,0,0,1,.17-1.36,5.07,5.07,0,0,1,1.53-2.33,8.21,8.21,0,0,1,2.23-1.35,10.07,10.07,0,0,1,2.46-.69,11.37,11.37,0,0,1,5,.5l4.72,1.5-4.82,1a13.51,13.51,0,0,0-5.92,2.72,11.43,11.43,0,0,0-2.21,2.52,19.63,19.63,0,0,0-1.67,3.15l0,.07h0Z"/><path class="cls-5" d="M97.53,37.79a12.3,12.3,0,0,1,.23,5.2A12.84,12.84,0,0,1,97,45.54L96,47.9a20.88,20.88,0,0,0-1,2.3,11.32,11.32,0,0,0-.48,2.34A8.44,8.44,0,0,0,95.37,57a15.23,15.23,0,0,0,2.87,3.79A24.55,24.55,0,0,0,102,63.9c.69.46,1.39.9,2.11,1.32l1.15.66a3.85,3.85,0,0,1,.75.64,2.3,2.3,0,0,1,.63,1.21,1.06,1.06,0,0,1,0,.3v.15c0,.09,0,.19,0,.29a2,2,0,0,1-.19.62,2.33,2.33,0,0,1-.9,1,2.74,2.74,0,0,1-1.15.4,3.17,3.17,0,0,1-.53,0h-.28a9.86,9.86,0,0,1-2.91-.26,21,21,0,0,1-9.32-5.52,17.27,17.27,0,0,1-3-4.6A16.55,16.55,0,0,1,86.9,54.9a14.11,14.11,0,0,1,.45-5.45,15.82,15.82,0,0,1,2.35-4.83,22.26,22.26,0,0,1,3.57-3.87A50,50,0,0,1,97.53,37.79Zm0,0c-1.25,1.19-2.61,2.26-3.76,3.49a23.26,23.26,0,0,0-3,4,13.79,13.79,0,0,0-1.85,9.3A16,16,0,0,0,93.2,63a18.58,18.58,0,0,0,8.26,4.72,7.9,7.9,0,0,0,2.2.18h.47c.06,0,.08,0,.06,0a.19.19,0,0,0-.07.08h0v0h0s0,.1,0,.13c.08.29.07.16,0,.12a1.33,1.33,0,0,0-.22-.2l-1.08-.63c-.75-.46-1.5-.93-2.22-1.46a26.62,26.62,0,0,1-4-3.54,15.3,15.3,0,0,1-3.08-4.54,10.08,10.08,0,0,1-.7-5.55,14.45,14.45,0,0,1,2-5l1.29-2.22a12.4,12.4,0,0,0,1-2.28A13.43,13.43,0,0,0,97.53,37.79Z"/><path class="cls-6" d="M105.55,158.23l-.17-.07c-.19-.36-.6-.78-.52-1.08,1.7-7.26.4-14.35-1.16-21.42-.54-2.4-1.28-4.75-2-7.1a7.08,7.08,0,0,1,.82-6.33,9.67,9.67,0,0,0,.81-1.44c1.43-3.09,1.21-5.92-1.38-8.38,1.86,1,2.64,2.81,3.23,4.67a20.57,20.57,0,0,1,.6,3.24c.6,4.28,1.07,8.58,1.8,12.84a55.86,55.86,0,0,1-.69,23.73C106.71,157.63,106.54,158.33,105.55,158.23Z"/><path class="cls-7" d="M56.57,75a4.73,4.73,0,0,0,.37,1.41,1,1,0,0,0,1.08.68,5.6,5.6,0,0,0,2.34-1.58c.71-.68,1.37-1.4,2.11-2.07a5,5,0,0,1,.61-.49,1.82,1.82,0,0,1,.42-.19.61.61,0,0,1,.64.18,1.24,1.24,0,0,1,.22.46,1.63,1.63,0,0,1,.07.45,1.42,1.42,0,0,1-.3.91,2.43,2.43,0,0,1-1.53.82,3.08,3.08,0,0,1-.86,0,1.59,1.59,0,0,1-1-.43,1,1,0,0,1-.23-.71,1.13,1.13,0,0,1,.06-.31l.06-.18.25-.71.54-1.39L62,70.49a3,3,0,0,0,.31-1.22,3.69,3.69,0,0,1,.5-1.74,3.55,3.55,0,0,1,1.47-1.19l-.11.07a12.42,12.42,0,0,1,1.33-.56.4.4,0,0,0,.17-.19c0-.09.09-.21.21-.49a6.87,6.87,0,0,1,1.86-2.56,9.49,9.49,0,0,1,5.73-2.06c4-.18,7.75,1.07,11.2,2.33L95,66.76l2.57.94a17.91,17.91,0,0,0,2.5.73c.86.19,1.75.35,2.66.51l.69.13a2.84,2.84,0,0,1,1.12.4,2,2,0,0,1,.66.74,2.31,2.31,0,0,1,.22.79,3.83,3.83,0,0,1-.08,1l-.2,1.15L104,73.06a38.89,38.89,0,0,1-4.76-.55,43.14,43.14,0,0,1-4.61-1.29A67.39,67.39,0,0,1,86,67.39c-2.78-1.47-5.39-3-8.35-3.55a12.73,12.73,0,0,0-4.48,0,9.4,9.4,0,0,0-4.11,1.94,9.19,9.19,0,0,1,4-2.5,12.51,12.51,0,0,1,4.76-.51c3.26.23,6.2,1.78,9,3a71.38,71.38,0,0,0,8.56,3.28,39.59,39.59,0,0,0,4.39,1.08,37.92,37.92,0,0,0,4.5.37l-1.34,1a2.07,2.07,0,0,0,0-.34.21.21,0,0,0,0,.13.66.66,0,0,0,.2.23c.24.08-.44-.08-.85-.14-.9-.15-1.83-.3-2.77-.5a20.47,20.47,0,0,1-2.81-.78l-2.63-.94-10.31-4c-3.4-1.32-6.79-2.54-10.22-2.47A7.54,7.54,0,0,0,69,64.11a5,5,0,0,0-1.44,1.81,4.84,4.84,0,0,1-.4.75,2.25,2.25,0,0,1-.84.72c-.68.3-1.12.3-1.25.4l0,0-.07,0a2,2,0,0,0-.85.55,2.14,2.14,0,0,0-.34,1,5,5,0,0,1-.18.83,7.14,7.14,0,0,1-.33.75l-.67,1.32-.64,1.31c-.2.38-.46,1.09-.42.84a.7.7,0,0,0,.36.16,2.06,2.06,0,0,0,.61,0,1.73,1.73,0,0,0,1.06-.43.78.78,0,0,0,.2-.44c0-.09,0-.18,0-.28a1.14,1.14,0,0,0-.07-.21h0a.87.87,0,0,0-.25.11,4.82,4.82,0,0,0-.57.39c-.74.61-1.44,1.31-2.2,1.94a11.6,11.6,0,0,1-1.19.9,3.21,3.21,0,0,1-1.39.59,1.07,1.07,0,0,1-.75-.21,1.5,1.5,0,0,1-.44-.62A5.17,5.17,0,0,1,56.57,75Z"/><path class="cls-8" d="M93.67,157.41c-.11-.29-.35-.59-.32-.85.65-5.76-.75-11.22-2.4-16.65-.16-.52-.32-1-.47-1.57,0,0,0-.06.13-.17a36.81,36.81,0,0,1,3.47,18.33c0,.31-.35.6-.54.9A.2.2,0,0,0,93.67,157.41Z"/><path class="cls-9" d="M112.28,74.79a24,24,0,0,1-2,1.36c-.14.08-.72-.25-.73-.43a1.08,1.08,0,0,1,.37-.92,13.92,13.92,0,0,1,2-.59Z"/><path class="cls-10" d="M122.67,32.32a3.8,3.8,0,0,1-1.9-1.17,2.59,2.59,0,0,1-.53-1.18,3.36,3.36,0,0,1,.1-1.27l.48-1.69.74,1.58a12.58,12.58,0,0,1,.71,1.79A8.15,8.15,0,0,1,122.67,32.32Zm0,0a8.22,8.22,0,0,1-1.3-1.49,14,14,0,0,1-1-1.66l1.23-.11a2.23,2.23,0,0,0,0,1.53C121.87,31.11,122.32,31.66,122.67,32.32Z"/><path class="cls-11" d="M93.67,157.41a.2.2,0,0,1-.13,0l.45,2-.49.06C93,158.79,92.68,158.08,93.67,157.41Z"/><path class="cls-12" d="M113.71,60.24c-.09-1.84-.34-3.69-.25-5.52.12-2.39,2-3.55,3.91-4.22a10,10,0,0,1,6.31,0c-5.44,1.24-8.45,4.55-9.59,9.65Z"/><path class="cls-13" d="M113.16,83.53a4.22,4.22,0,0,1,1.52,1.65,5,5,0,0,1,.65,2.14,9.49,9.49,0,0,1-1.22-1.82A16.37,16.37,0,0,1,113.16,83.53Z"/><path class="cls-14" d="M117.12,99.86c-2.61.71-2.91.59-4-1.47"/><path class="cls-15" d="M105.72,98.2s-.07-.09-.1-.07l0,0,.09,0,.18-.07.36-.14c.24-.1.47-.21.7-.33a12.3,12.3,0,0,0,1.32-.77,6.47,6.47,0,0,0,2.05-2.12,7.68,7.68,0,0,0,.48-5.63,6.3,6.3,0,0,0-.54-1.27,3.68,3.68,0,0,0-.37-.51c-.2-.24-.36-.46-.52-.68a5.8,5.8,0,0,0-1.93-2,5.47,5.47,0,0,0-2.49-.69,2.79,2.79,0,0,0-1.12.26,2.31,2.31,0,0,0-.48.28,2.83,2.83,0,0,0-.34.32l0,.06-.1.1-2,1.78.07-.06c-.35.37-.71.76-1,1.15a7.19,7.19,0,0,0-.46.57l-.16.24s0,0,0,0a1.67,1.67,0,0,1-.12.23l-.07.12c-.7,1-1.35,1.81-2,2.68a54.91,54.91,0,0,1-4.44,4.89,12.85,12.85,0,0,1-1.34,1.13,4,4,0,0,1-1,.55l-.23.08-.1,0-.27.13a20.24,20.24,0,0,0-2.5,1.71,31.42,31.42,0,0,0-4.55,4.3A10.15,10.15,0,0,0,81.05,107l-.3.76c-.11.28-.25.52-.37.78q-.39.75-.84,1.44c-1.18,1.86-2.46,3.6-3.79,5.32l-2,2.55a13.1,13.1,0,0,1-2.44,2.27,7.8,7.8,0,0,1-3.06,1.45c-.52.1-1,.22-1.55.37a8.54,8.54,0,0,0-1.39.5l-.08-.87,1.76.58.44.14s0,0,.14.07a.83.83,0,0,1,.16.12.63.63,0,0,1,0,.84.64.64,0,0,1-.12.12,1.39,1.39,0,0,1-.29.19c-.31.18-.59.3-.87.43-.57.26-1.13.5-1.66.77-.26.13-.52.27-.74.41l-.28.2s-.06.06,0,0l0,0a.75.75,0,0,0,0-.15.63.63,0,0,0,0-.23.78.78,0,0,0-.14-.27.81.81,0,0,0-.23-.18l-.13,0h-.11s0,0,0,0l.14,0,.38-.16.82-.38c.56-.26,1.11-.53,1.74-.77a4.54,4.54,0,0,1,.52-.17l.31-.07.19,0h.23a.85.85,0,0,1,.26.07.44.44,0,0,1,.15.08.84.84,0,0,1,.37.53.75.75,0,0,1,0,.41.7.7,0,0,1-.12.28,1.51,1.51,0,0,1-.09.13l0,0-.1.09-.17.12-.25.15-.43.23c-.56.28-1.1.55-1.6.84a7.26,7.26,0,0,0-.68.44l-.22.18s0,0,0,0l0,0a.63.63,0,0,0,.07-.22.94.94,0,0,0-.07-.57,1,1,0,0,0-.56-.51l-.19,0h-.1a.58.58,0,0,0-.16,0c-.14,0,0,0,0,0l.16-.08.37-.21.78-.48a17.77,17.77,0,0,1,1.7-1,4.46,4.46,0,0,1,.53-.22,1.81,1.81,0,0,1,1-.1l.11,0a1.13,1.13,0,0,1,.2.09.75.75,0,0,1,.21.12,1.43,1.43,0,0,1,.3.35,1.21,1.21,0,0,1,.14.43,1.1,1.1,0,0,1,0,.39,1.12,1.12,0,0,1-.14.38,1.71,1.71,0,0,1-.37.44,5.32,5.32,0,0,1-.46.37c-.56.41-1.08.73-1.56,1.06l-.32.23a.65.65,0,0,0-.11.09h0s0,0,.16-.24l0-.1a1.12,1.12,0,0,0,0-.78,1.21,1.21,0,0,0-.27-.41,1.1,1.1,0,0,0-.45-.26l-.12,0a.6.6,0,0,0-.23,0h-.12l.1,0,.36-.15c1-.47,2.15-1,3.22-1.59l3.54-1.85-1.9,3.54c-.21.39-.42.75-.64,1.14-.12.19-.23.38-.39.61l-.15.19s-.06.08-.12.14a1.39,1.39,0,0,1-.36.27l-.19.09-.1,0a1.2,1.2,0,0,1-.6,0l-.15,0a1.23,1.23,0,0,1-.66-.53,1.27,1.27,0,0,1-.16-1,1.38,1.38,0,0,1,.33-.59,1.89,1.89,0,0,1,.24-.19l0,0,0,0,.06,0,.11,0,.16-.07,2.32-1-.49.33c1.7-1.93,3.4-3.89,5-5.87s3.36-3.92,4.77-6,2.8-4.29,4.48-6.45a15,15,0,0,1,1.44-1.59,5.91,5.91,0,0,1,1-.75,2.14,2.14,0,0,1,.3-.17l.22-.12a1.64,1.64,0,0,0,.3-.17,29.87,29.87,0,0,0,2.9-2.31C92.07,99.45,94,97.68,96,96c.52-.42,1-.83,1.62-1.22a6.36,6.36,0,0,1,1-.57,2.92,2.92,0,0,1,.71-.24l.43-.07A10.51,10.51,0,0,0,103,92.44a7.67,7.67,0,0,0,1.37-1.12,2.47,2.47,0,0,0,.42-.58c0-.08,0-.15.06-.18a2.59,2.59,0,0,1,.07-.67,1.75,1.75,0,0,1,.89-1.2,1.29,1.29,0,0,1,.94-.1,1.14,1.14,0,0,1,.74.66,1.67,1.67,0,0,1,.11.76.55.55,0,0,1,0,.12.83.83,0,0,0,0,.13A6.24,6.24,0,0,0,108,91a4.32,4.32,0,0,1,.58,2.08,4.8,4.8,0,0,1-.5,2,9.56,9.56,0,0,1-1,1.71c-.21.26-.41.52-.63.76A2.34,2.34,0,0,1,105.72,98.2Zm-.22.14a6.51,6.51,0,0,1,.57-.94c.18-.26.35-.54.52-.81a10.57,10.57,0,0,0,.83-1.69,4.1,4.1,0,0,0,.26-1.74,3.24,3.24,0,0,0-.62-1.58,7.68,7.68,0,0,1-.55-.92,1.52,1.52,0,0,1-.1-.34,3.15,3.15,0,0,1,0-.37.33.33,0,0,0,0-.19s0,0,0,0,0,0,0,0a.52.52,0,0,0-.17.35,1.48,1.48,0,0,0,0,.3,1.84,1.84,0,0,1-.12.77,3.69,3.69,0,0,1-.62,1,9.59,9.59,0,0,1-1.54,1.46,12,12,0,0,1-3.71,2l-.29.08c-.08,0-.27,0-.23,0a.78.78,0,0,0-.2.1,7.94,7.94,0,0,0-.69.45c-.48.36-1,.77-1.43,1.18-1.9,1.69-3.73,3.53-5.63,5.32a34.52,34.52,0,0,1-3.08,2.66c-.17.11-.32.22-.53.34L88,106l0,0-.12.08a4.18,4.18,0,0,0-.55.46,11.66,11.66,0,0,0-1.14,1.32c-1.48,2-2.78,4.22-4.29,6.4a133.46,133.46,0,0,1-10.2,12l-.21.23-.28.11-2.31.88-.13.06h0s0,0,0,0h0l0,0a1.89,1.89,0,0,0,.24-.19,1.39,1.39,0,0,0,.33-.58,1.27,1.27,0,0,0-.16-1,1.15,1.15,0,0,0-.67-.53l-.14,0a1.16,1.16,0,0,0-.59,0l-.08,0-.16.07c-.26.17-.2.15-.23.17s0,0,0,0,0,0,0,0,.2-.28.3-.44c.21-.32.42-.67.61-1l1.64,1.69c-1.12.55-2.21,1.09-3.42,1.6l-.5.18-.33.1a2.54,2.54,0,0,1-.35.05l-.29,0-.15,0a1.22,1.22,0,0,1-.47-.28,1.16,1.16,0,0,1-.37-.85,1.47,1.47,0,0,1,.06-.42l.06-.12a1.47,1.47,0,0,1,.29-.42l.17-.15a2.77,2.77,0,0,1,.25-.19l.44-.29c.54-.34,1.08-.64,1.53-.94l.27-.19s0-.07-.06.1a.68.68,0,0,0-.1.27,1,1,0,0,0,0,.33,1.22,1.22,0,0,0,.13.38.85.85,0,0,0,.26.3.66.66,0,0,0,.16.11l.15.06h0c.32,0,.19,0,.12,0a2,2,0,0,0-.31.11c-.49.21-1,.5-1.55.79l-.81.45-.44.23-.26.12a1.7,1.7,0,0,1-.45.16,1.28,1.28,0,0,1-.22,0h-.13a1,1,0,0,1-.22-.06,1,1,0,0,1-.68-1.17,1.85,1.85,0,0,1,.12-.33l.07-.12a1.86,1.86,0,0,1,.3-.35,2.63,2.63,0,0,1,.5-.39,8.27,8.27,0,0,1,.9-.5c.58-.29,1.16-.54,1.72-.78l.39-.18.16-.07s0,0,0,0l0,0,0,0-.08.11a.93.93,0,0,0-.1.25.92.92,0,0,0,0,.39.87.87,0,0,0,.35.51l.13.07a.76.76,0,0,0,.21,0h0l-.13,0-.37.1c-.53.16-1.1.39-1.67.62l-.88.34-.48.17-.3.07a.67.67,0,0,1-.23,0,1,1,0,0,1-.23,0l-.18-.06a.75.75,0,0,1-.28-.22.66.66,0,0,1-.16-.31.79.79,0,0,1,0-.29,1.65,1.65,0,0,1,.08-.26,1.28,1.28,0,0,1,.14-.23,1.83,1.83,0,0,1,.28-.28,3.49,3.49,0,0,1,.48-.31,8.14,8.14,0,0,1,.89-.44c.59-.25,1.17-.47,1.73-.69.28-.11.57-.22.8-.33l.1-.06s0,0,0,0a.52.52,0,0,0-.1.32.47.47,0,0,0,.14.36.5.5,0,0,0,.11.1c.13.06,0,0,0,0l-.42-.19-1.69-.71-1-.44.94-.43a8,8,0,0,1,1.67-.53c.54-.13,1.07-.23,1.61-.33a7,7,0,0,0,2.75-1.28,11.16,11.16,0,0,0,2.26-2.13c.66-.85,1.32-1.7,1.94-2.57a49.68,49.68,0,0,0,3.44-5.4c.26-.46.48-.94.69-1.41.09-.23.21-.47.28-.7l.24-.76a11.78,11.78,0,0,1,1.71-3,33.26,33.26,0,0,1,4.53-4.88,17.83,17.83,0,0,1,2.74-2.06c.15-.08.28-.16.45-.24l.27-.11.15,0h0a3,3,0,0,0,.41-.28c.35-.27.72-.63,1.09-1,1.48-1.44,2.87-3.08,4.25-4.69.66-.8,1.39-1.67,1.92-2.43l0-.05a.16.16,0,0,0,0,.06,2.32,2.32,0,0,1,.17-.32c.1-.17.2-.3.29-.43s.38-.47.57-.69c.37-.43.75-.83,1.15-1.23l0,0,0,0,2-1.72-.14.16a3.86,3.86,0,0,1,.81-.74,5.1,5.1,0,0,1,.89-.48A4.87,4.87,0,0,1,105,81.9a5.84,5.84,0,0,1,1.85.34,7.25,7.25,0,0,1,1.62.77,7.49,7.49,0,0,1,2.36,2.59c.14.21.27.42.4.59a4.68,4.68,0,0,1,.5.8,7.42,7.42,0,0,1,.57,1.66,8.44,8.44,0,0,1-1.12,6.52,7.39,7.39,0,0,1-2.52,2.15,9.14,9.14,0,0,1-1.47.65l-.77.25-.39.1-.19,0-.1,0h0A.21.21,0,0,1,105.5,98.34Z"/><path class="cls-16" d="M115.38,79.24a6.71,6.71,0,0,1-4.19,1.11,3.48,3.48,0,0,1-1.11-.38,4.09,4.09,0,0,1-.88-.75,17.68,17.68,0,0,0-1.59-1.4,20.36,20.36,0,0,1-1.71-1.42,2.52,2.52,0,0,1-.4-.56,1.33,1.33,0,0,1-.11-.84,1.24,1.24,0,0,1,.48-.75,2.36,2.36,0,0,1,.61-.34,6.06,6.06,0,0,0,.88-.35c.07-.08.12-.15.1-.46,0-.15,0-.34,0-.57v-.09s0-.11,0,0a.23.23,0,0,0,0,.14.4.4,0,0,0,.12.22c.28.21.26.11.26.14a4,4,0,0,0-.77.3l.19-.14-.23.25a1,1,0,0,1-.2.18,1.84,1.84,0,0,1-.28.17,5.71,5.71,0,0,1-.79.27,8.72,8.72,0,0,1-1.49.24,15.69,15.69,0,0,1-2.91-.06,27.24,27.24,0,0,1-5.54-1.3c-.9-.3-1.77-.65-2.64-1s-1.68-.69-2.53-1a53.53,53.53,0,0,0-5.09-1.73c-3.41-.94-7-1.34-10,0a21.14,21.14,0,0,0-7.85,6.5,14.31,14.31,0,0,0-1.29,2.14,12.32,12.32,0,0,0-.77,2.38c-.22.89-.45,1.79-.71,2.7a14.08,14.08,0,0,1-1,2.83,4.55,4.55,0,0,1-1.18,1.46,3.2,3.2,0,0,1-1,.53l-.51.11h-.09A2.72,2.72,0,0,0,59.89,89a6.51,6.51,0,0,0-.51,4.67,5.79,5.79,0,0,0,1,2.31,4,4,0,0,0,2,1.32A4.36,4.36,0,0,0,67,95.9a3.1,3.1,0,0,0,.53-2.41,5.29,5.29,0,0,0-1.11-2.37,1.31,1.31,0,0,0-1.07-.55,1.79,1.79,0,0,0-1.09.65,5.74,5.74,0,0,0-.76,1.13,5,5,0,0,0-.29.62,3.05,3.05,0,0,0-.13.32s0,.11,0,.16,0,.08,0,.06a.25.25,0,0,0,0-.07.25.25,0,0,1,0,.07s0,0,0-.06a1,1,0,0,1,0-.17c0-.11.06-.22.1-.33s.16-.43.26-.64a6,6,0,0,1,.71-1.19,2,2,0,0,1,1.18-.79,1.63,1.63,0,0,1,1.33.57A5.52,5.52,0,0,1,68,93.4a3.66,3.66,0,0,1-.48,2.84,5.07,5.07,0,0,1-5.26,2,5,5,0,0,1-2.58-1.52,11.65,11.65,0,0,1-1.6-2.5,7.74,7.74,0,0,1-.15-6.07,4.86,4.86,0,0,1,2.39-2.63,3.28,3.28,0,0,1,.58-.17c.13,0,.1,0,.16,0a1,1,0,0,0,.21-.13,2.56,2.56,0,0,0,.49-.69,13.56,13.56,0,0,0,.82-2.34c.24-.85.45-1.74.67-2.63a14.17,14.17,0,0,1,.91-2.85A15.35,15.35,0,0,1,65.64,74a22,22,0,0,1,4-4.23,20.73,20.73,0,0,1,5-3.11,13.21,13.21,0,0,1,5.93-1,24,24,0,0,1,5.68,1.09,51.06,51.06,0,0,1,5.28,2c.86.36,1.7.75,2.54,1.14s1.64.73,2.47,1a27.13,27.13,0,0,0,5.1,1.45,13.28,13.28,0,0,0,2.58.21,7.14,7.14,0,0,0,1.24-.12,3.63,3.63,0,0,0,.51-.14s.08,0,0,0,0,0,.07,0l.25-.23.12-.1.08,0a3.89,3.89,0,0,1,1.28-.35.85.85,0,0,1,1,.59,1.24,1.24,0,0,1,0,.27c0,.13,0,.08,0,.11v0a3.71,3.71,0,0,0,0,.51,1.7,1.7,0,0,1-.72,1.43,6.25,6.25,0,0,1-1.14.41c-.3.1-.46.21-.46.27s0,.29.23.54a19.47,19.47,0,0,0,1.52,1.43,17.65,17.65,0,0,1,1.53,1.59,2.68,2.68,0,0,0,1.6,1.11A6.65,6.65,0,0,0,115.38,79.24Z"/></g></svg>