<svg xmlns="http://www.w3.org/2000/svg" xmlns:xlink="http://www.w3.org/1999/xlink" viewBox="0 0 192 192"><defs><style>.cls-1{fill:url(#linear-gradient);}.cls-2{fill:url(#linear-gradient-2);}.cls-3{fill:url(#linear-gradient-3);}.cls-4{fill:url(#linear-gradient-4);}.cls-5{fill:url(#linear-gradient-5);}.cls-6{fill:url(#linear-gradient-6);}.cls-7{fill:url(#linear-gradient-7);}.cls-8{fill:url(#linear-gradient-8);}.cls-9{fill:url(#linear-gradient-9);}.cls-10{fill:url(#linear-gradient-10);}.cls-11{fill:url(#linear-gradient-11);}.cls-12{fill:url(#linear-gradient-12);}.cls-13{fill:url(#linear-gradient-13);}.cls-14{fill:url(#linear-gradient-14);}.cls-15{fill:url(#linear-gradient-15);}.cls-16{fill:url(#linear-gradient-16);}.cls-17{fill:url(#linear-gradient-17);}.cls-18{fill:url(#linear-gradient-18);}.cls-19{fill:url(#linear-gradient-19);}.cls-20{fill:url(#linear-gradient-20);}.cls-21{fill:url(#linear-gradient-21);}.cls-22{fill:url(#linear-gradient-22);}.cls-23{fill:url(#linear-gradient-23);}.cls-24{fill:url(#linear-gradient-24);}.cls-25{fill:url(#linear-gradient-25);}.cls-26{fill:url(#linear-gradient-26);}.cls-27{fill:url(#linear-gradient-27);}.cls-28{fill:url(#linear-gradient-28);}.cls-29{fill:url(#linear-gradient-29);}.cls-30{fill:url(#linear-gradient-30);}.cls-31{fill:url(#linear-gradient-31);}.cls-32{fill:url(#linear-gradient-32);}.cls-33{fill:url(#linear-gradient-33);}.cls-34{fill:url(#linear-gradient-34);}.cls-35{fill:url(#linear-gradient-35);}.cls-36{fill:url(#linear-gradient-36);}.cls-37{fill:url(#linear-gradient-37);}.cls-38{fill:url(#linear-gradient-38);}.cls-39{fill:url(#linear-gradient-39);}.cls-40{fill:url(#linear-gradient-40);}.cls-41{fill:url(#linear-gradient-41);}.cls-42{fill:url(#linear-gradient-42);}.cls-43{fill:url(#linear-gradient-43);}.cls-44{fill:url(#linear-gradient-44);}.cls-45{fill:url(#linear-gradient-45);}.cls-46{fill:url(#linear-gradient-46);}.cls-47{fill:url(#linear-gradient-47);}</style><linearGradient id="linear-gradient" x1="24.95" y1="151.13" x2="170.99" y2="151.13" gradientUnits="userSpaceOnUse"><stop offset="0.21" stop-color="#039be5"/><stop offset="0.25" stop-color="#1293dc"/><stop offset="0.43" stop-color="#5d6ab2"/><stop offset="0.6" stop-color="#984991"/><stop offset="0.74" stop-color="#c23278"/><stop offset="0.85" stop-color="#dc236a"/><stop offset="0.91" stop-color="#e61e64"/><stop offset="1" stop-color="#e91e63"/></linearGradient><linearGradient id="linear-gradient-2" x1="87.9" y1="80.63" x2="90.42" y2="80.63" xlink:href="#linear-gradient"/><linearGradient id="linear-gradient-3" x1="105.39" y1="80.63" x2="107.86" y2="80.63" xlink:href="#linear-gradient"/><linearGradient id="linear-gradient-4" x1="35.29" y1="154.07" x2="163.48" y2="154.07" xlink:href="#linear-gradient"/><linearGradient id="linear-gradient-5" x1="44.43" y1="182.25" x2="47.04" y2="182.25" xlink:href="#linear-gradient"/><linearGradient id="linear-gradient-6" x1="54.88" y1="182.25" x2="57.49" y2="182.25" xlink:href="#linear-gradient"/><linearGradient id="linear-gradient-7" x1="65.32" y1="182.25" x2="67.94" y2="182.25" xlink:href="#linear-gradient"/><linearGradient id="linear-gradient-8" x1="75.77" y1="182.25" x2="78.38" y2="182.25" xlink:href="#linear-gradient"/><linearGradient id="linear-gradient-9" x1="86.22" y1="182.25" x2="88.83" y2="182.25" xlink:href="#linear-gradient"/><linearGradient id="linear-gradient-10" x1="96.67" y1="182.25" x2="99.28" y2="182.25" xlink:href="#linear-gradient"/><linearGradient id="linear-gradient-11" x1="107.11" y1="182.25" x2="109.73" y2="182.25" xlink:href="#linear-gradient"/><linearGradient id="linear-gradient-12" x1="117.56" y1="182.25" x2="120.17" y2="182.25" xlink:href="#linear-gradient"/><linearGradient id="linear-gradient-13" x1="128.01" y1="182.25" x2="130.62" y2="182.25" xlink:href="#linear-gradient"/><linearGradient id="linear-gradient-14" x1="138.46" y1="182.25" x2="141.07" y2="182.25" xlink:href="#linear-gradient"/><linearGradient id="linear-gradient-15" x1="148.9" y1="182.25" x2="151.51" y2="182.25" xlink:href="#linear-gradient"/><linearGradient id="linear-gradient-16" x1="49.54" y1="172.67" x2="52.16" y2="172.67" xlink:href="#linear-gradient"/><linearGradient id="linear-gradient-17" x1="59.99" y1="172.67" x2="62.6" y2="172.67" xlink:href="#linear-gradient"/><linearGradient id="linear-gradient-18" x1="70.44" y1="172.67" x2="73.05" y2="172.67" xlink:href="#linear-gradient"/><linearGradient id="linear-gradient-19" x1="80.89" y1="172.67" x2="83.5" y2="172.67" xlink:href="#linear-gradient"/><linearGradient id="linear-gradient-20" x1="91.33" y1="172.67" x2="93.95" y2="172.67" xlink:href="#linear-gradient"/><linearGradient id="linear-gradient-21" x1="101.78" y1="172.67" x2="104.39" y2="172.67" xlink:href="#linear-gradient"/><linearGradient id="linear-gradient-22" x1="112.23" y1="172.67" x2="114.84" y2="172.67" xlink:href="#linear-gradient"/><linearGradient id="linear-gradient-23" x1="122.68" y1="172.67" x2="125.29" y2="172.67" xlink:href="#linear-gradient"/><linearGradient id="linear-gradient-24" x1="133.12" y1="172.67" x2="135.73" y2="172.67" xlink:href="#linear-gradient"/><linearGradient id="linear-gradient-25" x1="143.57" y1="172.67" x2="146.18" y2="172.67" xlink:href="#linear-gradient"/><linearGradient id="linear-gradient-26" x1="63.8" y1="162.55" x2="66.41" y2="162.55" xlink:href="#linear-gradient"/><linearGradient id="linear-gradient-27" x1="75.34" y1="162.55" x2="77.95" y2="162.55" xlink:href="#linear-gradient"/><linearGradient id="linear-gradient-28" x1="86.87" y1="162.55" x2="89.48" y2="162.55" xlink:href="#linear-gradient"/><linearGradient id="linear-gradient-29" x1="98.41" y1="162.55" x2="101.02" y2="162.55" xlink:href="#linear-gradient"/><linearGradient id="linear-gradient-30" x1="109.94" y1="162.55" x2="112.55" y2="162.55" xlink:href="#linear-gradient"/><linearGradient id="linear-gradient-31" x1="121.48" y1="162.55" x2="124.09" y2="162.55" xlink:href="#linear-gradient"/><linearGradient id="linear-gradient-32" x1="133.01" y1="162.55" x2="135.63" y2="162.55" xlink:href="#linear-gradient"/><linearGradient id="linear-gradient-33" x1="66.79" y1="153.8" x2="69.41" y2="153.8" xlink:href="#linear-gradient"/><linearGradient id="linear-gradient-34" x1="78.3" y1="153.8" x2="80.91" y2="153.8" xlink:href="#linear-gradient"/><linearGradient id="linear-gradient-35" x1="89.81" y1="153.8" x2="92.42" y2="153.8" xlink:href="#linear-gradient"/><linearGradient id="linear-gradient-36" x1="101.32" y1="153.8" x2="103.93" y2="153.8" xlink:href="#linear-gradient"/><linearGradient id="linear-gradient-37" x1="112.83" y1="153.8" x2="115.44" y2="153.8" xlink:href="#linear-gradient"/><linearGradient id="linear-gradient-38" x1="124.34" y1="153.8" x2="126.95" y2="153.8" xlink:href="#linear-gradient"/><linearGradient id="linear-gradient-39" x1="73.73" y1="143.26" x2="76.34" y2="143.26" xlink:href="#linear-gradient"/><linearGradient id="linear-gradient-40" x1="82.46" y1="143.26" x2="85.08" y2="143.26" xlink:href="#linear-gradient"/><linearGradient id="linear-gradient-41" x1="91.2" y1="143.26" x2="93.81" y2="143.26" xlink:href="#linear-gradient"/><linearGradient id="linear-gradient-42" x1="99.93" y1="143.26" x2="102.54" y2="143.26" xlink:href="#linear-gradient"/><linearGradient id="linear-gradient-43" x1="108.66" y1="143.26" x2="111.28" y2="143.26" xlink:href="#linear-gradient"/><linearGradient id="linear-gradient-44" x1="117.4" y1="143.26" x2="120.01" y2="143.26" xlink:href="#linear-gradient"/><linearGradient id="linear-gradient-45" x1="52.42" y1="118.38" x2="88.39" y2="118.38" xlink:href="#linear-gradient"/><linearGradient id="linear-gradient-46" x1="107.65" y1="118.38" x2="143.62" y2="118.38" xlink:href="#linear-gradient"/><linearGradient id="linear-gradient-47" x1="65.4" y1="43.15" x2="130.55" y2="43.15" xlink:href="#linear-gradient"/></defs><title>ic_material_product_icon_192px copy 4</title><g id="istoria"><path class="cls-1" d="M28,186.05l34-35.19c5.8-6,11.6-11.93,17.52-17.83s11.9-11.73,17.87-17.49l.62-.6.58.6c5.73,5.91,11.41,11.88,17.19,17.75l8.69,8.77,8.78,8.68c5.85,5.8,11.79,11.5,17.7,17.24s11.82,11.46,17.7,17.23l1.93,1.89-2.72,0c-11.73.11-23.5.14-35.29.19s-23.59-.07-35.31-.22Zm.24-.1,70.47-1c11.57-.15,23.07-.25,34.56-.22s23,.07,34.58.19l-.8,1.92q-8.64-8.82-17.22-17.71c-5.74-5.9-11.44-11.85-17.24-17.69l-8.69-8.78-8.77-8.7c-5.86-5.78-11.83-11.46-17.75-17.19h1.2c-5.67,5.89-11.3,11.73-17.06,17.45S70,145.58,64.1,151.28Z"/><path class="cls-2" d="M89.28,56.23a38.75,38.75,0,0,1,.85,6.1c.08,1,.12,2,.14,3a23.9,23.9,0,0,1-.07,3.05c-.15,2-.56,4.07-.64,6.1a39,39,0,0,0,.29,6.1c.24,2,.43,4.07.5,6.1s.19,4.07.15,6.1A73.23,73.23,0,0,1,89.28,105H89a73.23,73.23,0,0,1-1.22-12.21c0-2,.07-4.06.16-6.1s.25-4.06.5-6.1a38.94,38.94,0,0,0,.28-6.1c-.07-2-.48-4.07-.64-6.1A25.88,25.88,0,0,1,88,65.38c0-1,.06-2,.14-3a40,40,0,0,1,.85-6.1Z"/><path class="cls-3" d="M106.75,56.23a39.9,39.9,0,0,1,.83,6.1c.08,1,.12,2,.14,3a25.88,25.88,0,0,1-.07,3.05c-.15,2-.55,4.07-.63,6.1a40.2,40.2,0,0,0,.28,6.1c.24,2,.42,4.07.49,6.1s.19,4.07.15,6.1A74.25,74.25,0,0,1,106.75,105h-.25a74.27,74.27,0,0,1-1.2-12.21c0-2,.07-4.06.16-6.1s.24-4.06.49-6.1a41.53,41.53,0,0,0,.28-6.1c-.08-2-.48-4.07-.63-6.1a25.88,25.88,0,0,1-.07-3.05c0-1,.06-2,.14-3a39.9,39.9,0,0,1,.83-6.1Z"/><path class="cls-4" d="M85.73,128.25c8.41,0,16.81.16,25.21.24h.23l.17.17,9.25,9,1.29,1.26-1.82,0-22.28.23-22.28.1.76-.32L65.35,150l-.81-2c5.54,0,11.08,0,16.62,0l16.62.06,33.25.38h.29l.2.2,8.63,8.84.93.94h-1.32l-20.89-.12-10.45,0-10.45,0c-7,0-13.93,0-20.89.1l-20.9.2.52-.22-10,10.23-.63-1.51,26-.22,26-.13c17.31-.06,34.61-.18,51.91-.16h.58l.41.41,10.43,10.46,2.36,2.37-3.33,0-31.26-.14-31.26-.23-31.26-.36-31.26-.52v-.26l31.26-.51,31.26-.36,31.26-.23,31.26-.14-1,2.35L148.9,169l1,.41c-17.3,0-34.6-.09-51.91-.15L72,169.15l-26-.22-2.15,0,1.53-1.49,10.23-10,.22-.22h.29l20.9.2c7,.07,13.93.06,20.89.09l10.45,0,10.45,0,20.89-.11-.39.94-8.83-8.64.49.21-33.25.38-16.62.06c-5.54,0-11.08.06-16.62,0l-2.78,0,2-1.94,11-10.92.33-.32h.44l22.28.1,22.28.23-.52,1.28-9-9.25.41.17c-8.4-.39-16.79-.72-25.18-1.17Z"/><path class="cls-5" d="M45.61,186a2.21,2.21,0,0,1-.89-.94,1,1,0,0,1-.07-.93c.17-.32.59-.63.66-.94a1,1,0,0,0-.29-.94,2.46,2.46,0,0,1-.52-.94,2.22,2.22,0,0,1-.16-.94,3,3,0,0,1,1.27-1.88h.26a2.94,2.94,0,0,1,1.26,1.88,2.22,2.22,0,0,1-.16.94,2.46,2.46,0,0,1-.52.94,1,1,0,0,0-.29.94c.08.31.5.62.67.94a1,1,0,0,1-.08.93,2.24,2.24,0,0,1-.88.94Z"/><path class="cls-6" d="M56.05,186a2.24,2.24,0,0,1-.88-.94,1,1,0,0,1-.08-.93c.17-.32.59-.63.67-.94a1,1,0,0,0-.29-.94,2.34,2.34,0,0,1-.52-.94,2.22,2.22,0,0,1-.16-.94,2.94,2.94,0,0,1,1.26-1.88h.26a3,3,0,0,1,1.27,1.88,2.22,2.22,0,0,1-.16.94,2.46,2.46,0,0,1-.52.94,1,1,0,0,0-.3.94c.08.31.5.62.67.94a1,1,0,0,1-.07.93,2.21,2.21,0,0,1-.89.94Z"/><path class="cls-7" d="M66.5,186a2.28,2.28,0,0,1-.89-.94,1.06,1.06,0,0,1-.07-.93c.17-.32.59-.63.67-.94a1.07,1.07,0,0,0-.29-.94,2.22,2.22,0,0,1-.52-.94,2.08,2.08,0,0,1-.16-.94,2.9,2.9,0,0,1,1.26-1.88h.26A3,3,0,0,1,68,180.37a2.39,2.39,0,0,1-.16.94,2.46,2.46,0,0,1-.52.94,1,1,0,0,0-.3.94c.08.31.5.62.67.94a1,1,0,0,1-.07.93,2.28,2.28,0,0,1-.89.94Z"/><path class="cls-8" d="M77,186a2.21,2.21,0,0,1-.89-.94,1,1,0,0,1-.07-.93c.17-.32.59-.63.67-.94a1,1,0,0,0-.3-.94,2.46,2.46,0,0,1-.52-.94,2.22,2.22,0,0,1-.16-.94A3,3,0,0,1,77,178.49h.26a2.94,2.94,0,0,1,1.26,1.88,2.08,2.08,0,0,1-.16.94,2.22,2.22,0,0,1-.52.94,1.07,1.07,0,0,0-.29.94c.08.31.5.62.67.94a1,1,0,0,1-.08.93,2.18,2.18,0,0,1-.88.94Z"/><path class="cls-9" d="M87.39,186a2.24,2.24,0,0,1-.88-.94,1,1,0,0,1-.07-.93c.17-.32.59-.63.66-.94a1,1,0,0,0-.29-.94,2.46,2.46,0,0,1-.52-.94,2.22,2.22,0,0,1-.16-.94,3,3,0,0,1,1.26-1.88h.27a3,3,0,0,1,1.26,1.88,2.22,2.22,0,0,1-.16.94,2.46,2.46,0,0,1-.52.94,1,1,0,0,0-.29.94c.08.31.49.62.66.94a1,1,0,0,1-.07.93,2.24,2.24,0,0,1-.88.94Z"/><path class="cls-10" d="M97.84,186a2.18,2.18,0,0,1-.88-.94,1,1,0,0,1-.08-.93c.17-.32.59-.63.67-.94a1.07,1.07,0,0,0-.29-.94,3,3,0,0,1-.68-1.88,2.94,2.94,0,0,1,1.26-1.88h.26a3,3,0,0,1,1.27,1.88,2.22,2.22,0,0,1-.16.94,2.46,2.46,0,0,1-.52.94,1,1,0,0,0-.3.94c.08.31.5.62.67.94a1,1,0,0,1-.07.93,2.21,2.21,0,0,1-.89.94Z"/><path class="cls-11" d="M108.29,186a2.28,2.28,0,0,1-.89-.94,1,1,0,0,1-.07-.93c.17-.32.59-.63.67-.94a1,1,0,0,0-.3-.94,2.31,2.31,0,0,1-.51-.94,2.23,2.23,0,0,1-.17-.94,3,3,0,0,1,1.27-1.88h.26a2.9,2.9,0,0,1,1.26,1.88,2.08,2.08,0,0,1-.16.94,2.22,2.22,0,0,1-.52.94,1.07,1.07,0,0,0-.29.94c.08.31.5.62.67.94a1,1,0,0,1-.07.93,2.28,2.28,0,0,1-.89.94Z"/><path class="cls-12" d="M118.74,186a2.21,2.21,0,0,1-.89-.94,1,1,0,0,1-.07-.93c.17-.32.59-.63.67-.94a1,1,0,0,0-.3-.94,2.46,2.46,0,0,1-.52-.94,2.22,2.22,0,0,1-.16-.94,3,3,0,0,1,1.27-1.88H119a2.94,2.94,0,0,1,1.26,1.88,2.22,2.22,0,0,1-.16.94,2.34,2.34,0,0,1-.52.94,1,1,0,0,0-.29.94c.08.31.5.62.67.94a1,1,0,0,1-.08.93,2.24,2.24,0,0,1-.88.94Z"/><path class="cls-13" d="M129.18,186a2.24,2.24,0,0,1-.88-.94,1,1,0,0,1-.08-.93c.17-.32.59-.63.67-.94a1,1,0,0,0-.29-.94,2.46,2.46,0,0,1-.52-.94,2.22,2.22,0,0,1-.16-.94,2.94,2.94,0,0,1,1.26-1.88h.26a3,3,0,0,1,1.27,1.88,2.22,2.22,0,0,1-.16.94,2.46,2.46,0,0,1-.52.94,1,1,0,0,0-.29.94c.07.31.49.62.66.94a1,1,0,0,1-.07.93,2.21,2.21,0,0,1-.89.94Z"/><path class="cls-14" d="M139.63,186a2.28,2.28,0,0,1-.89-.94,1.06,1.06,0,0,1-.07-.93c.17-.32.59-.63.67-.94a1.07,1.07,0,0,0-.29-.94,2.22,2.22,0,0,1-.52-.94,2.08,2.08,0,0,1-.16-.94,2.9,2.9,0,0,1,1.26-1.88h.26a3,3,0,0,1,1.27,1.88,2.22,2.22,0,0,1-.16.94,2.46,2.46,0,0,1-.52.94,1,1,0,0,0-.3.94c.08.31.5.62.67.94a1,1,0,0,1-.07.93,2.28,2.28,0,0,1-.89.94Z"/><path class="cls-15" d="M150.08,186a2.28,2.28,0,0,1-.89-.94,1,1,0,0,1-.07-.93c.17-.32.59-.63.67-.94a1,1,0,0,0-.3-.94,2.46,2.46,0,0,1-.52-.94,2.22,2.22,0,0,1-.16-.94,3,3,0,0,1,1.27-1.88h.26a2.9,2.9,0,0,1,1.26,1.88,2.08,2.08,0,0,1-.16.94,2.22,2.22,0,0,1-.52.94,1.07,1.07,0,0,0-.29.94c.08.31.5.62.67.94a1.06,1.06,0,0,1-.07.93,2.28,2.28,0,0,1-.89.94Z"/><path class="cls-16" d="M50.72,177.3a2.74,2.74,0,0,1-.89-1.16,1.61,1.61,0,0,1-.07-1.16c.17-.38.59-.77.67-1.15a1.55,1.55,0,0,0-.29-1.16,2.94,2.94,0,0,1-.52-1.15,3.13,3.13,0,0,1-.16-1.16,3.69,3.69,0,0,1,1.26-2.31H51a3.76,3.76,0,0,1,1.27,2.31,3.61,3.61,0,0,1-.16,1.16,3.26,3.26,0,0,1-.52,1.15,1.51,1.51,0,0,0-.3,1.16c.08.38.5.77.67,1.15a1.56,1.56,0,0,1-.07,1.16A2.74,2.74,0,0,1,51,177.3Z"/><path class="cls-17" d="M61.17,177.3a2.74,2.74,0,0,1-.89-1.16,1.56,1.56,0,0,1-.07-1.16c.17-.38.59-.77.67-1.15a1.51,1.51,0,0,0-.3-1.16,3.26,3.26,0,0,1-.52-1.15,3.35,3.35,0,0,1-.16-1.16,3.76,3.76,0,0,1,1.27-2.31h.26a3.74,3.74,0,0,1,1.26,2.31,3.13,3.13,0,0,1-.16,1.16,2.94,2.94,0,0,1-.52,1.15,1.55,1.55,0,0,0-.29,1.16c.08.38.5.77.67,1.15a1.56,1.56,0,0,1-.08,1.16,2.63,2.63,0,0,1-.88,1.16Z"/><path class="cls-18" d="M71.61,177.3a2.71,2.71,0,0,1-.88-1.16,1.56,1.56,0,0,1-.07-1.16c.17-.38.59-.77.66-1.15a1.46,1.46,0,0,0-.29-1.16,3.26,3.26,0,0,1-.52-1.15,3.35,3.35,0,0,1-.16-1.16,3.79,3.79,0,0,1,1.26-2.31h.27a3.79,3.79,0,0,1,1.26,2.31,3.35,3.35,0,0,1-.16,1.16,3.26,3.26,0,0,1-.52,1.15,1.5,1.5,0,0,0-.29,1.16c.08.38.5.77.66,1.15a1.56,1.56,0,0,1-.07,1.16,2.71,2.71,0,0,1-.88,1.16Z"/><path class="cls-19" d="M82.06,177.3a2.63,2.63,0,0,1-.88-1.16A1.56,1.56,0,0,1,81.1,175c.17-.38.59-.77.67-1.15a1.55,1.55,0,0,0-.29-1.16,2.94,2.94,0,0,1-.52-1.15,3.35,3.35,0,0,1-.16-1.16,3.74,3.74,0,0,1,1.26-2.31h.26a3.76,3.76,0,0,1,1.27,2.31,3.35,3.35,0,0,1-.16,1.16,3.26,3.26,0,0,1-.52,1.15,1.51,1.51,0,0,0-.3,1.16c.08.38.5.77.67,1.15a1.56,1.56,0,0,1-.07,1.16,2.66,2.66,0,0,1-.89,1.16Z"/><path class="cls-20" d="M92.51,177.3a2.74,2.74,0,0,1-.89-1.16,1.56,1.56,0,0,1-.07-1.16c.17-.38.59-.77.67-1.15a1.51,1.51,0,0,0-.3-1.16,3.06,3.06,0,0,1-.51-1.15,3.13,3.13,0,0,1-.16-1.16,3.69,3.69,0,0,1,1.26-2.31h.26A3.69,3.69,0,0,1,94,170.36a3.13,3.13,0,0,1-.16,1.16,2.94,2.94,0,0,1-.52,1.15,1.55,1.55,0,0,0-.29,1.16c.08.38.5.77.67,1.15a1.56,1.56,0,0,1-.07,1.16,2.74,2.74,0,0,1-.89,1.16Z"/><path class="cls-21" d="M103,177.3a2.66,2.66,0,0,1-.89-1.16A1.56,1.56,0,0,1,102,175c.17-.38.59-.77.67-1.15a1.51,1.51,0,0,0-.3-1.16,3.26,3.26,0,0,1-.52-1.15,3.35,3.35,0,0,1-.16-1.16,3.76,3.76,0,0,1,1.27-2.31h.26a3.74,3.74,0,0,1,1.26,2.31,3.35,3.35,0,0,1-.16,1.16,2.94,2.94,0,0,1-.52,1.15,1.5,1.5,0,0,0-.29,1.16c.08.38.5.77.67,1.15a1.56,1.56,0,0,1-.08,1.16,2.71,2.71,0,0,1-.88,1.16Z"/><path class="cls-22" d="M113.4,177.3a2.71,2.71,0,0,1-.88-1.16,1.56,1.56,0,0,1-.08-1.16c.17-.38.59-.77.67-1.15a1.5,1.5,0,0,0-.29-1.16,3.26,3.26,0,0,1-.52-1.15,3.35,3.35,0,0,1-.16-1.16,3.79,3.79,0,0,1,1.26-2.31h.26a3.76,3.76,0,0,1,1.27,2.31,3.35,3.35,0,0,1-.16,1.16,3.26,3.26,0,0,1-.52,1.15,1.46,1.46,0,0,0-.29,1.16c.07.38.49.77.66,1.15a1.56,1.56,0,0,1-.07,1.16,2.66,2.66,0,0,1-.89,1.16Z"/><path class="cls-23" d="M123.85,177.3a2.74,2.74,0,0,1-.89-1.16,1.61,1.61,0,0,1-.07-1.16c.17-.38.59-.77.67-1.15a1.55,1.55,0,0,0-.29-1.16,2.94,2.94,0,0,1-.52-1.15,3.13,3.13,0,0,1-.16-1.16,3.69,3.69,0,0,1,1.26-2.31h.26a3.76,3.76,0,0,1,1.27,2.31,3.35,3.35,0,0,1-.16,1.16,3.26,3.26,0,0,1-.52,1.15,1.51,1.51,0,0,0-.3,1.16c.08.38.5.77.67,1.15a1.56,1.56,0,0,1-.07,1.16,2.74,2.74,0,0,1-.89,1.16Z"/><path class="cls-24" d="M134.3,177.3a2.74,2.74,0,0,1-.89-1.16,1.56,1.56,0,0,1-.07-1.16c.17-.38.59-.77.67-1.15a1.51,1.51,0,0,0-.3-1.16,3.26,3.26,0,0,1-.52-1.15,3.35,3.35,0,0,1-.16-1.16,3.76,3.76,0,0,1,1.27-2.31h.26a3.69,3.69,0,0,1,1.26,2.31,3.13,3.13,0,0,1-.16,1.16,2.94,2.94,0,0,1-.52,1.15,1.55,1.55,0,0,0-.29,1.16c.08.38.5.77.67,1.15a1.61,1.61,0,0,1-.07,1.16,2.74,2.74,0,0,1-.89,1.16Z"/><path class="cls-25" d="M144.75,177.3a2.66,2.66,0,0,1-.89-1.16,1.56,1.56,0,0,1-.07-1.16c.17-.38.59-.77.66-1.15a1.46,1.46,0,0,0-.29-1.16,3.26,3.26,0,0,1-.52-1.15,3.35,3.35,0,0,1-.16-1.16,3.76,3.76,0,0,1,1.27-2.31H145a3.74,3.74,0,0,1,1.26,2.31,3.35,3.35,0,0,1-.16,1.16,3.26,3.26,0,0,1-.52,1.15,1.5,1.5,0,0,0-.29,1.16c.08.38.5.77.67,1.15a1.56,1.56,0,0,1-.08,1.16,2.71,2.71,0,0,1-.88,1.16Z"/><path class="cls-26" d="M65,166.74a2.45,2.45,0,0,1-.89-1.05,1.27,1.27,0,0,1-.07-1c.17-.35.59-.7.67-1.05a1.27,1.27,0,0,0-.3-1,2.86,2.86,0,0,1-.52-1.05,2.72,2.72,0,0,1-.16-1,3.33,3.33,0,0,1,1.27-2.1h.26a3.32,3.32,0,0,1,1.26,2.1,3.63,3.63,0,0,1-.68,2.09,1.26,1.26,0,0,0-.29,1c.08.35.5.7.67,1.05a1.27,1.27,0,0,1-.08,1,2.49,2.49,0,0,1-.88,1.05Z"/><path class="cls-27" d="M76.51,166.74a2.42,2.42,0,0,1-.88-1.05,1.27,1.27,0,0,1-.08-1c.17-.35.59-.7.67-1.05a1.3,1.3,0,0,0-.29-1,2.58,2.58,0,0,1-.52-1.05,2.72,2.72,0,0,1-.16-1,3.32,3.32,0,0,1,1.26-2.1h.26a3.33,3.33,0,0,1,1.27,2.1,2.72,2.72,0,0,1-.16,1,2.86,2.86,0,0,1-.52,1.05,1.27,1.27,0,0,0-.3,1c.08.35.5.7.67,1.05a1.27,1.27,0,0,1-.07,1,2.45,2.45,0,0,1-.89,1.05Z"/><path class="cls-28" d="M88.05,166.74a2.45,2.45,0,0,1-.89-1.05,1.27,1.27,0,0,1-.07-1c.17-.35.59-.7.67-1.05a1.27,1.27,0,0,0-.3-1,2.86,2.86,0,0,1-.52-1.05,2.72,2.72,0,0,1-.16-1,3.33,3.33,0,0,1,1.27-2.1h.26a3.32,3.32,0,0,1,1.26,2.1,2.54,2.54,0,0,1-.16,1,2.58,2.58,0,0,1-.52,1.05,1.3,1.3,0,0,0-.29,1c.08.35.5.7.67,1.05a1.27,1.27,0,0,1-.08,1,2.42,2.42,0,0,1-.88,1.05Z"/><path class="cls-29" d="M99.58,166.74a2.49,2.49,0,0,1-.88-1.05,1.27,1.27,0,0,1-.08-1c.17-.35.59-.7.67-1.05a1.26,1.26,0,0,0-.29-1,3.63,3.63,0,0,1-.68-2.09,3.32,3.32,0,0,1,1.26-2.1h.26a3.33,3.33,0,0,1,1.27,2.1,2.72,2.72,0,0,1-.16,1,2.86,2.86,0,0,1-.52,1.05,1.27,1.27,0,0,0-.3,1c.08.35.5.7.67,1.05a1.27,1.27,0,0,1-.07,1,2.45,2.45,0,0,1-.89,1.05Z"/><path class="cls-30" d="M111.12,166.74a2.52,2.52,0,0,1-.89-1.05,1.27,1.27,0,0,1-.07-1c.17-.35.59-.7.67-1.05a1.27,1.27,0,0,0-.3-1,2.86,2.86,0,0,1-.52-1.05,2.72,2.72,0,0,1-.16-1,3.33,3.33,0,0,1,1.27-2.1h.26a3.27,3.27,0,0,1,1.26,2.1,2.54,2.54,0,0,1-.16,1,2.58,2.58,0,0,1-.52,1.05,1.3,1.3,0,0,0-.29,1c.08.35.5.7.67,1.05a1.31,1.31,0,0,1-.07,1,2.52,2.52,0,0,1-.89,1.05Z"/><path class="cls-31" d="M122.65,166.74a2.49,2.49,0,0,1-.88-1.05,1.23,1.23,0,0,1-.07-1c.16-.35.58-.7.66-1.05a1.26,1.26,0,0,0-.29-1,2.86,2.86,0,0,1-.52-1.05,2.72,2.72,0,0,1-.16-1,3.36,3.36,0,0,1,1.26-2.1h.26a3.33,3.33,0,0,1,1.27,2.1,2.72,2.72,0,0,1-.16,1,2.86,2.86,0,0,1-.52,1.05,1.23,1.23,0,0,0-.29,1c.07.35.49.7.66,1.05a1.27,1.27,0,0,1-.07,1,2.45,2.45,0,0,1-.89,1.05Z"/><path class="cls-32" d="M134.19,166.74a2.52,2.52,0,0,1-.89-1.05,1.27,1.27,0,0,1-.07-1c.17-.35.59-.7.67-1.05a1.27,1.27,0,0,0-.3-1,2.68,2.68,0,0,1-.51-1.05,2.54,2.54,0,0,1-.16-1,3.27,3.27,0,0,1,1.26-2.1h.26a3.27,3.27,0,0,1,1.26,2.1,2.54,2.54,0,0,1-.16,1,2.58,2.58,0,0,1-.52,1.05,1.3,1.3,0,0,0-.29,1c.08.35.5.7.67,1.05a1.27,1.27,0,0,1-.07,1,2.52,2.52,0,0,1-.89,1.05Z"/><path class="cls-33" d="M68.23,149.68a2.55,2.55,0,0,1,.89,1,1.25,1.25,0,0,1,.07,1c-.17.35-.59.69-.67,1a1.25,1.25,0,0,0,.29,1,2.57,2.57,0,0,1,.52,1,2.5,2.5,0,0,1,.16,1,3.22,3.22,0,0,1-1.26,2.07H68a3.28,3.28,0,0,1-1.27-2.07,3.72,3.72,0,0,1,.68-2.06,1.22,1.22,0,0,0,.3-1c-.08-.34-.5-.68-.67-1a1.25,1.25,0,0,1,.07-1,2.55,2.55,0,0,1,.89-1Z"/><path class="cls-34" d="M79.74,149.68a2.44,2.44,0,0,1,.88,1,1.25,1.25,0,0,1,.08,1c-.17.35-.59.69-.67,1a1.25,1.25,0,0,0,.29,1,2.57,2.57,0,0,1,.52,1,2.5,2.5,0,0,1,.16,1,3.26,3.26,0,0,1-1.26,2.07h-.26a3.28,3.28,0,0,1-1.27-2.07,2.67,2.67,0,0,1,.16-1,2.86,2.86,0,0,1,.52-1,1.22,1.22,0,0,0,.3-1c-.08-.34-.5-.68-.67-1a1.25,1.25,0,0,1,.07-1,2.47,2.47,0,0,1,.89-1Z"/><path class="cls-35" d="M91.25,149.68a2.51,2.51,0,0,1,.88,1,1.25,1.25,0,0,1,.08,1c-.17.35-.59.69-.67,1a1.22,1.22,0,0,0,.29,1,2.86,2.86,0,0,1,.52,1,2.67,2.67,0,0,1,.16,1,3.26,3.26,0,0,1-1.26,2.07H91a3.28,3.28,0,0,1-1.27-2.07,2.67,2.67,0,0,1,.16-1,2.86,2.86,0,0,1,.52-1,1.18,1.18,0,0,0,.29-1c-.07-.34-.49-.68-.66-1a1.25,1.25,0,0,1,.07-1,2.47,2.47,0,0,1,.89-1Z"/><path class="cls-36" d="M102.76,149.68a2.51,2.51,0,0,1,.88,1,1.25,1.25,0,0,1,.07,1c-.17.35-.59.69-.66,1a1.18,1.18,0,0,0,.29,1,2.86,2.86,0,0,1,.52,1,2.67,2.67,0,0,1,.16,1,3.3,3.3,0,0,1-1.26,2.07h-.27a3.3,3.3,0,0,1-1.26-2.07,2.67,2.67,0,0,1,.16-1,2.86,2.86,0,0,1,.52-1,1.22,1.22,0,0,0,.29-1c-.08-.34-.5-.68-.66-1a1.21,1.21,0,0,1,.07-1,2.51,2.51,0,0,1,.88-1Z"/><path class="cls-37" d="M114.26,149.68a2.47,2.47,0,0,1,.89,1,1.25,1.25,0,0,1,.07,1c-.17.35-.59.69-.67,1a1.22,1.22,0,0,0,.3,1,2.86,2.86,0,0,1,.52,1,2.67,2.67,0,0,1,.16,1,3.28,3.28,0,0,1-1.27,2.07H114a3.26,3.26,0,0,1-1.26-2.07,2.67,2.67,0,0,1,.16-1,2.57,2.57,0,0,1,.52-1,1.25,1.25,0,0,0,.29-1c-.08-.34-.5-.68-.67-1a1.25,1.25,0,0,1,.08-1,2.51,2.51,0,0,1,.88-1Z"/><path class="cls-38" d="M125.77,149.68a2.55,2.55,0,0,1,.89,1,1.25,1.25,0,0,1,.07,1c-.17.35-.59.69-.67,1a1.22,1.22,0,0,0,.3,1,2.86,2.86,0,0,1,.52,1,2.67,2.67,0,0,1,.16,1,3.28,3.28,0,0,1-1.27,2.07h-.26a3.22,3.22,0,0,1-1.26-2.07,2.5,2.5,0,0,1,.16-1,2.57,2.57,0,0,1,.52-1,1.25,1.25,0,0,0,.29-1c-.08-.34-.5-.68-.67-1a1.28,1.28,0,0,1,.07-1,2.55,2.55,0,0,1,.89-1Z"/><path class="cls-39" d="M74.91,148.29A2.81,2.81,0,0,1,74,147a1.83,1.83,0,0,1-.07-1.26c.17-.42.59-.84.67-1.26a1.75,1.75,0,0,0-.3-1.26A3.75,3.75,0,0,1,73.8,142a3.9,3.9,0,0,1-.16-1.26,4.22,4.22,0,0,1,1.27-2.51h.26a4.2,4.2,0,0,1,1.26,2.51,3.9,3.9,0,0,1-.16,1.26,3.38,3.38,0,0,1-.52,1.26,1.79,1.79,0,0,0-.29,1.26c.08.42.5.84.67,1.26a1.83,1.83,0,0,1-.08,1.26,2.86,2.86,0,0,1-.88,1.25Z"/><path class="cls-40" d="M83.64,148.29a2.89,2.89,0,0,1-.89-1.25,1.83,1.83,0,0,1-.07-1.26c.17-.42.59-.84.67-1.26a1.79,1.79,0,0,0-.29-1.26,3.38,3.38,0,0,1-.52-1.26,3.64,3.64,0,0,1-.16-1.26,4.15,4.15,0,0,1,1.26-2.51h.26a4.22,4.22,0,0,1,1.27,2.51A3.91,3.91,0,0,1,85,142a3.52,3.52,0,0,1-.51,1.26,1.75,1.75,0,0,0-.3,1.26c.08.42.5.84.67,1.26a1.83,1.83,0,0,1-.07,1.26,2.89,2.89,0,0,1-.89,1.25Z"/><path class="cls-41" d="M92.37,148.29a2.86,2.86,0,0,1-.88-1.25,1.83,1.83,0,0,1-.08-1.26c.17-.42.59-.84.67-1.26a1.74,1.74,0,0,0-.29-1.26,3.75,3.75,0,0,1-.52-1.26,3.9,3.9,0,0,1-.16-1.26,4.2,4.2,0,0,1,1.26-2.51h.26a4.22,4.22,0,0,1,1.27,2.51,3.9,3.9,0,0,1-.16,1.26,3.75,3.75,0,0,1-.52,1.26,1.75,1.75,0,0,0-.3,1.26c.08.42.5.84.67,1.26a1.83,1.83,0,0,1-.07,1.26,2.81,2.81,0,0,1-.89,1.25Z"/><path class="cls-42" d="M101.11,148.29a2.81,2.81,0,0,1-.89-1.25,1.83,1.83,0,0,1-.07-1.26c.17-.42.59-.84.67-1.26a1.75,1.75,0,0,0-.3-1.26A3.75,3.75,0,0,1,100,142a3.9,3.9,0,0,1-.16-1.26,4.22,4.22,0,0,1,1.27-2.51h.26a4.2,4.2,0,0,1,1.26,2.51,3.9,3.9,0,0,1-.16,1.26,3.55,3.55,0,0,1-.52,1.26,1.74,1.74,0,0,0-.29,1.26c.08.42.5.84.67,1.26a1.83,1.83,0,0,1-.08,1.26,2.86,2.86,0,0,1-.88,1.25Z"/><path class="cls-43" d="M109.84,148.29A2.89,2.89,0,0,1,109,147a1.83,1.83,0,0,1-.07-1.26c.17-.42.59-.84.67-1.26a1.79,1.79,0,0,0-.29-1.26,3.38,3.38,0,0,1-.52-1.26,3.64,3.64,0,0,1-.16-1.26,4.15,4.15,0,0,1,1.26-2.51h.26a4.15,4.15,0,0,1,1.26,2.51,3.64,3.64,0,0,1-.16,1.26,3.52,3.52,0,0,1-.51,1.26,1.75,1.75,0,0,0-.3,1.26c.08.42.5.84.67,1.26A1.83,1.83,0,0,1,111,147a2.89,2.89,0,0,1-.89,1.25Z"/><path class="cls-44" d="M118.57,148.29a2.86,2.86,0,0,1-.88-1.25,1.83,1.83,0,0,1-.08-1.26c.17-.42.59-.84.67-1.26a1.74,1.74,0,0,0-.29-1.26,3.55,3.55,0,0,1-.52-1.26,3.9,3.9,0,0,1-.16-1.26,4.2,4.2,0,0,1,1.26-2.51h.26a4.22,4.22,0,0,1,1.27,2.51,3.9,3.9,0,0,1-.16,1.26,3.75,3.75,0,0,1-.52,1.26,1.75,1.75,0,0,0-.3,1.26c.08.42.5.84.67,1.26a1.83,1.83,0,0,1-.07,1.26,2.81,2.81,0,0,1-.89,1.25Z"/><path class="cls-45" d="M53.3,102.81c1.5,5.26,2.89,10.55,4.34,15.82L61.8,134.5l-1.32,0c1.53-5.34,3.16-10.65,4.74-16l4.85-15.95,1-3.18.77,3.24,3.79,15.94c1.22,5.32,2.5,10.63,3.68,16l-1.35,0,4.71-15.86c1.63-5.27,3.2-10.56,4.89-15.81-1.29,5.36-2.7,10.7-4,16l-4.22,16-.67,2.56-.67-2.58c-1.38-5.29-2.66-10.6-4-15.89L70.05,103l1.74,0L66.85,119c-1.69,5.29-3.33,10.6-5.06,15.88L61,137.23l-.55-2.4-3.68-16C55.63,113.5,54.41,108.17,53.3,102.81Z"/><path class="cls-46" d="M108.53,102.81c1.5,5.26,2.89,10.55,4.34,15.82L117,134.5l-1.32,0c1.53-5.34,3.15-10.65,4.74-16l4.85-15.95,1-3.18.77,3.24,3.79,15.94c1.23,5.32,2.51,10.63,3.69,16l-1.35,0,4.71-15.86c1.63-5.27,3.2-10.56,4.88-15.81-1.29,5.36-2.69,10.7-4,16l-4.22,16-.67,2.56-.68-2.58c-1.37-5.29-2.65-10.6-4-15.89L125.28,103l1.74,0-5,15.92c-1.68,5.29-3.32,10.6-5,15.88l-.77,2.36-.55-2.4-3.68-16C110.86,113.5,109.64,108.17,108.53,102.81Z"/><path class="cls-47" d="M129.19,43a28.79,28.79,0,0,0-2.56-11.87,30.67,30.67,0,0,0-7-9.75A33,33,0,0,0,98,12.69a30.36,30.36,0,0,0-21.88,8.44,29.39,29.39,0,0,0-6.68,10A29.86,29.86,0,0,0,67.31,43a31.19,31.19,0,0,0,9.32,21.34A30.78,30.78,0,0,0,98,73a31.87,31.87,0,0,0,21.59-8.44,30.42,30.42,0,0,0,7-9.72A29,29,0,0,0,129.19,43Zm.25,0a33.49,33.49,0,0,1-8.73,22.73,30.47,30.47,0,0,1-10.29,7.32,31.68,31.68,0,0,1-24.93.09A32.66,32.66,0,0,1,75,66a31.62,31.62,0,0,1-9-23A33.7,33.7,0,0,1,85.72,13.42,31.8,31.8,0,0,1,98,10.64a30.22,30.22,0,0,1,12.41,2.41,29.69,29.69,0,0,1,10.3,7.25A33.46,33.46,0,0,1,129.44,43Z"/></g></svg>