<svg xmlns="http://www.w3.org/2000/svg" xmlns:xlink="http://www.w3.org/1999/xlink" viewBox="0 0 192 192"><defs><style>.cls-1{fill:url(#linear-gradient);}.cls-2{fill:url(#linear-gradient-2);}.cls-3{fill:url(#linear-gradient-3);}.cls-4{fill:url(#linear-gradient-4);}.cls-5{fill:url(#linear-gradient-5);}</style><linearGradient id="linear-gradient" x1="67.42" y1="88.2" x2="139.17" y2="88.2" gradientUnits="userSpaceOnUse"><stop offset="0.21" stop-color="#039be5"/><stop offset="0.25" stop-color="#1293dc"/><stop offset="0.43" stop-color="#5d6ab2"/><stop offset="0.6" stop-color="#984991"/><stop offset="0.74" stop-color="#c23278"/><stop offset="0.85" stop-color="#dc236a"/><stop offset="0.91" stop-color="#e61e64"/><stop offset="1" stop-color="#e91e63"/></linearGradient><linearGradient id="linear-gradient-2" x1="45.28" y1="98.77" x2="93.52" y2="98.77" xlink:href="#linear-gradient"/><linearGradient id="linear-gradient-3" x1="113.09" y1="123.48" x2="131.15" y2="123.48" xlink:href="#linear-gradient"/><linearGradient id="linear-gradient-4" x1="109.01" y1="89.91" x2="118.22" y2="89.91" xlink:href="#linear-gradient"/><linearGradient id="linear-gradient-5" x1="81.72" y1="67.27" x2="101.38" y2="67.27" xlink:href="#linear-gradient"/></defs><title>ic_material_product_icon_192px copy 2</title><g id="ujasi"><path class="cls-1" d="M120.9,170.81a10.31,10.31,0,0,1-7.05-1.76,14.52,14.52,0,0,1-2.85-2.4l-.63-.72c-.18-.25-.35-.51-.53-.77a17.26,17.26,0,0,1-1-1.6,41.86,41.86,0,0,1-2.82-6.8q-1.14-3.48-1.94-7c-1-4.75-2-9.39-3.41-14-.69-2.29-1.41-4.57-2.28-6.76-.44-1.1-.92-2.18-1.44-3.21A11.71,11.71,0,0,0,95.15,123a3.5,3.5,0,0,0-.55-.48l-.73-.51-1.49-1-1.48-1-.72-.44c-.2-.11-.44-.18-.78-.33-.61-.27-1.14-.58-1.68-.88a11.53,11.53,0,0,1-1.57-1.15,28.24,28.24,0,0,1-2.61-2.64,55.21,55.21,0,0,1-4.39-5.86,67.39,67.39,0,0,1-6.72-12.9c-.47-1.12-.81-2.29-1.23-3.44s-.7-2.33-1-3.52a109.23,109.23,0,0,1-2.16-14.4,90,90,0,0,1,0-14.59c.2-2.43.51-4.85.9-7.26.18-1.21.43-2.41.66-3.6s.57-2.41.9-3.59a101.07,101.07,0,0,1,5-13.75,51.33,51.33,0,0,1,3.49-6.53A28.72,28.72,0,0,1,84,19.37,53.31,53.31,0,0,1,110,6.18c1.2-.25,2.44-.34,3.65-.51s2.46-.11,3.69-.17l3.68.16c1.21.1,2.42.23,3.62.37,2.41.27,4.81.62,7.2,1s4.76.82,7.12,1.37l0,.23c-4.78-.69-9.58-1.14-14.38-1.47-1.2-.08-2.4-.15-3.6-.2l-3.56,0c-1.18.11-2.37.17-3.54.33s-2.35.32-3.5.61a53.45,53.45,0,0,0-24.72,13.2,27.5,27.5,0,0,0-4.47,5.3,57.9,57.9,0,0,0-3.38,6.21A100.2,100.2,0,0,0,72.65,46a94.51,94.51,0,0,0-3.3,28.36A88.05,88.05,0,0,0,71,88.65a51,51,0,0,0,5.06,13.42,55.73,55.73,0,0,0,8.38,11.61,25.2,25.2,0,0,0,2.59,2.39,9,9,0,0,0,1.38.93c.53.27,1.06.54,1.56.74a8.5,8.5,0,0,1,.9.34c.32.16.59.31.86.47l1.57.94,1.55,1,.77.49a5.16,5.16,0,0,1,.83.69,13.24,13.24,0,0,1,2.27,3.17,30.31,30.31,0,0,1,1.57,3.38,64.65,64.65,0,0,1,2.34,7,135.61,135.61,0,0,1,3.2,14.19A60.75,60.75,0,0,0,110,163c.28.52.52,1.06.84,1.54l.46.74.52.69a14.15,14.15,0,0,0,2.52,2.43,10.28,10.28,0,0,0,6.57,2.18Z"/><path class="cls-2" d="M60,40a21.89,21.89,0,0,0-7.06,5.38A23.53,23.53,0,0,0,50.38,49a21,21,0,0,0-1.71,4,47.81,47.81,0,0,0-1.07,8.8q-.2,4.5-.16,9c0,3,.09,6,.37,9s.73,6,1.13,9c.85,6,2.06,12,4.57,17.44A52.68,52.68,0,0,0,58,114c.85,1.23,1.71,2.46,2.62,3.66s1.79,2.53,2.59,3.85a73,73,0,0,1,7.37,16.91c.43,1.47.82,3,1.13,4.51a27.32,27.32,0,0,0,1.1,4.23,15.18,15.18,0,0,0,4.69,7A10.72,10.72,0,0,0,81.26,156a13.54,13.54,0,0,0,4.29.48,8.12,8.12,0,0,0,4-1.3,7.52,7.52,0,0,0,2.71-3.38l.23.06A7.59,7.59,0,0,1,90,155.78a8.58,8.58,0,0,1-4.37,1.87,14.84,14.84,0,0,1-4.75-.18,11.47,11.47,0,0,1-4.47-1.89A14.51,14.51,0,0,1,73,152.16a20.5,20.5,0,0,1-2.26-4.23,26.18,26.18,0,0,1-1.32-4.53c-.32-1.42-.72-2.86-1.17-4.29a82.5,82.5,0,0,0-6.89-16.51c-.73-1.29-1.54-2.53-2.38-3.76s-1.73-2.54-2.52-3.85a50.51,50.51,0,0,1-4.12-8.26c-2.2-5.77-3.11-11.84-4.14-17.81l-.81-4.48c-.29-1.48-.61-3-.86-4.49a90.06,90.06,0,0,1-1-9.13,76,76,0,0,1,0-9.18A41.32,41.32,0,0,1,47,52.44,20.41,20.41,0,0,1,59.88,39.76Z"/><path class="cls-3" d="M126.59,108.87a6.16,6.16,0,0,0-1.81-1.82,5.51,5.51,0,0,0-2.41-.8,6.1,6.1,0,0,0-4.56,1.48,7.72,7.72,0,0,0-2.34,4,8.09,8.09,0,0,0-.19,2.34c0,.84.06,1.7.13,2.56.26,3.47.58,7,1.17,10.49.29,1.75.66,3.47.89,5.27a9.47,9.47,0,0,0,2.15,4.5,11.8,11.8,0,0,0,1.75,1.78,4.67,4.67,0,0,0,.94.61,3.42,3.42,0,0,0,1,.23,7.59,7.59,0,0,0,4.45-.8,1.9,1.9,0,0,0,.61-.58,1.3,1.3,0,0,0,.14-.32,4.9,4.9,0,0,0,.1-.5,17.58,17.58,0,0,0,.16-2.47c0-1.71,0-3.46-.08-5.21-.09-3.49-.27-7.05-.11-10.57S128.38,111.93,126.59,108.87Zm.2-.12a21.61,21.61,0,0,1,2.09,4.92,37.36,37.36,0,0,1,1.21,5.25c.54,3.54.86,7,1,10.6.07,1.78.13,3.57,0,5.39a19.06,19.06,0,0,1-.32,2.81,5.37,5.37,0,0,1-.21.78,3.3,3.3,0,0,1-.43.86,4,4,0,0,1-1.34,1.18,7.8,7.8,0,0,1-2.92.89,10,10,0,0,1-2.93-.12,5.29,5.29,0,0,1-1.51-.54,5.87,5.87,0,0,1-1.19-1,13.9,13.9,0,0,1-1.73-2.21,11.44,11.44,0,0,1-1.89-5.17,43.14,43.14,0,0,0-.85-5.19c-.73-3.46-1.78-6.85-2.34-10.41a24.32,24.32,0,0,1-.27-2.72,8.22,8.22,0,0,1,1.57-5.56,7.25,7.25,0,0,1,12,.2Z"/><path class="cls-4" d="M116.83,88.06a1.8,1.8,0,0,0-.77-1.12,2.16,2.16,0,0,0-1.24-.29,7.78,7.78,0,0,0-2.06.48,2.91,2.91,0,0,0-1,.59,8.52,8.52,0,0,0-.93,1.17,2,2,0,0,0,.16,2.39A3.83,3.83,0,0,0,112,92a4.12,4.12,0,0,0,1,.5,2.34,2.34,0,0,0,1,.09,2.31,2.31,0,0,0,.75-.26,2.79,2.79,0,0,0,.72-.59,5.1,5.1,0,0,0,.7-1A3.76,3.76,0,0,0,116.83,88.06Zm.23,0a26.73,26.73,0,0,1,.58,3.1,3.35,3.35,0,0,1-.29,1.79,3.73,3.73,0,0,1-1.3,1.52,3.44,3.44,0,0,1-2,.59,4.19,4.19,0,0,1-1.9-.5,4.46,4.46,0,0,1-2.24-2.69,4.91,4.91,0,0,1,.33-3.29,9.45,9.45,0,0,0,.47-1.42,3.64,3.64,0,0,1,1-1.57,3,3,0,0,1,3.58-.27,3.6,3.6,0,0,1,1.22,1.27A6.86,6.86,0,0,1,117.06,88Z"/><path class="cls-5" d="M83.15,64.74A11.83,11.83,0,0,1,87,58.68a7.75,7.75,0,0,1,3.54-1.53,9,9,0,0,1,3.83.26,7.93,7.93,0,0,1,3.29,2,9.23,9.23,0,0,1,2,3.13,15.56,15.56,0,0,1,1,3.47,11.34,11.34,0,0,1-.16,3.67,9.75,9.75,0,0,1-4.26,6.12,9.63,9.63,0,0,1-7.6,1.45,8.41,8.41,0,0,1-5.49-5.29,10.37,10.37,0,0,1-.5-3.67A17.84,17.84,0,0,1,83.15,64.74Zm.22.06a9,9,0,0,0-.18,3.42,8.15,8.15,0,0,0,1.24,3,8.93,8.93,0,0,0,4.79,3.59c.23.07.46.09.68.15l.73,0,.36,0,.38,0c.25,0,.51,0,.76-.08a9.19,9.19,0,0,0,2.9-1,9.32,9.32,0,0,0,2.44-2,8.86,8.86,0,0,0,1.75-2.69,7.67,7.67,0,0,0,.59-3.23,8.89,8.89,0,0,0-.91-3.23,5.94,5.94,0,0,0-2.11-2.47,7.44,7.44,0,0,0-2.92-1.08,11.29,11.29,0,0,0-6.14.64A7.58,7.58,0,0,0,83.37,64.8Z"/></g></svg>