<svg xmlns="http://www.w3.org/2000/svg" xmlns:xlink="http://www.w3.org/1999/xlink" viewBox="0 0 192 192"><defs><style>.cls-1{fill:url(#linear-gradient);}.cls-2{fill:url(#linear-gradient-2);}.cls-3{fill:url(#linear-gradient-3);}.cls-4{fill:url(#linear-gradient-4);}.cls-5{fill:url(#linear-gradient-5);}.cls-6{fill:url(#linear-gradient-6);}.cls-7{fill:url(#linear-gradient-7);}.cls-8{fill:url(#linear-gradient-8);}.cls-9{fill:url(#linear-gradient-9);}.cls-10{fill:url(#linear-gradient-10);}.cls-11{fill:url(#linear-gradient-11);}.cls-12{fill:url(#linear-gradient-12);}.cls-13{fill:url(#linear-gradient-13);}.cls-14{fill:url(#linear-gradient-14);}.cls-15{fill:url(#linear-gradient-15);}.cls-16{fill:url(#linear-gradient-16);}.cls-17{fill:url(#linear-gradient-17);}.cls-18{fill:url(#linear-gradient-18);}.cls-19{fill:url(#linear-gradient-19);}.cls-20{fill:url(#linear-gradient-20);}.cls-21{fill:url(#linear-gradient-21);}.cls-22{fill:url(#linear-gradient-22);}.cls-23{fill:url(#linear-gradient-23);}.cls-24{fill:url(#linear-gradient-24);}.cls-25{fill:url(#linear-gradient-25);}.cls-26{fill:url(#linear-gradient-26);}.cls-27{fill:url(#linear-gradient-27);}</style><linearGradient id="linear-gradient" x1="41.9" y1="110.41" x2="146.26" y2="110.41" gradientUnits="userSpaceOnUse"><stop offset="0.21" stop-color="#039be5"/><stop offset="0.24" stop-color="#1193dd"/><stop offset="0.43" stop-color="#5c6ab2"/><stop offset="0.6" stop-color="#974991"/><stop offset="0.74" stop-color="#c13278"/><stop offset="0.85" stop-color="#db236a"/><stop offset="0.91" stop-color="#e51e64"/><stop offset="1" stop-color="#e91e63"/></linearGradient><linearGradient id="linear-gradient-2" x1="98.24" y1="80.26" x2="106.23" y2="80.26" xlink:href="#linear-gradient"/><linearGradient id="linear-gradient-3" x1="105.17" y1="108.65" x2="114.4" y2="108.65" xlink:href="#linear-gradient"/><linearGradient id="linear-gradient-4" x1="85.77" y1="123.05" x2="110.11" y2="123.05" xlink:href="#linear-gradient"/><linearGradient id="linear-gradient-5" x1="103.39" y1="163.88" x2="118" y2="163.88" xlink:href="#linear-gradient"/><linearGradient id="linear-gradient-6" x1="56.62" y1="175.17" x2="61.4" y2="175.17" xlink:href="#linear-gradient"/><linearGradient id="linear-gradient-7" x1="102.93" y1="30.59" x2="104.68" y2="30.59" xlink:href="#linear-gradient"/><linearGradient id="linear-gradient-8" x1="92.34" y1="105.66" x2="94.09" y2="105.66" gradientTransform="translate(157.74 180.3) rotate(-143.49)" xlink:href="#linear-gradient"/><linearGradient id="linear-gradient-9" x1="122.1" y1="106.84" x2="123.85" y2="106.84" gradientTransform="translate(157.74 180.3) rotate(-143.49)" xlink:href="#linear-gradient"/><linearGradient id="linear-gradient-10" x1="141.19" y1="102.73" x2="142.94" y2="102.73" gradientTransform="translate(157.74 180.3) rotate(-143.49)" xlink:href="#linear-gradient"/><linearGradient id="linear-gradient-11" x1="105.46" y1="84.35" x2="107.2" y2="84.35" gradientTransform="translate(157.74 180.3) rotate(-143.49)" xlink:href="#linear-gradient"/><linearGradient id="linear-gradient-12" x1="141.11" y1="142.52" x2="142.86" y2="142.52" xlink:href="#linear-gradient"/><linearGradient id="linear-gradient-13" x1="29.65" y1="77.18" x2="31.4" y2="77.18" gradientTransform="translate(157.74 180.3) rotate(-143.49)" xlink:href="#linear-gradient"/><linearGradient id="linear-gradient-14" x1="59.41" y1="78.36" x2="61.16" y2="78.36" gradientTransform="translate(157.74 180.3) rotate(-143.49)" xlink:href="#linear-gradient"/><linearGradient id="linear-gradient-15" x1="78.49" y1="74.25" x2="80.24" y2="74.25" gradientTransform="translate(157.74 180.3) rotate(-143.49)" xlink:href="#linear-gradient"/><linearGradient id="linear-gradient-16" x1="42.76" y1="55.87" x2="44.51" y2="55.87" gradientTransform="translate(157.74 180.3) rotate(-143.49)" xlink:href="#linear-gradient"/><linearGradient id="linear-gradient-17" x1="68.21" y1="56.44" x2="69.96" y2="56.44" gradientTransform="translate(157.74 180.3) rotate(-143.49)" xlink:href="#linear-gradient"/><linearGradient id="linear-gradient-18" x1="21.93" y1="134.49" x2="23.68" y2="134.49" gradientTransform="matrix(0.8, 0.6, -0.6, 0.8, 77.18, -19.49)" xlink:href="#linear-gradient"/><linearGradient id="linear-gradient-19" x1="95.63" y1="-26.04" x2="97.38" y2="-26.04" gradientTransform="translate(96.05 219.33) rotate(-106.83)" xlink:href="#linear-gradient"/><linearGradient id="linear-gradient-20" x1="125.39" y1="-24.86" x2="127.14" y2="-24.86" gradientTransform="translate(96.05 219.33) rotate(-106.83)" xlink:href="#linear-gradient"/><linearGradient id="linear-gradient-21" x1="164.82" y1="-29.5" x2="166.57" y2="-29.5" gradientTransform="translate(96.05 219.33) rotate(-106.83)" xlink:href="#linear-gradient"/><linearGradient id="linear-gradient-22" x1="108.75" y1="-47.35" x2="110.49" y2="-47.35" gradientTransform="translate(96.05 219.33) rotate(-106.83)" xlink:href="#linear-gradient"/><linearGradient id="linear-gradient-23" x1="1.66" y1="98.83" x2="3.41" y2="98.83" gradientTransform="translate(148.12 14.99) rotate(88.48)" xlink:href="#linear-gradient"/><linearGradient id="linear-gradient-24" x1="133.13" y1="-9.44" x2="134.88" y2="-9.44" gradientTransform="translate(-27.94 177.44) rotate(-55.01)" xlink:href="#linear-gradient"/><linearGradient id="linear-gradient-25" x1="162.9" y1="-8.26" x2="164.65" y2="-8.26" gradientTransform="translate(-27.94 177.44) rotate(-55.01)" xlink:href="#linear-gradient"/><linearGradient id="linear-gradient-26" x1="181.98" y1="-12.37" x2="183.73" y2="-12.37" gradientTransform="translate(-27.94 177.44) rotate(-55.01)" xlink:href="#linear-gradient"/><linearGradient id="linear-gradient-27" x1="146.25" y1="-30.76" x2="148" y2="-30.76" gradientTransform="translate(-27.94 177.44) rotate(-55.01)" xlink:href="#linear-gradient"/></defs><title>Artboard 9</title><g id="Layer_20" data-name="Layer 20"><path class="cls-1" d="M42.34,173.2a219.4,219.4,0,0,0,11.15-21.33c1.65-3.65,3.16-7.36,4.47-11.14a67.66,67.66,0,0,0,3-11.57,34.43,34.43,0,0,0,.36-5.92c0-2,0-4,.08-6.06a28.44,28.44,0,0,1,.3-3c.07-.51.17-1,.27-1.51a5.43,5.43,0,0,0,.11-.67.86.86,0,0,0-.11-.48c-.4-.77-1-1.65-1.56-2.49s-1.07-1.71-1.59-2.58A81.88,81.88,0,0,1,49.5,84.15a35.25,35.25,0,0,1-1-12.06,15.35,15.35,0,0,1,1.79-5.82,40,40,0,0,1,3.56-4.9,43.35,43.35,0,0,1,8.9-8.15,35.29,35.29,0,0,1,10.92-5.1,32.56,32.56,0,0,1,6-1c2-.14,4-.29,6-.4a28.05,28.05,0,0,1,6.07.18A16.26,16.26,0,0,1,97.41,49c6.93,4.38,11.86,10.93,17.8,16.27l-.13-.09a2.2,2.2,0,0,1,1.11,1.29,2.6,2.6,0,0,1,0,1.61,10.49,10.49,0,0,1-1.3,2.46,7.27,7.27,0,0,0-.83,2.34,6.44,6.44,0,0,0,0,2.44l-.11-.21a33.4,33.4,0,0,1,4.91,8.05,23.88,23.88,0,0,1,1.44,4.53,18.78,18.78,0,0,1,.34,2.37c.06.81,0,1.6.08,2.35a65.77,65.77,0,0,0,1.05,9.14c.52,3,1.17,6.05,1.94,9l-.07-.16a20.72,20.72,0,0,1,2.21,5.3,8.63,8.63,0,0,1,.24,3,4.91,4.91,0,0,1-.42,1.53,4,4,0,0,1-1,1.29,4.42,4.42,0,0,1-1.38.78c-.44.16-.88.33-1.33.47-.9.3-1.8.56-2.72.79a29.93,29.93,0,0,1-5.62.89l.55-.43c-1,3.73-2,7.47-2.79,11.23-.42,1.88-.8,3.77-1.07,5.65a13.29,13.29,0,0,0-.18,2.78,4.73,4.73,0,0,0,1.35,2.18c2.58,2.8,5.56,5.32,8.33,8,1.39,1.35,2.77,2.72,4.06,4.18a19,19,0,0,1,3.32,4.85l-.19-.17a78.6,78.6,0,0,1,10.21,3.89,39.15,39.15,0,0,1,4.8,2.63,15.39,15.39,0,0,1,2.16,1.7,5.61,5.61,0,0,1,1.56,2.25h0v1h-.12v-.95a5.51,5.51,0,0,0-1.57-2.14,16.32,16.32,0,0,0-2.17-1.62,37.74,37.74,0,0,0-4.81-2.49,92.21,92.21,0,0,0-10.22-3.69l-.13,0-.06-.13a18.67,18.67,0,0,0-3.28-4.63c-1.28-1.42-2.67-2.76-4.07-4.08-2.8-2.66-5.77-5.11-8.48-8-.33-.37-.66-.75-1-1.16a5.05,5.05,0,0,1-.42-.69,2.52,2.52,0,0,1-.24-.84,14.07,14.07,0,0,1,.15-3c.25-1.95.62-3.85,1-5.75q1.2-5.7,2.69-11.31l.11-.41.44,0a28.38,28.38,0,0,0,5.36-.87c.89-.23,1.77-.47,2.63-.77.44-.13.86-.3,1.3-.45a3.41,3.41,0,0,0,1-.59c1.23-1,1.19-2.91.78-4.58a19.52,19.52,0,0,0-2.07-5l-.05-.09,0-.07c-.79-3-1.45-6.06-2-9.13a67.59,67.59,0,0,1-1-9.32c0-.8,0-1.56-.07-2.29a16.82,16.82,0,0,0-.3-2.23,22.77,22.77,0,0,0-1.35-4.32,32.26,32.26,0,0,0-4.68-7.79l-.09-.11,0-.1a7.42,7.42,0,0,1,0-2.89,8.53,8.53,0,0,1,1-2.68,10,10,0,0,0,1.25-2.23,1.39,1.39,0,0,0-.54-1.73l-.1-.06,0,0c-1.43-1.42-2.9-2.78-4.28-4.25s-2.75-2.93-4.16-4.36a53,53,0,0,0-9-7.79,15.43,15.43,0,0,0-5.47-2.12,28.69,28.69,0,0,0-5.94-.23c-4,.26-8.05.24-11.9,1.31a34.74,34.74,0,0,0-10.84,5,43.13,43.13,0,0,0-8.77,8.13,41,41,0,0,0-3.48,4.86A15.21,15.21,0,0,0,49,72.15,34.7,34.7,0,0,0,50.25,84a73.06,73.06,0,0,0,4,11.29,90.64,90.64,0,0,0,5.49,10.64c.52.85,1,1.7,1.58,2.54S62.4,110,62.94,111a2,2,0,0,1,.19,1,5.57,5.57,0,0,1-.14.82c-.1.49-.19,1-.27,1.45-.15,1-.24,2-.3,2.95-.13,2-.14,4-.12,6a35.55,35.55,0,0,1-.4,6.09c-1.33,8-4.44,15.55-7.81,22.84a197,197,0,0,1-11.65,21.11Z"/><path class="cls-2" d="M103.75,74.92l-1.49-2.45a15.11,15.11,0,0,0-1.6-2.23,1.16,1.16,0,0,0-.62-.44.67.67,0,0,0-.21.28,3,3,0,0,0-.23.57,14.93,14.93,0,0,0-.51,2.74,18.29,18.29,0,0,0,.36,5.67,20.49,20.49,0,0,0,.79,2.66,7.64,7.64,0,0,0,.59,1.18,3.83,3.83,0,0,0,.38.48.89.89,0,0,0,.2.19c0,.05.17.11.12.09l.31.25a18.75,18.75,0,0,1,1.25,2.39,15.69,15.69,0,0,1,.89,2.55,9.89,9.89,0,0,1,.23,1.36c0,.24,0,.43,0,.62s.15.31,0,.25.17-.07.28-.21.27-.31.4-.48c.26-.34.49-.72.72-1.09l.11,0a10,10,0,0,1-.45,1.26,3.3,3.3,0,0,1-.33.61,2.21,2.21,0,0,1-.25.3.76.76,0,0,1-.5.24.69.69,0,0,1-.56-.36,1.85,1.85,0,0,1-.17-.39c-.07-.24-.12-.49-.16-.67a10.86,10.86,0,0,0-.35-1.2,23.67,23.67,0,0,0-1-2.33c-.38-.76-.77-1.54-1.18-2.27l.31.25a1.91,1.91,0,0,1-.47-.3c-.11-.11-.21-.21-.3-.32a4.15,4.15,0,0,1-.47-.68,8,8,0,0,1-.62-1.42,13.34,13.34,0,0,1-.5-2.91c-.11-2-.06-3.86-.15-5.78a15.41,15.41,0,0,1,.08-2.95,4.12,4.12,0,0,1,.23-.79,1.47,1.47,0,0,1,.7-.79,1.23,1.23,0,0,1,1.16.13,3,3,0,0,1,.64.58,10.07,10.07,0,0,1,1.51,2.57,17.48,17.48,0,0,1,.94,2.75Z"/><path class="cls-3" d="M105.75,99.65a11.61,11.61,0,0,1,2.13,5c.13.92.08,1.85.14,2.76s.16,1.82.2,2.74c0,.48.1.89.13,1.31a6,6,0,0,0,.13.61,2.3,2.3,0,0,0,.18.58,5.45,5.45,0,0,0,1.32,2,14.25,14.25,0,0,0,4.33,2.83l0,.12a7.92,7.92,0,0,1-5.18-2.08,5.66,5.66,0,0,1-1.52-5.41,8.85,8.85,0,0,0,.07-2.67,17.74,17.74,0,0,0-.72-2.59c-.48-1.71-.9-3.41-1.29-5.21Z"/><path class="cls-4" d="M86.37,102a100.68,100.68,0,0,1,5.09,11.2c.71,1.92,1.32,3.88,2.06,5.8s1.57,3.78,2.42,5.65,1.7,3.73,2.46,5.65c.37.93.77,1.93,1.06,2.93a7.42,7.42,0,0,0,1.54,2.3,49.84,49.84,0,0,0,4.37,4.2c1.49,1.41,3,2.84,4.4,4.32l-.08.09c-1.68-1.19-3.3-2.44-4.9-3.71-.78-.65-1.64-1.23-2.43-1.91a22.09,22.09,0,0,1-2.28-2.16,10.22,10.22,0,0,1-1-1.25,4.86,4.86,0,0,1-.78-1.56c-.25-1-.57-1.89-.92-2.87-.69-1.92-1.37-3.85-2-5.8S94,121,93.17,119.12s-1.75-3.71-2.6-5.57A107,107,0,0,1,86.26,102Z"/><path class="cls-5" d="M117.77,163.18a23.1,23.1,0,0,1-3.69-.34,11,11,0,0,0-1.82-.34,4.72,4.72,0,0,0-1.82.31c-.59.2-1.15.45-1.71.64-.28.11-.55.25-.82.37s-.27.12-.4.18l-.4.21c-1.1.45-2.09,1.11-3.27,1.67l-.08-.08a7.17,7.17,0,0,1,2.79-2.7,8,8,0,0,1,3.78-.92c.32,0,.65,0,1,0s.64,0,.95,0c.63-.06,1.28-.22,1.93-.24a6.1,6.1,0,0,1,1.9.31,5.29,5.29,0,0,1,1.74.88Z"/><path class="cls-6" d="M57.11,179.81a4.54,4.54,0,0,1,.52-2.49,11.8,11.8,0,0,0,.74-1,3.63,3.63,0,0,0,.34-1.22,9.53,9.53,0,0,1,.64-2.44,6.91,6.91,0,0,1,1.45-2.12l.11,0a7.09,7.09,0,0,1-.4,2.54,9.57,9.57,0,0,1-1.2,2.22,3.55,3.55,0,0,0-.59,1.12c-.12.4-.1.86-.18,1.27a4.61,4.61,0,0,1-1.32,2.18Z"/><circle class="cls-7" cx="103.8" cy="30.59" r="0.87"/><circle class="cls-8" cx="145.68" cy="39.92" r="0.87"/><circle class="cls-9" cx="122.46" cy="21.26" r="0.87"/><circle class="cls-10" cx="104.68" cy="13.21" r="0.87"/><circle class="cls-11" cx="122.46" cy="49.25" r="0.87"/><circle class="cls-12" cx="141.99" cy="142.52" r="0.87"/><circle class="cls-13" cx="179.13" cy="100.11" r="0.87"/><circle class="cls-14" cx="155.9" cy="81.45" r="0.87"/><circle class="cls-15" cx="138.12" cy="73.4" r="0.87"/><circle class="cls-16" cx="155.9" cy="109.44" r="0.87"/><circle class="cls-17" cx="135.79" cy="93.84" r="0.87"/><circle class="cls-18" cx="15.17" cy="102.01" r="0.87"/><circle class="cls-19" cx="43.19" cy="134.49" r="0.87"/><circle class="cls-20" cx="35.7" cy="105.66" r="0.87"/><circle class="cls-21" cx="19.85" cy="69.27" r="0.87"/><circle class="cls-22" cx="18.99" cy="128.11" r="0.87"/><circle class="cls-23" cx="49.39" cy="20.13" r="0.87"/><circle class="cls-24" cx="41.17" cy="62.24" r="0.87"/><circle class="cls-25" cx="59.21" cy="38.53" r="0.87"/><circle class="cls-26" cx="66.79" cy="20.55" r="0.87"/><circle class="cls-27" cx="31.23" cy="39.27" r="0.87"/></g></svg>