<svg xmlns="http://www.w3.org/2000/svg" xmlns:xlink="http://www.w3.org/1999/xlink" viewBox="0 0 192 192"><defs><style>.cls-1{fill:url(#linear-gradient);}.cls-2{fill:url(#linear-gradient-2);}.cls-3{fill:url(#linear-gradient-3);}.cls-4{fill:url(#linear-gradient-4);}.cls-5{fill:url(#linear-gradient-5);}.cls-6{fill:url(#linear-gradient-6);}.cls-7{fill:url(#linear-gradient-7);}.cls-8{fill:url(#linear-gradient-8);}.cls-9{fill:url(#linear-gradient-9);}.cls-10{fill:url(#linear-gradient-10);}.cls-11{fill:url(#linear-gradient-11);}.cls-12{fill:url(#linear-gradient-12);}.cls-13{fill:url(#linear-gradient-13);}.cls-14{fill:url(#linear-gradient-14);}.cls-15{fill:url(#linear-gradient-15);}.cls-16{fill:url(#linear-gradient-16);}.cls-17{fill:url(#linear-gradient-17);}.cls-18{fill:url(#linear-gradient-18);}.cls-19{fill:url(#linear-gradient-19);}.cls-20{fill:url(#linear-gradient-20);}</style><linearGradient id="linear-gradient" x1="137.11" y1="84.13" x2="151.28" y2="84.13" gradientUnits="userSpaceOnUse"><stop offset="0.21" stop-color="#039be5"/><stop offset="0.24" stop-color="#1193dd"/><stop offset="0.43" stop-color="#5c6ab2"/><stop offset="0.6" stop-color="#974991"/><stop offset="0.74" stop-color="#c13278"/><stop offset="0.85" stop-color="#db236a"/><stop offset="0.91" stop-color="#e51e64"/><stop offset="1" stop-color="#e91e63"/></linearGradient><linearGradient id="linear-gradient-2" x1="40.49" y1="83.34" x2="53.17" y2="83.34" xlink:href="#linear-gradient"/><linearGradient id="linear-gradient-3" x1="123.38" y1="111.55" x2="182.93" y2="111.55" xlink:href="#linear-gradient"/><linearGradient id="linear-gradient-4" x1="145.61" y1="127.13" x2="157.39" y2="127.13" xlink:href="#linear-gradient"/><linearGradient id="linear-gradient-5" x1="139.83" y1="88.12" x2="151.53" y2="88.12" xlink:href="#linear-gradient"/><linearGradient id="linear-gradient-6" x1="148.67" y1="57.21" x2="172.37" y2="57.21" xlink:href="#linear-gradient"/><linearGradient id="linear-gradient-7" x1="151.28" y1="80.44" x2="166.31" y2="80.44" xlink:href="#linear-gradient"/><linearGradient id="linear-gradient-8" x1="21.16" y1="42.27" x2="40.84" y2="42.27" xlink:href="#linear-gradient"/><linearGradient id="linear-gradient-9" x1="39.18" y1="71.73" x2="53.17" y2="71.73" xlink:href="#linear-gradient"/><linearGradient id="linear-gradient-10" x1="30.98" y1="67.12" x2="48.03" y2="67.12" xlink:href="#linear-gradient"/><linearGradient id="linear-gradient-11" x1="70.5" y1="90.75" x2="121.28" y2="90.75" xlink:href="#linear-gradient"/><linearGradient id="linear-gradient-12" x1="84.54" y1="111.97" x2="97.3" y2="111.97" xlink:href="#linear-gradient"/><linearGradient id="linear-gradient-13" x1="89.84" y1="55.24" x2="111.97" y2="55.24" xlink:href="#linear-gradient"/><linearGradient id="linear-gradient-14" x1="70.42" y1="71.38" x2="98.98" y2="71.38" xlink:href="#linear-gradient"/><linearGradient id="linear-gradient-15" x1="99" y1="73.81" x2="120.56" y2="73.81" xlink:href="#linear-gradient"/><linearGradient id="linear-gradient-16" x1="88.87" y1="31.96" x2="107.92" y2="31.96" xlink:href="#linear-gradient"/><linearGradient id="linear-gradient-17" x1="4.81" y1="109.64" x2="56.23" y2="109.64" xlink:href="#linear-gradient"/><linearGradient id="linear-gradient-18" x1="20.78" y1="118.97" x2="33.97" y2="118.97" xlink:href="#linear-gradient"/><linearGradient id="linear-gradient-19" x1="15.03" y1="55.81" x2="35.91" y2="55.81" xlink:href="#linear-gradient"/><linearGradient id="linear-gradient-20" x1="25.53" y1="161.94" x2="27.84" y2="161.94" xlink:href="#linear-gradient"/></defs><title>Artboard 12</title><g id="Layer_23" data-name="Layer 23"><path class="cls-1" d="M150.79,65.54a1.94,1.94,0,0,1-1.69.54,3.38,3.38,0,0,1-1.67-.74,7.44,7.44,0,0,1-.67-.59l-.57-.61a1.22,1.22,0,0,0-1-.46,1.75,1.75,0,0,0-.9.73,7.34,7.34,0,0,0-.76,1.32c-.21.47-.42,1-.6,1.47s-.3,1-.46,1.55c-.65,2.14-1.42,4.24-2,6.39s-1,4.33-1.46,6.53a19.31,19.31,0,0,0,1.58,12.56A18.62,18.62,0,0,0,142.13,97c.57.9,1.25,1.82,1.89,2.64a15,15,0,0,1,2,2.76,6.49,6.49,0,0,1,.8,3.34l-.16,0a8.64,8.64,0,0,0-.51-1.56,9.88,9.88,0,0,0-.83-1.36,17.25,17.25,0,0,0-2.29-2.32,26.08,26.08,0,0,1-2.22-2.64,19.14,19.14,0,0,1-1.79-3,19.72,19.72,0,0,1-1.79-6.68,16.76,16.76,0,0,1,0-3.47,8.83,8.83,0,0,1,.36-1.74l.52-1.59c.67-2.13,1.31-4.27,1.79-6.45s.81-4.4,1.25-6.6a13.89,13.89,0,0,1,.4-1.67,12,12,0,0,1,.67-1.62,8.43,8.43,0,0,1,1-1.54,2.8,2.8,0,0,1,1.81-1.11,2.26,2.26,0,0,1,1.9,1,13.31,13.31,0,0,0,1,1.28,3.21,3.21,0,0,0,1.23.85,1.78,1.78,0,0,0,1.47-.14Z"/><path class="cls-2" d="M50.79,67.45A19.18,19.18,0,0,1,53.08,76,19.92,19.92,0,0,1,51,84.69a71.51,71.51,0,0,1-4.63,7.59,68.61,68.61,0,0,1-5.54,7l-.06,0c1.61-2.49,3.27-4.93,4.91-7.38s3.33-4.86,5-7.32a12,12,0,0,0,1.63-4,16.34,16.34,0,0,0,.17-4.36,35.47,35.47,0,0,0-1.71-8.59Z"/><path class="cls-3" d="M182.78,182c0,.07-.17.12-.15.09h-.14l-.16,0-.31-.05-.62-.1-1.25-.18c-.83-.11-1.67-.2-2.5-.28a19.52,19.52,0,0,0-5,0,1.68,1.68,0,0,0-.93.41c-.09.09-.05.11-.15.48a1.28,1.28,0,0,1-.57.64,5.18,5.18,0,0,1-2.69.39,27.9,27.9,0,0,1-5.07-.9h.23a34.14,34.14,0,0,1-9.9.44,9.05,9.05,0,0,1-2.52-.7,4.41,4.41,0,0,1-1.19-.81,2.93,2.93,0,0,1-.78-1.37,7.86,7.86,0,0,1-.12-1.34l0-1.23L148.9,175q-.18-9.77-.07-19.52l1.74.41c-2.24,4.78-4.42,9.61-6.39,14.49-.49,1.22-1,2.45-1.38,3.67-.2.62-.43,1.24-.59,1.84a7.9,7.9,0,0,1-.78,2.11,6.28,6.28,0,0,1-3.81,2.65,13.12,13.12,0,0,1-4.32.4l.36-2.09c-.09,0,0,0,.07,0a.76.76,0,0,0,.21,0,1.84,1.84,0,0,0,.46-.14,3.29,3.29,0,0,0,.94-.58,8.11,8.11,0,0,0,1.63-1.92,22.18,22.18,0,0,0,2.24-5,71.23,71.23,0,0,0,2.4-11A65.9,65.9,0,0,1,144.35,149a33.43,33.43,0,0,1,2.39-5.38,15.78,15.78,0,0,1,1.74-2.47,5.58,5.58,0,0,1,.53-.56,6.14,6.14,0,0,1,.6-.53,4.2,4.2,0,0,1,.67-.47,3.27,3.27,0,0,1,.89-.39l-.59.88-4.21-23,.55.37a5.6,5.6,0,0,0-3.25,1.8,3.31,3.31,0,0,0-.06,3.5,5.71,5.71,0,0,1,.35,1.08,1.32,1.32,0,0,1,0,.4.66.66,0,0,1-.14.32.57.57,0,0,1-.38.2,1.21,1.21,0,0,1-.75-.22,11,11,0,0,1-1.68-1.37c-1-1-2-2-2.9-3l.51.07a11.35,11.35,0,0,1-3.42,1.44,4.51,4.51,0,0,1-1.94.06,2.67,2.67,0,0,1-1.69-1.08,4.37,4.37,0,0,1-.69-1.82,2.88,2.88,0,0,1,0-1,1.24,1.24,0,0,1,.7-1,3.88,3.88,0,0,1,2,0,3.65,3.65,0,0,0,.79,0c.22-.06.24-.07.28-.26a3.85,3.85,0,0,0-.38-1.54c-.23-.53-.47-1.08-.73-1.62-.5-1.07-1-2.13-1.63-3.16s-1.22-2-1.88-3c-.33-.49-.67-1-1-1.44s-.68-1-1-1.55a34.41,34.41,0,0,1-3.14-6.56,13.37,13.37,0,0,1-.73-3.65,5.5,5.5,0,0,1,1.05-3.72c1.3-1.77,1.56-4.21,1.52-6.51a30.6,30.6,0,0,0-1-6.93l.17.3a1.87,1.87,0,0,1-.14-.18,1.33,1.33,0,0,1-.06-.12.84.84,0,0,1-.1-.22,2.25,2.25,0,0,1-.12-.4,4.84,4.84,0,0,1-.09-.73,8.89,8.89,0,0,1,0-1.37,19.43,19.43,0,0,1,.47-2.57,44.07,44.07,0,0,1,1.57-4.88,30.42,30.42,0,0,1,5-9c1-1.34,2.21-2.6,3.18-3.86a6.06,6.06,0,0,0,1-1.88,2,2,0,0,0-.28-1.66,5.39,5.39,0,0,1-.35-.61,2.9,2.9,0,0,1-.3-.86,2.19,2.19,0,0,1,.09-1.12,2.33,2.33,0,0,1,.64-.92,3.94,3.94,0,0,1,1.51-.75,9.19,9.19,0,0,1,1.39-.27,25,25,0,0,1,5.27.08l-1.18,1.07a8.29,8.29,0,0,1,.28-2.16,7.62,7.62,0,0,1,.85-2,6.09,6.09,0,0,1,3.53-2.67,9.92,9.92,0,0,1,4.18-.22,20.26,20.26,0,0,1,3.83,1c1.25.43,2.41.95,3.54,1.41a26.62,26.62,0,0,1,3.6,1.65,5.08,5.08,0,0,1,1.64,1.72,17.68,17.68,0,0,1,.87,1.84l1.42,3.47,0,.05,0,0,.86,2.76L167,53l7.57.22.94,0,.48,0h.17l.15,0,.16,0a2.31,2.31,0,0,1,.51.22A2.35,2.35,0,0,1,178,55.12a3.73,3.73,0,0,1,0,1.39,12.92,12.92,0,0,1-1.69,3.83c-1.36,2.16-2.73,4.24-4.09,6.36L168.1,73l.14-.31a11.89,11.89,0,0,1-1.71,3.11,15,15,0,0,1-2.35,2.49,12,12,0,0,0-2.07,1.73c-.05.08,0,0,0-.18s-.1-.15,0-.09a2.87,2.87,0,0,0,1,.33l.19,0,.13.06a3.64,3.64,0,0,1,1.21.87,2.16,2.16,0,0,1,.51.92,2,2,0,0,1-.12,1.28,2.91,2.91,0,0,1-1.13,1.21,8,8,0,0,1-1,.54,2.9,2.9,0,0,0-.6.34c-.06,0-.1.09-.09.07a.58.58,0,0,0,.07-.31c-.07-.34-.11-.2.06-.11a2.18,2.18,0,0,0,.56.31l.24.1.14.13a13.29,13.29,0,0,1,2.21,2.87,15.18,15.18,0,0,1,1.4,3.23,15.94,15.94,0,0,1,.49,7c-.58,4.21-.87,8.56-1.16,12.87s-.49,8.64-.69,13c-.41,4.41-.84,8.65-1.15,13s-.62,8.65-.54,12.93a21.69,21.69,0,0,0,.26,3.14c.17,1,.41,2.09.68,3.13a58.21,58.21,0,0,0,2,6.13,48.38,48.38,0,0,0,6,11.39,25,25,0,0,0,4.39,4.69,16.48,16.48,0,0,0,2.67,1.77,12.93,12.93,0,0,0,1.47.66c.24.1.49.19.81.29S182.53,181.86,182.78,182Zm-.23,0a4.82,4.82,0,0,1-1.49-.3,11.3,11.3,0,0,1-1.52-.63,16.09,16.09,0,0,1-2.81-1.71,25.27,25.27,0,0,1-4.66-4.64,48.06,48.06,0,0,1-6.47-11.39,58.6,58.6,0,0,1-2.16-6.22c-.3-1.06-.57-2.12-.77-3.22a22.16,22.16,0,0,1-.36-3.33c-.19-4.4,0-8.75.22-13.1s.62-8.73.95-13c.13-4.32.28-8.68.49-13s.45-8.68,1-13.08a14.11,14.11,0,0,0-.45-5.93,12.9,12.9,0,0,0-1.19-2.72,11.24,11.24,0,0,0-1.75-2.29l.39.24a5,5,0,0,1-1.16-.63,3,3,0,0,1-.59-.56,2,2,0,0,1-.44-1.1,1.93,1.93,0,0,1,.35-1.23,3,3,0,0,1,.6-.62,5.42,5.42,0,0,1,1.09-.63,6.29,6.29,0,0,0,.7-.36c.19-.11.3-.27.24-.17a.54.54,0,0,0,0,.32c0,.1.06.11,0,.09a1.63,1.63,0,0,0-.38-.27l.32.1a5.07,5.07,0,0,1-2-.71,2.24,2.24,0,0,1-1-1.27,2.16,2.16,0,0,1,.24-1.69,5.11,5.11,0,0,1,1.42-1.49l.63-.47c.2-.14.38-.3.56-.45a12.06,12.06,0,0,0,2-2.08,10.06,10.06,0,0,0,.77-1.19,8.25,8.25,0,0,0,.56-1.19l.06-.17.08-.13L174.15,59a11,11,0,0,0,1.4-3,1.53,1.53,0,0,0,0-.48c0-.09,0,0,.11.07l.08,0h0l.1,0h-.12l-.47,0-.94,0-7.5-.28-.86,0-.24-.8-.85-2.77,0,.1-1.39-3.48a14.16,14.16,0,0,0-.72-1.55,2.75,2.75,0,0,0-.9-1,25.72,25.72,0,0,0-3.21-1.47c-1.17-.49-2.29-1-3.41-1.4-2.22-.79-4.64-1.33-6.65-.77a4,4,0,0,0-2.33,1.72,6.09,6.09,0,0,0-.86,3l0,1.21L144.33,48a21.86,21.86,0,0,0-4.77-.15,4,4,0,0,0-1.83.51c-.11.13-.09,0-.09.22a1.1,1.1,0,0,0,.11.32l.27.48a4,4,0,0,1,.45,3.17,7.74,7.74,0,0,1-1.4,2.49c-1.1,1.38-2.24,2.58-3.27,3.86a29.73,29.73,0,0,0-5,8.42,42.89,42.89,0,0,0-1.62,4.66,18.14,18.14,0,0,0-.49,2.37,8.89,8.89,0,0,0-.06,1.14,3.83,3.83,0,0,0,0,.51,1.91,1.91,0,0,0,.06.21s0,.06,0,.07,0,0,0,0l0,0,.18.3a32.54,32.54,0,0,1,.91,7.28,17.68,17.68,0,0,1-.35,3.69A8.59,8.59,0,0,1,126,91a4.44,4.44,0,0,0-.9,3,12.49,12.49,0,0,0,.62,3.39,30.56,30.56,0,0,0,3,6.41c.3.5.62,1,.94,1.48s.71,1,1,1.49q1,1.51,1.89,3.09c.59,1.06,1.13,2.14,1.64,3.23.26.55.5,1.1.73,1.67a4.13,4.13,0,0,1,.41,1.93,1,1,0,0,1-.3.62,1.18,1.18,0,0,1-.6.27,3.59,3.59,0,0,1-1,0,3.88,3.88,0,0,0-1.58,0c-.32.1-.36.66-.27,1.21a3.45,3.45,0,0,0,.57,1.51,2.64,2.64,0,0,0,2.89.72,10.65,10.65,0,0,0,3.15-1.38l.29-.17.22.24c.93,1,1.88,2,2.88,2.94a10.8,10.8,0,0,0,1.53,1.24c.11.08.31.12.21.11a.25.25,0,0,0-.15.09.3.3,0,0,0,0,.08.75.75,0,0,0,0-.11,4.59,4.59,0,0,0-.3-.88,5.48,5.48,0,0,1-.56-2.16,3.46,3.46,0,0,1,.69-2.21,4.94,4.94,0,0,1,1.74-1.45,8.26,8.26,0,0,1,2.07-.75l.45-.1.1.48,4.75,22.86.1.46-.68.42a3.72,3.72,0,0,0-.41.22,3.24,3.24,0,0,0-.49.36,4.73,4.73,0,0,0-.46.44,3.42,3.42,0,0,0-.44.49,13.19,13.19,0,0,0-1.51,2.25,30.11,30.11,0,0,0-2.13,5.13,71.62,71.62,0,0,0-2.47,11,72.41,72.41,0,0,1-2.4,11.35,24.51,24.51,0,0,1-2.41,5.47,10.44,10.44,0,0,1-2.06,2.43,5.58,5.58,0,0,1-1.49.92,4.36,4.36,0,0,1-.91.26,2.76,2.76,0,0,1-.51,0,2.34,2.34,0,0,1-.64-.06l.36-2.08c2.31.16,5.14-.3,6.18-2a6,6,0,0,0,.58-1.6c.19-.67.42-1.3.64-1.94.46-1.27.94-2.52,1.45-3.75,2-4.93,4.26-9.75,6.57-14.55l1.8-3.75-.06,4.16c-.09,6.5-.26,13-.28,19.49v2.43l0,1.2a10.14,10.14,0,0,0,.06,1.09,2,2,0,0,0,1.21,1.3,7.62,7.62,0,0,0,2.14.64,35.43,35.43,0,0,0,9.53-.18h.13l.1,0a27.62,27.62,0,0,0,4.84,1,4.61,4.61,0,0,0,2.26-.2A.54.54,0,0,0,171,182a2.11,2.11,0,0,0,.06-.26,1.09,1.09,0,0,1,.23-.41,2.33,2.33,0,0,1,1.34-.6,19.42,19.42,0,0,1,5.12.18c.84.11,1.68.25,2.51.4l1.24.23.62.13.31.06.16,0h.14S182.53,181.83,182.55,181.9Z"/><path class="cls-4" d="M146.72,117a36.09,36.09,0,0,1-.47-9.06,16.51,16.51,0,0,1,1-4.64,4.72,4.72,0,0,1,1.67-2.27,2.79,2.79,0,0,1,1.69-.46,3.63,3.63,0,0,1,1.48.46,4.78,4.78,0,0,1,1.86,2,10.28,10.28,0,0,1,.88,2.25,31.57,31.57,0,0,1,.84,4.51c.4,3,.71,6,1.06,9a82.21,82.21,0,0,1,.54,9l0,2.27c0,.14,0,.49,0,.64l-.06.56-.11,1.13c-.15,1.5-.37,3-.62,4.48a66,66,0,0,1-2.14,8.8,35.6,35.6,0,0,1-1.64,4.26,14.74,14.74,0,0,1-2.48,3.85l-.19-.14a19.14,19.14,0,0,0,1.49-4.14c.38-1.42.68-2.87,1-4.31.55-2.9,1-5.82,1.49-8.74l.73-4.39.17-1.09.09-.55a3.39,3.39,0,0,0,.05-.47l.14-2.22c.13-3,.37-5.92.44-8.9a37.63,37.63,0,0,0-.67-8.87,20.68,20.68,0,0,0-1.36-4.16,5.77,5.77,0,0,0-2.33-2.92,1.78,1.78,0,0,0-.66-.16.69.69,0,0,0-.43.14,3.38,3.38,0,0,0-.91,1.31,19.32,19.32,0,0,0-1.09,4.06c-.51,2.87-.76,5.84-1.1,8.82Z"/><path class="cls-5" d="M144.33,74.15a17.11,17.11,0,0,0-2.67,6.72,23.09,23.09,0,0,0-.33,3.62c0,1.21.06,2.43.19,3.63a40.47,40.47,0,0,0,1.39,7.31,15.16,15.16,0,0,0,1.53,3.38,5.6,5.6,0,0,0,2.52,2.4l-.59.38a27.18,27.18,0,0,1,.85-7.73,7.39,7.39,0,0,1,.87-1.94A2.9,2.9,0,0,1,149,91a1.35,1.35,0,0,1,.34-.17l.19-.06s0,0,0,0l0-.06a2.89,2.89,0,0,0,.29-1.3,13.33,13.33,0,0,0-.08-1.77,35.17,35.17,0,0,0-1.66-7.21,13.78,13.78,0,0,0-1.52-3.32Zm0-.16c.88.79,1.92,1.63,2.91,2.6A13.27,13.27,0,0,1,149.31,80a27.56,27.56,0,0,1,2.17,7.49,12.52,12.52,0,0,1,.09,2,6.14,6.14,0,0,1-.14,1.09,2.82,2.82,0,0,1-.59,1.21,1.67,1.67,0,0,1-.71.49l-.24.09a.19.19,0,0,0-.09,0,1.4,1.4,0,0,0-.44.42,6.16,6.16,0,0,0-.73,1.5,37,37,0,0,0-1.42,7.3l-.07.64-.52-.27A6.8,6.8,0,0,1,144,99.08a24,24,0,0,1-1.56-3.48,48,48,0,0,1-2.21-7.27,18.28,18.28,0,0,1,.25-7.72A12.47,12.47,0,0,1,144.34,74Z"/><path class="cls-6" d="M154.62,67.25c1.41.1,2.85.33,4.23.41a10.29,10.29,0,0,0,4-.55,11.55,11.55,0,0,0,3.45-2,14.9,14.9,0,0,0,2.71-3,18.41,18.41,0,0,0,1.05-1.75c.16-.3.31-.61.45-.92l.21-.46.1-.24a.74.74,0,0,0,0-.14.85.85,0,0,0-.5-1,3.65,3.65,0,0,0-.44-.13l-.51-.13c-.34-.08-.68-.19-1-.26a26.71,26.71,0,0,0-4.13-.67,8.33,8.33,0,0,0-2.06.06,3.72,3.72,0,0,0-.95.27,1.29,1.29,0,0,0-.62.53l0,.07h0c-1.12,1.87-2.21,3.75-3.47,5.54a29.45,29.45,0,0,1-2,2.66A13.37,13.37,0,0,1,154,66.73a3.78,3.78,0,0,1-1.64.93,1.57,1.57,0,0,1-1.19-.27,3.56,3.56,0,0,1-.66-.76,6.25,6.25,0,0,1-.73-1.64,18.44,18.44,0,0,1-.65-3.31,49,49,0,0,1-.2-6.63l0,.31a5.76,5.76,0,0,1-.33-1.62,4.18,4.18,0,0,1,.24-1.71,4.39,4.39,0,0,1,.88-1.49,5,5,0,0,1,1.34-1.09l.1-.06.17,0c.77-.13,1.54-.24,2.3-.41a18.07,18.07,0,0,0,2.21-.63,9.39,9.39,0,0,0,2-1,3.74,3.74,0,0,0,.74-.68,2.12,2.12,0,0,0,.24-.37c.06-.1.1-.3.11-.27l1.37,0a14.62,14.62,0,0,0,.08,3.3,8.63,8.63,0,0,0,.91,3.14,4.63,4.63,0,0,0,2.3,2.13,6.84,6.84,0,0,0,3.32.31l0,.16a6.84,6.84,0,0,1-3.54.09A5.14,5.14,0,0,1,160.5,53a9.6,9.6,0,0,1-1.3-3.41,16.19,16.19,0,0,1-.27-3.62l1.37,0a2,2,0,0,1-.2.89,3.23,3.23,0,0,1-.37.66,5,5,0,0,1-1,1,9.26,9.26,0,0,1-2.28,1.29A23.33,23.33,0,0,1,151.62,51l.26-.08a3.74,3.74,0,0,0-.85.69,3,3,0,0,0-.56,1,2.75,2.75,0,0,0-.17,1.08,4.34,4.34,0,0,0,.2,1.15l.05.18v.13a47.13,47.13,0,0,0,0,6.4,17.52,17.52,0,0,0,.44,3.11,5.48,5.48,0,0,0,.51,1.36,3.09,3.09,0,0,0,.36.5.43.43,0,0,0,.35.11,2.79,2.79,0,0,0,1.2-.61A10.28,10.28,0,0,0,154.58,65a27.16,27.16,0,0,0,2.08-2.45,51.24,51.24,0,0,0,3.53-5.45l0,.08a1.61,1.61,0,0,1,.88-.91,3.89,3.89,0,0,1,1.07-.37,11.6,11.6,0,0,1,2.18-.22,27,27,0,0,1,4.32.35c.36,0,.71.12,1.06.18l.54.09c.19,0,.31.05.59.13a2.13,2.13,0,0,1,1.42,2.41,2.66,2.66,0,0,1-.1.38l-.1.26a5.49,5.49,0,0,1-.21.51c-.15.34-.3.67-.47,1a15.24,15.24,0,0,1-1.15,1.9,14.84,14.84,0,0,1-3.06,3.22,11.12,11.12,0,0,1-3.95,2.05,10.92,10.92,0,0,1-4.4.25c-1.45-.27-2.79-.61-4.18-1Z"/><path class="cls-7" d="M162.37,84c-.55,0-1.07,0-1.59,0s-1,0-1.54.08a8,8,0,0,0-2.77.81,7.45,7.45,0,0,0-2.11,1.86,7.21,7.21,0,0,0-1.31,2.68l-.56-.12c.8-1.77,1.41-3.58,2.08-5.4a30.46,30.46,0,0,1,2.53-5.24A19.43,19.43,0,0,1,160.81,74a9.11,9.11,0,0,1,5.31-2.54l0,.16A12.46,12.46,0,0,0,161.82,75a50.72,50.72,0,0,0-3.35,4.45c-1.07,1.54-2,3.19-3,4.8A21.31,21.31,0,0,0,153,89.42l-.56-.13a8.77,8.77,0,0,1,.86-3.26,5.33,5.33,0,0,1,2.5-2.44,6.68,6.68,0,0,1,3.38-.62,11.14,11.14,0,0,1,1.65.27c.53.17,1,.36,1.54.57Z"/></g><g id="Layer_21" data-name="Layer 21"><path class="cls-8" d="M24.81,49.61a1.54,1.54,0,0,0,0-1.37A6.43,6.43,0,0,0,24,47c-.31-.41-.65-.79-1-1.18s-.7-.74-1.09-1.2a3.61,3.61,0,0,1-.54-.83,1.3,1.3,0,0,1-.08-.87.94.94,0,0,1,.42-.55,1.13,1.13,0,0,1,.44-.16,2.8,2.8,0,0,1,1.06.1,6.46,6.46,0,0,1,.81.3A31.07,31.07,0,0,1,27,44.09l-.37.36c-.35-1-.64-1.92-.89-2.91a9,9,0,0,1-.3-3.13,4.07,4.07,0,0,1,.54-1.64,3.7,3.7,0,0,1,1.31-1.24,6.54,6.54,0,0,1,3.29-.73,11.86,11.86,0,0,1,6,1.78,8.27,8.27,0,0,1,3.61,5L40,41.6a10,10,0,0,0-4.15-3.82,14.27,14.27,0,0,0-5.4-1.3,5.07,5.07,0,0,0-2.52.33,2.86,2.86,0,0,0-1.5,1.82,8,8,0,0,0,.65,5.6l.31.63-.69-.27a19.52,19.52,0,0,0-3-.89c-.25-.06-.5-.09-.73-.13a1.69,1.69,0,0,0-.55,0l.07,0a.45.45,0,0,0,.18-.24c0-.2,0-.14,0-.09a3,3,0,0,0,.32.53c.28.38.66.81,1,1.26a10.39,10.39,0,0,1,.89,1.43,5.53,5.53,0,0,1,.55,1.65,1.69,1.69,0,0,1-.52,1.67Z"/><path class="cls-9" d="M52.82,62a8.45,8.45,0,0,0-1,3.21c-.19,1.12-.32,2.26-.5,3.41a28.8,28.8,0,0,0-.54,3.49c-.06,1.18.13,2.34.18,3.59a8.21,8.21,0,0,1-.15,1.9A5.49,5.49,0,0,1,50,79.39a5.06,5.06,0,0,1-1.49,1.46,5.57,5.57,0,0,1-1.93.71,8.61,8.61,0,0,1-3.8-.3,11.26,11.26,0,0,1-3.32-1.57l.07-.15a18.57,18.57,0,0,0,6.74.36,4.22,4.22,0,0,0,2.53-1.39,7,7,0,0,0,1.27-2.93,14.18,14.18,0,0,0,.17-3.52c0-1.19-.27-2.39-.26-3.61a11.74,11.74,0,0,1,.62-3.6,7.9,7.9,0,0,1,.78-1.7,3.29,3.29,0,0,1,1.35-1.34Z"/><path class="cls-10" d="M42.34,58.14a7.52,7.52,0,0,1,.15,2.92A4,4,0,0,1,42,62.53a2.73,2.73,0,0,1-1.27,1.1,4.82,4.82,0,0,1-3.16,0,13.43,13.43,0,0,1-2.75-1.16l.9-.19a4.14,4.14,0,0,0-.64,2,3.2,3.2,0,0,0,.55,2A8.38,8.38,0,0,0,39.34,69c1.54.65,3.13,1.19,4.72,1.72a19.72,19.72,0,0,1,2.41.91,2.21,2.21,0,0,1,1.14,1,3.35,3.35,0,0,1,.15,1.48v.1l-.07.12a3.53,3.53,0,0,1-1.51,1.5,2.53,2.53,0,0,1-1.16.26,2.9,2.9,0,0,1-.59-.09l-.3-.09a.93.93,0,0,1-.55-.66,1.43,1.43,0,0,1,.13-.86c.08-.17.15-.32.22-.45a3.77,3.77,0,0,0,.25-.54.2.2,0,0,0,0,.08.48.48,0,0,0,.06.18.58.58,0,0,0,.23.21c.06,0,0,0-.14,0a5.32,5.32,0,0,0-.73.17c-.52.15-1.06.35-1.6.56a9.76,9.76,0,0,1-1.78.6,6.34,6.34,0,0,1-4-.31,8.42,8.42,0,0,1-4.67-5.84,11.65,11.65,0,0,1-.2-3.66c.09-1.18.18-2.36.3-3.54h.16c.13,1.18.22,2.36.3,3.54a11,11,0,0,0,.58,3.33,8.06,8.06,0,0,0,1.62,2.82,6.81,6.81,0,0,0,2.53,1.83,5.29,5.29,0,0,0,3,.19c1-.23,2.13-.74,3.34-1a5.59,5.59,0,0,1,1-.18,1.89,1.89,0,0,1,.74.07,1,1,0,0,1,.58.45.84.84,0,0,1,.14.39,1.5,1.5,0,0,1,0,.3,3.07,3.07,0,0,1-.45,1.07L45,75c-.05.07,0,.21-.05,0a.47.47,0,0,0-.28-.34l.11,0c.1,0,.19,0,.28.07a1.42,1.42,0,0,0,.57-.09,2.46,2.46,0,0,0,1-.88l-.07.22a2.62,2.62,0,0,0,.07-1,1.33,1.33,0,0,0-.62-.68,14.94,14.94,0,0,0-2.19-1.1,49.25,49.25,0,0,0-4.74-1.66,9.16,9.16,0,0,1-4.53-2.64,4.14,4.14,0,0,1-1-2.72,4.91,4.91,0,0,1,.93-2.75l.35-.5.55.31a15.39,15.39,0,0,0,2.43,1.16,4.08,4.08,0,0,0,2.41.22,2.5,2.5,0,0,0,1.51-1.76,8.2,8.2,0,0,0,.37-2.73Z"/><path class="cls-11" d="M81.3,177.88s0-.12,0-.12l0,0,0-.07.11-.14.22-.28.43-.56c.28-.37.56-.76.83-1.14.53-.78,1-1.57,1.54-2.37a44.85,44.85,0,0,0,2.62-5,32.83,32.83,0,0,0,2.88-10.79,29.1,29.1,0,0,0-1.22-11,44,44,0,0,1-1.49-5.53A11.15,11.15,0,0,1,88,135l.11.57a56.59,56.59,0,0,1-8.65-14.22,93.8,93.8,0,0,1-5.31-15.72,128.83,128.83,0,0,1-3.48-32.9l0,.15a2.82,2.82,0,0,1,0-.91,5,5,0,0,1,.13-.79,7.24,7.24,0,0,1,.52-1.46,11.83,11.83,0,0,1,1.63-2.5c1.22-1.47,2.5-2.87,3.78-4.27,2.57-2.78,5.19-5.5,7.84-8.21l.08-.07.1,0c2.41-1,4.83-2.06,7.18-3.2a18.46,18.46,0,0,0,3.29-2c1-.76,1.81-1.83,1.47-2.92l.08.15c-.85-1-1.65-2-2.42-3-.38-.53-.75-1.06-1.1-1.62a7,7,0,0,1-.86-1.85l.25.25a11.86,11.86,0,0,1-4.88-3.33c-1.08-1.67-3-1.95-4.87-2.56a6.43,6.43,0,0,1-1.37-.62,2.47,2.47,0,0,1-1-1.2,2.82,2.82,0,0,1-.09-1.57,6.39,6.39,0,0,1,.47-1.44A25.59,25.59,0,0,1,84,24.76l0,.24a15.35,15.35,0,0,1-.86-4.29,8,8,0,0,1,.89-4.3,6,6,0,0,1,3.47-2.69,12.57,12.57,0,0,1,4.34-.54l-.27.2A21.58,21.58,0,0,1,93,9.47,14.89,14.89,0,0,1,95.4,6a8.56,8.56,0,0,1,3.52-2.39,7.57,7.57,0,0,1,4.27-.07l-.06,0a10.62,10.62,0,0,1,4.12,1.29A6.89,6.89,0,0,1,109,6.15a20.72,20.72,0,0,1,1.35,1.65,20.25,20.25,0,0,1,2.23,3.65,7.19,7.19,0,0,1,.72,4.34l-.43-.54a6.48,6.48,0,0,1,4.77,2.56,10.1,10.1,0,0,1,1.86,5,11.74,11.74,0,0,1-.45,5.37,4.56,4.56,0,0,1-1.82,2.24,4.38,4.38,0,0,1-2.89.53l.55-.9A8.42,8.42,0,0,1,116.4,33a3.92,3.92,0,0,1,.09,1.78,3,3,0,0,1-.92,1.63,5.91,5.91,0,0,1-3.11,1.31,18,18,0,0,1-3.18.2h.13l-4.21.81.52-.49a36.83,36.83,0,0,1-1.07,3.58,13.15,13.15,0,0,1-1.72,3.46,3.68,3.68,0,0,1-.82.8l-.29.16,0,0s0,0,0-.08a1.31,1.31,0,0,0,.18.32,4.09,4.09,0,0,0,.53.59,17.33,17.33,0,0,0,2.81,2.08l-.34-.1,6.33.38h.32l.2.25A29.18,29.18,0,0,1,115.4,55a15.58,15.58,0,0,1,1.14,3l.89,3L121,72.84l0,.07V73l.26,2.31v.09c0,4.81-.1,9.61-.3,14.42-.11,2.41-.24,4.81-.44,7.22a48.24,48.24,0,0,1-1,7.26c-1.13,4.59-2,9.36-3.1,14a88.07,88.07,0,0,1-4.18,13.9,27.5,27.5,0,0,1-1.64,3.31,15.79,15.79,0,0,1-1,1.57l-1.1,1.43c-.74.95-1.5,1.9-2.34,2.81a7.14,7.14,0,0,1-3.21,2.27,8.57,8.57,0,0,1-3.86-.29c-.12,0,0,0,0,0s0,0,0,.07a2,2,0,0,0-.21.64,10.09,10.09,0,0,0-.11,1.68,43.38,43.38,0,0,0,.8,7,89.23,89.23,0,0,0,3.67,13.81,45.63,45.63,0,0,0,2.85,6.52,15.67,15.67,0,0,0,2,2.89,3.55,3.55,0,0,0,2.71,1.51l0,.79c-4.95,0-9.91-.1-14.82-.18Zm.14-.07,14.75-.18c4.89-.08,9.72-.16,14.55-.18l.05.79a3.17,3.17,0,0,1-2-.5,6.69,6.69,0,0,1-1.45-1.24,16.94,16.94,0,0,1-2.12-3,46.27,46.27,0,0,1-3-6.62,90.79,90.79,0,0,1-3.89-13.93,44.51,44.51,0,0,1-.91-7.24,10.4,10.4,0,0,1,.11-1.91,3.33,3.33,0,0,1,.34-1.06,1.44,1.44,0,0,1,.56-.57,1.23,1.23,0,0,1,.88-.09,7.53,7.53,0,0,0,3.24.25,5.91,5.91,0,0,0,2.53-1.91c.78-.86,1.51-1.8,2.23-2.75l1.07-1.43a15.48,15.48,0,0,0,.94-1.44,26.76,26.76,0,0,0,1.5-3.15,93.15,93.15,0,0,0,4-13.68c1.1-4.66,1.93-9.35,3.08-14.08a45.47,45.47,0,0,0,1-7c.19-2.38.32-4.77.42-7.16.19-4.78.28-9.57.32-14.35v.09l-.24-2.31,0,.14-3.52-11.87-.88-3a13.6,13.6,0,0,0-1-2.79,27.63,27.63,0,0,0-3.33-5l.52.26-6.32-.42h-.19l-.14-.09a19.67,19.67,0,0,1-3-2.3,5.32,5.32,0,0,1-.69-.78,1.94,1.94,0,0,1-.44-1.34,1.28,1.28,0,0,1,.49-.85,2.56,2.56,0,0,1,.33-.21l.12-.06a2.43,2.43,0,0,0,.49-.48,12.55,12.55,0,0,0,1.55-3.06c.41-1.11.77-2.28,1.07-3.42l.1-.42.42-.08,4.22-.76.06,0h.07a17,17,0,0,0,3-.15,4.79,4.79,0,0,0,2.49-1,2.09,2.09,0,0,0,.52-2.24A7.49,7.49,0,0,0,114,30.8l-.86-1.14,1.41.23a3.24,3.24,0,0,0,2.1-.38A3.34,3.34,0,0,0,118,27.82a10.53,10.53,0,0,0,.44-4.86,9.14,9.14,0,0,0-1.6-4.58,5.62,5.62,0,0,0-4-2.25l-.54,0,.12-.5a6.41,6.41,0,0,0-.62-3.8,19.07,19.07,0,0,0-2.09-3.53c-.41-.55-.84-1.12-1.28-1.61A6.65,6.65,0,0,0,106.9,5.4a10.1,10.1,0,0,0-3.82-1.24H103a6.85,6.85,0,0,0-3.91,0,7.84,7.84,0,0,0-3.29,2.2,14.94,14.94,0,0,0-2.29,3.35A21,21,0,0,0,92,13.52l-.06.21h-.21a12.12,12.12,0,0,0-4.17.49,5.52,5.52,0,0,0-3.2,2.45,7.41,7.41,0,0,0-.84,4,14.2,14.2,0,0,0,.85,4.13l0,.13-.09.11a25.73,25.73,0,0,0-3.05,4.82A3.69,3.69,0,0,0,81,32.47,3.12,3.12,0,0,0,83.05,34c.9.29,1.85.5,2.78.88a5,5,0,0,1,1.33.74,4.76,4.76,0,0,1,.56.54c.15.18.31.36.47.53a11.09,11.09,0,0,0,4.59,3.1l.19.06L93,40a6.41,6.41,0,0,0,.8,1.62c.34.53.71,1,1.09,1.56.77,1,1.59,2,2.43,2.95l0,.06,0,.09a2.74,2.74,0,0,1-.28,2.21,6.16,6.16,0,0,1-1.4,1.59,19.21,19.21,0,0,1-3.42,2.15c-2.37,1.19-4.76,2.28-7.19,3.33l.17-.11c-2.6,2.73-5.18,5.49-7.69,8.3-1.26,1.4-2.5,2.82-3.67,4.27a11,11,0,0,0-1.45,2.24,6.9,6.9,0,0,0-.43,1.2,3.88,3.88,0,0,0-.1,1.11l0,.11v0a144.75,144.75,0,0,0,.75,16.4,121,121,0,0,0,2.7,16.17,92.78,92.78,0,0,0,5.14,15.54,73.55,73.55,0,0,0,3.69,7.31,44.54,44.54,0,0,0,4.61,6.66l.23.27-.12.3a10.12,10.12,0,0,0-.66,5.3,43.11,43.11,0,0,0,1.38,5.42,29.47,29.47,0,0,1,1.07,11.36,33.21,33.21,0,0,1-3.2,10.92,45.58,45.58,0,0,1-2.77,5c-.51.79-1,1.57-1.61,2.34-.28.38-.56.76-.86,1.13l-.44.55-.23.28-.11.13-.06.07,0,0S81.47,177.82,81.44,177.81Z"/><path class="cls-12" d="M92.78,86.23a3.32,3.32,0,0,0-2.94.66A6.84,6.84,0,0,0,88,89.42a22.09,22.09,0,0,0-1.54,6.26,97.2,97.2,0,0,0-.38,13.12c.07,4.4.26,8.82.75,13.21s1.26,8.74,2.11,13.08H88c.53-4.21,1.16-8.39,1.86-12.57s1.4-8.36,2.28-12.52a93.39,93.39,0,0,1,3.28-12.33A10.06,10.06,0,0,0,96,94.73a11.86,11.86,0,0,0-.36-3A15.18,15.18,0,0,0,92.78,86.23Zm.09-.13a14.08,14.08,0,0,1,3.51,5.39A12.5,12.5,0,0,1,97,94.72a10.26,10.26,0,0,1-.4,3.31,121.3,121.3,0,0,0-2.81,12.31L89,135.24l-.56,2.88L88,135.24l-1.68-13.17c-.55-4.39-1.21-8.78-1.54-13.21a60.4,60.4,0,0,1,.44-13.36,21.38,21.38,0,0,1,2-6.46,6.74,6.74,0,0,1,2.27-2.59A3.47,3.47,0,0,1,92.87,86.1Z"/><path class="cls-13" d="M90.61,52.54c1.63,1.74,3.16,3.4,4.83,4.89a8.68,8.68,0,0,0,2.74,2,4.83,4.83,0,0,0,3.31,0,13.34,13.34,0,0,0,5.23-3.94c1.54-1.66,2.91-3.51,4.48-5.33l.14.08A18.19,18.19,0,0,1,108,56.6a12.34,12.34,0,0,1-2.8,2.43,7.58,7.58,0,0,1-3.53,1.25,10.08,10.08,0,0,1-3.64-.4,11.75,11.75,0,0,1-3.4-1.42,10.2,10.2,0,0,1-2.56-2.6,10.68,10.68,0,0,1-1.59-3.25Z"/><path class="cls-14" d="M95.85,74.49q1.13-.09,2.25-.15l-.23.25a53,53,0,0,0-2.18-8.48,17.2,17.2,0,0,0-1.86-3.8,5.52,5.52,0,0,0-1.35-1.41,2.46,2.46,0,0,0-1.66-.44,11.52,11.52,0,0,0-3.91,1.26,34.73,34.73,0,0,0-3.79,2.15,53,53,0,0,0-7,5.34L76.2,69a16.75,16.75,0,0,0,1.23,3.41,13.34,13.34,0,0,0,2,3,10.13,10.13,0,0,0,2.73,2.25,8.79,8.79,0,0,0,3.29,1l-.56.22a17.89,17.89,0,0,1,2.39-2.53,8.15,8.15,0,0,1,3.15-1.8,3.7,3.7,0,0,1,2.06,0,3.8,3.8,0,0,1,1.71,1.17,8.59,8.59,0,0,1,1.58,3.32l.32,1.15-1.24-.13a17.82,17.82,0,0,0-2.32-.07,11.19,11.19,0,0,0-2.27.33,5.21,5.21,0,0,0-1.91.91,3,3,0,0,0-1,1.62l-.21.79-.75-.2a43.66,43.66,0,0,1-4.84-1.63,30.9,30.9,0,0,1-4.58-2.26,16.89,16.89,0,0,1-4-3.23,6.84,6.84,0,0,1-1.8-4.72h.16a6.59,6.59,0,0,0,2.16,4.23,16.07,16.07,0,0,0,4,2.77A36.76,36.76,0,0,0,82,80.6,42.79,42.79,0,0,0,86.69,82l-1,.6A4.66,4.66,0,0,1,87.27,80a6.59,6.59,0,0,1,2.51-1.28,12.1,12.1,0,0,1,2.64-.38,14.55,14.55,0,0,1,2.63.11l-.92,1A7.15,7.15,0,0,0,93,76.8,2.06,2.06,0,0,0,90.74,76a7.33,7.33,0,0,0-2.63,1.43,16.72,16.72,0,0,0-2.31,2.22l-.24.28-.32-.06a9.61,9.61,0,0,1-3.62-1.41,11.56,11.56,0,0,1-2.78-2.62,17.66,17.66,0,0,1-1.91-3.24,18.55,18.55,0,0,1-1.2-3.55l0-.14.1-.09c2.2-2,4.41-4,6.78-5.77a35.87,35.87,0,0,1,3.74-2.51,11.12,11.12,0,0,1,4.43-1.53,4.23,4.23,0,0,1,1.31.11,3.69,3.69,0,0,1,1.21.59A6.76,6.76,0,0,1,95,61.54a16.72,16.72,0,0,1,1.87,4.2,39.53,39.53,0,0,1,1.5,8.81l0,.26H98.1q-1.12-.06-2.25-.15Z"/><path class="cls-15" d="M105.8,81.27a13.29,13.29,0,0,1-1.52-2.61,10.41,10.41,0,0,1-.87-2.94,6.91,6.91,0,0,1,.26-3.15A25.25,25.25,0,0,1,105,69.81c.93-1.77,1.92-3.5,2.92-5.22.52-.86,1-1.71,1.61-2.55l1.77-2.42.68-.92.43,1,2.91,7,.74,1.74a11.28,11.28,0,0,1,.7,1.79,6.55,6.55,0,0,1-.2,3.85,41.19,41.19,0,0,1-2.75,7.1,15.36,15.36,0,0,1-2.17,3.23,7.31,7.31,0,0,1-3.42,2.23l-.57.15-.22-.6a16.93,16.93,0,0,0-1.19-2.51,5.89,5.89,0,0,0-1.68-1.92,1.54,1.54,0,0,0-1.87.11,7.08,7.08,0,0,0-1.67,2l-.55-1.27a14.76,14.76,0,0,1,2.61.77,6.5,6.5,0,0,1,2.46,1.57,2.94,2.94,0,0,1,.49.72l.26.5a3.86,3.86,0,0,0,.63.82,1.74,1.74,0,0,0,.73.41,1.25,1.25,0,0,0,.73,0l-.19.15c1.94-2.06,3.83-4.16,5.8-6.19s3.92-4.08,5.94-6.07l.11.1c-1.72,2.25-3.5,4.45-5.29,6.64s-3.62,4.34-5.43,6.52l-.08.09-.11.06a2.87,2.87,0,0,1-.88.3,3,3,0,0,1-.89,0,3.19,3.19,0,0,1-1.51-.76,5.24,5.24,0,0,1-1-1.17l-.34-.63a2,2,0,0,0-.24-.32,5.41,5.41,0,0,0-1.86-1.11,13.49,13.49,0,0,0-2.3-.69L98.93,84l.65-1a8.2,8.2,0,0,1,2.18-2.4,3.48,3.48,0,0,1,1.78-.61,3.22,3.22,0,0,1,1.83.55,7.24,7.24,0,0,1,2.11,2.48,14.41,14.41,0,0,1,1.2,2.83l-.79-.44a6.23,6.23,0,0,0,2.9-1.72A14.13,14.13,0,0,0,113,80.74a30,30,0,0,0,3-6.82,6.63,6.63,0,0,0,.4-1.78,5.35,5.35,0,0,0-.19-1.78,10.34,10.34,0,0,0-.74-1.69L114.67,67l-3.45-6.72,1.11.1-1.66,2.46c-.56.76-1,1.67-1.56,2.49q-1.55,2.53-3,5.1l-.74,1.28a12,12,0,0,0-.67,1.26,6,6,0,0,0-.42,2.69,14.15,14.15,0,0,0,1.7,5.54Z"/><path class="cls-16" d="M89.57,38.38A17.73,17.73,0,0,1,90,34.15a13.51,13.51,0,0,1,1.55-4,12.8,12.8,0,0,1,3-3.13A7.55,7.55,0,0,1,96.48,26a4.71,4.71,0,0,1,2.27-.3h-.2a6.25,6.25,0,0,1,4.34.69A7.54,7.54,0,0,1,106,29.48a10.83,10.83,0,0,1,.83,2,16.92,16.92,0,0,1,.43,2.07c.06.7.14,1.39.13,2.08s-.07,1.38-.15,2.06h-.16c-.19-.66-.34-1.32-.49-2s-.37-1.28-.53-1.92-.44-1.22-.66-1.82a14.67,14.67,0,0,0-.85-1.68,7.67,7.67,0,0,0-2.4-2.68,6.87,6.87,0,0,0-3.42-1.08h-.2a3.33,3.33,0,0,0-1.86-.05,4.3,4.3,0,0,0-1.76.91,8.59,8.59,0,0,0-2.17,3.35c-.24.63-.53,1.22-.78,1.85s-.53,1.25-.74,1.9-.49,1.28-.7,1.94-.47,1.32-.76,2Z"/><path class="cls-17" d="M6.34,178.64A5.29,5.29,0,0,1,7,178.1l.64-.49c.43-.32.85-.66,1.26-1,.83-.69,1.65-1.38,2.44-2.11,1.59-1.43,3.08-3,4.52-4.56A46.23,46.23,0,0,0,23,159.36l.68-1.44.56-1.49c.18-.5.39-1,.54-1.5l.4-1.54c.12-.51.29-1,.37-1.54l.21-1.57c.07-.53.17-1,.2-1.58l.09-1.6a88.37,88.37,0,0,0-.27-12.81,105.83,105.83,0,0,0-1.92-12.67c-.23-1.05-.47-2.09-.74-3.12L22.73,117c-.16-.59-.25-1.08-.37-1.63q-.64-3.18-1-6.41a57.88,57.88,0,0,1-.31-13,25.48,25.48,0,0,1,1.44-6.45,12.88,12.88,0,0,1,3.84-5.55l-.07.07a15.74,15.74,0,0,1,3.16-2.43,10,10,0,0,1,3.82-1.35,6.16,6.16,0,0,1,4,1,7.29,7.29,0,0,1,1.58,1.34A17,17,0,0,1,40,84.11l-1.22.34V79.84l.34.57c-1.27-.74-2.48-1.51-3.66-2.35a34,34,0,0,1-3.42-2.69,16.64,16.64,0,0,1-2.94-3.31,6.68,6.68,0,0,1-.92-2.13,3.71,3.71,0,0,1,.24-2.43l.17.65c-1.81-1.33-3.54-2.72-5.23-4.17s-3.32-3-4.86-4.59a34.83,34.83,0,0,1-4.2-5.24,14.75,14.75,0,0,1-1.46-3.08,6.21,6.21,0,0,1-.19-3.45l.07-.28.29,0,14.87,2.54-.31.24.32-3q.07-.75.18-1.5a7.43,7.43,0,0,1,.33-1.52l0,.07c.12-1.35.3-2.7.54-4a14.54,14.54,0,0,1,1.17-4,1.59,1.59,0,0,1,.84-.81,1.11,1.11,0,0,1,1.13.42,6.86,6.86,0,0,1,1.06,1.82,33.92,33.92,0,0,1,1.29,3.88l-.49,0A3.25,3.25,0,0,1,36,39.6a3.76,3.76,0,0,1,2.75.58,9,9,0,0,1,1.14.8,1.29,1.29,0,0,1,.48.71.7.7,0,0,1-.18.51l-.26.26a3.83,3.83,0,0,0-1.18,2.15A4.7,4.7,0,0,0,39,47.1c.29.86.54,1.72.76,2.6a14.54,14.54,0,0,1,.44,5.43V55c.19,1.13.74,2.41,1.74,2.7a2.31,2.31,0,0,0,1.59-.23c.25-.1.57-.28.88-.39a5.63,5.63,0,0,1,1-.28,8.5,8.5,0,0,1,3.92.27,7.62,7.62,0,0,1,1.87.73,4,4,0,0,1,1.41,1.55,3.89,3.89,0,0,1,.35,1l.2.93.4,1.85.8,3.69.8,3.7.4,1.85a17.78,17.78,0,0,1,.36,1.9A23.12,23.12,0,0,1,52.11,89a25,25,0,0,1-5.2,5.69l-5.66,5,.24-.49c-.24,6.73-.47,13.47-.58,20.2,0,3.37-.1,6.74,0,10.07,0,.42,0,.84.05,1.24l0,.61a2.27,2.27,0,0,0,.07.53l0,.23v.11l.06.19c.1.29.13.47.19.7l.25,1.26c.31,1.67.59,3.34.87,5,1.12,6.65,2.24,13.29,3.57,19.88.67,3.29,1.39,6.57,2.26,9.8.42,1.61.91,3.21,1.46,4.77a17.6,17.6,0,0,0,2.06,4.32l.63.89-1,.37-2.28.82-.57.21c-.22.08-.45.14-.68.2a5.57,5.57,0,0,1-1.41.12,6,6,0,0,1-1.36-.22c-.37-.09-.75-.18-1.12-.24a8.14,8.14,0,0,0-2.18-.12,3.1,3.1,0,0,0-.92.24,1.82,1.82,0,0,0-.36.22l-.14.13-.31.26a4.46,4.46,0,0,1-2.76.87,15.41,15.41,0,0,1-5-.93l-.5-.17,0-.55L31,149.41l1.19.15A85.69,85.69,0,0,0,29.64,162a41.45,41.45,0,0,0-.34,6.29c0,.52.07,1,.11,1.56s.15,1,.22,1.53c.2,1,.45,2.08.67,3.11l0,.16-.07.14-3.74,7.36-.89,1.76.14-2,.58-8.29.65.17a14.6,14.6,0,0,1-3.94,4.4,13.22,13.22,0,0,1-5.34,2.42c-.48.11-1,.13-1.46.2a7.9,7.9,0,0,1-1.46.06,14.46,14.46,0,0,1-1.47-.07l-1.44-.23a7.73,7.73,0,0,1-1.42-.34l-1.4-.4C8.14,179.46,7.22,179,6.34,178.64Zm.16,0,2.65,1,1.39.37a8.64,8.64,0,0,0,1.41.3l1.42.19a11.54,11.54,0,0,0,1.44,0,6.77,6.77,0,0,0,1.42-.08c.47-.08.95-.11,1.41-.23a12.76,12.76,0,0,0,5.1-2.44,14.37,14.37,0,0,0,3.66-4.27l.73-1.32L27,173.65l-.47,8.3-.75-.2,3.64-7.4,0,.3c-.24-1-.5-2.06-.72-3.12-.08-.54-.2-1.08-.25-1.62s-.11-1.08-.13-1.62a40.86,40.86,0,0,1,.27-6.45A85.76,85.76,0,0,1,31,149.23l1-3.88.16,4,1.24,30.82-.52-.71a14.2,14.2,0,0,0,4.45.82,3.08,3.08,0,0,0,1.8-.51l.15-.13.3-.28a3.73,3.73,0,0,1,.68-.41,4.73,4.73,0,0,1,1.41-.39,9.23,9.23,0,0,1,2.64.13,12.59,12.59,0,0,1,1.25.27,4.16,4.16,0,0,0,2,.07,3.79,3.79,0,0,0,.48-.14l.57-.21,2.28-.83-.37,1.26a19.33,19.33,0,0,1-2.31-4.76q-.86-2.43-1.51-4.89c-.88-3.28-1.62-6.59-2.3-9.9-1.37-6.63-2.46-13.29-3.54-20-.27-1.66-.54-3.32-.83-5l-.24-1.21c0-.18-.09-.41-.13-.53l-.08-.31-.09-.39a5.86,5.86,0,0,1-.09-.72l0-.65c0-.45,0-.86-.06-1.29-.08-3.41,0-6.78.06-10.16.16-6.75.39-13.48.71-20.23v-.3l.22-.19,5.74-4.94a23.73,23.73,0,0,0,5-5.37,22.05,22.05,0,0,0,3.73-14,16.23,16.23,0,0,0-.32-1.82l-.38-1.85L53.38,67l-.75-3.7-.38-1.85-.19-.93a3.69,3.69,0,0,0-.27-.79,3.06,3.06,0,0,0-1.09-1.22,7.12,7.12,0,0,0-1.64-.66,7.55,7.55,0,0,0-3.55-.29,3.56,3.56,0,0,0-.85.23c-.28.09-.52.23-.85.36a3,3,0,0,1-2.09.24A2.76,2.76,0,0,1,40.14,57a5.43,5.43,0,0,1-.62-1.91V55a14.23,14.23,0,0,0-.37-5.18q-.3-1.29-.72-2.55a5.19,5.19,0,0,1-.21-2.79,4.45,4.45,0,0,1,1.36-2.45c.17-.14.3-.32.26-.31s-.15-.22-.29-.34a8.69,8.69,0,0,0-1-.75,3.27,3.27,0,0,0-2.34-.53,2.76,2.76,0,0,0-1.7,1.61l-.3.69-.2-.71a32.84,32.84,0,0,0-1.26-3.82,6.54,6.54,0,0,0-1-1.68c-.21-.21-.44-.37-.63-.29a1.21,1.21,0,0,0-.56.58,13.26,13.26,0,0,0-1.11,3.8c-.23,1.32-.4,2.66-.52,4v0l0,0a8.06,8.06,0,0,0-.28,1.4c-.07.49-.12,1-.17,1.48l-.3,3,0,.29-.29-.05L13,48l.36-.23a5.52,5.52,0,0,0,.24,3.08A13,13,0,0,0,15,53.75a33,33,0,0,0,4.17,5,78.68,78.68,0,0,0,10.09,8.5l.36.25-.19.39a3.69,3.69,0,0,0,.67,3.52,15.94,15.94,0,0,0,2.78,3,42.83,42.83,0,0,0,6.93,4.77l.33.19v6.91L38.92,84.8c-.37-.47-.67-1-1.07-1.42a6.18,6.18,0,0,0-1.31-1.1,4.84,4.84,0,0,0-3.19-.75,8.74,8.74,0,0,0-3.28,1.2,13.92,13.92,0,0,0-2.84,2.2l0,0,0,0a11.41,11.41,0,0,0-3.37,5,24.41,24.41,0,0,0-1.39,6.09,57,57,0,0,0,.23,12.72q.38,3.18,1,6.32c.11.51.21,1.08.34,1.52l.42,1.58c.26,1,.51,2.11.73,3.17a97.55,97.55,0,0,1,1.84,12.84,90.41,90.41,0,0,1,.09,13l-.11,1.62c0,.54-.16,1.08-.23,1.62L26.44,152c-.09.54-.27,1.06-.4,1.59l-.43,1.57c-.17.52-.39,1-.58,1.53l-.59,1.52-.72,1.47a46.65,46.65,0,0,1-7.49,10.55,61.8,61.8,0,0,1-4.67,4.49c-.8.71-1.64,1.39-2.49,2-.43.33-.85.67-1.29,1l-.65.47C6.9,178.38,6.68,178.6,6.5,178.63Z"/><path class="cls-18" d="M21.41,99.17a35.55,35.55,0,0,1,3.91-7,12.84,12.84,0,0,1,2.88-3,3.39,3.39,0,0,1,2.31-.69,2.83,2.83,0,0,1,2,1.51,10.58,10.58,0,0,1,1,4.07,36,36,0,0,1,.07,4l-.38,7.93c-.27,5.27-.4,10.57-1.1,15.83a112.93,112.93,0,0,1-3,15.62l-1.23-.82a4,4,0,0,1,1.08-.54,6,6,0,0,1,.61-.14,3.75,3.75,0,0,1,.67,0,2.54,2.54,0,0,1,1.93,1.59,3.92,3.92,0,0,1,.35,1,5.43,5.43,0,0,1,.18,1,11.22,11.22,0,0,1,.07,2,31.41,31.41,0,0,1-.39,3.9c-.19,1.29-.51,2.54-.79,3.8l-.15,0c.05-1.29.24-2.57.25-3.85a34.62,34.62,0,0,0,0-3.81,9.4,9.4,0,0,0-.73-3.47,1.15,1.15,0,0,0-.91-.76,2,2,0,0,0-1.24.47l-1.74,1.34.51-2.16c.6-2.53,1.11-5.12,1.64-7.69s1-5.15,1.45-7.74a137,137,0,0,0,2-15.65c.07-1.31.06-2.63.06-3.94s-.12-2.63-.17-4-.21-2.6-.41-3.87l-.16-1-.21-.91a7,7,0,0,0-.62-1.67,1.51,1.51,0,0,0-1-.85,2.21,2.21,0,0,0-1.39.44,13.09,13.09,0,0,0-2.74,2.55,65.63,65.63,0,0,0-4.63,6.34Z"/><path class="cls-19" d="M27.92,50.13c.62.52,1.21,1.11,1.83,1.67S31,53,31.55,53.6c1.2,1.24,2.39,2.52,3.53,3.85l.06.07,0,.06a5.64,5.64,0,0,1,.54,1.78,2.85,2.85,0,0,1-.38,2,3.88,3.88,0,0,1-.39.42c-.15.1-.31.19-.47.28a3.36,3.36,0,0,1-1,.2,7.12,7.12,0,0,1-1.75-.19,34.93,34.93,0,0,1-6.3-2.31,21.89,21.89,0,0,1-5.55-3.85,23.37,23.37,0,0,1-4.28-5.32l-.7-1.25,1.43,0c2,0,4,.11,5.89.24S26.1,49.9,27.92,50.13Zm-.06.14c-2,.24-4,.38-5.86.53s-3.77.2-5.64.23l.73-1.23A32.72,32.72,0,0,0,21,54.87a30.39,30.39,0,0,0,4.89,4.22,14.51,14.51,0,0,0,6,2.37,6,6,0,0,0,1.54-.05c.47-.11.87-.3,1-.63a3.7,3.7,0,0,0-.47-2.55l.1.14c-1.08-1.25-2.12-2.53-3.14-3.86-.51-.67-1-1.35-1.51-2S28.35,51,27.86,50.27Z"/><path class="cls-20" d="M26.62,173.62a21,21,0,0,1-.33-5.46c.08-.9.32-1.8.44-2.71a11.78,11.78,0,0,0,0-2.72c-.11-.91-.29-1.81-.38-2.72l-.23-2.71a33,33,0,0,1,.15-5.44l0,.08c-.05-.55-.07-1.1-.07-1.66l.16,0c.27.49.52,1,.74,1.48v.08a25.15,25.15,0,0,1,.66,5.45c0,.91,0,1.83-.09,2.74s-.23,1.83-.32,2.74a12.46,12.46,0,0,0,0,2.73c.09.91.3,1.83.32,2.74a15.71,15.71,0,0,1-.89,5.44Z"/></g></svg>