<svg xmlns="http://www.w3.org/2000/svg" xmlns:xlink="http://www.w3.org/1999/xlink" viewBox="0 0 192 192"><defs><style>.cls-1{fill:url(#linear-gradient);}.cls-2{fill:url(#linear-gradient-2);}.cls-3{fill:url(#linear-gradient-3);}.cls-4{fill:url(#linear-gradient-4);}.cls-5{fill:url(#linear-gradient-5);}.cls-6{fill:url(#linear-gradient-6);}.cls-7{fill:url(#linear-gradient-7);}.cls-8{fill:url(#linear-gradient-8);}.cls-9{fill:url(#linear-gradient-9);}.cls-10{fill:url(#linear-gradient-10);}.cls-11{fill:url(#linear-gradient-11);}.cls-12{fill:url(#linear-gradient-12);}.cls-13{fill:url(#linear-gradient-13);}.cls-14{fill:url(#linear-gradient-14);}.cls-15{fill:url(#linear-gradient-15);}.cls-16{fill:url(#linear-gradient-16);}.cls-17{fill:url(#linear-gradient-17);}.cls-18{fill:url(#linear-gradient-18);}.cls-19{fill:url(#linear-gradient-19);}</style><linearGradient id="linear-gradient" x1="27.4" y1="92.83" x2="176.11" y2="92.83" gradientUnits="userSpaceOnUse"><stop offset="0.21" stop-color="#039be5"/><stop offset="0.25" stop-color="#1293dc"/><stop offset="0.43" stop-color="#5d6ab2"/><stop offset="0.6" stop-color="#984991"/><stop offset="0.74" stop-color="#c23278"/><stop offset="0.85" stop-color="#dc236a"/><stop offset="0.91" stop-color="#e61e64"/><stop offset="1" stop-color="#e91e63"/></linearGradient><linearGradient id="linear-gradient-2" x1="123.84" y1="75.2" x2="128.47" y2="75.2" xlink:href="#linear-gradient"/><linearGradient id="linear-gradient-3" x1="160.41" y1="64.09" x2="168.28" y2="64.09" xlink:href="#linear-gradient"/><linearGradient id="linear-gradient-4" x1="153.37" y1="72.21" x2="159.07" y2="72.21" xlink:href="#linear-gradient"/><linearGradient id="linear-gradient-5" x1="145.24" y1="75.19" x2="150.95" y2="75.19" xlink:href="#linear-gradient"/><linearGradient id="linear-gradient-6" x1="133.73" y1="76.55" x2="138.9" y2="76.55" xlink:href="#linear-gradient"/><linearGradient id="linear-gradient-7" x1="103.45" y1="67.48" x2="108.08" y2="67.48" xlink:href="#linear-gradient"/><linearGradient id="linear-gradient-8" x1="108.62" y1="28.2" x2="116.5" y2="28.2" xlink:href="#linear-gradient"/><linearGradient id="linear-gradient-9" x1="113.44" y1="39.1" x2="119.14" y2="39.1" xlink:href="#linear-gradient"/><linearGradient id="linear-gradient-10" x1="112.54" y1="47.71" x2="118.25" y2="47.71" xlink:href="#linear-gradient"/><linearGradient id="linear-gradient-11" x1="108.86" y1="58.89" x2="114.02" y2="58.89" xlink:href="#linear-gradient"/><linearGradient id="linear-gradient-12" x1="79.24" y1="76.99" x2="83.87" y2="76.99" xlink:href="#linear-gradient"/><linearGradient id="linear-gradient-13" x1="42.72" y1="58.06" x2="50.6" y2="58.06" xlink:href="#linear-gradient"/><linearGradient id="linear-gradient-14" x1="55.3" y1="58.03" x2="61" y2="58.03" xlink:href="#linear-gradient"/><linearGradient id="linear-gradient-15" x1="63.16" y1="61.65" x2="68.86" y2="61.65" xlink:href="#linear-gradient"/><linearGradient id="linear-gradient-16" x1="72.73" y1="69" x2="77.9" y2="69" xlink:href="#linear-gradient"/><linearGradient id="linear-gradient-17" x1="14.19" y1="135.64" x2="189.5" y2="135.64" xlink:href="#linear-gradient"/><linearGradient id="linear-gradient-18" x1="27.59" y1="101.51" x2="173.84" y2="101.51" xlink:href="#linear-gradient"/><linearGradient id="linear-gradient-19" x1="14.44" y1="138.22" x2="189.07" y2="138.22" xlink:href="#linear-gradient"/></defs><title>ic_material_product_icon_192px copy 5</title><g id="mistika"><path class="cls-1" d="M174.76,92.71A70.71,70.71,0,0,0,169,64.84a72.74,72.74,0,0,0-16.11-23.3A74.53,74.53,0,0,0,101.75,20.6,72.4,72.4,0,0,0,61.41,32.32a71.78,71.78,0,0,0-11.06,9,71,71,0,0,0-21,51.41A72.92,72.92,0,0,0,50.86,143.6a72.23,72.23,0,0,0,23.4,15.49,72.43,72.43,0,0,0,55,.1,73.82,73.82,0,0,0,23.6-15.35,71.06,71.06,0,0,0,21.87-51.13Zm.24,0A75,75,0,0,1,154,145a73.44,73.44,0,0,1-80.75,16.47,74.56,74.56,0,0,1-24.05-16.23A73.26,73.26,0,0,1,28,92.71a75.34,75.34,0,0,1,5.84-28.16A75.06,75.06,0,0,1,60.85,31.48a72.68,72.68,0,0,1,69.3-7.34A71.62,71.62,0,0,1,154,40.45,74.13,74.13,0,0,1,169.62,64.6,76.09,76.09,0,0,1,175,92.71Z"/><path class="cls-2" d="M127.36,75.32c0,.28.24.71.12,1.32a1.05,1.05,0,0,1-1.32.79c-.59-.17-.86-.76-1-1.07s-.47-.58-.71-1c-.58-1,.45-2.47,1.76-2.4a1.68,1.68,0,0,1,.87.3,1.2,1.2,0,0,1,.46.76A4.2,4.2,0,0,1,127.36,75.32Zm-.24,0c0-.28-.49-.41-.77-.2a.59.59,0,0,0-.24.3.13.13,0,0,0,0,.13c.14,0,.14-.43-.41-.23-.25.1-.28.41-.08.48s.5-.25.49-.42-.09,0,.21.15S127.16,75.6,127.12,75.32Z"/><path class="cls-3" d="M161.76,64.21A1.45,1.45,0,0,0,163,65.58a6.19,6.19,0,0,1,1.36.32,1.69,1.69,0,0,0,1.64-.05,1.38,1.38,0,0,0,.4-1.64,2.79,2.79,0,0,0-.94-1.09,2.4,2.4,0,0,0-1.1-.3,5.85,5.85,0,0,0-1.33.06A1.43,1.43,0,0,0,161.76,64.21Zm-.25,0a5.76,5.76,0,0,1,.34-2.49,2.55,2.55,0,0,1,1-1.11,3.37,3.37,0,0,1,1.49-.42c2.18-.09,4,2.19,3.39,4a6,6,0,0,1-1.19,2.2,3.77,3.77,0,0,1-2.2,1.54,2.31,2.31,0,0,1-2.46-1.27A5.85,5.85,0,0,1,161.51,64.21Z"/><path class="cls-4" d="M154.72,72.34c0,.43.52.7.9.59s.44-.17.6,0,.56.47.87.27a.57.57,0,0,0,.08-.87,1.16,1.16,0,0,0-.62-.33c-.17,0-.25.06-.33,0l-.17-.09a1.24,1.24,0,0,0-.41-.18C155.26,71.65,154.7,71.91,154.72,72.34Zm-.25,0a4.78,4.78,0,0,1,0-1.72,1.61,1.61,0,0,1,.64-.88,2.18,2.18,0,0,1,1.08-.34c1.6-.08,2.89,1.69,2.3,2.94a6.7,6.7,0,0,1-.87,1.43A2.63,2.63,0,0,1,156.22,75a1.44,1.44,0,0,1-1.7-.95A5.56,5.56,0,0,1,154.47,72.34Z"/><path class="cls-5" d="M146.59,75.32c0,.43.52.7.91.59s.44-.17.59,0,.56.47.87.27a.56.56,0,0,0,.09-.87,1.22,1.22,0,0,0-.63-.33c-.16,0-.25.06-.33,0l-.16-.09a1.35,1.35,0,0,0-.41-.18C147.13,74.63,146.58,74.89,146.59,75.32Zm-.24,0a4.74,4.74,0,0,1,0-1.72,1.59,1.59,0,0,1,.65-.88,2.12,2.12,0,0,1,1.07-.34c1.6-.08,2.89,1.69,2.3,2.94a6.7,6.7,0,0,1-.87,1.43A2.63,2.63,0,0,1,148.09,78a1.44,1.44,0,0,1-1.7-1A5.21,5.21,0,0,1,146.35,75.32Z"/><path class="cls-6" d="M135.08,76.67c0,.36.49.56.83.41s.32-.25.4-.08.42.5.68.35a.4.4,0,0,0,0-.68.68.68,0,0,0-.54-.13c-.12,0-.13.13-.14.09a.67.67,0,0,0-.06-.11.74.74,0,0,0-.32-.23C135.59,76.13,135.07,76.32,135.08,76.67Zm-.24,0a4.48,4.48,0,0,1-.06-1.53,1.46,1.46,0,0,1,.56-.82,2,2,0,0,1,1-.31c1.45-.08,2.62,1.55,2,2.66a7.62,7.62,0,0,1-.79,1.24,2.3,2.3,0,0,1-1.24,1.14,1.24,1.24,0,0,1-1.51-.87A5.08,5.08,0,0,1,134.84,76.67Z"/><path class="cls-7" d="M106.29,66.53c.24.15.75.1,1.24.47a1,1,0,0,1,.13,1.53,2.07,2.07,0,0,1-1.42.48c-.38,0-.72.16-1.25.18-1.12.1-2-1.49-1.38-2.63a1.79,1.79,0,0,1,.65-.66,1.25,1.25,0,0,1,.89-.08C105.75,66,106,66.41,106.29,66.53Zm-.1.22c-.25-.14-.58.25-.52.6a.56.56,0,0,0,.16.34.15.15,0,0,0,.14,0c.11-.11-.32-.31-.39.27,0,.26.25.43.41.28s0-.56-.17-.63-.07.07.23-.12S106.46,66.83,106.19,66.75Z"/><path class="cls-8" d="M111.42,30.75a1.43,1.43,0,0,0,1.76-.51,7,7,0,0,1,.89-1.08,1.66,1.66,0,0,0,.68-1.49,1.38,1.38,0,0,0-1.3-1.08,2.73,2.73,0,0,0-1.39.37,2.44,2.44,0,0,0-.76.85,6.28,6.28,0,0,0-.53,1.23A1.44,1.44,0,0,0,111.42,30.75Zm-.1.22a5.92,5.92,0,0,1-2.1-1.4,2.52,2.52,0,0,1-.55-1.39,3.22,3.22,0,0,1,.28-1.52c.87-2,3.71-2.63,5.09-1.27a5.85,5.85,0,0,1,1.46,2,3.69,3.69,0,0,1,.41,2.64,2.34,2.34,0,0,1-2.22,1.67A6,6,0,0,1,111.32,31Z"/><path class="cls-9" d="M115.63,40.64c.37.23.86-.16.93-.55s0-.47.27-.53.66-.3.62-.67a.55.55,0,0,0-.74-.45,1.16,1.16,0,0,0-.57.41c-.09.14-.06.25-.13.3l-.15.11a1.35,1.35,0,0,0-.34.3C115.25,39.85,115.24,40.47,115.63,40.64Zm-.11.22a4.8,4.8,0,0,1-1.53-.78,1.59,1.59,0,0,1-.51-1,2.26,2.26,0,0,1,.17-1.12c.63-1.47,2.78-1.85,3.65-.77a6.44,6.44,0,0,1,.9,1.4,2.6,2.6,0,0,1,.47,1.82,1.45,1.45,0,0,1-1.6,1.12A5.52,5.52,0,0,1,115.52,40.86Z"/><path class="cls-10" d="M114.74,49.25c.36.22.86-.16.93-.55s0-.47.27-.54.66-.29.62-.66a.56.56,0,0,0-.74-.46,1.23,1.23,0,0,0-.57.42c-.1.14-.06.25-.13.3l-.16.11a1.49,1.49,0,0,0-.33.29C114.36,48.46,114.35,49.08,114.74,49.25Zm-.11.22a4.8,4.8,0,0,1-1.53-.78,1.59,1.59,0,0,1-.51-1,2.15,2.15,0,0,1,.17-1.12c.62-1.47,2.78-1.86,3.65-.77a6.58,6.58,0,0,1,.9,1.4,2.6,2.6,0,0,1,.47,1.82,1.46,1.46,0,0,1-1.6,1.12A5.52,5.52,0,0,1,114.63,49.47Z"/><path class="cls-11" d="M110.9,60.18c.3.2.72-.19.73-.56s-.09-.4.11-.4.63-.15.61-.45a.41.41,0,0,0-.61-.3.69.69,0,0,0-.36.43c0,.11.06.17,0,.16a.28.28,0,0,0-.12,0,.73.73,0,0,0-.36.19C110.63,59.48,110.58,60,110.9,60.18Zm-.11.23a4.69,4.69,0,0,1-1.39-.63,1.38,1.38,0,0,1-.5-.86,2,2,0,0,1,.15-1c.56-1.34,2.54-1.67,3.28-.65a8.17,8.17,0,0,1,.77,1.25,2.31,2.31,0,0,1,.48,1.61,1.25,1.25,0,0,1-1.45,1C111.47,61,111.13,60.53,110.79,60.41Z"/><path class="cls-12" d="M80.7,76c.23-.18.34-.68.85-1a1,1,0,0,1,1.49.37,2,2,0,0,1,0,1.49,11.37,11.37,0,0,1-.23,1.25c-.27,1.09-2.06,1.43-2.94.45a1.71,1.71,0,0,1-.4-.82,1.22,1.22,0,0,1,.2-.87C80,76.36,80.51,76.24,80.7,76Zm.17.17c-.21.19.06.63.41.68a.5.5,0,0,0,.37,0,.14.14,0,0,0,.07-.13c-.08-.13-.4.2.13.46.24.09.49-.1.39-.3s-.53-.17-.64,0,0,.09,0-.25S81.05,76,80.87,76.2Z"/><path class="cls-13" d="M48.49,59.62a1.45,1.45,0,0,0,.1-1.83,6,6,0,0,1-.74-1.18,1.65,1.65,0,0,0-1.2-1.12,1.35,1.35,0,0,0-1.43.87,2.73,2.73,0,0,0-.11,1.44,2.59,2.59,0,0,0,.56,1,6.68,6.68,0,0,0,1,.9A1.44,1.44,0,0,0,48.49,59.62Zm.18.18a5.7,5.7,0,0,1-2,1.52,2.44,2.44,0,0,1-1.49.08,3.32,3.32,0,0,1-1.36-.75c-1.6-1.47-1.28-4.37.44-5.24a6.08,6.08,0,0,1,2.39-.72,3.79,3.79,0,0,1,2.64.46,2.32,2.32,0,0,1,.86,2.64A6,6,0,0,1,48.67,59.8Z"/><path class="cls-14" d="M59.21,58.83c.33-.27.13-.86-.22-1.06s-.43-.19-.42-.42-.06-.73-.42-.8a.57.57,0,0,0-.68.55,1.26,1.26,0,0,0,.22.68c.1.13.22.13.24.22l0,.18a1.61,1.61,0,0,0,.17.41C58.35,58.94,58.93,59.15,59.21,58.83Zm.18.18a5,5,0,0,1-1.23,1.2,1.67,1.67,0,0,1-1.08.17,2.24,2.24,0,0,1-1-.52c-1.19-1.07-.86-3.24.44-3.71a6.9,6.9,0,0,1,1.63-.4A2.59,2.59,0,0,1,60,55.9a1.44,1.44,0,0,1,.54,1.87C60.22,58.42,59.66,58.68,59.39,59Z"/><path class="cls-15" d="M67.07,62.46c.33-.28.13-.87-.22-1.07s-.43-.18-.42-.42-.06-.72-.42-.8a.57.57,0,0,0-.68.55,1.26,1.26,0,0,0,.22.68c.1.13.22.13.24.22l0,.18a1.61,1.61,0,0,0,.17.41C66.21,62.56,66.79,62.77,67.07,62.46Zm.18.17A4.91,4.91,0,0,1,66,63.83a1.57,1.57,0,0,1-1.07.17,2.24,2.24,0,0,1-1-.52c-1.19-1.07-.86-3.23.44-3.7a6.44,6.44,0,0,1,1.63-.4,2.58,2.58,0,0,1,1.87.14,1.44,1.44,0,0,1,.54,1.87C68.08,62.05,67.52,62.3,67.25,62.63Z"/><path class="cls-16" d="M76.19,69.62c.28-.22,0-.74-.3-.87s-.41,0-.34-.23,0-.65-.24-.73a.4.4,0,0,0-.48.48.67.67,0,0,0,.29.48c.1.06.19,0,.16,0s0,0,0,.12a.84.84,0,0,0,.06.4C75.44,69.64,76,69.88,76.19,69.62Zm.17.17c-.26.25-.45.78-1,1.12a1.33,1.33,0,0,1-1,.19,1.91,1.91,0,0,1-.92-.46c-1.08-1-.75-3,.45-3.32A7.34,7.34,0,0,1,75.31,67a2.34,2.34,0,0,1,1.68.06,1.25,1.25,0,0,1,.46,1.69C77.11,69.33,76.58,69.51,76.36,69.79Z"/><path class="cls-17" d="M188.27,92.62l0,4.33c-.05,1.43-.15,2.84-.23,4.26s-.29,2.82-.43,4.24-.44,2.81-.65,4.21a83.08,83.08,0,0,1-4.72,16.4,86.36,86.36,0,0,1-7.89,15.17,87.9,87.9,0,0,1-10.81,13.3,84.52,84.52,0,0,1-61.82,25.33,90.4,90.4,0,0,1-33.23-6.92c-1.31-.54-2.59-1.17-3.89-1.75s-2.52-1.29-3.79-1.93-2.48-1.39-3.72-2.09-2.4-1.51-3.6-2.27A89,89,0,0,1,40.3,154.16a87.9,87.9,0,0,1-19.19-28,86.4,86.4,0,0,1-6.91-33.4V91.58h1.14l43.46-.16q21.74,0,43.43.17l43.21.44Zm-.18.17-43.59.6-43.21.43Q79.75,94,58.3,94l-43-.16,1.13-1.12a86.78,86.78,0,0,0,6.23,32.75A84.06,84.06,0,0,0,54,164.23c1.19.76,2.36,1.55,3.56,2.28s2.42,1.43,3.67,2.1,2.5,1.29,3.78,1.88,2.56,1.18,3.86,1.69A84.52,84.52,0,0,0,85,177a87.3,87.3,0,0,0,16.76,1.43,88.24,88.24,0,0,0,60.41-25.3A89.16,89.16,0,0,0,181,125.51a90.62,90.62,0,0,0,5.11-16c.26-1.38.57-2.76.79-4.15s.43-2.78.6-4.18l.39-4.21Z"/><path class="cls-18" d="M28.73,92.64a28.5,28.5,0,0,0,10.48,8.21l1.52.64,1.57.47.79.24.8.15,1.61.29c.54.07,1.09.06,1.63.1a11.1,11.1,0,0,0,1.63,0l1.63-.13.81-.05c.27,0,.54-.11.81-.15l1.6-.33.8-.17.78-.27,3.16-1.05c1.11-.38,2.2-.8,3.33-1.11s2.26-.6,3.41-.78A33.17,33.17,0,0,1,79,99.18a27.69,27.69,0,0,1,6.48,2.44,22,22,0,0,1,3,1.87,19.56,19.56,0,0,0,2.79,1.85,15.55,15.55,0,0,0,6.27,2,7.66,7.66,0,0,0,5.83-1.92,10.56,10.56,0,0,0,1.07-1.15c.34-.44.57-.83,1-1.36a10.82,10.82,0,0,1,2.58-2.65,15.21,15.21,0,0,1,6.77-2.64,27.45,27.45,0,0,1,7.13,0,36.91,36.91,0,0,1,6.94,1.49l.09,0,.15.09a39.89,39.89,0,0,0,10.78,4.41,15.41,15.41,0,0,0,5.55.3l.66-.13.33-.06.31-.12.61-.23.31-.12.37-.15a17.67,17.67,0,0,1,3.06-1.07,23.28,23.28,0,0,1,12.48.52,18.09,18.09,0,0,1,5.55,2.87,12.55,12.55,0,0,1,3.85,4.8l-.22.11a12.66,12.66,0,0,0-4.16-4.17,19.27,19.27,0,0,0-5.4-2.26,23.37,23.37,0,0,0-5.82-.61,20.68,20.68,0,0,0-5.72.79,16.77,16.77,0,0,0-2.63,1l-.32.15-.39.17-.79.34-.4.17-.41.1-.83.21a16.68,16.68,0,0,1-6.5-.16,30,30,0,0,1-6-1.88,43.3,43.3,0,0,1-5.6-2.84l.25.12a30.89,30.89,0,0,0-12.9-1.7,13.51,13.51,0,0,0-5.95,2,10.2,10.2,0,0,0-2.28,2.12c-.31.37-.71.93-1.11,1.37a11.5,11.5,0,0,1-1.34,1.27,9.19,9.19,0,0,1-6.93,1.85A18,18,0,0,1,90.81,106a23.94,23.94,0,0,1-2.87-2,16.41,16.41,0,0,0-2.83-1.77,23,23,0,0,0-6.35-2.16,31.91,31.91,0,0,0-13.27.52c-1.08.26-2.14.6-3.21.89s-2.09.76-3.14,1.12-2.22.77-3.33,1.12l-.84.27-.88.17-1.75.32c-.29,0-.58.12-.88.15l-.89,0-1.79.09a13.28,13.28,0,0,1-1.78-.1c-.59-.07-1.19-.09-1.78-.19l-1.74-.38c-.29-.07-.58-.12-.87-.2l-.84-.3-1.67-.61-1.59-.79a25.72,25.72,0,0,1-10-9.5Z"/><path class="cls-19" d="M188.27,92.79q-10.34,11.73-21,23.11c-7.1,7.6-14.25,15.17-21.56,22.58l-11,11q-5.55,5.51-11,11.07c-7.27,7.45-14.36,15.07-21.41,22.73l-.47.5-.5-.5q-11.05-11-22-22.2c-7.26-7.45-14.54-14.89-21.71-22.43s-14.27-15.16-21.36-22.77-14.09-15.33-21-23.12l.18-.17c7.49,7.23,14.87,14.58,22.21,22s14.63,14.8,21.86,22.29S73.84,151.94,81,159.51s14.23,15.19,21.26,22.87h-1c7.35-7.37,14.67-14.77,21.8-22.35,3.57-3.78,7.09-7.62,10.6-11.46l10.56-11.5c7.1-7.61,14.36-15.07,21.66-22.49s14.68-14.75,22.2-22Z"/></g></svg>