<svg xmlns="http://www.w3.org/2000/svg" xmlns:xlink="http://www.w3.org/1999/xlink" viewBox="0 0 192 192"><defs><style>.cls-1,.cls-2,.cls-3,.cls-4,.cls-5{fill:none;stroke-miterlimit:10;stroke-width:2.16px;}.cls-1{stroke:url(#linear-gradient);}.cls-2{stroke:url(#linear-gradient-2);}.cls-3{stroke:url(#linear-gradient-3);}.cls-4{stroke-linecap:round;stroke:url(#linear-gradient-4);}.cls-5{stroke:url(#linear-gradient-5);}</style><linearGradient id="linear-gradient" x1="92.46" y1="121.77" x2="179.15" y2="121.77" gradientUnits="userSpaceOnUse"><stop offset="0.21" stop-color="#039be5"/><stop offset="0.25" stop-color="#1293dc"/><stop offset="0.43" stop-color="#5d6ab2"/><stop offset="0.6" stop-color="#984991"/><stop offset="0.74" stop-color="#c23278"/><stop offset="0.85" stop-color="#dc236a"/><stop offset="0.91" stop-color="#e61e64"/><stop offset="1" stop-color="#e91e63"/></linearGradient><linearGradient id="linear-gradient-2" x1="83.56" y1="117.69" x2="184.54" y2="117.69" xlink:href="#linear-gradient"/><linearGradient id="linear-gradient-3" x1="59.75" y1="168.21" x2="103.66" y2="168.21" xlink:href="#linear-gradient"/><linearGradient id="linear-gradient-4" x1="30.01" y1="132.39" x2="101.85" y2="132.39" xlink:href="#linear-gradient"/><linearGradient id="linear-gradient-5" x1="20.4" y1="60.73" x2="100.54" y2="60.73" xlink:href="#linear-gradient"/></defs><title>ic_material_product_icon_192px copy 6</title><g id="porno"><path class="cls-1" d="M150.08,165.91l-11.78-10.8-7.11-3.82s-6.08-3.15-7.47-3.46-5.27-1.4-5.85-1.58-4.77-1.66-4.77-1.66-5.89-1.86-7.88-2.7a28.76,28.76,0,0,1-4.32-2.19c-1.45-.88-3.78-2-4.73-3.92s-1.31-2.43-1.28-4.93,2.8-.2,2.8-.2A6.57,6.57,0,0,0,100.8,133c1.75.44,3.84,1.86,9,1.89s5,.13,7.12-.2a9.14,9.14,0,0,0,3.78-1.66s1.48-1.55,1.15-5.19-.92-7.09-.92-7.09l-1-3.54a16.24,16.24,0,0,1-3.65-3.85s-6-7.59-7.22-8.54c0,0-3.51-3.44-5.2-4.11a31.23,31.23,0,0,0-7.32-3s-2.93-1-3.07-3.24c0,0,.37-2.94,3-3.44,0,0,3.2-.71,9.58.64,0,0,4.25.74,11.1,6.41,0,0,7.29,6.21,8.78,6.55,0,0,.64.64,1.21.23,0,0,.84-.44.24-2.9,0,0-3.34-10.36-3.28-12.18,0,0-4.92-2.9-6.78-4.05,0,0-7.56.24-10.09-2,0,0-1.82-1.89-.67-3.61a3.7,3.7,0,0,1,2.83-1.65c1.82,0,6.82-.91,9.65-.51l8.17,2a56.28,56.28,0,0,1,5.94-.6l8.64,2L144,82.7s4,7.06,4.28,7.63a1.66,1.66,0,0,0,1,.71l4.89,1.48a5.61,5.61,0,0,1,2.73,2.63c.61,1.69,3.18,9.18,3.78,12.25s2,7.7,2,7.7l1.48,6.14s1.22,4.75,1.76,6.44c.38,1.2,1.06,3,1.57,4.1a8.72,8.72,0,0,0,1.1,1.83l.11.14a9.11,9.11,0,0,0,1.94,1.83c7.7,5.42,7.36,5,7.36,5"/><path class="cls-2" d="M183.51,131.81c-2.77-9.07-32.14-51.87-33.38-50.66-5.54-7.56-20.58-15.39-20.58-15.39a56.43,56.43,0,0,0-22.89-6,.52.52,0,0,0-.42.2c-2.41,3-7.94,3.87-9.75,4.46a.82.82,0,0,0-.5.68,8.51,8.51,0,0,1-5.12,6.75,1.25,1.25,0,0,0-.71,1.25c.37,5.17-2,7.87-3.32,9a1.2,1.2,0,0,0-.27,1.55A8.48,8.48,0,0,1,85.76,94a1.84,1.84,0,0,0-.24,2c3.71,6.91-.25,11.17-.25,11.17,3,1.76,3.38,11.07,3.38,11.07,4.38,2.63,4.89,8.7,4.89,8.7l2.29,2.73c11.44,6.5,15.7,4.43,16.57,4.63s.81,5.26.7,10.26a47,47,0,0,0,4,16.19A75.26,75.26,0,0,0,126.87,176"/><path class="cls-3" d="M102.52,179.43s.45-12.14-1-19.13a2.85,2.85,0,0,0-4.14-1.93c-6.73,3.61-23.86,11.27-37.06,4"/><path class="cls-4" d="M100.33,155.11s1.6-10.77-1.31-15.41a11.08,11.08,0,0,1-7-6.72,6.72,6.72,0,0,1,.63-2.88,10.54,10.54,0,0,1-1.42-2.7A10.62,10.62,0,0,1,85,119.6s-6.51-1.47-9.08-6.73c0,0-5.2,2.72-9.79-.6a1.41,1.41,0,0,0-1.25-.26,8.69,8.69,0,0,1-8.44-1.87,1.27,1.27,0,0,0-1.38-.26,9.87,9.87,0,0,1-8.55,0,1.37,1.37,0,0,0-1.2,0,8.66,8.66,0,0,1-4.2,1c-.32,0-.75-.12-.9.14-.65,1.07-4.29,2.19-7.72,2.07a1.36,1.36,0,0,0-1.38,1.15"/><path class="cls-5" d="M21,95.28c6.48,4,11.27,12.15,11.27,12.15,24-22.78,55-46.26,66.8-47,.78,0,.42-1.4-.37-1.42C91,58.76,73.35,53.75,72.79,12.31"/></g></svg>