<svg id="Layer_2" data-name="Layer 2" xmlns="http://www.w3.org/2000/svg" xmlns:xlink="http://www.w3.org/1999/xlink" viewBox="0 0 903.38 901.99"><defs><style>.cls-1,.cls-2,.cls-3,.cls-4,.cls-5,.cls-6,.cls-7{fill:none;stroke-miterlimit:10;stroke-width:7.48px;}.cls-1{stroke:url(#linear-gradient);}.cls-2{stroke:url(#linear-gradient-2);}.cls-3{stroke:url(#linear-gradient-3);}.cls-4{stroke:url(#linear-gradient-4);}.cls-5{stroke:url(#linear-gradient-5);}.cls-6{stroke:url(#linear-gradient-6);}.cls-7{stroke:url(#linear-gradient-7);}.cls-8{fill:url(#linear-gradient-8);}.cls-9{fill:url(#linear-gradient-9);}</style><linearGradient id="linear-gradient" x1="103.21" y1="548.74" x2="997.51" y2="548.74" gradientUnits="userSpaceOnUse"><stop offset="0.21" stop-color="#2d98d4"/><stop offset="0.35" stop-color="#5d78b7"/><stop offset="0.55" stop-color="#985293"/><stop offset="0.71" stop-color="#c2367a"/><stop offset="0.84" stop-color="#dc246a"/><stop offset="0.91" stop-color="#e61e64"/><stop offset="1" stop-color="#e81f64"/></linearGradient><linearGradient id="linear-gradient-2" x1="910.66" y1="363.38" x2="981.75" y2="363.38" xlink:href="#linear-gradient"/><linearGradient id="linear-gradient-3" x1="964.18" y1="511.27" x2="1006.59" y2="511.27" xlink:href="#linear-gradient"/><linearGradient id="linear-gradient-4" x1="550.14" y1="729.43" x2="550.14" y2="729.43" xlink:href="#linear-gradient"/><linearGradient id="linear-gradient-5" x1="550.14" y1="353.1" x2="550.14" y2="353.1" xlink:href="#linear-gradient"/><linearGradient id="linear-gradient-6" x1="222" y1="471.16" x2="889.38" y2="471.16" xlink:href="#linear-gradient"/><linearGradient id="linear-gradient-7" x1="224.77" y1="611.57" x2="890.72" y2="611.57" xlink:href="#linear-gradient"/><linearGradient id="linear-gradient-8" x1="419.91" y1="603.03" x2="474.56" y2="603.03" xlink:href="#linear-gradient"/><linearGradient id="linear-gradient-9" x1="640.9" y1="633.3" x2="588.51" y2="617.76" xlink:href="#linear-gradient"/></defs><title>PROFILEicon</title><path class="cls-1" d="M967.52,621.16l25.82,5.13c-19.71,147.62-146,322.9-357.34,362.14C415.72,1029.33,198.85,901,129.29,688.69s28-444.58,227.76-541.52S777,117,894,258.58l-20.31,17.88C789,181.82,683.93,131.51,557.1,129.89c-89.28-1.14-171.07,24.43-244.09,76-158.18,111.61-213.9,308.36-155,480.21C217.29,858.7,384,973,567,967.76,752.29,962.44,929.35,829.62,967.52,621.16Z" transform="translate(-103.21 -97.75)"/><path class="cls-2" d="M976.65,397.54l-26.33,10-34.8-74.16,24.5-13.7Z" transform="translate(-103.21 -97.75)"/><path class="cls-3" d="M1002.5,550.37l-28.32-1.21-6-72.34,27.7-4.26Z" transform="translate(-103.21 -97.75)"/><path class="cls-4" d="M550.14,729.43" transform="translate(-103.21 -97.75)"/><path class="cls-5" d="M550.14,353.1" transform="translate(-103.21 -97.75)"/><path class="cls-6" d="M848.62,482.92c91.41,82.91,0,97.2-127.11,104.68-60.84,3.58-112.15,0-179.44-7.48-50.22-5.58-119.63-15-164.49-29.91C289.41,520.83,228,482.92,228,482.92S527.12,191.32,848.62,482.92Z" transform="translate(-103.21 -97.75)"/><path class="cls-7" d="M228,482.92s82.25,149.54,314,172S887.79,550.37,887.79,550.37,721.52,759.57,542.07,737.14,287.86,557.69,228,482.92Z" transform="translate(-103.21 -97.75)"/><path class="cls-8" d="M473.31,643.8A36.37,36.37,0,0,1,467.1,642a57,57,0,0,1-6-2.59,66.19,66.19,0,0,1-11-7.07A71,71,0,0,1,433,612.54a73.84,73.84,0,0,1-5.6-11.92c-.4-1-.74-2.06-1.06-3.11s-.66-2.08-.95-3.14c-.51-2.12-1.1-4.23-1.43-6.38a75.84,75.84,0,0,1-.37-25.74,225,225,0,0,0,6.07,24.31c.3,1,.6,2,1,2.91l1,2.88c.36,1,.77,1.88,1.13,2.83s.74,1.89,1.18,2.8l1.23,2.77,1.35,2.71c.42.92.92,1.79,1.4,2.68s.95,1.78,1.49,2.63A99.88,99.88,0,0,0,454.1,628,106.06,106.06,0,0,0,473.31,643.8Z" transform="translate(-103.21 -97.75)"/><path class="cls-9" d="M578.11,657.19a106.06,106.06,0,0,0,22.9-9.64,99.88,99.88,0,0,0,19.48-14.31c.76-.66,1.46-1.39,2.17-2.1s1.44-1.41,2.11-2.17l2.07-2.21,2-2.31c.68-.75,1.31-1.55,1.93-2.35s1.28-1.58,1.89-2.39l1.8-2.47c.63-.81,1.2-1.66,1.76-2.51a225,225,0,0,0,12.73-21.58,75.84,75.84,0,0,1-7.67,24.57c-.93,2-2.09,3.82-3.18,5.71-.57.93-1.19,1.83-1.8,2.74s-1.22,1.82-1.9,2.68a73.84,73.84,0,0,1-8.76,9.83,71,71,0,0,1-22.07,14.15A66.2,66.2,0,0,1,591,656.49a57,57,0,0,1-6.44.79A36.37,36.37,0,0,1,578.11,657.19Z" transform="translate(-103.21 -97.75)"/></svg>