<svg xmlns="http://www.w3.org/2000/svg" xmlns:xlink="http://www.w3.org/1999/xlink" viewBox="0 0 192.88 192.88"><defs><style>.cls-1{fill:url(#linear-gradient);}.cls-2{fill:url(#linear-gradient-2);}.cls-3{fill:url(#linear-gradient-3);}.cls-4{fill:url(#linear-gradient-4);}.cls-5{fill:url(#linear-gradient-5);}.cls-6{fill:url(#linear-gradient-6);}.cls-7{fill:url(#linear-gradient-7);}.cls-8{fill:url(#linear-gradient-8);}.cls-9{fill:url(#linear-gradient-9);}.cls-10{fill:url(#linear-gradient-10);}.cls-11{fill:url(#linear-gradient-11);}.cls-12{fill:url(#linear-gradient-12);}.cls-13{fill:url(#linear-gradient-13);}.cls-14{fill:url(#linear-gradient-14);}.cls-15{fill:url(#linear-gradient-15);}.cls-16{fill:url(#linear-gradient-16);}.cls-17{fill:url(#linear-gradient-17);}.cls-18{fill:url(#linear-gradient-18);}.cls-19{fill:url(#linear-gradient-19);}.cls-20,.cls-21{fill:none;stroke-miterlimit:10;stroke-width:0.75px;}.cls-20{stroke:url(#linear-gradient-20);}.cls-21{stroke:url(#linear-gradient-21);}.cls-22{fill:url(#linear-gradient-22);}.cls-23{fill:url(#linear-gradient-23);}.cls-24{fill:url(#linear-gradient-24);}.cls-25{fill:url(#linear-gradient-25);}.cls-26{fill:url(#linear-gradient-26);}.cls-27{fill:url(#linear-gradient-27);}.cls-28{fill:url(#linear-gradient-28);}.cls-29{fill:url(#linear-gradient-29);}.cls-30{fill:url(#linear-gradient-30);}.cls-31{fill:url(#linear-gradient-31);}</style><linearGradient id="linear-gradient" x1="89.4" y1="143.68" x2="90.06" y2="146.97" gradientUnits="userSpaceOnUse"><stop offset="0.21" stop-color="#039be5"/><stop offset="0.25" stop-color="#1293dc"/><stop offset="0.43" stop-color="#5d6ab2"/><stop offset="0.6" stop-color="#984991"/><stop offset="0.74" stop-color="#c23278"/><stop offset="0.85" stop-color="#dc236a"/><stop offset="0.91" stop-color="#e61e64"/><stop offset="1" stop-color="#e91e63"/></linearGradient><linearGradient id="linear-gradient-2" x1="77.93" y1="60.78" x2="91.06" y2="126.34" xlink:href="#linear-gradient"/><linearGradient id="linear-gradient-3" x1="88.21" y1="69.48" x2="131.76" y2="69.48" xlink:href="#linear-gradient"/><linearGradient id="linear-gradient-4" x1="128.23" y1="67.6" x2="142.04" y2="67.6" xlink:href="#linear-gradient"/><linearGradient id="linear-gradient-5" x1="80.95" y1="83.59" x2="131.12" y2="83.59" xlink:href="#linear-gradient"/><linearGradient id="linear-gradient-6" x1="76.59" y1="49.51" x2="106.95" y2="49.51" xlink:href="#linear-gradient"/><linearGradient id="linear-gradient-7" x1="81.18" y1="51.08" x2="105.24" y2="51.08" xlink:href="#linear-gradient"/><linearGradient id="linear-gradient-8" x1="83.16" y1="56.88" x2="116.13" y2="56.88" xlink:href="#linear-gradient"/><linearGradient id="linear-gradient-9" x1="84.62" y1="47.32" x2="146.25" y2="47.32" xlink:href="#linear-gradient"/><linearGradient id="linear-gradient-10" x1="103.96" y1="61.78" x2="152.88" y2="61.78" xlink:href="#linear-gradient"/><linearGradient id="linear-gradient-11" x1="103.29" y1="66.61" x2="135.52" y2="66.61" xlink:href="#linear-gradient"/><linearGradient id="linear-gradient-12" x1="89.29" y1="72.73" x2="131.21" y2="72.73" xlink:href="#linear-gradient"/><linearGradient id="linear-gradient-13" x1="75.44" y1="56.33" x2="98.17" y2="56.33" xlink:href="#linear-gradient"/><linearGradient id="linear-gradient-14" x1="71.61" y1="62.71" x2="78.99" y2="62.71" xlink:href="#linear-gradient"/><linearGradient id="linear-gradient-15" x1="65.64" y1="71" x2="77.17" y2="71" xlink:href="#linear-gradient"/><linearGradient id="linear-gradient-16" x1="65.92" y1="78.82" x2="79.57" y2="78.82" xlink:href="#linear-gradient"/><linearGradient id="linear-gradient-17" x1="78.21" y1="59.37" x2="101.51" y2="59.37" xlink:href="#linear-gradient"/><linearGradient id="linear-gradient-18" x1="126.96" y1="54.35" x2="161.17" y2="54.35" xlink:href="#linear-gradient"/><linearGradient id="linear-gradient-19" x1="115.35" y1="48.12" x2="179.77" y2="48.12" xlink:href="#linear-gradient"/><linearGradient id="linear-gradient-20" x1="61.42" y1="170.46" x2="63.43" y2="170.46" gradientTransform="matrix(0.2, 0.98, 0.98, -0.2, -42.12, 48.16)" xlink:href="#linear-gradient"/><linearGradient id="linear-gradient-21" x1="60.44" y1="171.91" x2="62.23" y2="171.91" gradientTransform="matrix(0.2, 0.98, 0.98, -0.2, -42.12, 48.16)" xlink:href="#linear-gradient"/><linearGradient id="linear-gradient-22" x1="82.56" y1="67.65" x2="83.22" y2="70.92" xlink:href="#linear-gradient"/><linearGradient id="linear-gradient-23" x1="84.37" y1="64.63" x2="84.96" y2="67.59" xlink:href="#linear-gradient"/><linearGradient id="linear-gradient-24" x1="18.04" y1="108.8" x2="45.16" y2="100.97" xlink:href="#linear-gradient"/><linearGradient id="linear-gradient-25" x1="84.03" y1="128.72" x2="184.87" y2="128.72" xlink:href="#linear-gradient"/><linearGradient id="linear-gradient-26" x1="39.75" y1="128.86" x2="69.96" y2="120.13" xlink:href="#linear-gradient"/><linearGradient id="linear-gradient-27" x1="28.88" y1="122" x2="75.83" y2="134.91" xlink:href="#linear-gradient"/><linearGradient id="linear-gradient-28" x1="11.7" y1="121.99" x2="53.42" y2="109.94" xlink:href="#linear-gradient"/><linearGradient id="linear-gradient-29" x1="13.95" y1="120.04" x2="49.73" y2="109.71" xlink:href="#linear-gradient"/><linearGradient id="linear-gradient-30" x1="10.29" y1="126.94" x2="71.69" y2="109.21" xlink:href="#linear-gradient"/><linearGradient id="linear-gradient-31" x1="68.4" y1="98.05" x2="76.1" y2="98.05" xlink:href="#linear-gradient"/></defs><title>Artboard 12 copy</title><g id="realistic2"><path class="cls-1" d="M93,144a5,5,0,0,1-1.19,1.9A3.45,3.45,0,0,1,89.69,147a3,3,0,0,1-2.25-.72,6.12,6.12,0,0,1-.8-.81c-.19-.33-.4-.64-.57-1,.3.23.56.48.84.71s.56.43.86.59a2.89,2.89,0,0,0,1.84.46,3.71,3.71,0,0,0,1.78-.78A10.71,10.71,0,0,0,93,144Z"/><path class="cls-2" d="M80.43,61.55a3.44,3.44,0,0,1,2.58-1,5.84,5.84,0,0,1,2.72.86,7.12,7.12,0,0,1,2.16,1.9,5.35,5.35,0,0,1,1,2.77l0-.12a2.72,2.72,0,0,1-.93,2.8,1.35,1.35,0,0,0,0,1.89,1.18,1.18,0,0,0,.38.31,1.47,1.47,0,0,0,.27.09,1.21,1.21,0,0,1,.19.1.48.48,0,0,1,.19.31.53.53,0,0,1,0,.25l-.08.14a.74.74,0,0,1-.3.23c-.24.12-.42.19-.6.29a1.15,1.15,0,0,0-.33.26s0,.1,0,.08,0-.06,0,0a5.84,5.84,0,0,1,.53.44,1.32,1.32,0,0,1,.16.25.61.61,0,0,1,0,.51.51.51,0,0,1-.24.25.56.56,0,0,1-.17.07,1.74,1.74,0,0,1-.49,0l-.67,0a1.12,1.12,0,0,0-.26,0h-.09a.24.24,0,0,0,.1,0,.12.12,0,0,0,.06-.06c0-.06,0,.19,0,.35a2.79,2.79,0,0,0,0,.44.2.2,0,0,0-.09-.11c-.07-.06-.23-.07-.13-.06h.29l.63,0,.32,0,.14,0s.08,0,0,0c-.18-.42-.39,1.74.14,1.12h0c-.2,0-.4.11-.21,0a.38.38,0,0,0,.08-.21l.07.14a3,3,0,0,0,.35.44l.22.23s.06.06.15.18a1,1,0,0,1,.11.2v0s0,0,0,0l0,.11a1.09,1.09,0,0,1,.08.71,1,1,0,0,1-.56.67,2.17,2.17,0,0,1-1,.14A9.06,9.06,0,0,1,85.81,78a11.28,11.28,0,0,0-1.26-.26c-.86-.14-1.76-.19-2.71-.39a4.65,4.65,0,0,1-2.7-1.48c-.17-.21-.33-.42-.47-.63l-.33-.59c0-.05-.1-.07.1,0a.53.53,0,0,0,.46,0,.35.35,0,0,0,.1-.08,1.48,1.48,0,0,0-.13.41,15.84,15.84,0,0,0-.26,2.56,65.5,65.5,0,0,0,.68,10.64,36.29,36.29,0,0,0,1.07,5.18,15.69,15.69,0,0,0,2.49,4.52c.53.71,1.09,1.42,1.63,2.18a7.77,7.77,0,0,1,1.31,2.62,4,4,0,0,1-.54,3.06,15.43,15.43,0,0,1-1.8,2.13,16.18,16.18,0,0,0-3.13,9.82,15.23,15.23,0,0,0,.74,5.23,7.39,7.39,0,0,0,3.16,4.16,7.25,7.25,0,0,1-3.53-4,15.88,15.88,0,0,1-1.1-5.37,19.47,19.47,0,0,1,.61-5.47,14.07,14.07,0,0,1,2.36-5.07,15.64,15.64,0,0,0,1.62-2,2.8,2.8,0,0,0,.36-2.13c-.39-1.48-1.7-2.85-2.77-4.3A16.93,16.93,0,0,1,79,93.83a37.62,37.62,0,0,1-1.19-5.4,57.74,57.74,0,0,1-.65-10.92,16.58,16.58,0,0,1,.32-2.82,2.65,2.65,0,0,1,.33-.85,1.19,1.19,0,0,1,.32-.33.88.88,0,0,1,.79-.07,1.27,1.27,0,0,1,.56.51l.33.59a4,4,0,0,0,.33.47c.91,1.19,2.75,1.16,4.59,1.47.45.07.93.18,1.37.29a7.3,7.3,0,0,0,1.21.23,1.49,1.49,0,0,0,.36,0s-.13.09-.13.19,0,.09,0,0-.15-.17-.3-.36a5.91,5.91,0,0,1-.46-.64,1.84,1.84,0,0,1-.19-.48.94.94,0,0,1,.19-.85,1.08,1.08,0,0,1,.64-.33,3.66,3.66,0,0,1,.42,0H88c.56-.63.35,1.55.15,1.13l-.19,0-.19,0-.36,0c-.23,0-.47,0-.71,0h-.39a.89.89,0,0,1-.45-.14.86.86,0,0,1-.29-.38,2.18,2.18,0,0,1-.08-.9,1.75,1.75,0,0,1,.27-1,.66.66,0,0,1,.19-.18.63.63,0,0,1,.25-.1l.25,0a2.57,2.57,0,0,1,.4,0l.69.07c.09,0,.22,0,.18,0l-.1,0a.46.46,0,0,0-.18.54l0,0c-.05-.08-.24-.17-.5-.44a1,1,0,0,1-.23-.64,1.15,1.15,0,0,1,.17-.56,1.73,1.73,0,0,1,.71-.58,6.21,6.21,0,0,1,.63-.28s.08-.07,0,0a.29.29,0,0,0-.06.11.49.49,0,0,0,0,.21.37.37,0,0,0,.14.23s0,0,0,0a1.67,1.67,0,0,1-.37-.14,2.07,2.07,0,0,1-.64-.56,2.42,2.42,0,0,1-.53-1.52,2,2,0,0,1,.68-1.48,2.79,2.79,0,0,0,.73-.93,1.77,1.77,0,0,0,.11-1.08l0-.07v0a4.72,4.72,0,0,0-.8-2.46,6.69,6.69,0,0,0-1.93-1.89,5.76,5.76,0,0,0-2.54-1A3.36,3.36,0,0,0,80.43,61.55Z"/><path class="cls-3" d="M88.94,65.38A12.34,12.34,0,0,0,90.29,68a1.23,1.23,0,0,0,.88.55,3.77,3.77,0,0,0,1.19-.34,7.35,7.35,0,0,1,3.18-.8,5.54,5.54,0,0,1,3.19,1.19,9.74,9.74,0,0,1,1.2,1.11c.16.17.4.46.46.5a3.69,3.69,0,0,0,.54.31,15.78,15.78,0,0,0,2.77.91,44.7,44.7,0,0,0,5.91,1,42.55,42.55,0,0,0,12-.29,17.06,17.06,0,0,0,5.63-2A8.36,8.36,0,0,0,131,65.68a8.31,8.31,0,0,1-3.65,4.75,17.9,17.9,0,0,1-5.68,2.29,41.28,41.28,0,0,1-12.2.72,45.19,45.19,0,0,1-6.08-.87,16.48,16.48,0,0,1-3-.92,3.65,3.65,0,0,1-.78-.44c-.33-.28-.43-.37-.63-.56a8.25,8.25,0,0,0-1.11-.86,4.5,4.5,0,0,0-2.41-.88,7.84,7.84,0,0,0-2.7.54,3.64,3.64,0,0,1-1.77.22,2.09,2.09,0,0,1-1.46-1.21A8.07,8.07,0,0,1,88.94,65.38Z"/><path class="cls-4" d="M129,69a3.31,3.31,0,0,0,2.69,1.92,11.09,11.09,0,0,0,3.45.06,11.62,11.62,0,0,0,3.3-.86,3.54,3.54,0,0,0,2-2.12,3,3,0,0,0-.48-2.75,2.36,2.36,0,0,0-2.51-.82,1.75,1.75,0,0,0-1,.81,1.44,1.44,0,0,0,0,1.28,2,2,0,0,0,2.64.66l.37-.19,0,.39a1.92,1.92,0,0,1-.59,1.59,2.86,2.86,0,0,1-1.47.62,2.9,2.9,0,0,0,1.26-.83,1.53,1.53,0,0,0,.26-1.31l.41.2a3.06,3.06,0,0,1-1.95.49,2.44,2.44,0,0,1-2-3.37A2.93,2.93,0,0,1,137,63.21,3.7,3.7,0,0,1,141,64.32a4.47,4.47,0,0,1,.79,4.12,4.93,4.93,0,0,1-2.85,3,11.11,11.11,0,0,1-3.77.76,10.09,10.09,0,0,1-3.77-.54,4.88,4.88,0,0,1-1.65-1A2.54,2.54,0,0,1,129,69Z"/><path class="cls-5" d="M81.7,77.06a10.1,10.1,0,0,0,3.45,6A20.8,20.8,0,0,0,91,86.9a17.27,17.27,0,0,0,16.56-.72c.51-.28,1-.65,1.45-1l1.49-1a37.89,37.89,0,0,1,6.33-3.58,23.68,23.68,0,0,1,7-2,14.43,14.43,0,0,1,7.14.84,14.82,14.82,0,0,0-7.06-.32,25.22,25.22,0,0,0-6.69,2.29,40.75,40.75,0,0,0-6,3.72l-1.41,1.07c-.5.36-1,.76-1.51,1.08A18.91,18.91,0,0,1,104.9,89a18,18,0,0,1-14.5-.94,19.5,19.5,0,0,1-5.86-4.44,13,13,0,0,1-2.05-3A7.07,7.07,0,0,1,81.7,77.06Z"/><path class="cls-6" d="M80.07,60.35c-.9-2-1.89-3.92-2.62-6A5.21,5.21,0,0,1,77.27,51a6.46,6.46,0,0,1,1.87-2.85,25.14,25.14,0,0,1,2.57-2.08A12.31,12.31,0,0,0,84,44a5.8,5.8,0,0,1,3-1.92,5.28,5.28,0,0,1,1.86-.15,5.93,5.93,0,0,1,1.75.48,6.1,6.1,0,0,0,2.83.58A4.35,4.35,0,0,0,96,41.85a6.38,6.38,0,0,0,.53-.51c.18-.2.39-.42.6-.62a8,8,0,0,1,1.42-1.09,7,7,0,0,1,3.44-1h.44a2.83,2.83,0,0,1,.52.08,3.44,3.44,0,0,1,.91.35,5.2,5.2,0,0,1,1.39,1.18,6.41,6.41,0,0,1,1,1.44,2.86,2.86,0,0,1,.27.93c0,.27.06.55.07.84a3.86,3.86,0,0,1-1.13,3.23,3,3,0,0,1-3.19.48,2.94,2.94,0,0,0,2.86-.81,3.45,3.45,0,0,0,.63-2.83c0-.25-.09-.51-.14-.77a1.68,1.68,0,0,0-.25-.61,5.86,5.86,0,0,0-.94-1.15A2.93,2.93,0,0,0,102,40a5.56,5.56,0,0,0-2.74.89,6.67,6.67,0,0,0-1.15.91c-.18.18-.34.36-.53.56A7.49,7.49,0,0,1,97,43a5.58,5.58,0,0,1-3.36,1.49,7.53,7.53,0,0,1-3.5-.73,4.06,4.06,0,0,0-2.74-.38,5.05,5.05,0,0,0-2.47,1.41,13.44,13.44,0,0,1-2.6,2.17,22.38,22.38,0,0,0-2.63,1.83,6,6,0,0,0-1.8,2.45,4.72,4.72,0,0,0,0,3C78.47,56.3,79.34,58.3,80.07,60.35Z"/><path class="cls-7" d="M100.91,46.43a1.17,1.17,0,0,1,.94-.68,3.62,3.62,0,0,0,1.12-.29,2,2,0,0,0,1.28-1.66c.34-1.61-1.53-2.4-2.86-2.34a2.9,2.9,0,0,0-1.86.83,3.68,3.68,0,0,0-.65.85l-.57,1a5.42,5.42,0,0,1-1.7,1.91,5.16,5.16,0,0,1-2.5.85c-.44,0-.87,0-1.23,0l-1.16,0a15.19,15.19,0,0,0-2.25.26,10.37,10.37,0,0,0-2.14.64,7.11,7.11,0,0,0-1.86,1.06,8.42,8.42,0,0,0-2.32,3.63A5.77,5.77,0,0,0,83,56.71l-1.45.2.14-2.23a10.57,10.57,0,0,1,.44-2.31,8,8,0,0,1,2.63-3.95,9.41,9.41,0,0,1,4.3-1.9,13.6,13.6,0,0,1,4.59,0A9.94,9.94,0,0,1,98,48.18a8,8,0,0,1,2.74,3.68,13.58,13.58,0,0,1,.58,2.16,10.09,10.09,0,0,0,.74,2,5.86,5.86,0,0,0,1.16,1.8,3.6,3.6,0,0,0,1.89,1,3.74,3.74,0,0,1-2-.85,6.34,6.34,0,0,1-1.36-1.78,10.57,10.57,0,0,1-.91-2.06,14,14,0,0,0-.72-2,7.31,7.31,0,0,0-2.61-3.19,9,9,0,0,0-3.94-1.29c-2.78-.32-5.78.08-7.84,1.84a6.92,6.92,0,0,0-2.13,3.31,8.9,8.9,0,0,0-.36,2L83,57l-.25,4.46-1.2-4.27a6.06,6.06,0,0,1-.36-1.28,6.6,6.6,0,0,1,0-1.33,10,10,0,0,1,.55-2.5,9.84,9.84,0,0,1,2.79-4.24C87.4,45.72,91,45.56,94,45.78a4.07,4.07,0,0,0,3.46-2.12l.61-1a4.85,4.85,0,0,1,.84-1,3.66,3.66,0,0,1,2.42-.95,4.19,4.19,0,0,1,2.41.82,2.24,2.24,0,0,1,.82,1,2.47,2.47,0,0,1,.05,1.29A2.11,2.11,0,0,1,104.1,45a2.7,2.7,0,0,1-1,.67,3.53,3.53,0,0,1-1.19.19A1.13,1.13,0,0,0,100.91,46.43Z"/><path class="cls-8" d="M104.37,59.08a4.14,4.14,0,0,1-2-.76,5.1,5.1,0,0,1-1.43-1.7,28.11,28.11,0,0,1-1.82-4,5.59,5.59,0,0,0-2.58-3,9.43,9.43,0,0,0-4-.86,8.57,8.57,0,0,0-4,.73,6.73,6.73,0,0,0-2.82,2.7A7.49,7.49,0,0,0,84.63,56a28.47,28.47,0,0,0,.31,4.23l-1.45,0,.28-2.74a25.25,25.25,0,0,1,.45-2.72A6.08,6.08,0,0,1,88,50.26a7.64,7.64,0,0,1,2.92-.47,10.43,10.43,0,0,1,5.5,1.59,11.88,11.88,0,0,1,1.16.85,4.89,4.89,0,0,1,1,1.15c.53.8.92,1.57,1.38,2.36l.67,1.18a5.76,5.76,0,0,0,.74,1,4.63,4.63,0,0,0,4.51,1.42A6.63,6.63,0,0,0,107.1,59l1.24-.54,2.49-1.08q2.49-1.08,5-2.13-2.4,1.29-4.81,2.53L108.6,59l-1.2.63a7,7,0,0,1-1.34.5,5.54,5.54,0,0,1-5.41-1.48,6.59,6.59,0,0,1-.92-1.13L99,56.35c-.48-.75-.94-1.57-1.44-2.26a4.16,4.16,0,0,0-.8-.86,9.26,9.26,0,0,0-1-.73,8.94,8.94,0,0,0-2.32-1,9.09,9.09,0,0,0-2.49-.31,6.51,6.51,0,0,0-2.4.4,4.62,4.62,0,0,0-2.85,3.49c-.17.81-.32,1.73-.44,2.62L85,60.37l-.63,5.75-.83-5.72a30.16,30.16,0,0,1-.3-4.45,8.78,8.78,0,0,1,1.35-4.48A7.87,7.87,0,0,1,88,48.33a9.77,9.77,0,0,1,4.54-.66,15.18,15.18,0,0,1,2.23.33,7.46,7.46,0,0,1,2.16.82,6.19,6.19,0,0,1,2.77,3.59,29,29,0,0,0,1.51,4.05A4.36,4.36,0,0,0,104.37,59.08Z"/><path class="cls-9" d="M146,33.19a19.38,19.38,0,0,0-10.31-1.53,17.4,17.4,0,0,0-9.19,4.68,35.22,35.22,0,0,0-6.34,8.3,95.24,95.24,0,0,0-4.62,9.47c-.36.81-.72,1.62-1.13,2.43a10.46,10.46,0,0,1-.71,1.23,7.13,7.13,0,0,1-1,1,10.81,10.81,0,0,1-4.9,2.65,8,8,0,0,1-5.59-.74,11.32,11.32,0,0,1-4-3.91,10.1,10.1,0,0,0-3.44-3.55,8.29,8.29,0,0,0-2.21-1,5.34,5.34,0,0,0-2.32,0,5.71,5.71,0,0,0-3.73,2.6,2.42,2.42,0,0,0-.32,1c0,.39,0,.85,0,1.27,0,.86,0,1.71.1,2.57h0l-1.44-.19.78-2.1a12,12,0,0,1,.94-2.16,5.69,5.69,0,0,1,1.72-1.87,6,6,0,0,1,2.37-.9,8.66,8.66,0,0,1,4.76.76A10.19,10.19,0,0,1,99,56.32c1,1.18,1.83,2.37,2.78,3.48a9.67,9.67,0,0,0,1.46,1.47A4.28,4.28,0,0,0,105,62a5.43,5.43,0,0,0,3.83-.8c1.25-.74,2.42-1.75,3.75-2.43-1.18.92-2.1,2.08-3.26,3.1a6.65,6.65,0,0,1-2,1.3,3.93,3.93,0,0,1-1.24.23,6.62,6.62,0,0,1-1.25-.08,5.48,5.48,0,0,1-2.33-1,10.49,10.49,0,0,1-1.71-1.68c-1-1.15-1.9-2.35-2.82-3.49a8.92,8.92,0,0,0-3.14-2.64,7.3,7.3,0,0,0-4-.63,4.11,4.11,0,0,0-3,2.08A11.67,11.67,0,0,0,86.94,58l-.77,2.1L85,63.25l-.28-3.39h0a24.64,24.64,0,0,1-.09-2.72c0-.46,0-.88.05-1.38a4,4,0,0,1,.51-1.54,7.13,7.13,0,0,1,4.7-3.29,6.63,6.63,0,0,1,2.94,0,7,7,0,0,1,1.38.48A11.11,11.11,0,0,1,99.32,56a13.43,13.43,0,0,0,1.53,2,8.42,8.42,0,0,0,1.93,1.5,6.62,6.62,0,0,0,4.67.63,9.47,9.47,0,0,0,4.32-2.32,7.71,7.71,0,0,0,.86-.83,8.43,8.43,0,0,0,.64-1c.41-.76.79-1.55,1.17-2.34a97.28,97.28,0,0,1,4.92-9.44,36.12,36.12,0,0,1,6.71-8.28,17.77,17.77,0,0,1,9.53-4.54A19.53,19.53,0,0,1,146,33.19Z"/><path class="cls-10" d="M104.22,64a6.65,6.65,0,0,0,1.53-.17l1.51-.29,3-.62c2-.39,4-.79,6.08-1.14q6.09-1.08,12.26-1.74A88.54,88.54,0,0,1,141,59.52a32.55,32.55,0,0,1,6.2.77,11.79,11.79,0,0,1,3,1.12,3.67,3.67,0,0,1,2,2.35,3.73,3.73,0,0,0-2.14-2A11.2,11.2,0,0,0,147.1,61a37.32,37.32,0,0,0-6.08-.32c-4.08.07-8.16.42-12.24.85s-8.16.92-12.24,1.41l-6.14.71-3.08.28A14,14,0,0,1,104.22,64Z"/><path class="cls-11" d="M121.13,60.41a10,10,0,0,0-4.21-.21,9.1,9.1,0,0,0-3.73,1.72c-.56.4-1,.9-1.66,1.38a8.73,8.73,0,0,1-2,1.06,11.46,11.46,0,0,1-2.2.56c-.37,0-.75.09-1.12.11a4.79,4.79,0,0,0-.89.08l.14-1.2a7.37,7.37,0,0,0,3.8,1.14,5.55,5.55,0,0,0,1-.11l1.06-.21c.71-.15,1.41-.33,2.11-.52s1.39-.4,2.22-.54a7.85,7.85,0,0,1,2.42,0,9.3,9.3,0,0,1,2.29.67c.36.16.7.34,1,.53a5.25,5.25,0,0,1,.56.34,3.67,3.67,0,0,1,.49.46c1,1.23,1.76,2.45,2.65,3.6a11.14,11.14,0,0,0,3,3,3.51,3.51,0,0,0,3.81,0,11.42,11.42,0,0,0,3-3.07,10.26,10.26,0,0,1-2.76,3.5,4.07,4.07,0,0,1-4.53.4c-2.83-1.51-4.38-4.37-6.19-6.43a2.15,2.15,0,0,0-.72-.5c-.31-.15-.62-.31-.94-.43a7.62,7.62,0,0,0-1.94-.55,6.57,6.57,0,0,0-2,0c-.62.1-1.34.35-2.07.53s-1.45.35-2.18.51l-1.11.21a8,8,0,0,1-1.22.12A8.35,8.35,0,0,1,104.74,65l-1.23-.77,1.37-.43a2.81,2.81,0,0,1,.71-.1h.53c.34,0,.68,0,1-.07a10.16,10.16,0,0,0,2-.39,7.67,7.67,0,0,0,1.82-.83c.54-.34,1.11-.85,1.74-1.25a9,9,0,0,1,4.16-1.49A9.41,9.41,0,0,1,121.13,60.41Z"/><path class="cls-12" d="M130.42,79.12c0-.61-.55-.77-1-.91a14.25,14.25,0,0,0-1.53-.35c-1-.2-2.13-.38-3.2-.61a20.24,20.24,0,0,1-3.22-.93c-.27-.12-.53-.24-.8-.39s-.61-.34-.78-.67a4.78,4.78,0,0,1-.34-1.75,5.14,5.14,0,0,0-1.09-2.9,8.74,8.74,0,0,0-2.46-2,3.68,3.68,0,0,0-3-.52,4.76,4.76,0,0,0-1.47.61,5.87,5.87,0,0,0-1.17,1.12,22.38,22.38,0,0,1-5.07,4.28,8.53,8.53,0,0,1-6.41,1.18,10.85,10.85,0,0,1-5.36-3.77c-.72-.84-1.37-1.74-2-2.64l-1-1.36c-.34-.41-.63-.95-1.17-1.12.54.17.84.7,1.19,1.11l1,1.35a32,32,0,0,0,2,2.62,10.78,10.78,0,0,0,5.34,3.68,8.3,8.3,0,0,0,6.27-1.23,22.36,22.36,0,0,0,5-4.28,8,8,0,0,1,1.2-1.19,5,5,0,0,1,1.55-.71,4.46,4.46,0,0,1,1.71-.13,3.85,3.85,0,0,1,1.62.59,9.32,9.32,0,0,1,2.65,2.12,5.82,5.82,0,0,1,1.27,3.18,4.33,4.33,0,0,0,.28,1.48.58.58,0,0,0,.52.29c.25,0,.51.08.78.11,1.07.14,2.17.25,3.25.47a17.44,17.44,0,0,1,3.25.89,6.89,6.89,0,0,1,1.55.84,2.53,2.53,0,0,1,.65.69A.8.8,0,0,1,130.42,79.12Z"/><path class="cls-13" d="M91.27,61.14a1.35,1.35,0,0,1,.82,1,1.5,1.5,0,0,1-.42,1.26,1.28,1.28,0,0,1-1.34.38,1.44,1.44,0,0,1-.6-.43,1.43,1.43,0,0,0-.11-.12l-.08-.06L89.29,63a19.82,19.82,0,0,0-4.49-2.07,6.16,6.16,0,0,0-1.15-.23,5.19,5.19,0,0,0-.56,0l-.63,0c-.84.06-1.68.12-2.5.21-.42,0-.82.1-1.22.16a3.87,3.87,0,0,0-1,.25.33.33,0,0,0,.13-.28c0-.21-.06-.18,0-.16a3.89,3.89,0,0,0,.37.31c.32.23.69.47,1,.74l-1.11.47a1.12,1.12,0,0,0,0-.31c0-.14-.08-.3-.13-.46-.1-.32-.22-.65-.34-1-.23-.66-.49-1.32-.75-2l-.77-2-.38-1a6.6,6.6,0,0,1-.32-1.18,2.3,2.3,0,0,1,.07-.76c0-.19.08-.39.14-.58A5.29,5.29,0,0,1,76.13,52a5,5,0,0,1,1.65-1.82,8.92,8.92,0,0,1,4.41-1.33,9.83,9.83,0,0,1,4.46.91l3.86,1.78,1.93.91a5.73,5.73,0,0,0,1.88.74,1.28,1.28,0,0,0,.82-.35,3.62,3.62,0,0,1,.83-.7,4.76,4.76,0,0,1,2.08-.61,5.21,5.21,0,0,0-1.89.88,6.54,6.54,0,0,0-.73.75,1.68,1.68,0,0,1-1.09.5,3.29,3.29,0,0,1-1.13-.23l-1-.3-2-.66c-1.35-.46-2.7-.94-4-1.49a8.44,8.44,0,0,0-3.85-.72,7.79,7.79,0,0,0-3.66,1.12,3.62,3.62,0,0,0-1.17,1.32,4.19,4.19,0,0,0-.34.85c0,.14-.07.3-.11.45a2,2,0,0,0,0,.3,7.55,7.55,0,0,0,.24.87l.35,1,.75,2c.25.66.51,1.33.75,2q.18.51.33,1c0,.19.1.37.14.57a2.25,2.25,0,0,1,.06.75l-.09,1.24-1-.77-1-.76a3.81,3.81,0,0,1-.57-.53A1.06,1.06,0,0,1,76.6,61a.93.93,0,0,1,.48-.78,4.17,4.17,0,0,1,1.47-.41c.45-.05.88-.09,1.31-.11.86-.05,1.71-.07,2.56-.09h.63a5.94,5.94,0,0,1,.72,0,6.81,6.81,0,0,1,1.31.35,17.56,17.56,0,0,1,4.52,2.53,2.39,2.39,0,0,1,.26.21,2.09,2.09,0,0,1,.15.15l.09.13a1,1,0,0,0,.39.34.93.93,0,0,0,1-.22,1.32,1.32,0,0,0,.46-1A1.26,1.26,0,0,0,91.27,61.14Z"/><path class="cls-14" d="M72.25,62.72a.91.91,0,0,0,.73.05,4.89,4.89,0,0,0,.65-.26,7.72,7.72,0,0,1,1.54-.6,3.54,3.54,0,0,1,1.89,0,1.82,1.82,0,0,1,1.36,1.34,3,3,0,0,0-1.5-.18c-.43.07-.88.19-1.38.32a7.37,7.37,0,0,1-1.66.28,2.37,2.37,0,0,1-1-.15A.93.93,0,0,1,72.25,62.72Z"/><path class="cls-15" d="M67.54,85.39a6.34,6.34,0,0,1-1.22-5.31,12.08,12.08,0,0,1,2.79-4.85c.59-.71,1.2-1.39,1.71-2.08a3.5,3.5,0,0,0,.55-1,.58.58,0,0,0-.13-.65,2.78,2.78,0,0,0-.91-.55A6,6,0,0,1,69,70.23a1.94,1.94,0,0,1-.65-.81,1.67,1.67,0,0,1,0-1.14,4.17,4.17,0,0,1,.85-1.43,8,8,0,0,0,.77-.88A1.82,1.82,0,0,0,70,65a3.06,3.06,0,0,0-.28-1A2.55,2.55,0,0,0,69,63.2c-.63-.53-1.42-1-2.22-1.61a2.94,2.94,0,0,1-.6-.65,1.59,1.59,0,0,1-.27-1.17,1.88,1.88,0,0,1,.52-1,3.85,3.85,0,0,1,.63-.54A13.64,13.64,0,0,1,69.67,57a6.4,6.4,0,0,1,3-.33,4.5,4.5,0,0,1,2.56,1.44,12.58,12.58,0,0,1,.87,1.09,3,3,0,0,0,.93,1,2.62,2.62,0,0,1-1.16-.75c-.34-.31-.68-.61-1-.87a4.08,4.08,0,0,0-2.29-.88,8.27,8.27,0,0,0-4.62,1.79,1.49,1.49,0,0,0-.55.57s.07.21.39.46c.61.5,1.45.94,2.22,1.58A4,4,0,0,1,71,63.3a4.28,4.28,0,0,1,.45,1.59,3.29,3.29,0,0,1-.27,1.73,2.72,2.72,0,0,1-.55.72c-.16.15-.3.31-.44.47a2.87,2.87,0,0,0-.58.88.25.25,0,0,0,0,.19.51.51,0,0,0,.2.24,4.6,4.6,0,0,0,1,.58,3.81,3.81,0,0,1,1.36.93,1.77,1.77,0,0,1,.44.92,2.08,2.08,0,0,1-.09,1,4.65,4.65,0,0,1-.81,1.35c-.61.75-1.26,1.38-1.88,2.05a12.48,12.48,0,0,0-3,4.32A6.29,6.29,0,0,0,67.54,85.39Z"/><path class="cls-16" d="M79.31,65.58a2.44,2.44,0,0,1-1.38.22,4.41,4.41,0,0,0-1.31.17,3.44,3.44,0,0,0-2,1.41,2.64,2.64,0,0,0-.38,1.08l0,.31,0,.41c0,.22-.08.43-.1.64a26.47,26.47,0,0,0,0,2.7,7.4,7.4,0,0,1-.59,3A5.71,5.71,0,0,0,73,77.88a7.91,7.91,0,0,1-.43,3A11.09,11.09,0,0,1,71.1,83.4l.08-.15c-.63,1.54-1.05,3.19-1.67,4.83a10.32,10.32,0,0,1-1.21,2.36,6.81,6.81,0,0,1-1.91,1.8,7.7,7.7,0,0,0,1.47-2.06,12,12,0,0,0,.82-2.36,49.41,49.41,0,0,1,1.27-5l0-.06,0-.09a11.05,11.05,0,0,0,1.19-2.28,6.69,6.69,0,0,0,.3-2.49,7,7,0,0,1,.59-3,6.91,6.91,0,0,0,.57-2.43,17.82,17.82,0,0,1,.24-2.83,5.65,5.65,0,0,1,.17-.71l.06-.28.07-.37a3.43,3.43,0,0,1,.68-1.44,4,4,0,0,1,2.63-1.4,4.33,4.33,0,0,1,1.44.07A2.48,2.48,0,0,0,79.31,65.58Z"/><path class="cls-17" d="M100.64,67.79a1.93,1.93,0,0,0,0-1.09,1.23,1.23,0,0,0-.72-.76,6.21,6.21,0,0,0-2.15-.4,21,21,0,0,1-2.22-.2,3.3,3.3,0,0,1-1.1-.39,1.33,1.33,0,0,1-.63-1,3.51,3.51,0,0,1,.2-1.15,6.41,6.41,0,0,0,.21-1.06,7.23,7.23,0,0,0-2-5.89,7.6,7.6,0,0,0-1.68-1.31c-.61-.33-1.32-.59-2-.88a35.26,35.26,0,0,0-4.11-1.52,9.25,9.25,0,0,0-2.11-.28,5.78,5.78,0,0,0-2,.2,1.4,1.4,0,0,0-.88,1.35,9.43,9.43,0,0,0,.11,2.1l-.68-.4a.48.48,0,0,1,.27-.22.63.63,0,0,1,.25,0,.7.7,0,0,1,.45.27,1,1,0,0,1,.16.3.9.9,0,0,1,0,.12c0,.11,0,.11,0,.12l0,0c-.06,0-.14.26-.23.78a.77.77,0,0,1-1.12-.26,1,1,0,0,1-.1-.31.83.83,0,0,1,0-.23s0,0,0,0a.76.76,0,0,0,.12.23.66.66,0,0,0,.39.22l.16,0c.06,0,0-.08-.06-.12l-.68-.4a10.57,10.57,0,0,1-.06-2.33A3,3,0,0,1,78.94,52a2.07,2.07,0,0,1,1.1-.84,6.48,6.48,0,0,1,2.37-.2,9.25,9.25,0,0,1,2.27.35A32.53,32.53,0,0,1,88.87,53c.67.31,1.36.58,2,1a8.61,8.61,0,0,1,1.78,1.46,8,8,0,0,1,2,4.08,7.58,7.58,0,0,1,0,2.28c-.05.76-.47,1.48-.47,2.13s.74,1,1.43,1.17,1.45.2,2.19.28a6.66,6.66,0,0,1,2.18.51,1.35,1.35,0,0,1,.72.83A2.1,2.1,0,0,1,100.64,67.79Z"/><path class="cls-18" d="M160.56,52.9a6.57,6.57,0,0,1-3.34,2.86,12,12,0,0,1-4.42.78,38,38,0,0,1-8.74-1.17c-2.84-.63-5.64-1.4-8.43-1.92a13.43,13.43,0,0,0-8.26,1.13,11.48,11.48,0,0,1,8.43-2.35,83.08,83.08,0,0,1,8.59,1.69,54,54,0,0,0,8.43,1.48,12.93,12.93,0,0,0,4.17-.32A7,7,0,0,0,160.56,52.9Z"/><path class="cls-19" d="M115.84,56a17.72,17.72,0,0,1,3.26-3,19.43,19.43,0,0,1,3.87-2.2,21.64,21.64,0,0,1,4.25-1.34c.72-.14,1.49-.25,2.18-.35s1.39-.28,2.08-.45C137,47.22,142.42,45,148,43.28s11.28-3.27,17.17-3a17.16,17.16,0,0,1,8.38,2.36,14.73,14.73,0,0,1,5.56,6.59,14.85,14.85,0,0,0-5.71-6.34,16.94,16.94,0,0,0-8.25-2.08,36.87,36.87,0,0,0-8.55,1,81.08,81.08,0,0,0-8.32,2.36c-5.5,1.81-10.82,4.1-16.47,5.73-1.42.41-2.92.62-4.25,1a41.11,41.11,0,0,0-4,1.33c-1.31.51-2.61,1.09-3.89,1.72S117.11,55.29,115.84,56Z"/><path class="cls-20" d="M136.46,77s.09-1.37,1.07-1.64c0,0,.51-.36.75-.23"/><path class="cls-21" d="M138.38,74.91c.05,0,1.06-.76,1.08-1s-2.13,1.49-2.13,1.49"/><path class="cls-22" d="M85.53,68.31a1.58,1.58,0,0,0-1.34-.14A4.42,4.42,0,0,0,83,68.8a4.78,4.78,0,0,1-1.38.67,3.2,3.2,0,0,1-.83.13,2,2,0,0,1-1-.21l.77-1.22c.46.24,1,.5,1.48.72a10.4,10.4,0,0,0,1.55.61,3.09,3.09,0,0,0,1.68,0,.93.93,0,0,0,.67-.47C86,68.76,85.76,68.48,85.53,68.31Zm0,0a.86.86,0,0,1,.45.75,1.24,1.24,0,0,1-.63.7,4.45,4.45,0,0,1-1.85.65,5.28,5.28,0,0,1-2-.18,5.82,5.82,0,0,1-1.78-.85l.77-1.22a1.33,1.33,0,0,0,.36.14,3.13,3.13,0,0,0,.57.08,4.85,4.85,0,0,0,1.29-.12A7.87,7.87,0,0,1,84.17,68,2.06,2.06,0,0,1,85.53,68.31Z"/><path class="cls-23" d="M82.45,67.29l1.18-.65a11.73,11.73,0,0,0,1.1-.64c.34-.21.62-.58.81-.62l0,0s.08-.08.12-.11.18-.15.3-.22a1.79,1.79,0,0,1,.79-.29l.08.13a3.07,3.07,0,0,1,0,.74,1.75,1.75,0,0,1,0,.33.77.77,0,0,1,0,.17c0,.09-.1.18-.16.27a2.28,2.28,0,0,1-1.42.69,13.21,13.21,0,0,1-1.35.24,10,10,0,0,1-1.32.07Z"/><path class="cls-24" d="M49.24,118.23c-.29-1-.59-2-.91-3A8,8,0,0,0,47,112.49a2.5,2.5,0,0,0-1.17-.73,4.61,4.61,0,0,0-1.44-.07,14.38,14.38,0,0,0-3,.7c-1,.32-2,.69-2.94,1.07a9.32,9.32,0,0,1-3.28.62,11.29,11.29,0,0,1-6.25-2.1,14.88,14.88,0,0,1-4.48-4.82,6.62,6.62,0,0,1-.66-1.65,2.44,2.44,0,0,1,0-1.15,1.41,1.41,0,0,1,.48-.71,1.38,1.38,0,0,1,.76-.27,1.14,1.14,0,0,1,.32,0h.18l.34,0a4.76,4.76,0,0,0,.66-.06,2.76,2.76,0,0,0,1.17-.46,10.77,10.77,0,0,0,2-2.1c.34-.41.69-.82,1.08-1.22s.79-.74,1.11-1.09a3.76,3.76,0,0,0,.43-.51c.14-.15.14-.38.16-.16a.39.39,0,0,0,.15.19s0,0-.06,0h-.1c.14,0,.12,0,.13,0h0a8.24,8.24,0,0,1-.83.12A2.42,2.42,0,0,1,30.7,98a1.07,1.07,0,0,1-.41-.28,1,1,0,0,1-.22-.55,1.32,1.32,0,0,1,.16-.71,1.72,1.72,0,0,0,.11-.25s-.06,0,.06.27a.53.53,0,0,0,.44.28H31a2,2,0,0,0-.47.28l-1,.81.06-1.29a.85.85,0,0,0-.07-.36s0,0,0,0,0,0,0,0a4.54,4.54,0,0,1-.78.2,1,1,0,0,1-.71-.25,1.32,1.32,0,0,1-.36-.51,2,2,0,0,1-.07-1c0-.26.09-.54.11-.69h0s0,0,0,.1a.43.43,0,0,0,.29.24c.32.05.3,0,.32,0h0l-.16.13a1,1,0,0,1-.22.14,2.35,2.35,0,0,1-.87.23,2.69,2.69,0,0,1-1.65-.42,2.14,2.14,0,0,1-.91-1.46A3,3,0,0,0,24,91.74,2,2,0,0,0,23.1,91L23,91l0,0a5.23,5.23,0,0,0-2.67-.72,7.76,7.76,0,0,0-2.83.6,4.91,4.91,0,0,0-2.21,1.87,4,4,0,0,0-.52,1.37c0,.24-.09.48-.12.73a1.24,1.24,0,0,1-.2.7,1.32,1.32,0,0,0,.19-.7,6.26,6.26,0,0,1,.1-.74,4.05,4.05,0,0,1,.49-1.39,5.06,5.06,0,0,1,2.22-2,7.11,7.11,0,0,1,2.87-.87,5.56,5.56,0,0,1,3,.59l-.1,0a2.83,2.83,0,0,1,2,2.37,1.43,1.43,0,0,0,1.68,1.09,1.4,1.4,0,0,0,.5-.15.22.22,0,0,0,.07-.06.5.5,0,0,0,.12-.1l.13-.1a.57.57,0,0,1,.49-.09.58.58,0,0,1,.35.31.67.67,0,0,1,.05.19,1.28,1.28,0,0,1,0,.18l-.08.73a1,1,0,0,0,0,.46.15.15,0,0,0,.05.06l-.05,0s.25-.12.59-.21a1.19,1.19,0,0,1,.67,0,1.16,1.16,0,0,1,.58.45,2.07,2.07,0,0,1,.29,1l-1-.47a2.72,2.72,0,0,1,.88-.53.76.76,0,0,1,.31,0,.71.71,0,0,1,.59.37.88.88,0,0,1,.06.66,3,3,0,0,1-.19.48c0,.06,0,.13,0,0a.37.37,0,0,0-.16-.26,1.66,1.66,0,0,0,.47,0c.23,0,.45-.07.73-.12h.12a.72.72,0,0,1,.18,0h.09a1.43,1.43,0,0,1,.32.07,1.06,1.06,0,0,1,.71.69,1.22,1.22,0,0,1-.05.83,3.06,3.06,0,0,1-.24.48,5.92,5.92,0,0,1-.56.7c-.39.44-.79.79-1.11,1.14s-.67.75-1,1.15a12,12,0,0,1-2.33,2.41,4.2,4.2,0,0,1-1.73.69,4.76,4.76,0,0,1-.91.09l-.45,0h-.21s-.06,0-.07,0,0,0,0,0,.06-.07.06-.06a1,1,0,0,0,0,.41,5.05,5.05,0,0,0,.51,1.26,13.87,13.87,0,0,0,4,4.38,10.1,10.1,0,0,0,5.47,2,8,8,0,0,0,2.9-.41c1-.33,2-.66,3-.94a15.81,15.81,0,0,1,3.18-.59,4.7,4.7,0,0,1,1.69.21,3.1,3.1,0,0,1,1.39,1,8.2,8.2,0,0,1,1.21,3C48.88,116.16,49.05,117.19,49.24,118.23Z"/><path class="cls-25" d="M88.71,146.31l1.15.15a7.37,7.37,0,0,0,1.15,0,3.12,3.12,0,0,0,2-1,3.67,3.67,0,0,0,.83-2.08,7.52,7.52,0,0,0-.11-2.27l0-.16h.17a11.81,11.81,0,0,0,3.91-1.07,39.54,39.54,0,0,0,3.68-1.85c2.39-1.36,4.69-2.87,7-4.44,4.51-3.15,8.91-6.49,13.17-10l.3-.24.29.26a7.69,7.69,0,0,0,2.46,1.24,26.32,26.32,0,0,0,2.8.78c1.9.44,3.84.76,5.79,1,3.89.54,7.81.9,11.74,1.2q11.78.87,23.61,1.12h.53l.13.62a.85.85,0,0,0,.14.3.87.87,0,0,0,.32.24,2,2,0,0,0,1.08.13,11,11,0,0,0,4.9-2.1A4.48,4.48,0,0,0,177,126a7,7,0,0,1,1.79-2.65,16.78,16.78,0,0,1,2.43-1.85l.32-.19.21-.16a3.38,3.38,0,0,0,.41-.43,6.58,6.58,0,0,0,.71-1.09,4.16,4.16,0,0,0,.26-.58,2.38,2.38,0,0,0,.08-.26c0-.05,0-.19.05.09a.52.52,0,0,0,.51.31l-.13.06a3.46,3.46,0,0,0-.47.34l-.95-1.11a7.39,7.39,0,0,0,.78-.8,2.08,2.08,0,0,0,.42-.69s0,0,0,.06a.61.61,0,0,0,.05.12.47.47,0,0,0,.2.23c.39.21.46,0,.4.1a2.41,2.41,0,0,0-.36.23,10.05,10.05,0,0,0-.85.76l-1.11-1a10.73,10.73,0,0,0,.78-1.2,3,3,0,0,0,.41-1.06s0,0,0,.09l.1.08a.4.4,0,0,0,.23.08.41.41,0,0,0,.24,0,3,3,0,0,0-.28.31,8.89,8.89,0,0,0-.75,1.19l-1.27-.77a5.56,5.56,0,0,0,1.05-2.59c0-.07,0-.06,0-.07s0,0,0,0a.3.3,0,0,0,.08.16s.14.15.26.17a1,1,0,0,0,.23,0l.08,0a3.27,3.27,0,0,0-.44.4,12.61,12.61,0,0,0-1,1.2l-1.16-.89A3.13,3.13,0,0,0,181,112s0,0,0,0a.54.54,0,0,0,0,.08.53.53,0,0,0,.15.15.55.55,0,0,0,.28.11.78.78,0,0,0,.23,0l.09,0,0,0a1.48,1.48,0,0,0-.19.21c-.16.19-.32.42-.48.65l-.94,1.44a62,62,0,0,1-4,5.75,19.2,19.2,0,0,1-5.34,4.79,7.66,7.66,0,0,1-3.63,1c-.64,0-1.2-.08-1.81-.12l-1.75-.25c-9.22-1.67-18.06-4.45-27-7.07l-6.66-2-3.33-1c-1.11-.31-2.22-.67-3.31-.86a20.82,20.82,0,0,0-6.77.17,50.25,50.25,0,0,0-6.69,1.65,123.56,123.56,0,0,0-12.91,5l-6.34,2.86a51.38,51.38,0,0,1-6.47,2.54,52.08,52.08,0,0,0,6.38-2.73l6.27-3A125.76,125.76,0,0,1,109.73,116a45.75,45.75,0,0,1,6.76-1.79,21.63,21.63,0,0,1,7.05-.27,35.08,35.08,0,0,1,3.43.84l3.35.94,6.68,1.9c4.46,1.27,8.91,2.52,13.38,3.71s9,2.34,13.48,3.09l1.69.23c.55,0,1.13.1,1.65.11a6.43,6.43,0,0,0,3-.86,17.78,17.78,0,0,0,4.9-4.48,59.51,59.51,0,0,0,3.92-5.64l1-1.47c.17-.25.33-.49.54-.75a3.1,3.1,0,0,1,.41-.43l.2-.13a.7.7,0,0,1,.2-.08,1,1,0,0,1,.33,0,.86.86,0,0,1,.38.15,1,1,0,0,1,.22.24.71.71,0,0,1,.09.17l0,.12a4.11,4.11,0,0,1,0,2.09,5,5,0,0,1-.9,1.84l-1.15-.88a13.88,13.88,0,0,1,1.08-1.35,3.64,3.64,0,0,1,.78-.68,1.19,1.19,0,0,1,.46-.17.82.82,0,0,1,.42,0,.84.84,0,0,1,.42.29,1.19,1.19,0,0,1,.18.33,1.07,1.07,0,0,1,0,.21,1.42,1.42,0,0,1,0,.34,5.08,5.08,0,0,1-.45,1.84,9.25,9.25,0,0,1-.86,1.57l-1.26-.77a10.17,10.17,0,0,1,.89-1.42,2.4,2.4,0,0,1,.83-.75,1.09,1.09,0,0,1,.6-.11,1.46,1.46,0,0,1,.41.16,1.22,1.22,0,0,1,.23.22,1.31,1.31,0,0,1,.26.82,3.9,3.9,0,0,1-.6,1.82,12.64,12.64,0,0,1-.91,1.38l-1.11-1a8.61,8.61,0,0,1,1-.88,3.36,3.36,0,0,1,.68-.42l.13,0,.2,0h.29a.84.84,0,0,1,.38.14.86.86,0,0,1,.37.62,1.18,1.18,0,0,1,0,.37,3,3,0,0,1-.76,1.45,8.7,8.7,0,0,1-1,1l-1-1.1a4.23,4.23,0,0,1,.72-.51,1.87,1.87,0,0,1,.54-.22,1.15,1.15,0,0,1,.52,0,.92.92,0,0,1,.61.53,1.35,1.35,0,0,1,0,.8,3.35,3.35,0,0,1-.13.44,5.16,5.16,0,0,1-.34.75,7.32,7.32,0,0,1-.89,1.35,3.83,3.83,0,0,1-.6.61,3.18,3.18,0,0,1-.37.27l-.31.19c-1.58,1-3.1,2.17-3.68,3.8a10.18,10.18,0,0,1-.61,1.43,4.51,4.51,0,0,1-1.07,1.3,9.93,9.93,0,0,1-2.7,1.58,10.29,10.29,0,0,1-3,.84,3.37,3.37,0,0,1-1.78-.27,2.11,2.11,0,0,1-1.22-1.67l.66.62c-4-.09-7.9-.25-11.85-.45s-7.9-.45-11.83-.8-7.88-.78-11.8-1.37c-2-.31-3.91-.66-5.85-1.13a26.56,26.56,0,0,1-2.89-.85,8.4,8.4,0,0,1-2.76-1.47l.59,0c-4.34,3.44-8.77,6.75-13.39,9.8-2.31,1.52-4.66,3-7.1,4.3a39.06,39.06,0,0,1-3.75,1.79,11.76,11.76,0,0,1-4,1L94,141a7.47,7.47,0,0,1,.06,2.36,4,4,0,0,1-.93,2.14,3.24,3.24,0,0,1-2.1,1,9,9,0,0,1-1.16,0Z"/><path class="cls-26" d="M37.23,118.89a52.25,52.25,0,0,1,9.2,1.76,51.75,51.75,0,0,1,8.8,3.35c.69.39,1.4.73,2.07,1.15s1.35.83,2,1.18a26.5,26.5,0,0,0,4.23,1.7,64.91,64.91,0,0,0,9.05,2.05,45.65,45.65,0,0,1-4.67-.36,38.58,38.58,0,0,1-4.62-.83,22.59,22.59,0,0,1-4.51-1.52l-2.09-1.08c-.67-.37-1.38-.66-2.06-1C51.83,124,48.94,123,46,121.89S40.2,119.87,37.23,118.89Z"/><path class="cls-27" d="M75.9,132.79a8.11,8.11,0,0,1-3,.78,26.3,26.3,0,0,1-3.07.15,48.25,48.25,0,0,1-6.12-.5,62.17,62.17,0,0,1-11.92-2.94c-1.95-.71-3.78-1.54-5.66-2.29s-3.75-1.51-5.64-2.22-3.79-1.43-5.71-2c-.47-.15-1-.29-1.44-.4a4.49,4.49,0,0,0-.71-.1,4.36,4.36,0,0,1-.79,0A2.79,2.79,0,0,1,29.83,121a2.71,2.71,0,0,0,2.1,1.83,3.89,3.89,0,0,0,.73,0,4.21,4.21,0,0,1,.8,0c.52.06,1,.15,1.53.26,2,.43,4,1,5.9,1.63,3.87,1.22,7.7,2.74,11.44,4.15A87,87,0,0,0,64,132c2,.39,4,.72,5.95.94A16.08,16.08,0,0,0,75.9,132.79Z"/><path class="cls-28" d="M18.66,90.32a8.82,8.82,0,0,0-5.43-3.15,6.8,6.8,0,0,0-5.48,2.52,7.83,7.83,0,0,0-2.08,5.66,11.41,11.41,0,0,0,1.9,5.84,9.18,9.18,0,0,0,.95,1.19,7.65,7.65,0,0,0,1.15,1,26.31,26.31,0,0,0,2.75,1.59,60.51,60.51,0,0,1,5.78,3.13,11.2,11.2,0,0,1,2.61,2.28l.5.77.4.68c.27.45.56.9.86,1.35a43.8,43.8,0,0,1,3.49,5.62,5.86,5.86,0,0,1,.58,3.61l-.13.49-.22.45a3.45,3.45,0,0,0-.27.6,2.74,2.74,0,0,0,0,1.27,11.65,11.65,0,0,0,3.18,5.12,13,13,0,0,0,5.17,3.28,7.51,7.51,0,0,0,3,.32c.94-.07,2-.46,3.14-.62a11.7,11.7,0,0,1,6.69.46A10.66,10.66,0,0,1,52,138.36c1.08,1.82,2.34,3.71,4.42,4.3a8.79,8.79,0,0,0,3.16.26,29.37,29.37,0,0,0,3.23-.4c-2.1.48-4.29,1-6.5.52a6.1,6.1,0,0,1-2.89-1.68,17,17,0,0,1-2-2.61,10,10,0,0,0-4.52-4.15,10.78,10.78,0,0,0-6.12-.2c-1,.18-2,.59-3.22.74a8.64,8.64,0,0,1-3.47-.33,14.21,14.21,0,0,1-5.76-3.55,16.52,16.52,0,0,1-2.17-2.61,9.93,9.93,0,0,1-1.45-3.18,4.13,4.13,0,0,1,0-2c.27-.85.55-1,.58-1.47a4.46,4.46,0,0,0-.5-2.69,42.16,42.16,0,0,0-3.33-5.45c-.3-.46-.59-.93-.88-1.41l-.41-.73-.38-.59a9.51,9.51,0,0,0-2.26-2,61.69,61.69,0,0,0-5.62-3.12A22.85,22.85,0,0,1,9,104.35a8.92,8.92,0,0,1-1.32-1.16,9.63,9.63,0,0,1-1-1.38,12.49,12.49,0,0,1-1.89-6.45A9.75,9.75,0,0,1,5.35,92a9.48,9.48,0,0,1,1.87-2.83A9.31,9.31,0,0,1,10,87.27a5.94,5.94,0,0,1,3.3-.49A8.65,8.65,0,0,1,18.66,90.32Z"/><path class="cls-29" d="M17.12,92.14a13,13,0,0,0-2.66-.76,7.24,7.24,0,0,0-2.7-.08,2.81,2.81,0,0,0-2,1.42,2.36,2.36,0,0,0-.24.59,1.88,1.88,0,0,0-.15.63c0,.21-.06.43-.08.64l0,.67a14.37,14.37,0,0,0,1.39,5.19c.73,1.68,1.6,3.31,2.41,5,.41.84.8,1.71,1.14,2.61a8.24,8.24,0,0,1,.57,2.95,2.87,2.87,0,0,1-.11.81l-.09.41-.09.3a7.36,7.36,0,0,0-.25,1.24,7.18,7.18,0,0,0,.17,2.53A5.16,5.16,0,0,0,17.23,120a4,4,0,0,0,1.13.28l.61,0h.72a24.67,24.67,0,0,1,2.86.19,34.07,34.07,0,0,1,5.56,1.14A19.64,19.64,0,0,1,33.37,124a8.63,8.63,0,0,1,2.21,2A17.11,17.11,0,0,1,37,128.56c.79,1.7,1.51,3.39,2.32,5a19.09,19.09,0,0,0,2.89,4.56,4.89,4.89,0,0,0,2.06,1.46,4.66,4.66,0,0,0,2.51,0c1.73-.41,3.27-1.54,5-2.26a7.29,7.29,0,0,1,2.76-.61,7.37,7.37,0,0,1,2.71.64,7.18,7.18,0,0,0-2.71-.41,7,7,0,0,0-2.6.74c-1.64.79-3.09,2-5,2.61a5.39,5.39,0,0,1-3,.12,5.79,5.79,0,0,1-2.49-1.61,20.8,20.8,0,0,1-3.24-4.69c-.89-1.65-1.68-3.34-2.48-5a15.18,15.18,0,0,0-1.29-2.31,7.45,7.45,0,0,0-1.9-1.66A25.24,25.24,0,0,0,22.37,122c-.9-.11-1.8-.17-2.69-.19H19l-.79,0a5.33,5.33,0,0,1-1.56-.39A6.54,6.54,0,0,1,13,116.59a8.64,8.64,0,0,1-.14-3,7.6,7.6,0,0,1,.33-1.47l.11-.36.06-.27a1.69,1.69,0,0,0,.08-.56,7.28,7.28,0,0,0-.44-2.49c-.28-.84-.63-1.69-1-2.53-.74-1.68-1.56-3.36-2.24-5.11a14.93,14.93,0,0,1-1.25-5.54l0-.73c0-.24.09-.48.14-.72a2.31,2.31,0,0,1,.21-.71,3.47,3.47,0,0,1,.33-.67,3.31,3.31,0,0,1,2.46-1.52A10.25,10.25,0,0,1,17.12,92.14Z"/><path class="cls-30" d="M16.08,94a22.58,22.58,0,0,0-6.44,2.13,8.64,8.64,0,0,0-4.45,4.67,8.39,8.39,0,0,0,.84,6.3,12.94,12.94,0,0,0,4,5.13,11.67,11.67,0,0,0,6.09,2,26.68,26.68,0,0,0,3.34,0,11,11,0,0,1,1.82,0,6.05,6.05,0,0,1,1,.2c.29.12.6.22.88.36a14.18,14.18,0,0,1,5.17,4.91,21.53,21.53,0,0,1,2.87,6.44,4.94,4.94,0,0,0,1.54,2.47,7.15,7.15,0,0,0,2.76,1.36,28.64,28.64,0,0,0,6.62.74c1.14,0,2.29.08,3.48.24a26,26,0,0,1,3.42.76,25.48,25.48,0,0,1,6.4,2.79,16.1,16.1,0,0,1,2.8,2.14c.43.38.84.95,1.18,1.25a3.59,3.59,0,0,0,1.26.83,6.77,6.77,0,0,0,3.15.41,14.61,14.61,0,0,0,3.24-.68,16.1,16.1,0,0,0,3.07-1.33c.25-.14.47-.3.71-.45a8.32,8.32,0,0,1,.78-.44,4.66,4.66,0,0,1,1.75-.37,7.79,7.79,0,0,1,3.37.78,8.74,8.74,0,0,1,2.8,2,8.65,8.65,0,0,0-2.89-1.75,7.7,7.7,0,0,0-3.26-.6,4.35,4.35,0,0,0-1.56.42,4.86,4.86,0,0,0-.68.43c-.24.17-.47.35-.72.5a16.75,16.75,0,0,1-3.12,1.54,14.28,14.28,0,0,1-3.41.83,7.72,7.72,0,0,1-3.58-.37,4.67,4.67,0,0,1-1.6-1c-.51-.46-.76-.83-1.21-1.2a15.14,15.14,0,0,0-2.67-1.93,27.61,27.61,0,0,0-6.16-2.52,23.07,23.07,0,0,0-3.26-.69c-1.07-.14-2.2-.16-3.34-.2a29.7,29.7,0,0,1-7-.72,8.46,8.46,0,0,1-3.33-1.62,6.36,6.36,0,0,1-2-3.22,20.09,20.09,0,0,0-2.63-6A12.94,12.94,0,0,0,22.5,116c-.23-.11-.47-.19-.7-.29a6.53,6.53,0,0,0-.71-.16,9.43,9.43,0,0,0-1.59,0,31.43,31.43,0,0,1-3.5,0,13.64,13.64,0,0,1-3.5-.68,11.42,11.42,0,0,1-3.18-1.68,13.88,13.88,0,0,1-4.15-5.67,12.42,12.42,0,0,1-1-3.37,7.32,7.32,0,0,1,.35-3.56,9.17,9.17,0,0,1,5-4.77A20.92,20.92,0,0,1,16.08,94Z"/><path class="cls-31" d="M75.43,75.08a42.94,42.94,0,0,1-.5,6,20.83,20.83,0,0,1-1.64,5.82,8.67,8.67,0,0,1-.79,1.35,5.05,5.05,0,0,1-.49.63l-.28.3-.2.23a7.66,7.66,0,0,0-1.09,2.54,23.66,23.66,0,0,0-.63,5.78,93.37,93.37,0,0,0,1,11.76c.26,2,.55,3.93.74,5.93a30,30,0,0,1,.18,3,6.76,6.76,0,0,1-.19,1.54,1.82,1.82,0,0,1-.36.74,1,1,0,0,1-.76.31v-.15c.5-.06.68-.52.72-1a6.27,6.27,0,0,0,0-1.43c-.12-1-.31-1.94-.51-2.9q-.64-2.91-1.19-5.86a54.8,54.8,0,0,1-.91-12,25.94,25.94,0,0,1,.89-6,8.7,8.7,0,0,1,1.37-2.87c.08-.1.22-.23.3-.31l.24-.24a4.51,4.51,0,0,0,.45-.53,8.09,8.09,0,0,0,.77-1.19A22.12,22.12,0,0,0,74.43,81a42.93,42.93,0,0,0,.85-5.88Z"/></g></svg>