<svg xmlns="http://www.w3.org/2000/svg" xmlns:xlink="http://www.w3.org/1999/xlink" viewBox="0 0 192 192"><defs><style>.cls-1{fill:url(#linear-gradient);}</style><linearGradient id="linear-gradient" x1="21.97" y1="93.84" x2="178.43" y2="93.84" gradientUnits="userSpaceOnUse"><stop offset="0.21" stop-color="#039be5"/><stop offset="0.24" stop-color="#1193dd"/><stop offset="0.43" stop-color="#5c6ab2"/><stop offset="0.6" stop-color="#974991"/><stop offset="0.74" stop-color="#c13278"/><stop offset="0.85" stop-color="#db236a"/><stop offset="0.91" stop-color="#e51e64"/><stop offset="1" stop-color="#e91e63"/></linearGradient></defs><title>Artboard 7</title><g id="Layer_17" data-name="Layer 17"><path class="cls-1" d="M50.79,177.28A22.08,22.08,0,0,0,60,165a28.78,28.78,0,0,0-.08-15.46,46.17,46.17,0,0,0-3-7.21,29.47,29.47,0,0,0-4.34-6.44,13.91,13.91,0,0,0-2.9-2.47,9,9,0,0,0-1.67-.83c-.56-.21-1.2-.37-1.86-.56a18.6,18.6,0,0,1-3.76-1.57,6.5,6.5,0,0,1-2.95-3.08,2.91,2.91,0,0,1,.24-2.36,4.92,4.92,0,0,1,1.4-1.76,2.12,2.12,0,0,1,1.26-.42,2.26,2.26,0,0,1,1.25.39,5.73,5.73,0,0,1,1.52,1.6,10.87,10.87,0,0,1,1.64,3.84,8.18,8.18,0,0,1-.25,4.22,8.84,8.84,0,0,1-.87,1.93,5.83,5.83,0,0,1-.65.92,3,3,0,0,1-3.48.68,13.36,13.36,0,0,1-1.82-1,15.63,15.63,0,0,1-5.32-6.23,23,23,0,0,1-1.41-3.84,32,32,0,0,1-.74-4,35.2,35.2,0,0,1-.1-8.08,17.93,17.93,0,0,1,.92-4,7.06,7.06,0,0,1,2.58-3.58,4,4,0,0,1,2.36-.62,5.64,5.64,0,0,1,2.23.67,12.67,12.67,0,0,1,3.22,2.75l0,0,0,0,3.3,5.09.2.32.1.16.14.22.34.65a7,7,0,0,0,.76,1.11.94.94,0,0,0,.3.27.41.41,0,0,0-.22,0,.27.27,0,0,0-.18.1,3,3,0,0,0,.24-1,53.65,53.65,0,0,0-.05-5.93l-.2-6.08L48,97.37c0-1-.1-2-.05-3.06s.06-2,.12-3.06c.2-4.06.56-8.12,1.11-12.16a74.44,74.44,0,0,1,2.55-12,30.25,30.25,0,0,1,2.44-5.77,14.92,14.92,0,0,1,1.9-2.64,25.06,25.06,0,0,1,2.4-2.09A18.28,18.28,0,0,1,64,53.4a6.62,6.62,0,0,1,3.52-.18,6.21,6.21,0,0,1,3,1.85,15.73,15.73,0,0,1,3.21,5.57A19.55,19.55,0,0,1,75,66.89a8.87,8.87,0,0,1-.58,3.35,4.91,4.91,0,0,1-2.52,2.65,7.66,7.66,0,0,1-3.39.53,26.1,26.1,0,0,1-3.13-.32,35.48,35.48,0,0,0-5.89-.61,22.53,22.53,0,0,0-5.75.8,46.16,46.16,0,0,0-10.84,4.82c-.86.5-1.71,1-2.56,1.55l-1.27.81-.63.41a1.72,1.72,0,0,0-.45.38,13,13,0,0,1-5.52,3.36A5.8,5.8,0,0,1,29,84.46a6.51,6.51,0,0,1-2.7-2.13,16.33,16.33,0,0,1-2.51-5.84,50.36,50.36,0,0,1-1.41-12.21,57.57,57.57,0,0,1,1.34-12.2,44.27,44.27,0,0,1,1.72-5.91,20.9,20.9,0,0,1,2.91-5.52l-.06.09A21.85,21.85,0,0,1,39.87,31.8a28.6,28.6,0,0,1,14.6-.66c1.22.24,2.35.51,3.61.87a25.49,25.49,0,0,1,3.29,1.69A42,42,0,0,1,67.3,38a54.6,54.6,0,0,1,9.58,11,67.62,67.62,0,0,1,6.74,12.93A79.64,79.64,0,0,1,87.36,76a58.75,58.75,0,0,1,.75,7.26,11.29,11.29,0,0,0,2.21,6.58,10.36,10.36,0,0,0,2.44,2.5,5,5,0,0,0,3.18,1,6.17,6.17,0,0,0,3.15-1.23,14.3,14.3,0,0,0,2.55-2.43l0-.06,0,0A4.28,4.28,0,0,1,103.8,89a2.17,2.17,0,0,1,1.9,1.15,7.42,7.42,0,0,1,.43,4l-.33,3.89-.16,2a1.12,1.12,0,0,0,.7,1.18,3.52,3.52,0,0,0,.85.29,3.86,3.86,0,0,1,1,.46,2.83,2.83,0,0,1,.8.78,3.76,3.76,0,0,1,.45,1,9.58,9.58,0,0,1,.4,2,7.21,7.21,0,0,1,0,1,2.34,2.34,0,0,0,0,.84,1.55,1.55,0,0,0,.41.69l.6.76,1.21,1.53a2.7,2.7,0,0,1,.5,1l.24.94a16.58,16.58,0,0,0,.51,1.81,1.94,1.94,0,0,0,1.1,1.11,4.3,4.3,0,0,0,1.74.08,12.2,12.2,0,0,0,3.6-1,33.11,33.11,0,0,0,6.47-4.13A27.4,27.4,0,0,1,133,106.3a10.31,10.31,0,0,1,4-.59,15.93,15.93,0,0,1,4,.73,31.12,31.12,0,0,1,3.71,1.4,13.57,13.57,0,0,1,3.48,2.07,13.19,13.19,0,0,1,4.16,6.87,24.06,24.06,0,0,1,.6,8,13.13,13.13,0,0,1-2.88,7.54,15.94,15.94,0,0,1-3,2.72c-1.06.8-2.16,1.53-3.28,2.23a77,77,0,0,1-6.92,3.75c-2.37,1.14-4.77,2.16-7.13,3.22s-4.72,2.16-7.07,3.26c-9.39,4.44-18.68,9.11-27.91,13.9l-1.72.9-.87.45-.77.48-3.3,2.07-3.31,2.07-.83.52-.41.26c-.14.08-.25.16-.47.28a3.44,3.44,0,0,1-2.61.28,3.52,3.52,0,0,1-2.08-1.57,3.46,3.46,0,0,1-.38-2.61,19,19,0,0,1,1.44-3.85c1.18-2.35,2.28-4.65,3.4-7A86.65,86.65,0,0,1,90.66,140a133.39,133.39,0,0,1,9.94-12.15,48.39,48.39,0,0,0,4.57-6.09,20.78,20.78,0,0,0,1.64-3.31,7.52,7.52,0,0,0,.57-3.31,2.71,2.71,0,0,0-.16-.72,1,1,0,0,0-.25-.46,1.31,1.31,0,0,0-.94-.4c-.33,0-.56,0-1.09,0a3.47,3.47,0,0,1-3-2.71,4,4,0,0,1,0-1.33,1.23,1.23,0,0,0,0-.52,1.26,1.26,0,0,0-.67-.75l-.26-.1a2.86,2.86,0,0,1-.69-.28,2.52,2.52,0,0,1-1.12-1.29,4.35,4.35,0,0,1,0-2.61l.07-.29.39-.35a1.17,1.17,0,0,0,.07-1.58,5.41,5.41,0,0,0-.84-1.09l-.61-.62a3.87,3.87,0,0,1-.66-1,2.86,2.86,0,0,1,0-2.64,5,5,0,0,1,1.5-1.6,9.74,9.74,0,0,1,1.65-.93q.42-.2.84-.36l.44-.16.22-.08.11,0a22,22,0,0,0,5.47-3.27,9.16,9.16,0,0,0,3.29-4.85,6,6,0,0,0-.1-2.8,4.37,4.37,0,0,0-.22-.7c-.09-.23-.18-.46-.29-.68-.27-.56-.29-.64-.66-.93l-5.26-4.21L94.1,67.32,83.57,58.89a36.38,36.38,0,0,1-4.41-5.52Q77.21,50.6,75.4,47.7A81,81,0,0,1,69,35.61a31.06,31.06,0,0,1-2-6.7,14.26,14.26,0,0,1-.16-3.65,8.25,8.25,0,0,1,1.23-3.67l-.08.14a15.68,15.68,0,0,1,1.59-2.52A19.8,19.8,0,0,1,71.5,17a22.27,22.27,0,0,1,4.56-3.53A24.83,24.83,0,0,1,87,10.26a32.49,32.49,0,0,1,5.67.16,17.56,17.56,0,0,1,2.86.47,23.06,23.06,0,0,1,2.74.89,30,30,0,0,1,9.51,6.16,39.21,39.21,0,0,1,6.89,8.91,5.15,5.15,0,0,1,.52,1.62,7.15,7.15,0,0,1,.06,1.6,7,7,0,0,1-1,3,11.33,11.33,0,0,1-4.36,4,26,26,0,0,1-5.26,2.17c-1.82.55-3.6.9-5.3,1.43a21.82,21.82,0,0,0-4.85,2,5.48,5.48,0,0,0-1.76,1.54,1.6,1.6,0,0,0-.3.85,1,1,0,0,0,.05.39,1.22,1.22,0,0,0,.14.3l.08.11,0,0a12.78,12.78,0,0,0,2.66,3.22c1,.88,2.27,1.36,3.28.85a6,6,0,0,0,1.54-1.23c.55-.55,1.15-1,1.73-1.54,1.18-1,2.4-1.88,3.62-2.77,4.94-3.52,10.07-6.7,15.28-9.75l-.11.08a5.46,5.46,0,0,1,5.39-.72,10.1,10.1,0,0,1,4.08,3.28c1.05,1.37,1.88,2.75,2.79,4.13q.68,1,1.32,2.1c.22.36.43.72.63,1.11a2.39,2.39,0,0,1,.16.32,2.18,2.18,0,0,1,.08.24.62.62,0,0,1,0,.39A.61.61,0,0,1,135,46a.79.79,0,0,1-.23.11h-.2a.66.66,0,0,1-.28-.08,1.39,1.39,0,0,1-.4-.32l-.24-.25,1.07-.67a3.67,3.67,0,0,0,1.21,1.48,1.77,1.77,0,0,0,1.67.17,3.65,3.65,0,0,0,.87-.46c.3-.21.5-.42.88-.72a3.08,3.08,0,0,1,2.67-.66,4.72,4.72,0,0,1,2.21,1.41A12.86,12.86,0,0,1,145.65,48a28.76,28.76,0,0,1,2.11,4.23c.3.72.57,1.44.85,2.19a3.09,3.09,0,0,1,.12,1.36l-.09,1.17a43.17,43.17,0,0,1-.66,4.64,14.43,14.43,0,0,1-.66,2.32c-.08.19-.17.38-.27.58l-.32.5a1.61,1.61,0,0,0-.22.85,6.69,6.69,0,0,0,1.89,3.72l-.14-.09a4.94,4.94,0,0,1,2,2.75,9,9,0,0,1,.39,3.24c0,.54-.1,1.07-.16,1.6s-.22,1.1-.29,1.53a6.56,6.56,0,0,0,.44,2.87,24.58,24.58,0,0,0,2.94,5.39,61.85,61.85,0,0,0,3.8,4.91q2,2.37,4.19,4.62c.72.75,1.44,1.49,2.18,2.22l1.12,1.09a8,8,0,0,0,1.22.9,13.42,13.42,0,0,0,5.79,2,12.58,12.58,0,0,0,6.05-1l.08.21a13,13,0,0,1-6.16,1.06,13.8,13.8,0,0,1-6-1.91,7.26,7.26,0,0,1-1.3-.94l-1.14-1.07c-.75-.73-1.5-1.46-2.23-2.2-1.47-1.49-2.9-3-4.27-4.58s-2.7-3.2-3.92-4.91a24.84,24.84,0,0,1-3.11-5.51,7.33,7.33,0,0,1-.52-3.24c.09-.6.18-1,.27-1.55s.13-1,.12-1.51a8.16,8.16,0,0,0-.39-2.92,4.18,4.18,0,0,0-1.59-2.19l-.09,0,0-.05a10.91,10.91,0,0,1-1.44-1.95,5.16,5.16,0,0,1-.77-2.43,2.7,2.7,0,0,1,.36-1.37l.29-.48c.08-.15.15-.31.22-.47a13.2,13.2,0,0,0,.59-2.14,42.51,42.51,0,0,0,.6-4.53l.09-1.14a2,2,0,0,0-.08-.93c-.26-.7-.54-1.42-.84-2.12a27.34,27.34,0,0,0-2.05-4,12.34,12.34,0,0,0-1.34-1.74,3.51,3.51,0,0,0-1.64-1.06,1.84,1.84,0,0,0-1.64.45c-.23.18-.58.52-.92.75a5,5,0,0,1-1.16.64,3.31,3.31,0,0,1-1.41.19,3,3,0,0,1-1.35-.47,4.88,4.88,0,0,1-1.71-2l-1.82-3.74,2.88,3.07.18.19s.17.14.08.08a.44.44,0,0,0-.22,0,.34.34,0,0,0-.17,0,.61.61,0,0,0-.22.1.63.63,0,0,0-.24.35c0,.26,0,.21,0,.24s0,0,0,0l-.11-.24c-.18-.33-.39-.68-.6-1q-.64-1-1.32-2.07c-.9-1.34-1.79-2.78-2.75-4a8.73,8.73,0,0,0-3.52-2.82,4.13,4.13,0,0,0-2.08-.26,3.91,3.91,0,0,0-1.87.76l-.07,0,0,0c-5.15,3.06-10.24,6.27-15.07,9.78-1.2.88-2.39,1.79-3.52,2.74-.56.48-1.13,1-1.64,1.47a7.24,7.24,0,0,1-2,1.55,3.91,3.91,0,0,1-2.77.21,6.44,6.44,0,0,1-2.26-1.25,14.44,14.44,0,0,1-3.09-3.67l.1.14a3,3,0,0,1-.07-3.6,7.11,7.11,0,0,1,2.3-2.1A23.08,23.08,0,0,1,98.83,39c1.8-.58,3.62-.95,5.3-1.47a24.36,24.36,0,0,0,4.86-2,9.55,9.55,0,0,0,3.63-3.34,5.14,5.14,0,0,0,.68-2.19,4.84,4.84,0,0,0,0-1.14,3.06,3.06,0,0,0-.31-1,37.3,37.3,0,0,0-6.58-8.37,27.78,27.78,0,0,0-8.87-5.66A19.94,19.94,0,0,0,95,13a16.78,16.78,0,0,0-2.55-.4,31.49,31.49,0,0,0-5.31-.13,22.43,22.43,0,0,0-10,2.94,20.11,20.11,0,0,0-4.1,3.18,17.2,17.2,0,0,0-3,4.08l0,.1,0,.05a8.28,8.28,0,0,0-.72,5.74,29.33,29.33,0,0,0,1.85,6.2,78.53,78.53,0,0,0,6.23,11.73c1.18,1.89,2.42,3.75,3.7,5.57a38.53,38.53,0,0,0,4,5l10.54,8.42,10.55,8.42,5.27,4.21a4.38,4.38,0,0,1,.82.84,11.39,11.39,0,0,1,.86,1.79,5.37,5.37,0,0,1,.29.91,8.47,8.47,0,0,1,.12,3.88,11.35,11.35,0,0,1-4.09,6.13,24,24,0,0,1-6.09,3.62l-.27.1-.18.06-.36.13c-.24.09-.48.19-.71.3a8,8,0,0,0-1.29.72,2.7,2.7,0,0,0-.81.82.55.55,0,0,0,0,.59,2,2,0,0,0,.3.43l.57.58a7.51,7.51,0,0,1,1.19,1.58,3.79,3.79,0,0,1,.5,2.27,3.19,3.19,0,0,1-.41,1.24,3.29,3.29,0,0,1-.9,1l.46-.65a2.41,2.41,0,0,0-.08,1.24.24.24,0,0,0,.13.15.82.82,0,0,0,.21.08,4,4,0,0,1,.65.26,3.42,3.42,0,0,1,1.79,2.13,3.28,3.28,0,0,1,.08,1.41,1.56,1.56,0,0,0,0,.61,1.21,1.21,0,0,0,.58.79c.34.2.56.19,1.35.19a3.51,3.51,0,0,1,2.54,1.12,3.38,3.38,0,0,1,.7,1.22,5.05,5.05,0,0,1,.25,1.19,9.67,9.67,0,0,1-.7,4.31,22.78,22.78,0,0,1-1.84,3.66,48,48,0,0,1-4.79,6.37,132.11,132.11,0,0,0-9.86,12,84.11,84.11,0,0,0-7.71,13.34c-1.12,2.33-2.26,4.72-3.43,7a17.18,17.18,0,0,0-1.32,3.43A1.52,1.52,0,0,0,80,166.1a1.69,1.69,0,0,0,1,.72,1.49,1.49,0,0,0,1.17-.12,2.34,2.34,0,0,0,.37-.22l.42-.25.83-.51,3.32-2.05,3.32-2,.42-.26.48-.28.86-.45,1.74-.89C103.18,155,112.52,150.42,122,146q3.56-1.65,7.12-3.22c2.4-1,4.79-2,7.12-3.15s4.62-2.3,6.82-3.63c1.09-.67,2.16-1.38,3.19-2.13a14.49,14.49,0,0,0,2.78-2.49,11.73,11.73,0,0,0,2.63-6.79,23,23,0,0,0-.5-7.54,12,12,0,0,0-3.73-6.29,12.23,12.23,0,0,0-3.19-1.93,31.74,31.74,0,0,0-3.57-1.39,11.45,11.45,0,0,0-7.33-.21,26.72,26.72,0,0,0-6.51,4,33.91,33.91,0,0,1-6.69,4.18,12.83,12.83,0,0,1-3.88,1.06,7,7,0,0,1-1,0,2.88,2.88,0,0,1-1.1-.18,2.85,2.85,0,0,1-1.58-1.58,17.41,17.41,0,0,1-.53-2l-.23-.94a2,2,0,0,0-.36-.72l-1.2-1.53-.61-.77a2.35,2.35,0,0,1-.55-1,3.1,3.1,0,0,1,0-1.09,7.06,7.06,0,0,0,0-.92,8.29,8.29,0,0,0-.37-1.82,2.12,2.12,0,0,0-.92-1.35,2.71,2.71,0,0,0-.77-.36,4.14,4.14,0,0,1-1-.35,2.29,2.29,0,0,1-.86-.78,1.74,1.74,0,0,1-.25-1.18l.17-2,.34-3.88a6.75,6.75,0,0,0-.33-3.61,1.41,1.41,0,0,0-1.26-.78,3.57,3.57,0,0,0-1.67.45l.1-.08a15.19,15.19,0,0,1-2.7,2.55A6.84,6.84,0,0,1,96,94.06a5.73,5.73,0,0,1-3.62-1.12,11,11,0,0,1-2.61-2.67,12.09,12.09,0,0,1-2.32-7,52.33,52.33,0,0,0-.74-7.17,77.39,77.39,0,0,0-3.76-13.94,67.13,67.13,0,0,0-6.7-12.75,54.23,54.23,0,0,0-9.49-10.79,40.46,40.46,0,0,0-5.81-4.2,24.26,24.26,0,0,0-3.18-1.6c-1.07-.29-2.29-.58-3.45-.79a27.64,27.64,0,0,0-14.08.76A21.4,21.4,0,0,0,34,36.17a19.31,19.31,0,0,0-4.69,5.16l0,.05,0,0a19.64,19.64,0,0,0-2.66,5.2A42.26,42.26,0,0,0,25,52.37a56,56,0,0,0-1.19,11.9A49,49,0,0,0,25.28,76.1a15,15,0,0,0,2.28,5.23,4.85,4.85,0,0,0,2,1.57A4.18,4.18,0,0,0,32,83a11.26,11.26,0,0,0,4.69-3,3.52,3.52,0,0,1,.71-.6l.64-.42,1.28-.84c.86-.55,1.72-1.09,2.61-1.61a47.77,47.77,0,0,1,11.26-5,24.67,24.67,0,0,1,6.23-.89,38.74,38.74,0,0,1,6.18.62,22.43,22.43,0,0,0,2.9.29,5.82,5.82,0,0,0,2.55-.37c1.44-.6,2-2.4,2-4.25a17.77,17.77,0,0,0-1.12-5.6,13.81,13.81,0,0,0-2.8-4.87,4.2,4.2,0,0,0-2.07-1.29,4.59,4.59,0,0,0-2.47.16,16.34,16.34,0,0,0-4.92,2.83A20.66,20.66,0,0,0,57.49,60a11.9,11.9,0,0,0-1.65,2.27,27.38,27.38,0,0,0-2.29,5.38A72.82,72.82,0,0,0,51,79.35c-.56,4-.92,8-1.14,12l-.13,3c-.06,1,0,2,0,3l.18,6,.19,6.06.09,3a22.46,22.46,0,0,1-.08,3.16,6.83,6.83,0,0,1-.14.85,2.92,2.92,0,0,1-.44,1,1.34,1.34,0,0,1-1.72.43,2.94,2.94,0,0,1-.86-.7,9,9,0,0,1-.95-1.39l-.36-.69-.06-.11-.1-.15-.21-.32-3.28-5.11.07.09a10.91,10.91,0,0,0-2.74-2.38,2.77,2.77,0,0,0-2.91-.12,5.61,5.61,0,0,0-1.93,2.75,16.43,16.43,0,0,0-.87,3.66,33.06,33.06,0,0,0,0,7.7,29.71,29.71,0,0,0,.66,3.79,21.17,21.17,0,0,0,1.28,3.58,14.24,14.24,0,0,0,4.78,5.72,11.75,11.75,0,0,0,1.62.91,1.59,1.59,0,0,0,1.38,0c.45-.17.71-.53,1.06-1.1a7.75,7.75,0,0,0,.77-1.65,7.91,7.91,0,0,0-1.18-7,4.61,4.61,0,0,0-1.15-1.27,1,1,0,0,0-1.18,0,3.7,3.7,0,0,0-1,1.32,1.74,1.74,0,0,0-.2,1.45,5.4,5.4,0,0,0,2.44,2.5,16.87,16.87,0,0,0,3.51,1.5c.61.19,1.24.35,1.92.6a10.42,10.42,0,0,1,1.85.95,15.15,15.15,0,0,1,3.06,2.69,30.34,30.34,0,0,1,4.37,6.71,45.77,45.77,0,0,1,3,7.41,29.36,29.36,0,0,1-.16,15.78,22.49,22.49,0,0,1-9.54,12.35Z"/></g></svg>