<svg id="Layer_11" data-name="Layer 11" xmlns="http://www.w3.org/2000/svg" xmlns:xlink="http://www.w3.org/1999/xlink" viewBox="0 0 192 192"><defs><style>.cls-1{fill:url(#linear-gradient);}.cls-2{fill:url(#linear-gradient-2);}.cls-3{fill:url(#linear-gradient-3);}.cls-4{fill:url(#linear-gradient-4);}</style><linearGradient id="linear-gradient" x1="38.54" y1="94.45" x2="148.96" y2="94.45" gradientUnits="userSpaceOnUse"><stop offset="0.21" stop-color="#039be5"/><stop offset="0.24" stop-color="#1193dd"/><stop offset="0.43" stop-color="#5c6ab2"/><stop offset="0.6" stop-color="#974991"/><stop offset="0.74" stop-color="#c13278"/><stop offset="0.85" stop-color="#db236a"/><stop offset="0.91" stop-color="#e51e64"/><stop offset="1" stop-color="#e91e63"/></linearGradient><linearGradient id="linear-gradient-2" x1="41.08" y1="94.46" x2="151.41" y2="94.46" xlink:href="#linear-gradient"/><linearGradient id="linear-gradient-3" x1="2.72" y1="92.58" x2="190.13" y2="92.58" xlink:href="#linear-gradient"/><linearGradient id="linear-gradient-4" x1="35.19" y1="97.72" x2="154.82" y2="97.72" xlink:href="#linear-gradient"/></defs><title>Artboard 4</title><path class="cls-1" d="M88.41,153.85c-1.12,1.31-2.25,2.62-3.41,3.9s-2.39,2.5-3.62,3.73-2.54,2.37-3.82,3.56-2.68,2.24-4.08,3.31l-2.12,1.58c-.71.52-1.47,1-2.21,1.47s-1.51.95-2.29,1.39-1.55.9-2.37,1.3a32.67,32.67,0,0,1-5.1,2.16,24.23,24.23,0,0,1-2.82.74,12.06,12.06,0,0,1-1.52.24c-.27,0-.56,0-.84.06h-.72a3.14,3.14,0,0,1-.39,0l.25,0c-.47,0-.65-.07-.94-.11s-.51-.09-.75-.15a12.17,12.17,0,0,1-1.41-.42,13.31,13.31,0,0,1-2.61-1.24,15.53,15.53,0,0,1-4.15-3.79,18.38,18.38,0,0,1-2.61-4.68A25.68,25.68,0,0,1,39.5,162a38.58,38.58,0,0,1-.41-9.68,55,55,0,0,1,1.46-9.22,117.21,117.21,0,0,1,5.71-17.33c1.16-2.79,2.35-5.55,3.47-8.33s2.43-5.48,3.59-8.24c4.82-11,10-21.75,15.63-32.4,2.84-5.3,5.84-10.54,9.17-15.58l1.24-1.9,1.3-1.86q1.29-1.86,2.64-3.69c1.81-2.47,3.63-4.8,5.69-7.24l-.31.39c2.67-4,5.42-7.69,8.4-11.35a119,119,0,0,1,9.51-10.5A66.63,66.63,0,0,1,118,16a36.12,36.12,0,0,1,7-3.29,19.47,19.47,0,0,1,8.32-1,17.06,17.06,0,0,1,2.21.39,15.38,15.38,0,0,1,2.14.72,15.73,15.73,0,0,1,3.79,2.28,16.08,16.08,0,0,1,4.85,7c1.85,5.12,1.76,10.14,1.27,14.9a73.47,73.47,0,0,1-3,13.79,92.2,92.2,0,0,1-5.14,12.94l-.71-.27c1.09-4.45,2-8.93,2.71-13.4a90.73,90.73,0,0,0,1.16-13.35,43.48,43.48,0,0,0-.49-6.42,20.5,20.5,0,0,0-1.65-5.74,10.25,10.25,0,0,0-3.22-4,8.8,8.8,0,0,0-2.16-1.1,8.53,8.53,0,0,0-1.13-.3c-.41,0-.78-.14-1.19-.12a13.27,13.27,0,0,0-5.17,1,32,32,0,0,0-5.32,2.79,72.64,72.64,0,0,0-10,8.12c-3.18,3-6.26,6.26-9.21,9.62s-5.81,6.89-8.4,10.4l-.21.29-.1.1c-1.89,2-3.83,4.31-5.68,6.56S85,62.47,83.14,64.79s-3.57,4.68-5.37,7-3.5,4.76-5.15,7.21A163.23,163.23,0,0,0,55.5,110.1a141.32,141.32,0,0,0-9,34.05c-.21,1.43-.31,2.86-.48,4.28s-.22,2.82-.23,4.22a41,41,0,0,0,.46,8.13,16.41,16.41,0,0,0,2.56,6.85,8.89,8.89,0,0,0,2.32,2.3,6.94,6.94,0,0,0,1.38.77,6.77,6.77,0,0,0,.71.26l.34.09c.07,0,.26,0,.16,0l.25,0h0a.48.48,0,0,0,.18,0h.44a9.75,9.75,0,0,0,1-.1,18.06,18.06,0,0,0,2.18-.41c.74-.19,1.48-.39,2.23-.66a20.86,20.86,0,0,0,2.25-.81,67.67,67.67,0,0,0,8.82-4.39c1.45-.83,2.86-1.75,4.29-2.64s2.83-1.84,4.21-2.82,2.79-2,4.17-3,2.75-2,4.15-3Z"/><path class="cls-2" d="M102.07,153.3c1.4,1,2.79,2,4.15,3s2.8,1.95,4.16,3,2.83,1.87,4.22,2.82,2.84,1.81,4.28,2.64a68.3,68.3,0,0,0,8.82,4.39A22.52,22.52,0,0,0,130,170c.75.27,1.5.46,2.24.66a18.06,18.06,0,0,0,2.18.41c.36.06.68.07,1,.1h.44a.44.44,0,0,0,.17,0h0l.25,0c-.11,0,.09,0,.16,0l.34-.09c.23-.07.47-.16.71-.26a7.23,7.23,0,0,0,1.38-.77,8.71,8.71,0,0,0,2.31-2.3,16.42,16.42,0,0,0,2.57-6.85,41.76,41.76,0,0,0,.46-8.13c0-1.4-.15-2.81-.23-4.22s-.27-2.85-.48-4.28a141.2,141.2,0,0,0-9-34.05A163.5,163.5,0,0,0,117.33,79c-1.65-2.46-3.43-4.82-5.15-7.22s-3.53-4.72-5.36-7c-.91-1.16-1.81-2.32-2.73-3.47s-1.83-2.29-2.77-3.41c-1.84-2.25-3.78-4.53-5.67-6.55l-.1-.11L95.34,51c-2.59-3.51-5.48-7-8.39-10.38S80.94,34,77.77,31a72.33,72.33,0,0,0-10-8.11,32.45,32.45,0,0,0-5.31-2.82,13.86,13.86,0,0,0-5.16-1,8.19,8.19,0,0,0-2.33.4,5.09,5.09,0,0,0-1.12.46,5.16,5.16,0,0,0-1,.61,9.89,9.89,0,0,0-3.23,3.9,19.72,19.72,0,0,0-1.66,5.7,43.24,43.24,0,0,0-.46,6.4,87.64,87.64,0,0,0,1.24,13.3c.72,4.46,1.68,8.92,2.8,13.35l-.7.27a90.44,90.44,0,0,1-5.23-12.86A73.82,73.82,0,0,1,42.47,36.8c-.5-4.74-.62-9.77,1.26-14.89A15.85,15.85,0,0,1,48.64,15a12.34,12.34,0,0,1,1.83-1.25,12.3,12.3,0,0,1,2-1,15.59,15.59,0,0,1,4.33-1.06,19.81,19.81,0,0,1,8.29,1.09A36.1,36.1,0,0,1,72,16.09a67.6,67.6,0,0,1,11.39,9A118.41,118.41,0,0,1,92.9,35.57c3,3.66,5.72,7.34,8.38,11.33l-.31-.39c2.06,2.43,3.88,4.77,5.69,7.24.9,1.21,1.78,2.45,2.64,3.69s1.73,2.48,2.54,3.76c3.33,5,6.33,10.27,9.17,15.58q8.44,16,15.62,32.4,1.74,4.14,3.59,8.24c1.12,2.79,2.31,5.55,3.47,8.33a116.05,116.05,0,0,1,5.71,17.33,55,55,0,0,1,1.47,9.22,39.05,39.05,0,0,1-.41,9.68,25,25,0,0,1-1.39,4.92,18.18,18.18,0,0,1-2.6,4.68,15.57,15.57,0,0,1-4.16,3.79,13.5,13.5,0,0,1-2.6,1.24,10.93,10.93,0,0,1-1.41.42c-.24.06-.5.11-.76.15a9.13,9.13,0,0,1-.94.11l.25,0a3,3,0,0,1-.39,0h-.71a7.54,7.54,0,0,1-.84-.06,14.41,14.41,0,0,1-1.53-.23,26.22,26.22,0,0,1-2.81-.75,32.27,32.27,0,0,1-5.1-2.16c-.82-.4-1.6-.84-2.37-1.3s-1.56-.89-2.29-1.39-1.51-1-2.22-1.47l-2.12-1.58c-1.4-1.07-2.73-2.2-4.07-3.31s-2.58-2.35-3.82-3.56-2.45-2.46-3.62-3.73-2.29-2.59-3.41-3.9Z"/><path class="cls-3" d="M42.28,118.45A68.72,68.72,0,0,1,27.07,116a64,64,0,0,1-7.41-2.61,40.46,40.46,0,0,1-7-3.93,25.06,25.06,0,0,1-6.08-5.92c-.44-.6-.8-1.26-1.19-1.9s-.69-1.35-.95-2.07a18,18,0,0,1-.69-2.19l-.26-1.13c-.07-.39-.11-.87-.15-1.3a11.56,11.56,0,0,1,1-5.18,15,15,0,0,1,2.63-4,29,29,0,0,1,6.66-5.35,63.26,63.26,0,0,1,14.59-6.14,144.47,144.47,0,0,1,15-3.47c5-.92,10.07-1.7,15.1-2.46L60.16,68l1-.14c.4-.05.7-.05,1-.08l3.8-.23,7.59-.48c10.12-.59,20.24-1.42,30.42-1.86a198.18,198.18,0,0,1,30.69.79c2.56.27,5.13.66,7.7,1s5.14,1,7.71,1.48l3.85,1a37.84,37.84,0,0,1,3.79,1.13L161.38,72c1.23.43,2.43,1,3.64,1.46a70.71,70.71,0,0,1,14,7.59l1.65,1.23c.55.42,1.07.89,1.61,1.34A17.27,17.27,0,0,1,183.88,85c.5.53,1,1,1.49,1.57A22.5,22.5,0,0,1,188,90.24a16.07,16.07,0,0,1,1.08,2.2c.14.43.3.8.42,1.28,0,.24.11.47.16.72l.07.44,0,.24,0,.4v-.26a10.21,10.21,0,0,1-.19,2.45,14.1,14.1,0,0,1-.55,1.91,17.14,17.14,0,0,1-1.66,3.35l-1,1.47a16.16,16.16,0,0,1-1.13,1.33,22,22,0,0,1-2.44,2.39,43.49,43.49,0,0,1-11.11,6.56,79.09,79.09,0,0,1-11.89,3.59c-2,.38-4,.88-6,1.12s-4,.53-6.06.77l-.15-.74c1.92-.66,3.83-1.32,5.74-1.93,1-.29,1.9-.67,2.83-1l2.81-1,1.4-.53,1.36-.6,2.72-1.19c.92-.37,1.78-.84,2.65-1.29l2.61-1.34a42.36,42.36,0,0,0,9-6.7,15.11,15.11,0,0,0,1.71-2,11.82,11.82,0,0,0,.75-1l.61-1.07a11.78,11.78,0,0,0,.84-2.15,6.56,6.56,0,0,0,.22-1l0-.44a.74.74,0,0,0,0-.15v-.08a.2.2,0,0,0,0,.11l0-.27a.91.91,0,0,0,0,.17s0,0,0,0a0,0,0,0,1,0,0l-.07-.19c0-.14-.15-.34-.21-.5a8.41,8.41,0,0,0-.69-1.16,14.93,14.93,0,0,0-2-2.34,33.63,33.63,0,0,0-5.28-4.18A79.16,79.16,0,0,0,161.87,81c-1.14-.44-2.24-1-3.39-1.38L155,78.29c-1.16-.45-2.29-.78-3.44-1.14l-3.43-1.07c-2.37-.57-4.74-1.14-7.14-1.65s-4.84-.92-7.29-1.29-4.91-.7-7.39-1-5-.55-7.44-.79l-7.49-.68-7.51-.61a263,263,0,0,0-30.24-.62c-2.52.1-5,.22-7.55.42-1.26.09-2.51.21-3.76.33-.29,0-.62.06-.85.1l-.92.17-1.84.39c-4.92,1.06-9.77,2.41-14.55,4s-9.48,3.26-14,5.12a97.66,97.66,0,0,0-13,6.28,24.66,24.66,0,0,0-5.22,4,6.6,6.6,0,0,0-2.13,4.42c0,.19,0,.35,0,.58l.13.73a10.45,10.45,0,0,0,.36,1.44c.14.48.37.94.55,1.42s.46.92.74,1.36a21.59,21.59,0,0,0,4.36,5,37,37,0,0,0,5.82,4.06,61.84,61.84,0,0,0,6.55,3.32,115,115,0,0,0,14.1,5.17Z"/><path class="cls-4" d="M151.4,98.16A66.85,66.85,0,0,1,147.65,120a59.93,59.93,0,0,1-11.32,19.51A52.69,52.69,0,0,1,95,157.34c-1.93-.14-3.86-.34-5.77-.51-1.91-.33-3.8-.71-5.68-1.1s-3.68-1.12-5.5-1.68-3.53-1.48-5.29-2.21-3.34-1.81-5-2.69S64.59,147.06,63,146l-4.42-3.5-4.07-3.89A62.55,62.55,0,0,1,36.91,98.16,56.4,56.4,0,0,1,52.85,56a59.11,59.11,0,0,1,19.2-13.27,57.08,57.08,0,0,1,45.8.27c1.77.82,3.47,1.79,5.2,2.68s3.24,2.16,4.85,3.24,3,2.45,4.47,3.7,2.7,2.76,4,4.13a60.51,60.51,0,0,1,11.31,19.56A65.92,65.92,0,0,1,151.4,98.16Zm-.76,0a48.68,48.68,0,0,0-4.84-21,51.91,51.91,0,0,0-13-16.79l-4.12-3.24-4.37-2.85c-1.54-.8-3-1.65-4.58-2.41s-3.14-1.4-4.73-2A55,55,0,0,0,95,46.2a55.65,55.65,0,0,0-19.91,3.87,53.55,53.55,0,0,0-17.16,11A56,56,0,0,0,41.06,98.16a51.14,51.14,0,0,0,3.38,20.94,50.19,50.19,0,0,0,11.82,17.8c1.35,1.19,2.72,2.35,4.08,3.49s2.91,2.08,4.41,3.05,3.12,1.73,4.7,2.52,3.26,1.41,4.92,2A56.5,56.5,0,0,0,95,151a61.38,61.38,0,0,0,37.9-14.95,52.48,52.48,0,0,0,12.95-16.84A48.22,48.22,0,0,0,150.64,98.16Z"/></svg>