<svg xmlns="http://www.w3.org/2000/svg" xmlns:xlink="http://www.w3.org/1999/xlink" viewBox="0 0 192 192"><defs><style>.cls-1{fill:url(#linear-gradient);}.cls-2{fill:url(#linear-gradient-2);}.cls-3{fill:url(#linear-gradient-3);}.cls-4{fill:url(#linear-gradient-4);}.cls-5{fill:url(#linear-gradient-5);}.cls-6{fill:url(#linear-gradient-6);}.cls-7{fill:url(#linear-gradient-7);}.cls-8{fill:url(#linear-gradient-8);}.cls-9{fill:url(#linear-gradient-9);}.cls-10{fill:url(#linear-gradient-10);}.cls-11{fill:url(#linear-gradient-11);}.cls-12{fill:url(#linear-gradient-12);}.cls-13{fill:url(#linear-gradient-13);}.cls-14{fill:url(#linear-gradient-14);}.cls-15{fill:url(#linear-gradient-15);}.cls-16{font-size:12px;fill:#fff;font-family:MyriadPro-Regular, Myriad Pro;}.cls-17{letter-spacing:-0.01em;}.cls-18{letter-spacing:0em;}.cls-19{letter-spacing:0em;}.cls-20{letter-spacing:0em;}</style><linearGradient id="linear-gradient" x1="15.85" y1="36.9" x2="152.48" y2="36.9" gradientUnits="userSpaceOnUse"><stop offset="0.21" stop-color="#039be5"/><stop offset="0.25" stop-color="#1293dc"/><stop offset="0.43" stop-color="#5d6ab2"/><stop offset="0.6" stop-color="#984991"/><stop offset="0.74" stop-color="#c23278"/><stop offset="0.85" stop-color="#dc236a"/><stop offset="0.91" stop-color="#e61e64"/><stop offset="1" stop-color="#e91e63"/></linearGradient><linearGradient id="linear-gradient-2" x1="109.34" y1="59.53" x2="117.26" y2="59.53" xlink:href="#linear-gradient"/><linearGradient id="linear-gradient-3" x1="81.49" y1="90.23" x2="138.14" y2="90.23" xlink:href="#linear-gradient"/><linearGradient id="linear-gradient-4" x1="142.18" y1="23.56" x2="147.85" y2="23.56" xlink:href="#linear-gradient"/><linearGradient id="linear-gradient-5" x1="132.21" y1="61.66" x2="140.66" y2="61.66" xlink:href="#linear-gradient"/><linearGradient id="linear-gradient-6" x1="123.63" y1="71.35" x2="137.06" y2="71.35" xlink:href="#linear-gradient"/><linearGradient id="linear-gradient-7" x1="108.5" y1="153.68" x2="116.89" y2="153.68" xlink:href="#linear-gradient"/><linearGradient id="linear-gradient-8" x1="119.44" y1="148.86" x2="120.65" y2="148.86" xlink:href="#linear-gradient"/><linearGradient id="linear-gradient-9" x1="120.73" y1="63.5" x2="122.81" y2="63.5" xlink:href="#linear-gradient"/><linearGradient id="linear-gradient-10" x1="120.09" y1="95.56" x2="121.95" y2="95.56" xlink:href="#linear-gradient"/><linearGradient id="linear-gradient-11" x1="137.01" y1="32.34" x2="142.45" y2="32.34" xlink:href="#linear-gradient"/><linearGradient id="linear-gradient-12" x1="120.91" y1="28.9" x2="138.57" y2="28.9" xlink:href="#linear-gradient"/><linearGradient id="linear-gradient-13" x1="118.22" y1="27.72" x2="125.89" y2="27.72" xlink:href="#linear-gradient"/><linearGradient id="linear-gradient-14" x1="77.58" y1="128.63" x2="147.36" y2="128.63" xlink:href="#linear-gradient"/><linearGradient id="linear-gradient-15" x1="105.44" y1="86.34" x2="122.69" y2="86.34" xlink:href="#linear-gradient"/></defs><title>Artboard 13 copy</title><g id="Layer_25" data-name="Layer 25"><path class="cls-1" d="M16.1,66.76c9.6-5.06,19.2-10.14,28.83-15.13l7.22-3.77c1.19-.64,2.45-1.22,3.55-1.91a22.29,22.29,0,0,0,3.14-2.45c.5-.46,1-.92,1.47-1.39A8.15,8.15,0,0,1,62,40.85c1.2-.7,2.39-1.32,3.53-2a30.13,30.13,0,0,0,3.3-2.27,12.71,12.71,0,0,0,2.7-2.74l0-.08h0a8.53,8.53,0,0,1,3.32-2.36,4.65,4.65,0,0,1,2.13-.27,4.95,4.95,0,0,1,2.8,1.5l.68.73.62.66c.23.21.47.4.71.6A21.76,21.76,0,0,0,85,36.67a52.13,52.13,0,0,0,6.94,3.12c2.39.89,4.84,1.67,7.29,2.32l.08,0,0,0,16.1,9.29-.14-.05a3.13,3.13,0,0,0,2.47-.64,3.49,3.49,0,0,0,.93-2.46,10,10,0,0,0,0-1.44c-.09-.48-.16-1-.27-1.44a6,6,0,0,0-1.33-2.49,7.82,7.82,0,0,0-2.37-1.66L112,39.83l-5.33-2.89a6.75,6.75,0,0,1-2.32-2.06,5.12,5.12,0,0,1-1.06-2.94,5.54,5.54,0,0,1,.93-3,11.6,11.6,0,0,1,2.07-2.29A45.59,45.59,0,0,1,111.17,23,8.43,8.43,0,0,1,114,21.72a1.37,1.37,0,0,1,.87.15,1.12,1.12,0,0,1,.41.79,4.74,4.74,0,0,1-.23,1.57v-.14l2.52,5.36,1.24,2.69c.2.45.42.86.61,1.36a5.56,5.56,0,0,1,.25,1.53,49.65,49.65,0,0,0,.34,5.88,12.44,12.44,0,0,0,.77,2.78A7.79,7.79,0,0,0,122.38,46l0,0a3.38,3.38,0,0,0,1.7.63,1.08,1.08,0,0,0,.75-.25,3.81,3.81,0,0,0,.24-.32l.17-.41a6,6,0,0,0,.12-1.9,18.42,18.42,0,0,0-.25-2v-.06l.23-11.09,0-.58.47.3a11.57,11.57,0,0,1,3.87,4.09c.24.39.42.89.65,1.21a6.21,6.21,0,0,0,.79,1,18,18,0,0,0,2,1.74,48.41,48.41,0,0,0,4.58,3c1.58.91,3.2,1.77,4.83,2.57l-.14,0a12.29,12.29,0,0,0,1.92.07,4.49,4.49,0,0,0,1.74-.36.65.65,0,0,0,.37-.43,1.07,1.07,0,0,0-.15-.67,6,6,0,0,0-1.11-1.45l.06.05-6.51-4.72-1.39-1,1.72.06,7.06.26h0a3.18,3.18,0,0,0,1.09-.27.7.7,0,0,0,.3-.23l0,0v0s0-.08,0-.14a2.23,2.23,0,0,0-.57-.86,7,7,0,0,0-1-.84c-1.38-1-2.95-2.05-4.43-3.07s-3-2.09-4.41-3.18l-4.35-3.25-2.16-1.61,2.65.54a53.08,53.08,0,0,0,6.16.87,28.7,28.7,0,0,0,6.15-.08,10.15,10.15,0,0,0,2.83-.8,4.05,4.05,0,0,0,1.12-.77,3.43,3.43,0,0,0,.43-.5c.14-.2.27-.41.4-.62a4.83,4.83,0,0,0,.84-2.53.69.69,0,0,0-.56-.59,3.7,3.7,0,0,0-.61-.1h-.76l-4.46,0h-.13a63.21,63.21,0,0,0-11.52-1.42c-.48,0-1,0-1.44,0a8.4,8.4,0,0,1-1.57-.05,7.49,7.49,0,0,1-1.55-.39c-.51-.19-1-.42-1.39-.62a52.27,52.27,0,0,0-5.36-2.17c-.46-.15-.91-.27-1.36-.37-.23-.05-.45-.08-.66-.11s-.52-.06-.77-.1a15.21,15.21,0,0,1-2.92-.87,48.57,48.57,0,0,0-5.53-1.74,29,29,0,0,0-5.68-.86A18,18,0,0,0,102.1,9c-1,.13-2,.24-2.95.31a55.22,55.22,0,0,1-11.84-.38,7.12,7.12,0,0,1-.78-.18c-.23-.08-.43-.14-.67-.2-.46-.12-.93-.22-1.4-.3a27.89,27.89,0,0,0-2.87-.4A25.89,25.89,0,0,0,75.82,8a16,16,0,0,0-5.45,1.69A54.17,54.17,0,0,0,65.63,13l-9.4,7h0L40.7,29.12l-.06-.1L56,19.64l0,0,9.3-7.16,2.33-1.79A19.44,19.44,0,0,1,70,9a16.67,16.67,0,0,1,5.68-1.83,26.93,26.93,0,0,1,6-.16,29.35,29.35,0,0,1,3,.37c.49.09,1,.19,1.47.31.23,0,.51.14.74.21a4.89,4.89,0,0,0,.65.14,54.82,54.82,0,0,0,11.6.24C100,8.22,101,8.1,102,8a18,18,0,0,1,3-.18,30.05,30.05,0,0,1,5.92.83,51.07,51.07,0,0,1,5.69,1.72,13.82,13.82,0,0,0,2.7.8c.23,0,.44.07.68.09s.54.08.79.13c.51.11,1,.25,1.48.4A51.11,51.11,0,0,1,127.74,14c.46.21.89.43,1.3.57a5.82,5.82,0,0,0,1.29.33,6.74,6.74,0,0,0,1.36,0c.5,0,1,0,1.5,0A64.72,64.72,0,0,1,145,16.33l-.13,0,4.46,0h.82a5.44,5.44,0,0,1,.94.16,5,5,0,0,1,.48.21,3,3,0,0,1,.46.36,2,2,0,0,1,.48,1,5.65,5.65,0,0,1-1,3.39c-.14.24-.29.47-.45.71a4.23,4.23,0,0,1-.59.69,5.42,5.42,0,0,1-1.46,1,11.52,11.52,0,0,1-3.21.9,29.44,29.44,0,0,1-6.43.05A52,52,0,0,1,133,23.9l.5-1.07,4.32,3.26c1.44,1.09,2.88,2.18,4.38,3.18s3,2,4.47,3.13a9.56,9.56,0,0,1,1.07,1,3.13,3.13,0,0,1,.84,1.42,1.17,1.17,0,0,1,0,.53,1.23,1.23,0,0,1-.21.53,1.74,1.74,0,0,1-.74.61,4.2,4.2,0,0,1-1.52.38h-.05L139,36.51l.33-.95,6.46,4.79,0,0,0,0a6.62,6.62,0,0,1,1.27,1.72,2,2,0,0,1,.22,1.25,1.59,1.59,0,0,1-.86,1.06,5.24,5.24,0,0,1-2.14.45,12.93,12.93,0,0,1-2.06-.1h-.08l-.06,0q-2.48-1.24-4.86-2.65A48,48,0,0,1,132.7,39a17.56,17.56,0,0,1-2.12-1.85A6.93,6.93,0,0,1,129.7,36c-.29-.44-.4-.82-.64-1.22a10.88,10.88,0,0,0-3.57-3.87l.49-.27-.32,11.09V41.7a19.53,19.53,0,0,1,.24,2,6.73,6.73,0,0,1-.15,2.09l-.22.52a3.17,3.17,0,0,1-.36.46,1.57,1.57,0,0,1-1.11.38,3.9,3.9,0,0,1-2-.74h0a8.13,8.13,0,0,1-1.72-2.52,12.94,12.94,0,0,1-.79-2.91,47.4,47.4,0,0,1-.3-5.93,5.12,5.12,0,0,0-.21-1.39c-.15-.42-.39-.9-.59-1.34l-1.22-2.71-2.51-5.36,0-.06,0-.07a4.37,4.37,0,0,0,.2-1.41.71.71,0,0,0-.24-.52,1,1,0,0,0-.6-.08,8.08,8.08,0,0,0-2.64,1.25A45.49,45.49,0,0,0,106.62,27a11,11,0,0,0-2,2.19,5.06,5.06,0,0,0-.84,2.72,4.54,4.54,0,0,0,1,2.65A6.28,6.28,0,0,0,107,36.46l5.36,2.81L115,40.68a8.16,8.16,0,0,1,2.57,1.77,6.49,6.49,0,0,1,1.54,2.77c.13.52.21,1,.31,1.54a11.63,11.63,0,0,1,.08,1.57,4.31,4.31,0,0,1-1.16,3.05,4,4,0,0,1-3.19.89h-.07l-.08,0L98.85,43.07l.13,0c-2.52-.66-5-1.43-7.41-2.33a48.43,48.43,0,0,1-7.1-3.18A22.89,22.89,0,0,1,81.2,35.4c-.25-.22-.51-.42-.76-.65L79.75,34l-.64-.69a3.15,3.15,0,0,0-.64-.57,3.26,3.26,0,0,0-3.18-.43,7.65,7.65,0,0,0-2.91,2l.06-.09a13,13,0,0,1-3,3,33.68,33.68,0,0,1-3.41,2.33c-1.17.71-2.39,1.34-3.55,2A7.47,7.47,0,0,0,61,42.78c-.49.47-1,.94-1.49,1.4a22.57,22.57,0,0,1-3.29,2.52c-1.22.73-2.43,1.27-3.64,1.9l-7.27,3.67c-9.68,4.91-19.4,9.74-29.1,14.6Z"/><path class="cls-2" d="M112.2,76.76a64.91,64.91,0,0,1-1.31-9.08c-.08-1.52-.07-3.05-.12-4.58a43.71,43.71,0,0,0-.45-4.56c-.22-1.51-.5-3-.68-4.54-.11-.77-.2-1.48-.28-2.3a14.79,14.79,0,0,1,.12-2.4,9.69,9.69,0,0,1,1.8-4.47,6.6,6.6,0,0,1,4.07-2.52h.08c.61.06,1.22.15,1.83.25v.12c-.61.11-1.22.19-1.83.26l.08,0a6.51,6.51,0,0,0-3.3,2.59,10.9,10.9,0,0,0-1.45,4,13.07,13.07,0,0,0-.22,2.16l.14,2.25c.09,1.53.1,3.06.16,4.58a43.36,43.36,0,0,0,.39,4.56c.23,1.51.52,3,.72,4.53a62.17,62.17,0,0,1,.37,9.16Z"/><path class="cls-3" d="M82,137.81c4.28-8.15,8.81-16.14,13.52-24,2.38-3.93,4.87-7.8,7.2-11.76s4.62-8,6.85-12c4.43-8,9-16,13.63-24s9.44-15.77,14.41-23.51l.1.06c-4.3,8.13-8.81,16.14-13.39,24.11s-9.34,15.82-14.18,23.64c-2.4,3.92-4.79,7.85-7,11.84s-4.45,8-6.7,12.06c-4.56,8-9.3,15.85-14.29,23.58Z"/><path class="cls-4" d="M142.7,30.15a8.14,8.14,0,0,1,.71-3.45c.26-.52.63-1,.85-1.55a6.58,6.58,0,0,0,.44-1.69,12.29,12.29,0,0,1,.33-1.73,16.21,16.21,0,0,1,.5-1.68,12.87,12.87,0,0,1,1.68-3.11l.12,0a12.94,12.94,0,0,1-.57,3.49,16.2,16.2,0,0,1-.64,1.63,12.14,12.14,0,0,1-.79,1.57,6.36,6.36,0,0,0-.69,1.61c-.16.56-.16,1.17-.28,1.75a8,8,0,0,1-1.55,3.16Z"/><path class="cls-5" d="M140.13,44.5a59,59,0,0,1-1.33,8.17c-.68,2.67-1.68,5.27-2.12,8-.25,1.35-.44,2.72-.66,4.09s-.49,2.71-.76,4.06c-.5,2.71-1.21,5.38-1.95,8l-.1-.39a6.38,6.38,0,0,0,.65.74,7.07,7.07,0,0,0,.78.65,4.82,4.82,0,0,0,1.83.86v.12a4.39,4.39,0,0,1-2.12-.48,7.09,7.09,0,0,1-1-.58,7.22,7.22,0,0,1-.87-.72l-.14-.14,0-.25c.46-2.72,1-5.44,1.65-8.1.33-1.34.67-2.68,1-4s.79-2.64,1.15-4c.75-2.65,1-5.43,1.48-8.13a57.74,57.74,0,0,1,2.27-8Z"/><path class="cls-6" d="M136.53,41.76a149.08,149.08,0,0,1-2.63,14.89c-.59,2.45-1.28,4.88-1.83,7.34s-1,4.94-1.4,7.43c-.79,5-1.73,9.93-2.75,14.87s-2.24,9.82-3.64,14.68l-.12,0c.64-5,1.53-10,2.49-14.93s2.12-9.85,3.37-14.73c.61-2.45,1.19-4.9,1.66-7.38s.8-5,1.23-7.46a149,149,0,0,1,3.5-14.71Z"/><path class="cls-7" d="M116.36,136.7a49.44,49.44,0,0,1-1.37,8.59c-.38,1.4-.86,2.78-1.2,4.19a40.59,40.59,0,0,0-.77,4.27c-.18,1.44-.39,2.88-.66,4.3s-.51,2.85-.83,4.27a75.84,75.84,0,0,1-2.38,8.38l-.11,0a75.13,75.13,0,0,1,1.22-8.62c.28-1.42.63-2.83,1-4.23s.71-2.81,1.13-4.21a40.55,40.55,0,0,0,1-4.22c.26-1.42.39-2.88.6-4.31a49.71,49.71,0,0,1,2.24-8.41Z"/><path class="cls-8" d="M120,158.44a15,15,0,0,1-.44-4.79c.07-.8.27-1.6.31-2.4a12.79,12.79,0,0,0-.14-2.39,21.67,21.67,0,0,1-.24-2.4c0-.8-.09-1.59-.08-2.39a23.68,23.68,0,0,1,.59-4.79h.12a22.34,22.34,0,0,1,.59,4.79c0,.8,0,1.59-.07,2.39s-.13,1.6-.24,2.4a12,12,0,0,0-.14,2.39c0,.8.23,1.6.31,2.4a15.32,15.32,0,0,1-.45,4.79Z"/><path class="cls-9" d="M122.27,46.22a49.07,49.07,0,0,1,.22,8.65c-.12,1.44-.33,2.88-.41,4.32a41.52,41.52,0,0,0,0,4.32c.08,1.44.13,2.89.13,4.33s0,2.88,0,4.32a73.82,73.82,0,0,1-.8,8.63h-.12a76.12,76.12,0,0,1-.37-8.66c0-1.44.1-2.88.18-4.32s.2-2.88.35-4.32a41.35,41.35,0,0,0,.24-4.31c0-1.45-.15-2.89-.2-4.33a49.17,49.17,0,0,1,.66-8.64Z"/><path class="cls-10" d="M120.75,92.31a2,2,0,0,1,.61,1.57,6.7,6.7,0,0,0-.23.85,1.55,1.55,0,0,0,.22.79,3.22,3.22,0,0,1,.05,3.27h-.12a3.23,3.23,0,0,1-.75-1.56,4.48,4.48,0,0,1,0-.82,3.12,3.12,0,0,1,.16-.83,1.48,1.48,0,0,0,.06-.83,7,7,0,0,0-.39-.77,2,2,0,0,1,.28-1.67Z"/><path class="cls-11" d="M142.25,29.56a3.51,3.51,0,0,1-1.45,1.31,3.86,3.86,0,0,0-.94.32,1.66,1.66,0,0,0-.58.75,7.85,7.85,0,0,1-.37.87c-.14.26-.2.55-.34.79-.27.51-.49,1-.89,1.66h-.12a2.62,2.62,0,0,1-.19-2.17,3.41,3.41,0,0,1,1.41-1.61,2.68,2.68,0,0,0,.83-.6c.23-.24.38-.6.62-.86a2.33,2.33,0,0,1,2-.58Z"/><path class="cls-12" d="M138.18,35.82A19.71,19.71,0,0,1,133.47,33c-.7-.59-1.33-1.27-2.05-1.83a16.74,16.74,0,0,0-2.31-1.47c-.4-.23-.81-.41-1.2-.68s-.77-.56-1.14-.85a21.42,21.42,0,0,1-2-1.87,30.46,30.46,0,0,1-3.44-4.27l.08-.09a29.91,29.91,0,0,1,4.28,3.45c.66.61,1.25,1.35,1.89,1.94s1.24,1.22,2,1.83a16.65,16.65,0,0,0,2.15,1.69c.76.49,1.62.86,2.4,1.32a19.84,19.84,0,0,1,4.2,3.52Z"/><path class="cls-13" d="M125.46,30.6a3.58,3.58,0,0,1-2-1.07c-.23-.29-.4-.68-.66-1a2.9,2.9,0,0,0-1-.6,5.15,5.15,0,0,1-1-.52,7.18,7.18,0,0,1-.91-.65,5.59,5.59,0,0,1-1.35-1.87l.08-.09a5.55,5.55,0,0,1,2.1,1,5.83,5.83,0,0,1,.81.76,4.86,4.86,0,0,1,.71.9,3,3,0,0,0,.78.81,11.33,11.33,0,0,0,1.06.47,3.53,3.53,0,0,1,1.44,1.76Z"/><path class="cls-14" d="M119.26,124.29l2.63-15.58.34,0A6.16,6.16,0,0,1,121,112a12.12,12.12,0,0,1-2.37,2.48,25.44,25.44,0,0,1-5.86,3.47l.17-.25v1.58l-.25-.28a12.73,12.73,0,0,1,2.57.58,7.49,7.49,0,0,1,2.34,1.26,5.33,5.33,0,0,1,1.64,2.14,5.28,5.28,0,0,1,.35,2.7l-.18-.34a57.42,57.42,0,0,1,7.08,4,43.31,43.31,0,0,1,6.38,5.09,23.45,23.45,0,0,1,4.91,6.55,11.31,11.31,0,0,1,1.16,4,6,6,0,0,1-1.06,4.14l0,0-14.5,19,.09-.17-1,3.89,0,.08-.05.07a8.57,8.57,0,0,0-1.43,3.65,6.56,6.56,0,0,0,.72,3.76,8.94,8.94,0,0,0,.51.84l.29.4a5.72,5.72,0,0,1,.35.47,1.86,1.86,0,0,1,.2,1.4,1.93,1.93,0,0,1-.82,1.11l-.86.6-.43.3a2.18,2.18,0,0,1-.64.29,1.77,1.77,0,0,1-1.39-.17A7.37,7.37,0,0,1,118,184a9.51,9.51,0,0,1-2.63-3.52,18.94,18.94,0,0,1-1.32-4.09,37.47,37.47,0,0,1-.73-8.45v-.34l.32-.13,5.48-2.14-.32.48a22.36,22.36,0,0,1,.58-5.77,24.29,24.29,0,0,1,2-5.43,27.77,27.77,0,0,1,3.19-4.82,26.81,26.81,0,0,1,4.1-4.08l.14.77a16.19,16.19,0,0,1-4.77-2.73,44.81,44.81,0,0,1-4-3.62c-.63-.64-1.25-1.29-1.86-2l-.9-1a1.46,1.46,0,0,0-.9-.53,1.25,1.25,0,0,0-.51,0,2.35,2.35,0,0,0-.52.25,8.5,8.5,0,0,1-1.31.52c-.44.13-.89.24-1.33.34l-.67.14-.34.06a.94.94,0,0,0-.24.06,1.08,1.08,0,0,0-.62.73,1.2,1.2,0,0,0,0,.5c0,.24.08.47.09.7a16.71,16.71,0,0,1,0,2.74,48,48,0,0,1-.73,5.36c-.65,3.53-1.5,7-2.46,10.47l-.07-.29a5,5,0,0,1,1.41,2.62,16.49,16.49,0,0,1,0,2.9,46.46,46.46,0,0,0,.08,5.66c.15,1.88.42,3.77.47,5.69a21.34,21.34,0,0,1-.11,2.88,7.15,7.15,0,0,1-.82,2.82,2.62,2.62,0,0,1-.51.6,1.52,1.52,0,0,0-.42.46c-.21.35-.29.81,0,1,.74.59,1.45,1.24,2.2,1.78a2.32,2.32,0,0,0,1.19.5,5.14,5.14,0,0,0,.68,0,1.19,1.19,0,0,1,.84.15,1.11,1.11,0,0,1,.26.83v1.43a1.78,1.78,0,0,1-.21.78,1.59,1.59,0,0,1-.57.58,2.34,2.34,0,0,1-.75.22c-.48.08-.95.14-1.43.18-1,.08-1.9.12-2.86.15s-1.9,0-2.85,0h-.72a1.54,1.54,0,0,1-.76-.23,1.58,1.58,0,0,1-.75-1.36h0l.23-1.89v-.06l0,0,1.75-1.79v.28a18.66,18.66,0,0,1-2.26-4,42.94,42.94,0,0,1-1.6-4.27c-.47-1.44-.86-2.91-1.24-4.37s-.68-3-1-4.45h0v0a20.48,20.48,0,0,1,.29-5,8.25,8.25,0,0,1,.82-2.42,3.12,3.12,0,0,1,2-1.65l-.2.36a98.07,98.07,0,0,1-3.68-14.3,41.33,41.33,0,0,1-.65-7.38,16.26,16.26,0,0,1,.45-3.73,6.48,6.48,0,0,1,1.89-3.33l-.08.43a7.39,7.39,0,0,1-.69-4.26,7.24,7.24,0,0,1,1.88-3.87,12.33,12.33,0,0,1,3.43-2.54A24.13,24.13,0,0,1,107.4,118l-.13.72a46.59,46.59,0,0,1-5-4.29,21.9,21.9,0,0,1-2.18-2.52,8,8,0,0,1-1.51-3.09l.75.25c-2,1.87-4.07,3.72-6.18,5.52-1,.89-2.12,1.78-3.25,2.6a3.05,3.05,0,0,0-1.12,1.36,4,4,0,0,0-.17,1.84,30,30,0,0,1-1,8.33,17.07,17.07,0,0,1-4,7.44l.14-.53.52,2.07-.34-.38,6.77,2.58.34.13,0,.32a1.83,1.83,0,0,1-.73,1.61,3.75,3.75,0,0,1-1.34.67,9.55,9.55,0,0,1-2.69.25l.57-.39a4.55,4.55,0,0,0-.19,1.18,2.46,2.46,0,0,0,.18,1.08,1.76,1.76,0,0,0,1.77.86H89l.17.3.72,1.29.28.49-.47.29c-.65.4-1.21.83-2,1.22a6.36,6.36,0,0,1-2.38.62,5.87,5.87,0,0,1-4.57-1.67A6.39,6.39,0,0,1,79,143.64a11.9,11.9,0,0,1,1-4.6l0-.07.06-.07a5.51,5.51,0,0,0,.44-.72,5,5,0,0,0,.3-.78,1.88,1.88,0,0,0-.09-1.43l.19.21a10,10,0,0,1-3.34-8.24,16.66,16.66,0,0,1,.79-4.39,15.71,15.71,0,0,1,1.83-4c.2-.32.41-.62.63-.92l.33-.45.17-.22.09-.11,0,0,0,0h0v.8a6.53,6.53,0,0,1-1-2.17,7.48,7.48,0,0,1,.25-4.61,11.4,11.4,0,0,1,2.45-3.8,20.89,20.89,0,0,1,3.37-2.87l-.14.12a31.32,31.32,0,0,1,3.86-4,15.42,15.42,0,0,1,4.78-2.93A6.86,6.86,0,0,1,96.49,98c.24,0,.51,0,.74-.06a2.35,2.35,0,0,0,.54-.06,1.58,1.58,0,0,0,.82-.46,1.56,1.56,0,0,0,.14-.19,3.53,3.53,0,0,1,.21-.32,4.65,4.65,0,0,1,.49-.59,5,5,0,0,1,2.69-1.41A7.73,7.73,0,0,1,105,95l-.11,0a82.26,82.26,0,0,1,10.26,1,31.46,31.46,0,0,1,5.07,1.23,10,10,0,0,1,2.44,1.2,4,4,0,0,1,1,1.07,2.41,2.41,0,0,1,.35,1.64l-.13-.48.72.86-.45-.21a53.68,53.68,0,0,0,6.34-.25,20.63,20.63,0,0,0,3.08-.52,6.63,6.63,0,0,0,1.4-.51,1.7,1.7,0,0,0,.88-.76l0,.31c-.69-3.3-1.25-6.61-1.62-10a50.19,50.19,0,0,1-.35-5.06,15.26,15.26,0,0,1,.62-5.15l.24.61-1-.51-.5-.25a2.36,2.36,0,0,1-.57-.4,2.32,2.32,0,0,1-.54-2.6,2.26,2.26,0,0,1,.37-.59,5.76,5.76,0,0,1,.4-.43l.77-.82,1.54-1.63,0,0c.54-.69,1.08-1.38,1.65-2,.28-.34.56-.68.87-1,.15-.16.3-.33.47-.49l.27-.24.18-.13a.75.75,0,0,1,.4-.13h.07c.48.1,1,.2,1.44.34l.33.1v.33l-.06,2.48-.72-.31c.47-.47.93-.95,1.38-1.43.22-.24.44-.49.64-.74a2.47,2.47,0,0,0,.26-.36.33.33,0,0,0,.06-.12,2.26,2.26,0,0,1,.13-.33,2,2,0,0,1,2.23-.81l1.95.46.26.06,0,.24a6.89,6.89,0,0,1-.51,3.85,9.28,9.28,0,0,1-2.24,3.11,17.39,17.39,0,0,1-6.61,3.54l.18-.52A43,43,0,0,1,143,89.43a30.68,30.68,0,0,1,1.42,11.88,8.36,8.36,0,0,1-.23,1.52,6.15,6.15,0,0,1-.61,1.42,8.28,8.28,0,0,1-2,2.29,13.89,13.89,0,0,1-5.45,2.5,37.28,37.28,0,0,1-11.92.5h0l-2.63-.52,0-.12,2.64.49h0a36.9,36.9,0,0,0,11.82-.65,13.42,13.42,0,0,0,5.28-2.5,6.54,6.54,0,0,0,2.61-5,31,31,0,0,0-1.51-11.66A42.88,42.88,0,0,0,137.34,79l-.26-.38.44-.14A16.87,16.87,0,0,0,143.83,75a8.48,8.48,0,0,0,2-2.86,6.3,6.3,0,0,0,.44-3.38l.3.29-2-.44a1.22,1.22,0,0,0-1.33.41.78.78,0,0,0,0,.14,1.34,1.34,0,0,1-.15.34,4.38,4.38,0,0,1-.32.45c-.22.28-.45.54-.67.79q-.69.75-1.41,1.47L140,73l0-1,.05-2.48.32.43c-.46-.14-.93-.22-1.4-.32H139c.16,0,.12,0,.1,0l-.08.07-.22.19c-.14.15-.29.3-.43.46-.28.31-.56.64-.84,1-.54.66-1.08,1.35-1.6,2h0v0L134.4,75l-.76.82c-.12.13-.28.29-.36.4a1.29,1.29,0,0,0-.22.35,1.37,1.37,0,0,0,.33,1.53,1.39,1.39,0,0,0,.34.24l.51.25,1,.5.39.19-.15.42a14.2,14.2,0,0,0-.51,4.78c0,1.65.18,3.31.37,5,.4,3.3,1,6.6,1.67,9.84l0,.17-.06.15a2.79,2.79,0,0,1-1.41,1.39,8.81,8.81,0,0,1-1.62.59,23.13,23.13,0,0,1-3.25.59,54.28,54.28,0,0,1-6.5.29h-.28l-.18-.22-.72-.86-.18-.22.05-.26c.1-.56-.29-1.1-.92-1.54a9,9,0,0,0-2.13-1A30.19,30.19,0,0,0,115,97.13a79.19,79.19,0,0,0-10.09-.95h-.11a6.7,6.7,0,0,0-2.44-.07,3.71,3.71,0,0,0-2,1.06,3.16,3.16,0,0,0-.37.45,2,2,0,0,0-.16.24,3.07,3.07,0,0,1-.27.36,2.72,2.72,0,0,1-1.47.86,4.48,4.48,0,0,1-.81.1,5.66,5.66,0,0,0-.6,0,5.56,5.56,0,0,0-1.19.28,14.38,14.38,0,0,0-4.37,2.7A29.86,29.86,0,0,0,87.41,106l-.06.08-.08,0c-2.26,1.6-4.39,3.58-5.34,6.07a6.21,6.21,0,0,0-.21,3.83,5.72,5.72,0,0,0,.79,1.71v.81h0l0,0,0,0-.08.11-.16.2-.31.42c-.2.28-.39.57-.58.86a14.76,14.76,0,0,0-1.69,3.75,15.23,15.23,0,0,0-.75,4,10.23,10.23,0,0,0,.6,4,7.67,7.67,0,0,0,2.19,3.21l.13.1.06.11a3.15,3.15,0,0,1,.19,2.34,5.69,5.69,0,0,1-.4,1,7.66,7.66,0,0,1-.57.92l.08-.14a10.59,10.59,0,0,0-1,4.11,5.23,5.23,0,0,0,1.41,3.67,4.68,4.68,0,0,0,3.65,1.33,5.25,5.25,0,0,0,1.94-.5c.58-.28,1.23-.75,1.86-1.14l-.2.78-.71-1.29.51.3a3.77,3.77,0,0,1-1.58-.31,2.44,2.44,0,0,1-1.24-1.23,3.54,3.54,0,0,1-.29-1.6,5.7,5.7,0,0,1,.26-1.52l.12-.4h.44a8.51,8.51,0,0,0,2.34-.21,2.53,2.53,0,0,0,.92-.43.86.86,0,0,0,.34-.58l.36.45-6.77-2.6-.27-.11L83.2,138l-.52-2.07-.07-.29.21-.23a16.22,16.22,0,0,0,3.79-6.94,29.69,29.69,0,0,0,1-8c0-.35,0-.64,0-1.07a3.33,3.33,0,0,1,.27-1.16,4,4,0,0,1,1.47-1.79c1.09-.78,2.16-1.65,3.21-2.53,2.1-1.77,4.15-3.6,6.18-5.45l.6-.55.15.8a7,7,0,0,0,1.33,2.74,20.71,20.71,0,0,0,2.08,2.43,42.75,42.75,0,0,0,4.89,4.23l.64.49-.77.23a15.58,15.58,0,0,0-7,3.81,6.56,6.56,0,0,0-1.72,3.48,6.69,6.69,0,0,0,.59,3.82l.12.26-.2.17a5.7,5.7,0,0,0-1.69,3,15.18,15.18,0,0,0-.45,3.57,40.46,40.46,0,0,0,.6,7.27,96.75,96.75,0,0,0,3.59,14.22l.09.3-.29,0a2.6,2.6,0,0,0-1.69,1.38,8,8,0,0,0-.78,2.26,20.89,20.89,0,0,0-.3,4.87v0c.29,1.48.6,3,1,4.42s.75,2.92,1.21,4.36a44.57,44.57,0,0,0,1.56,4.23,18.49,18.49,0,0,0,2.17,3.9l.11.15-.12.13-1.77,1.78.06-.12-.24,1.88v0a1.19,1.19,0,0,0,1.14,1.22h.71c1,0,1.9,0,2.84,0s1.9-.08,2.83-.16c.47,0,.94-.11,1.4-.19a2,2,0,0,0,.61-.18,1.1,1.1,0,0,0,.41-.42,1.33,1.33,0,0,0,.16-.58v-.71c0-.44,0-1.06-.11-1.22a1,1,0,0,0-.54,0,4.57,4.57,0,0,1-.74,0,2.7,2.7,0,0,1-1.41-.56c-.79-.58-1.49-1.21-2.23-1.8a.92.92,0,0,1-.35-.82,1.71,1.71,0,0,1,.25-.78,1.86,1.86,0,0,1,.52-.59,1.75,1.75,0,0,0,.4-.49,6.41,6.41,0,0,0,.74-2.62,21.72,21.72,0,0,0,.09-2.8c-.06-1.89-.34-3.76-.5-5.66a45.72,45.72,0,0,1-.12-5.73,17.32,17.32,0,0,0,0-2.79,4.41,4.41,0,0,0-1.27-2.29l-.12-.13,0-.17c.93-3.44,1.75-6.92,2.38-10.43a47.06,47.06,0,0,0,.68-5.28,15.15,15.15,0,0,0,0-2.61c0-.22-.06-.43-.08-.64a1.89,1.89,0,0,1,0-.82,1.82,1.82,0,0,1,1.06-1.25,2,2,0,0,1,.4-.11l.33-.06.64-.14c.43-.09.85-.2,1.27-.33a7.64,7.64,0,0,0,1.18-.47,3.11,3.11,0,0,1,.68-.32,2.12,2.12,0,0,1,.83,0,2.21,2.21,0,0,1,1.37.78l.9,1c.6.65,1.22,1.29,1.85,1.92a42.79,42.79,0,0,0,4,3.53,15.33,15.33,0,0,0,4.5,2.56l.79.25-.65.52a25.76,25.76,0,0,0-3.93,3.95,27.25,27.25,0,0,0-3,4.68,21.82,21.82,0,0,0-2.43,10.74v.35l-.33.13L114,168.43l.33-.46a35.71,35.71,0,0,0,.75,8.18,19.85,19.85,0,0,0,1.24,3.87,8.57,8.57,0,0,0,2.3,3.14,5.75,5.75,0,0,0,.8.52.73.73,0,0,0,.62.09,1.3,1.3,0,0,0,.32-.14l.42-.3.87-.59a.81.81,0,0,0,.32-1.14,3.41,3.41,0,0,0-.27-.37,4.48,4.48,0,0,1-.32-.44,9.32,9.32,0,0,1-.57-1,7.56,7.56,0,0,1-.8-4.34,9.52,9.52,0,0,1,1.61-4.07l-.07.15,1-3.89,0-.09,0-.08,14.61-18.9,0,0a5.35,5.35,0,0,0,.87-3.55,10.6,10.6,0,0,0-1.06-3.73,22.94,22.94,0,0,0-4.72-6.37,44,44,0,0,0-6.25-5,57.5,57.5,0,0,0-7-4l-.21-.1,0-.25a4.72,4.72,0,0,0-.3-2.34,4.88,4.88,0,0,0-1.44-1.92,9.43,9.43,0,0,0-4.61-1.74l-.25,0v-.25l0-1.58v-.18l.17-.07a25.26,25.26,0,0,0,5.79-3.32,12.06,12.06,0,0,0,2.32-2.36,5.88,5.88,0,0,0,1.18-3l.34,0-2.85,15.54Z"/><path class="cls-15" d="M113.94,76.82a8.79,8.79,0,0,0-4.82,1.52,5.85,5.85,0,0,0-1.66,1.78,5.56,5.56,0,0,0-.48,1.09l-.18.57-.1.59a6.9,6.9,0,0,0-.08,1.21,4.8,4.8,0,0,0,.08,1.19,13.62,13.62,0,0,0,.61,2.42,10.2,10.2,0,0,0,2.77,4.18l.06,0v.08a6.69,6.69,0,0,0,1.42,3.27l-.14-.08c.79.11,1.59.16,2.39.24l2.39.22-.32.09c.56-.53,1.14-1,1.72-1.58l.1-.09.17,0,1.39-.19h-.08a1.1,1.1,0,0,0,.31-.26,1.67,1.67,0,0,0,.28-.47,3.69,3.69,0,0,0,.24-1.23v-.1l.06-.13a17.33,17.33,0,0,0,1.24-4.44,9.61,9.61,0,0,0-.35-4.47,7.48,7.48,0,0,0-2.68-3.63A9.49,9.49,0,0,0,113.94,76.82Zm0-.12a13.56,13.56,0,0,1,4.65,1.5A7.78,7.78,0,0,1,122,81.86a9.62,9.62,0,0,1,.6,5,15.5,15.5,0,0,1-1.47,4.81l.07-.23a4.76,4.76,0,0,1-.4,1.61,2.6,2.6,0,0,1-.49.76,1.91,1.91,0,0,1-.87.57h-.08l-1.4.1.27-.12c-.6.49-1.21,1-1.83,1.45l-.16.12-.16,0-2.36-.43c-.79-.13-1.58-.29-2.37-.41h-.09l0-.06a7.08,7.08,0,0,1-.94-1.67,8.74,8.74,0,0,1-.53-1.83l.07.12a12.05,12.05,0,0,1-3.3-4.15,11.39,11.39,0,0,1-.88-2.56,8.05,8.05,0,0,1,0-2.77l.13-.68.26-.66a5.53,5.53,0,0,1,.69-1.23,6.76,6.76,0,0,1,2.11-1.74A11.86,11.86,0,0,1,113.94,76.7Z"/><text class="cls-16" transform="translate(72 160)"><tspan class="cls-17">T</tspan><tspan x="5.88" y="0">he</tspan><tspan class="cls-18" x="18.55" y="0">a</tspan><tspan x="24.29" y="0">t</tspan><tspan class="cls-19" x="28.26" y="0">r</tspan><tspan class="cls-20" x="32.23" y="0">ical</tspan></text></g></svg>