<svg xmlns="http://www.w3.org/2000/svg" xmlns:xlink="http://www.w3.org/1999/xlink" viewBox="0 0 192 192"><defs><style>.cls-1{font-size:12px;fill:#fff;font-family:MyriadPro-Regular, Myriad Pro;}.cls-2{letter-spacing:-0.03em;}.cls-3{letter-spacing:0em;}.cls-4{letter-spacing:-0.01em;}.cls-5{letter-spacing:0em;}.cls-6{fill:url(#linear-gradient);}.cls-7{fill:url(#linear-gradient-2);}.cls-8{fill:url(#linear-gradient-3);}.cls-9{fill:url(#linear-gradient-4);}.cls-10{fill:url(#linear-gradient-5);}.cls-11{fill:url(#linear-gradient-6);}.cls-12{fill:url(#linear-gradient-7);}.cls-13{fill:url(#linear-gradient-8);}.cls-14{fill:url(#linear-gradient-9);}.cls-15{fill:url(#linear-gradient-10);}.cls-16{fill:url(#linear-gradient-11);}.cls-17{fill:url(#linear-gradient-12);}.cls-18{fill:url(#linear-gradient-13);}.cls-19{fill:url(#linear-gradient-14);}.cls-20{fill:url(#linear-gradient-15);}.cls-21{fill:url(#linear-gradient-16);}.cls-22{fill:url(#linear-gradient-17);}.cls-23{fill:url(#linear-gradient-18);}.cls-24{fill:url(#linear-gradient-19);}.cls-25{fill:url(#linear-gradient-20);}.cls-26{fill:url(#linear-gradient-21);}.cls-27{fill:url(#linear-gradient-22);}.cls-28{fill:url(#linear-gradient-23);}.cls-29{fill:url(#linear-gradient-24);}.cls-30{fill:url(#linear-gradient-25);}.cls-31{fill:url(#linear-gradient-26);}.cls-32{fill:url(#linear-gradient-27);}.cls-33{fill:url(#linear-gradient-28);}.cls-34{fill:url(#linear-gradient-29);}.cls-35{fill:url(#linear-gradient-30);}.cls-36{fill:url(#linear-gradient-31);}.cls-37{fill:url(#linear-gradient-32);}</style><linearGradient id="linear-gradient" x1="157.38" y1="132.03" x2="187.25" y2="132.03" gradientUnits="userSpaceOnUse"><stop offset="0.21" stop-color="#039be5"/><stop offset="0.25" stop-color="#1293dc"/><stop offset="0.43" stop-color="#5d6ab2"/><stop offset="0.6" stop-color="#984991"/><stop offset="0.74" stop-color="#c23278"/><stop offset="0.85" stop-color="#dc236a"/><stop offset="0.91" stop-color="#e61e64"/><stop offset="1" stop-color="#e91e63"/></linearGradient><linearGradient id="linear-gradient-2" x1="33.72" y1="132.03" x2="3.86" y2="132.03" xlink:href="#linear-gradient"/><linearGradient id="linear-gradient-3" x1="64.72" y1="58.26" x2="188.15" y2="58.26" xlink:href="#linear-gradient"/><linearGradient id="linear-gradient-4" x1="101.69" y1="62.5" x2="129.72" y2="62.5" xlink:href="#linear-gradient"/><linearGradient id="linear-gradient-5" x1="135.29" y1="76.11" x2="167.36" y2="76.11" xlink:href="#linear-gradient"/><linearGradient id="linear-gradient-6" x1="66.13" y1="47.51" x2="135.11" y2="47.51" xlink:href="#linear-gradient"/><linearGradient id="linear-gradient-7" x1="69.79" y1="48.51" x2="144.92" y2="48.51" xlink:href="#linear-gradient"/><linearGradient id="linear-gradient-8" x1="128.77" y1="76.09" x2="138.14" y2="76.09" xlink:href="#linear-gradient"/><linearGradient id="linear-gradient-9" x1="129.65" y1="69.72" x2="139.92" y2="69.72" xlink:href="#linear-gradient"/><linearGradient id="linear-gradient-10" x1="142.13" y1="63.3" x2="171.04" y2="63.3" xlink:href="#linear-gradient"/><linearGradient id="linear-gradient-11" x1="117.01" y1="63" x2="131.2" y2="63" xlink:href="#linear-gradient"/><linearGradient id="linear-gradient-12" x1="128.09" y1="83.37" x2="135.51" y2="83.37" xlink:href="#linear-gradient"/><linearGradient id="linear-gradient-13" x1="134.87" y1="106.33" x2="157.09" y2="106.33" xlink:href="#linear-gradient"/><linearGradient id="linear-gradient-14" x1="70.76" y1="26.7" x2="84.63" y2="26.7" xlink:href="#linear-gradient"/><linearGradient id="linear-gradient-15" x1="172.11" y1="98.99" x2="188.19" y2="98.99" xlink:href="#linear-gradient"/><linearGradient id="linear-gradient-16" x1="166.6" y1="90.96" x2="175.31" y2="90.96" xlink:href="#linear-gradient"/><linearGradient id="linear-gradient-17" x1="3.92" y1="59.51" x2="127.34" y2="59.51" xlink:href="#linear-gradient"/><linearGradient id="linear-gradient-18" x1="62.28" y1="63.22" x2="90.31" y2="63.22" xlink:href="#linear-gradient"/><linearGradient id="linear-gradient-19" x1="24.64" y1="77.53" x2="56.71" y2="77.53" xlink:href="#linear-gradient"/><linearGradient id="linear-gradient-20" x1="56.89" y1="48.36" x2="125.87" y2="48.36" xlink:href="#linear-gradient"/><linearGradient id="linear-gradient-21" x1="47.08" y1="49.34" x2="122.21" y2="49.34" xlink:href="#linear-gradient"/><linearGradient id="linear-gradient-22" x1="53.86" y1="77.79" x2="63.23" y2="77.79" xlink:href="#linear-gradient"/><linearGradient id="linear-gradient-23" x1="52.08" y1="71.07" x2="62.35" y2="71.07" xlink:href="#linear-gradient"/><linearGradient id="linear-gradient-24" x1="20.96" y1="63.99" x2="49.87" y2="63.99" xlink:href="#linear-gradient"/><linearGradient id="linear-gradient-25" x1="60.8" y1="63.69" x2="74.99" y2="63.69" xlink:href="#linear-gradient"/><linearGradient id="linear-gradient-26" x1="56.49" y1="84.17" x2="63.91" y2="84.17" xlink:href="#linear-gradient"/><linearGradient id="linear-gradient-27" x1="34.91" y1="107.39" x2="57.13" y2="107.39" xlink:href="#linear-gradient"/><linearGradient id="linear-gradient-28" x1="107.37" y1="27.75" x2="121.24" y2="27.75" xlink:href="#linear-gradient"/><linearGradient id="linear-gradient-29" x1="3.81" y1="100.05" x2="19.89" y2="100.05" xlink:href="#linear-gradient"/><linearGradient id="linear-gradient-30" x1="40.31" y1="85.92" x2="56.71" y2="85.92" xlink:href="#linear-gradient"/><linearGradient id="linear-gradient-31" x1="20.96" y1="64.35" x2="49.87" y2="64.35" xlink:href="#linear-gradient"/><linearGradient id="linear-gradient-32" x1="16.69" y1="92.01" x2="25.4" y2="92.01" xlink:href="#linear-gradient"/></defs><title>Artboard 13</title><g id="Layer_26" data-name="Layer 26"><text class="cls-1" transform="translate(76 160)"><tspan class="cls-2">W</tspan><tspan class="cls-3" x="9.76" y="0">es</tspan><tspan class="cls-4" x="20.52" y="0">t</tspan><tspan x="24.42" y="0">e</tspan><tspan class="cls-5" x="30.43" y="0">r</tspan><tspan x="34.4" y="0">n</tspan></text><path class="cls-6" d="M163.42,115.34a43.84,43.84,0,0,0-3.86,12.42,83.28,83.28,0,0,0-1.24,13,31.41,31.41,0,0,0,.1,3.23c0,.13,0,.26.05.38a.84.84,0,0,0,0,.14h0s-.06-.08-.09-.07l.1,0,.75.33,1.5.65c2,.85,4,1.77,6,2.65s4,1.76,6,2.69l5.91,2.82c1,.47,2,.91,3,1.34.42.28.92,0,1.4-.15a5.83,5.83,0,0,0,1.33-.86,2.61,2.61,0,0,0,.5-.56.52.52,0,0,0,.09-.29l0-.41c0-.54.09-1.09.11-1.63l.21-3.27c.12-2.18.24-4.35.3-6.52s.28-4.42.34-6.52c-.16-8.63-.7-17.41-.75-26.14h.13c.5,4.34.94,8.68,1.28,13,.17,2.18.36,4.36.48,6.54s.29,4.35.23,6.59-.43,4.35-.51,6.55-.38,4.38-.71,6.54l-.46,3.24c-.08.54-.14,1.08-.2,1.63l0,.4a1.1,1.1,0,0,1-.17.48,3.07,3.07,0,0,1-.6.64,6.49,6.49,0,0,1-1.43.9,3.72,3.72,0,0,1-.81.29,1.22,1.22,0,0,1-.47,0,1.52,1.52,0,0,1-.44-.14c-1-.4-2-.81-3.06-1.19q-3.06-1.17-6.11-2.38c-2-.83-4-1.73-6-2.68s-3.94-1.88-5.87-2.91l-1.46-.76-.72-.38-.09-.05a.47.47,0,0,1-.16-.15l0-.09a1,1,0,0,1-.07-.26,3.41,3.41,0,0,1-.06-.43,28.19,28.19,0,0,1-.05-3.31,83.94,83.94,0,0,1,1.45-13,42.7,42.7,0,0,1,4.11-12.42Z"/><path class="cls-7" d="M27.79,115.28a43,43,0,0,1,4.12,12.42,85.17,85.17,0,0,1,1.45,13,30.56,30.56,0,0,1-.06,3.31c0,.14,0,.28,0,.43s0,.16-.07.26l0,.09A.51.51,0,0,1,33,145l-.09.05-.72.38-1.45.76c-1.93,1-3.91,2-5.88,2.91s-4,1.85-6,2.68-4.06,1.6-6.11,2.38c-1,.38-2,.79-3.05,1.19a1.75,1.75,0,0,1-.44.14,1.25,1.25,0,0,1-.48,0,3.72,3.72,0,0,1-.81-.29,6.42,6.42,0,0,1-1.42-.9,3.11,3.11,0,0,1-.61-.64,1,1,0,0,1-.16-.48l0-.4c0-.55-.12-1.09-.2-1.63L5,147.85c-.32-2.16-.56-4.35-.71-6.54s-.42-4.28-.5-6.55.1-4.41.22-6.59.31-4.36.48-6.54c.34-4.36.78-8.7,1.28-13h.13c0,8.73-.59,17.51-.74,26.14,0,2.1.32,4.35.33,6.52s.18,4.34.31,6.52L6,151c0,.54.07,1.09.12,1.63l0,.41a.52.52,0,0,0,.09.29,2.67,2.67,0,0,0,.51.56,5.56,5.56,0,0,0,1.32.86c.49.19,1,.43,1.4.15,1-.43,2-.87,3-1.34l5.91-2.82c2-.93,4-1.82,6-2.69s4-1.8,6-2.65l1.5-.65.75-.33.09,0s-.1.07-.09.07h0a.84.84,0,0,0,0-.14l.06-.38a31.43,31.43,0,0,0,.09-3.23,83.28,83.28,0,0,0-1.24-13,43.52,43.52,0,0,0-3.86-12.42Z"/><path class="cls-8" d="M81.92,30.46c7.14,5.1,15.51,7.6,23.47,11l12,4.94,6,2.5,1.5.62,1.52.57,3,1.12c8.14,3,16.27,6,24.38,9.09l6.09,2.3,3,1.16a12.74,12.74,0,0,0,3,.87,32.67,32.67,0,0,1,6.45,1.21,6.22,6.22,0,0,1,3,1.74,2.3,2.3,0,0,1,.42,1.84,4.65,4.65,0,0,1-.71,1.62l0-.36,3.56,7.86-.22-.16,9,1.54.19,0v2h-.22a19.63,19.63,0,0,1-3.09-.24,11.59,11.59,0,0,0-3-.1,2.85,2.85,0,0,0-2.27,1.54,7.26,7.26,0,0,0-.58,2.9l0,.71-.33-.62-4.29-8c-.73-1.33-1.4-2.7-2.21-4s-1.7-2.51-2.54-3.78l.3.1-1.81.73.16-.22c-.13,2.11,0,4.25-.07,6.41a15.92,15.92,0,0,1-1.23,6.4,21.44,21.44,0,0,1-3.83,5.28c-1.47,1.58-3,3.08-4.36,4.69l-.21.25-.3-.12-22.27-9.16.71-.2L133,89.15l-.19.27-.32,0a26.14,26.14,0,0,1-3.49-.31,6.67,6.67,0,0,1-1.8-.56,2.81,2.81,0,0,1-1.42-1.6,6.65,6.65,0,0,1,.36-3.73c.35-1.12.81-2.18,1.17-3.23a11.9,11.9,0,0,0,.76-3.13,2.89,2.89,0,0,0-1-2.53,10.83,10.83,0,0,0-2.72-1.67c-1-.48-2-.92-3.1-1.36-4.18-1.74-8.51-3.51-12.29-6.22a19.28,19.28,0,0,1-5.09-4.87,9.6,9.6,0,0,1-.85-1.62,14.17,14.17,0,0,0-.71-1.47,12.6,12.6,0,0,0-1.89-2.64A17.93,17.93,0,0,0,95,50.7c-2-1-4.15-1.79-6.25-2.68-4.21-1.76-8.37-3.61-12.55-5.42Q73.1,41.25,70,39.94a26.67,26.67,0,0,1-3.18-1.41,4.17,4.17,0,0,1-1.37-1.28,2.72,2.72,0,0,1-.37-1.9,5,5,0,0,1,.64-1.71c.3-.51.63-1,.94-1.45l1.87-2.86,3.77-5.71L73,22.45l-.28,1.37-1,5-.16-.24Zm0,.12L71.48,29l-.2,0,0-.2.89-5.05.49.2L69,29.68l-1.83,2.88a8,8,0,0,0-1.44,2.9,2,2,0,0,0,.28,1.37,3.39,3.39,0,0,0,1.14,1,24.79,24.79,0,0,0,3.08,1.31c2.12.84,4.22,1.71,6.33,2.58C80.81,43.48,85,45.27,89.21,47c2.11.86,4.25,1.63,6.35,2.62a18.1,18.1,0,0,1,5.78,4,13.43,13.43,0,0,1,2.08,2.89,15.92,15.92,0,0,1,.78,1.61,8,8,0,0,0,.74,1.39,17.92,17.92,0,0,0,4.75,4.5c3.66,2.61,7.84,4.31,12.06,6,1,.44,2.1.88,3.16,1.38a12.2,12.2,0,0,1,3,1.93A4.36,4.36,0,0,1,129.1,75a5,5,0,0,1,.26,2,13.65,13.65,0,0,1-.86,3.48c-.39,1.1-.84,2.14-1.18,3.19a5.82,5.82,0,0,0-.38,3,1.5,1.5,0,0,0,.8.87,5.48,5.48,0,0,0,1.45.45,25.28,25.28,0,0,0,3.3.31l-.51.25,3.32-4.54.28-.38.43.18,22.16,9.44-.51.12c1.42-1.64,3-3.13,4.44-4.67a20.76,20.76,0,0,0,3.77-5,15.06,15.06,0,0,0,1.25-6.12c.09-2.12,0-4.27.18-6.43v-.17l.15-.06,1.83-.71.19-.07.11.17c.81,1.27,1.7,2.5,2.51,3.8s1.48,2.66,2.2,4l4.26,8-.37.09A8,8,0,0,1,178.8,83a3.28,3.28,0,0,1,2.56-1.78,12,12,0,0,1,3.11.08,18.27,18.27,0,0,0,3,.21l-.22.24,0-1.56.2.23-9-1.44-.15,0-.07-.14-3.7-7.8-.08-.17.11-.18a4.15,4.15,0,0,0,.57-1.35,1.54,1.54,0,0,0-.3-1.23,5.69,5.69,0,0,0-2.61-1.42,33.31,33.31,0,0,0-6.34-1.06,14.42,14.42,0,0,1-3.22-.86l-3.06-1.12-6.1-2.26c-8.15-3-16.26-6.07-24.38-9.14l-3-1.15-1.53-.58-1.49-.63-6-2.54-12-5.14L93.15,37.05c-1-.44-2-.83-3-1.32s-1.92-1-2.84-1.61C85.48,33,83.7,31.71,81.88,30.58Z"/><path class="cls-9" d="M115.85,66.37l-1.23-.82-1.23-.73A9.41,9.41,0,0,1,111.05,63a3.1,3.1,0,0,1-.74-1.44,3.91,3.91,0,0,1,0-.84,5.6,5.6,0,0,1,.19-.81,8.13,8.13,0,0,1,1.69-2.53l.18.89c-1.59-.64-3.18-1.28-4.75-2s-3.12-1.42-4.67-2.14l.5-.54c.64,1.4,1.29,2.8,2.06,4.14a20.61,20.61,0,0,0,2.69,3.72,13.24,13.24,0,0,0,3.56,2.81A14,14,0,0,0,116,65.7l.18,0,.13.17A12.94,12.94,0,0,0,122.15,70a9,9,0,0,0,3.46.48A3.29,3.29,0,0,0,128.23,69l.33.93c-2.14-.91-4.26-1.89-6.39-2.84s-4.24-2-6.34-3l.3-.19C116.06,64.81,115.92,65.64,115.85,66.37Zm0-.12c0-.85-.08-1.59-.1-2.31v-.3l.3.11q3.3,1.17,6.57,2.42c2.17.86,4.35,1.67,6.51,2.56l.71.3-.38.63a4,4,0,0,1-1.59,1.61,5.51,5.51,0,0,1-2.09.61,9.45,9.45,0,0,1-4-.63,13.3,13.3,0,0,1-6.25-4.76l.32.2a13.51,13.51,0,0,1-4.42-1.78,16.45,16.45,0,0,1-3.55-3.1,33,33,0,0,1-2.74-3.8c-.82-1.31-1.62-2.65-2.38-4l-.51-.91,1,.38c1.61.6,3.22,1.18,4.81,1.82s3.16,1.32,4.73,2l.72.31-.53.58a7.44,7.44,0,0,0-1.57,2.11,2.15,2.15,0,0,0,.29,2.26,10.68,10.68,0,0,0,2,1.85l1.13.88.55.47A5.78,5.78,0,0,1,115.8,66.25Z"/><path class="cls-10" d="M153.49,79.38c-2.31-.72-4.67-1.39-7.1-2.06S141.48,76,139,75.21l.46-.25-1.11,4-.21-.49c4,2,8,4.16,12.06,6.25l-.46.95c-2.3-1-4.54-2.08-6.82-3l-1.72-.69-.86-.34-.43-.15a2.85,2.85,0,0,0-.37-.13,2.93,2.93,0,0,0-1.47.34,18.81,18.81,0,0,1-1.78.72l.34-.74.51,1.18-.3-.29c4.71,2,9.37,4.05,14.05,6.07l-.5.43-.84-3.94-.19-.91.7.61c.3.26.69.49,1.06.77a1.86,1.86,0,0,1,.54.57.61.61,0,0,1,.07.28v.51a3.89,3.89,0,0,0,.64,2.37,4.06,4.06,0,0,0,2.06,1.36c.82.28,1.69.45,2.56.67l-.26.13c1.62-3.75,3.16-7.53,4.72-11.3s3.08-7.56,4.62-11.34l.29.48-8.44-.5-.4,0v-.41c0-.36,0-.67,0-1,0-.15,0-.3,0-.44a.79.79,0,0,0,0-.17s-.06-.06.09.09L156,66.14l-3.5-1.45-7-2.89.77-.31L145.64,63l-.31-.79,13.12,5.42L158,68.87c-4.69-1.39-9.35-2.84-14-4.25l.8-.38-1.93,4.59-.31-.83c4.3,2.18,8.57,4.43,12.85,6.65l-.47,1c-2.4-1.09-4.76-2.24-7.15-3.29-1.2-.53-2.4-1-3.62-1.48-.37-.16-1,.11-1.54.39s-1.13.64-1.79.91l.18-.52c.33.61.53,1.22.8,1.78a3.24,3.24,0,0,0,.45.75,1.57,1.57,0,0,0,.67.47c1.15.56,2.3,1.1,3.47,1.62l3.53,1.51,1.77.75.89.38A6.58,6.58,0,0,1,153.49,79.38Zm-.12,0a5.13,5.13,0,0,1-.87-.26l-.9-.33-1.8-.67-3.59-1.37c-1.2-.48-2.39-1-3.56-1.49a2.3,2.3,0,0,1-.9-.6,4.2,4.2,0,0,1-.56-.88c-.3-.59-.52-1.2-.83-1.71l-.2-.34.38-.17c.56-.25,1.1-.6,1.69-.93a6.51,6.51,0,0,1,1-.44,1.89,1.89,0,0,1,1.23,0c1.25.43,2.49.9,3.71,1.4,2.44,1,4.82,2.12,7.22,3.15l-.47,1c-4.31-2.16-8.64-4.28-12.94-6.47l-.54-.28.24-.55,1.91-4.6.23-.55.57.17c4.68,1.41,9.37,2.79,14,4.23l-.45,1.26-13.08-5.55-.56-.23.25-.55.64-1.49.24-.55.54.24,6.95,3,3.47,1.52.87.38.43.19.22.1.11,0,0,0h0l.11.07a.76.76,0,0,1,.27.51c0,.11,0,.2,0,.3a4,4,0,0,1,0,.5c0,.33-.05.64-.05.91l-.41-.42,8.43.68.48,0-.18.43c-1.62,3.75-3.26,7.49-4.84,11.25s-3.2,7.51-4.73,11.3l-.07.17-.19,0c-.85-.2-1.73-.37-2.6-.65A4.55,4.55,0,0,1,152,89.54a4.41,4.41,0,0,1-.78-2.66v-.34c0-.05,0-.14,0-.16v0a1.75,1.75,0,0,0-.39-.36c-.35-.25-.73-.46-1.11-.77l.5-.31,1,3.91.17.7-.67-.27c-4.73-1.92-9.48-3.78-14.19-5.75l-.2-.08-.09-.21L135.66,82l-.25-.56.59-.19c.53-.17,1.08-.45,1.67-.7a3.82,3.82,0,0,1,2.14-.42,3.3,3.3,0,0,1,.52.16l.45.16.88.33c.59.22,1.17.47,1.75.72,2.3,1,4.54,2.1,6.8,3.12l-.47,1c-4-2.14-8-4.26-12-6.44l-.31-.17.1-.32,1.22-3.93.11-.36.35.11c2.31.76,4.59,1.54,6.92,2.38S150.92,78.55,153.37,79.33Z"/><path class="cls-11" d="M134.21,57.36,130,55.55c-1.4-.57-2.87-1.1-4.28-1.68l-8.58-3.41c-5.68-2.34-11.4-4.62-17-7.06S88.84,38.44,83.2,36c-2.84-1.2-5.65-2.44-8.5-3.59-.71-.3-1.43-.58-2.13-.9a10.65,10.65,0,0,0-2.11-.79,2.6,2.6,0,0,0-1,0,1.87,1.87,0,0,0-.86.52,5,5,0,0,0-1.06,1.89,5.74,5.74,0,0,0-.4,2.13A2.6,2.6,0,0,0,68,37.08a12.55,12.55,0,0,0,3.94,2l8.56,3.44,17.06,7c11.35,4.77,22.66,9.61,33.89,14.63l-.37.15Zm.12,0-2.77,7.26-.1.26-.28-.11C119.72,60.24,108.34,55.57,97,50.83L80,43.59,71.56,39.9a13.13,13.13,0,0,1-4.13-2.3,3.31,3.31,0,0,1-1-2.3,6.39,6.39,0,0,1,.5-2.36,5.57,5.57,0,0,1,1.25-2.06,2.48,2.48,0,0,1,1.11-.62,2.88,2.88,0,0,1,1.24,0,11.16,11.16,0,0,1,2.2.85c.69.32,1.4.61,2.11.91,2.82,1.22,5.68,2.35,8.53,3.53,5.7,2.3,11.44,4.5,17.14,6.83s11.34,4.77,17,7.17L126,53.27c1.41.62,2.8,1.23,4.22,1.9Z"/><path class="cls-12" d="M144,59.61c-6.29-2.46-12.45-4.94-18.61-7.41s-12.25-5-18.27-7.51-12-5.19-18-7.8S77,31.71,70.9,29.22l.31-.12-.35.84-.13-.32L87,36.2q8.16,3.27,16.28,6.64c5.43,2.21,10.83,4.48,16.23,6.76s10.8,4.57,16.18,6.9l.47.21-.17.47-2.86,7.65-.24-.55,7.75,3.4-.38.16Zm.12,0-3.29,8.51-.1.26-.28-.11-7.87-3.13-.39-.15.14-.41L135,56.82l.31.68q-8.16-3.28-16.27-6.68T102.83,44q-8.1-3.42-16.16-6.93l-16.13-7L70.31,30l.1-.23.36-.84.09-.22.22.09q9.12,3.91,18.34,7.63c6.15,2.48,12.39,4.91,18.5,7.49s12.2,5.19,18.28,7.78S138.24,56.92,144.13,59.56Z"/><path class="cls-13" d="M134.84,80.89c.28-1.15.55-2.19.87-3.16.15-.49.32-1,.49-1.42a13.79,13.79,0,0,1,.59-1.37l.29.72c-1.19-.6-2.32-1.36-3.55-1.87a36.2,36.2,0,0,0-3.81-1.27l.65-.63a8.41,8.41,0,0,1,.6,3c.08,1,.09,1.93.22,2.78a3.18,3.18,0,0,0,1.15,2.1,3.87,3.87,0,0,0,1.17.64l.32.14.31.1Zm.06.11c-.22,0-.47,0-.74.06a3,3,0,0,1-.8,0,4.86,4.86,0,0,1-1.53-.42A3.86,3.86,0,0,1,129.89,78a11.65,11.65,0,0,1-.21-3,10.78,10.78,0,0,0-.23-2.71l-.29-1.13.94.5a35.4,35.4,0,0,0,3.58,1.82c1.23.51,2.56.79,3.83,1.22l.48.16-.19.55a16,16,0,0,1-.63,1.54c-.22.5-.47,1-.71,1.47A26.49,26.49,0,0,1,134.9,81Z"/><path class="cls-14" d="M138,73.34c.17-.59.23-.94.4-1.47a10,10,0,0,0,.32-1.43,2,2,0,0,0-.89-2.1,7.8,7.8,0,0,0-2.68-1.25,13.06,13.06,0,0,0-3.06-.35l.37-.22c-.2.68-.39,1.36-.62,2l-.72,2-.35-.86A45,45,0,0,1,138,73.34Zm.05.12a39.11,39.11,0,0,1-7.79-2.6l-.63-.29.28-.57.9-1.9c.3-.63.65-1.24,1-1.85l.15-.28.23.06c1,.25,2,.47,3.06.65a10.69,10.69,0,0,1,3.16.76,2.52,2.52,0,0,1,1.26,1.36,2.84,2.84,0,0,1,0,1.84,6.25,6.25,0,0,1-.67,1.51A8.13,8.13,0,0,1,138,73.46Z"/><path class="cls-15" d="M143.36,57.23l-.22.58-.06-.18c2.32.76,4.6,1.6,6.88,2.47s4.52,1.77,6.73,2.8S161.07,65,163.3,66s4.5,1.84,6.78,2.68l-.46.19.22-.62.21.5c-2.26-.81-4.49-1.67-6.7-2.56s-4.41-1.77-6.6-2.73-4.39-2-6.61-3S145.67,58.36,143.36,57.23Zm0-.12c2.17.73,4.41,1.55,6.66,2.38s4.53,1.69,6.81,2.61,4.56,1.91,6.83,2.9,4.52,2,6.73,3l.36.17-.15.33-.29.6-.15.34-.31-.15c-2.2-1-4.42-2-6.67-3s-4.57-1.67-6.85-2.52S151.78,62,149.56,61s-4.42-2-6.58-3.17l-.14-.07.08-.11Z"/><path class="cls-16" d="M118.05,59.91c0,.27,0,.49-.06.67l-.11-.23a28.74,28.74,0,0,1,3.23,1,23.33,23.33,0,0,1,3.09,1.32c1,.53,2,1.12,3,1.58a29.11,29.11,0,0,0,3.16,1.16l-.47.22.14-.7.24.52c-1.06-.31-2.06-.69-3.06-1.08s-2-.76-3-1.23-2-1-3-1.49S119.17,60.53,118.05,59.91Zm0-.11c1,.24,2,.55,3,.87s2.12.69,3.2,1.1,2.17.87,3.23,1.36,2.13,1,3.14,1.52l.37.2-.13.31-.28.66-.16.39-.31-.17a27.18,27.18,0,0,0-3-1.44c-1-.4-2.15-.67-3.22-1a23.32,23.32,0,0,1-3.11-1.27,27.57,27.57,0,0,1-3-1.61l-.17-.11.06-.13A6.16,6.16,0,0,1,118,59.8Z"/><path class="cls-17" d="M129.43,80.68a9.22,9.22,0,0,1-.11,2.93,3.59,3.59,0,0,0,0,.57,1,1,0,0,0,0,.15.61.61,0,0,0,.13.2,3.17,3.17,0,0,0,1,.88,2.77,2.77,0,0,0,1.37.35,1.5,1.5,0,0,0,.63-.14,1.18,1.18,0,0,0,.35-.45c.36-.82.65-1.79,1.17-2.74l.31,1A27,27,0,0,1,129.43,80.68Zm-.07-.11a20.86,20.86,0,0,1,5.46,1.6l.75.36-.44.61a18.62,18.62,0,0,1-1.69,2.49,1.81,1.81,0,0,1-.76.5,3.06,3.06,0,0,1-.84,0,11.64,11.64,0,0,1-1.55-.25,3.76,3.76,0,0,1-1.54-.63,1.79,1.79,0,0,1-.35-.37,1.31,1.31,0,0,1-.21-.54,2.54,2.54,0,0,1,0-.92,8,8,0,0,1,.48-1.48C128.9,81.5,129.06,81.12,129.36,80.57Z"/><path class="cls-18" d="M136.34,103.39l-.11.07,0-.15a17.29,17.29,0,0,1,3.49,1.86,38.6,38.6,0,0,1,2.84,2.69,13.71,13.71,0,0,0,2.84,2.54,6.34,6.34,0,0,0,3.6.94,9.4,9.4,0,0,0,3.49-1,5.13,5.13,0,0,0,2.32-2.44c1-2.11,1-4.82,1.56-7.38h.12c.12,1.3.24,2.59.26,3.92a10.08,10.08,0,0,1-.69,4,5.76,5.76,0,0,1-3,2.95,7.67,7.67,0,0,1-4,.6,11.4,11.4,0,0,1-3.77-1.3,21.35,21.35,0,0,1-3.36-2.12,29.58,29.58,0,0,1-2.77-2.7c-.88-.84-2-1.57-2.94-2.49l-.13-.12.14,0,.13,0Z"/><path class="cls-19" d="M82,30.54c-1.39-.14-3.12-.2-5-.38a16.39,16.39,0,0,1-2.82-.51c-.93-.22-1.81-.49-2.69-.65l-.21,0,0-.2a51.07,51.07,0,0,0,.62-5.1l.1-.82.75.48c.82.53,1.61,1.08,2.41,1.62s1.57,1.12,2.33,1.72,1.69,1.34,2.42,2A25.37,25.37,0,0,0,82,30.54Zm-.12,0A23,23,0,0,0,79.09,29a14.72,14.72,0,0,1-2.33-1.28c-.8-.55-1.59-1.11-2.34-1.72s-1.52-1.19-2.27-1.81l.85-.34c-.43,1.66-1,3.28-1.29,5l-.16-.24c.85.14,1.7.15,2.51.21a12.23,12.23,0,0,1,2.37.35C78,29.55,79.77,30.07,81.84,30.5Z"/><path class="cls-20" d="M176.53,95.7a18.9,18.9,0,0,0,1.87-.76c.67-.31,1.42-.63,2.18-.9a14.86,14.86,0,0,1,2.2-.6c.72-.15,1.44-.31,2.16-.43l.17,0,.14.06a6,6,0,0,1,1.53.82,2.75,2.75,0,0,1,1.06,1.55c.27,1.31-.46,2.33-.82,3.28-.78,2-.81,4.15-1.15,6.31l-.94-.12c-.06-1.53-.08-3.07-.09-4.61s0-3.07.06-4.6l.66.68c-1.6,0-3.25-.14-4.8-.3S177.83,95.73,176.53,95.7Zm.13,0c1.68,0,3.27-.18,4.73-.36s2.78-.29,4.17-.31h.66v.69c0,1.54,0,3.07-.11,4.61s-.13,3.07-.24,4.6l-.93-.11c.62-2,1-4.18,1.69-6.24a13.31,13.31,0,0,0,.5-1.51,2.47,2.47,0,0,0-.06-1.41c-.31-.8-1.28-1.17-2.23-1.52l.3,0c-.7.15-1.41.26-2.12.38s-1.45.21-2.05.37-1.28.22-2,.32A20.17,20.17,0,0,0,176.66,95.68Z"/><path class="cls-21" d="M168.19,88.94a3.92,3.92,0,0,1,2.51-1.19,3.34,3.34,0,0,1,2.69,1,6.18,6.18,0,0,1,.81,1.13l.33.59a2.62,2.62,0,0,1,.32.65,3.55,3.55,0,0,1-.28,1.39,7.72,7.72,0,0,0-.35,1.21l-.07.41-.53-.14c-.56-.14-1.11-.33-1.65-.52s-1.09-.38-1.62-.59a23.41,23.41,0,0,1-3.09-1.54l-.45-.26.19-.35A15.22,15.22,0,0,1,168.19,88.94Zm.1.09c-.13.77-.25,1.46-.42,2.1l-.25-.61a22.82,22.82,0,0,1,3.26,1.13c.53.23,1,.49,1.56.74s1,.51,1.53.81l-.6.27c.22-.44.47-.79.7-1.16a2,2,0,0,0,.4-1.08,2.12,2.12,0,0,0-.3-.48,3.87,3.87,0,0,0-.43-.47,5.2,5.2,0,0,0-1-.73,5,5,0,0,0-2.06-.77A7.92,7.92,0,0,0,168.29,89Z"/><path class="cls-22" d="M120.43,29.83l-1-5-.14-.68.39.58,3.79,5.69,1.9,2.85a8.21,8.21,0,0,1,1.59,3.13,2.72,2.72,0,0,1-.37,1.86,4.05,4.05,0,0,1-1.35,1.26A26.52,26.52,0,0,1,122,41c-2.11.87-4.2,1.76-6.29,2.67-4.17,1.82-8.34,3.65-12.55,5.39-2.11.89-4.25,1.69-6.26,2.66a17.35,17.35,0,0,0-5.4,3.78,12.51,12.51,0,0,0-1.9,2.66c-.27.47-.48,1-.71,1.48a9.5,9.5,0,0,1-.84,1.61A19.06,19.06,0,0,1,83,66c-3.78,2.69-8.1,4.45-12.29,6.16-1.06.43-2.11.85-3.12,1.33a10.82,10.82,0,0,0-2.79,1.69,3.15,3.15,0,0,0-1.08,2.7,12.83,12.83,0,0,0,.76,3.2c.36,1.06.81,2.12,1.15,3.23A6.54,6.54,0,0,1,66,87.9a2.53,2.53,0,0,1-1.28,1.42,6.08,6.08,0,0,1-1.72.52,28.67,28.67,0,0,1-3.44.29h-.15L59.31,90,56,85.44l.29.09-11.12,4.6L34.09,94.8l-.15.06-.1-.12c-1.39-1.62-2.93-3.1-4.41-4.67a21.55,21.55,0,0,1-3.87-5.19,15.6,15.6,0,0,1-1.31-6.37c-.09-2.16,0-4.3-.17-6.41l.23.31-1.83-.7.46-.15c-.83,1.29-1.7,2.52-2.5,3.8S19,78,18.28,79.33l-4.22,8.06L13.23,89l-.12-1.81a7.17,7.17,0,0,0-.55-2.75,2.52,2.52,0,0,0-2-1.36,10.59,10.59,0,0,0-2.9.11,19.9,19.9,0,0,1-3.15.25l-.55,0V80.77l.49-.08,9-1.52-.45.34,3.6-7.83.05.62a4.75,4.75,0,0,1-.74-1.73,2.59,2.59,0,0,1,.48-2,4.38,4.38,0,0,1,1.5-1.16,11.54,11.54,0,0,1,1.61-.65A17.47,17.47,0,0,1,22.72,66c1.1-.15,2.18-.25,3.22-.41.51-.09,1-.19,1.51-.32s1-.32,1.49-.51l3-1.14,6.1-2.27,24.38-9,3.06-1.12,1.53-.56,1.5-.62,6-2.47,12-4.95,12-5c1-.42,2-.81,3-1.26s1.91-1,2.84-1.52c1.86-1.09,3.66-2.3,5.55-3.4l0,0h0Zm.11.07-10.41,1.88.07,0c-1.83,1.14-3.6,2.39-5.46,3.54-.92.57-1.88,1.11-2.86,1.6s-2,.87-3,1.31l-12,5.12L75,48.44,69,51l-1.5.64L66,52.22l-3,1.17L38.54,62.56l-6.09,2.28L29.4,66c-.49.18-1,.39-1.59.55a16.35,16.35,0,0,1-1.66.35A32.11,32.11,0,0,0,19.85,68a5.47,5.47,0,0,0-2.48,1.35,1.28,1.28,0,0,0-.24,1,4,4,0,0,0,.54,1.24l.19.32-.14.3L14.06,80l-.14.3-.32,0-9,1.46.49-.57,0,1.56-.55-.58a19.09,19.09,0,0,0,3-.21,12.13,12.13,0,0,1,3.2-.07,3.72,3.72,0,0,1,.84.22,2.8,2.8,0,0,1,.79.4,3.25,3.25,0,0,1,.68.6,7.43,7.43,0,0,1,.49.75,8.29,8.29,0,0,1,.63,3.2l-.95-.22,4.34-8c.73-1.33,1.4-2.69,2.24-4s1.72-2.52,2.56-3.77l.17-.26.28.11,1.81.74.22.08v.23c.15,2.17,0,4.32.08,6.44a15.21,15.21,0,0,0,1.17,6.15,20.13,20.13,0,0,0,3.73,5.11c1.45,1.56,3,3.06,4.39,4.7l-.25-.06L45,89.76l11.1-4.69L56.3,85l.12.16,3.33,4.53-.23-.11a26.4,26.4,0,0,0,3.35-.34c1.07-.2,2.2-.6,2.47-1.54a5.88,5.88,0,0,0-.4-3.13c-.35-1.07-.81-2.1-1.2-3.19A13.2,13.2,0,0,1,62.88,78a4.62,4.62,0,0,1,.24-1.86,4,4,0,0,1,1.07-1.56,12.18,12.18,0,0,1,3-1.9c1-.51,2.09-1,3.14-1.4,4.19-1.78,8.39-3.5,12.05-6.13a18.22,18.22,0,0,0,4.76-4.53,9.05,9.05,0,0,0,.75-1.41,16.76,16.76,0,0,1,.77-1.6,13.55,13.55,0,0,1,2.08-2.87,18.72,18.72,0,0,1,5.75-4c2.09-1,4.23-1.77,6.33-2.64l12.61-5.25q3.15-1.3,6.33-2.57a26.33,26.33,0,0,0,3.09-1.32,3.35,3.35,0,0,0,1.15-1,2,2,0,0,0,.3-1.41,8.41,8.41,0,0,0-1.44-2.93L123,30.69l-3.63-5.79.25-.1Z"/><path class="cls-23" d="M76.05,65.06l-6.46,3.08c-2.08,1-4.11,1.91-6.19,2.8l.29-.8a3.44,3.44,0,0,0,2.69,1.58,9.11,9.11,0,0,0,3.56-.39,11.76,11.76,0,0,0,6-4.19l0-.07h.08a12.79,12.79,0,0,0,4.24-1.63,14.39,14.39,0,0,0,3.36-3,40,40,0,0,0,4.69-7.83l.83.89c-3.13,1.39-6.31,2.69-9.49,4l.21-1A8.33,8.33,0,0,1,81.61,61a7.54,7.54,0,0,1,.2.82,4.1,4.1,0,0,1,0,.86A3.34,3.34,0,0,1,81,64.15,10,10,0,0,1,78.66,66a24.39,24.39,0,0,0-2.34,1.56l-.38.31,0-.46Zm.07-.11c.07.74.19,1.56.27,2.41L76,67.21a16.83,16.83,0,0,1,2.24-1.84,8.87,8.87,0,0,0,2-1.82,2,2,0,0,0,.31-2.18A7.42,7.42,0,0,0,79,59.29l-.62-.65.82-.37c3.14-1.38,6.29-2.73,9.48-4l1.63-.65-.8,1.54A34.49,34.49,0,0,1,84.35,63a15.32,15.32,0,0,1-3.75,2.9,15.06,15.06,0,0,1-4.45,1.53l.13-.08a14.12,14.12,0,0,1-2.72,2.74,13.75,13.75,0,0,1-3.36,2,9.4,9.4,0,0,1-3.92.72,5,5,0,0,1-2-.57,3.82,3.82,0,0,1-1.57-1.54l-.33-.55.62-.26c2.23-.91,4.49-1.8,6.71-2.6Z"/><path class="cls-24" d="M49.5,75.79a2.78,2.78,0,0,0,1-1.33c.24-.53.44-1.08.73-1.6l0,.12c-.62-.25-1.17-.61-1.75-.91a2.47,2.47,0,0,0-1.78-.42c-1.23.45-2.45.94-3.65,1.46-2.39,1.07-4.74,2.24-7.13,3.35L36.74,76c4.27-2.25,8.5-4.56,12.79-6.77l-.24.66-2-4.58.67.32c-2.33.73-4.67,1.43-7,2.12l-7,2.08-.36-1,13.18-5.3-.17.43L46,62.43l.39.16c-2.35.93-4.69,1.89-7,2.86l-3.48,1.47-1.7.74s0,.17,0,.3,0,.3,0,.45c0,.32,0,.63,0,1v.18H34l-8.43.62.2-.32,9.69,22.49-.57-.29a8.54,8.54,0,0,0,2.4-.9,2.73,2.73,0,0,0,1.19-1.91A6.49,6.49,0,0,0,38.63,88c0-.21,0-.43,0-.65v-.27a.62.62,0,0,1,0-.13.79.79,0,0,1,.06-.22.91.91,0,0,1,.36-.36,1,1,0,0,1,.24-.11,11,11,0,0,1,1.42-.36c.22-.05.43-.09.62-.15a2.08,2.08,0,0,0,.41-.16L43.82,81l-1.14,5.14-.87,3.93L41,89.4l14.09-6-.36.36.51-1.18.42.91c-.67-.21-1.23-.5-1.78-.73a2.87,2.87,0,0,0-1.41-.35,3.7,3.7,0,0,0-.35.12l-.44.15-.86.33c-.57.22-1.14.46-1.71.7-2.27,1-4.52,2.05-6.81,3.06l-.57-1.17c4-2.11,8-4.15,12.07-6.22l-.25.6-1.09-4,.55.3L38.62,80.57l-.11-.3C42.2,78.81,45.92,77.46,49.5,75.79Zm.06.11C46,77.64,42.28,79,38.63,80.56l-.1-.3L52.72,75.5l.42-.14.14.43,1.23,3.93.13.4-.38.2c-4,2.15-7.95,4.35-11.95,6.46l-.57-1.17c2.26-1,4.51-2.1,6.82-3.1l1.75-.71.88-.34.45-.17a3,3,0,0,1,2.73.25c.6.25,1.15.53,1.67.69l.72.22-.3.69L56,84.33l-.11.25-.25.1L41.45,90.53,40.34,91l.27-1.16.91-3.92,1,.59a2.65,2.65,0,0,1-.85.39,7.1,7.1,0,0,1-.71.16c-.44.1-.92.18-1.24.29-.07,0-.14.13,0-.1a.47.47,0,0,0,0-.14v.21c0,.24,0,.47,0,.72a8.18,8.18,0,0,1-.17,1.46,3.88,3.88,0,0,1-1.71,2.57,9.39,9.39,0,0,1-2.74,1l-.41.11-.16-.4L25.37,70.05l-.13-.3.33,0L34,69.17l-.19.2c0-.3,0-.61,0-.93,0-.16,0-.32,0-.49s0-.32.19-.6c.64-.32,1.17-.54,1.76-.81L39.18,65l7-3,.26-.12.13.27.66,1.48.13.3-.3.13L34,69.77l-.36-1,7-2.15c2.34-.72,4.67-1.44,7-2.12l.49-.14.18.46,1.89,4.61.18.44L50,70.1c-4.31,2.16-8.67,4.23-13,6.35l-.24-.5c2.41-1,4.8-2.11,7.24-3.09,1.22-.51,2.44-1,3.69-1.42a2.64,2.64,0,0,1,1.94.46c.58.31,1.13.67,1.73.92l.09,0L51.4,73c-.29.49-.5,1-.75,1.57A2.74,2.74,0,0,1,49.56,75.9Z"/><path class="cls-25" d="M60.73,65.46c5.76-2.61,11.23-5.1,16.81-7.52s11.3-4.87,17-7.18S106,46.22,111.67,43.9c2.84-1.17,5.7-2.3,8.53-3.53a13,13,0,0,0,4-2.13,2.71,2.71,0,0,0,.82-1.9,6,6,0,0,0-.47-2.14,5,5,0,0,0-1.1-1.84,2,2,0,0,0-.85-.47,2.5,2.5,0,0,0-1,0,11.1,11.1,0,0,0-2.06.83c-.71.34-1.42.63-2.12.94l-8.46,3.68L92,44.58c-5.69,2.34-11.35,4.75-17.07,7l-8.55,3.45c-1.43.57-2.87,1.12-4.29,1.71l-4.19,1.88.14-.37Zm0,.12L57.46,58.5l-.11-.24.25-.13,4.15-2.05c1.4-.66,2.81-1.26,4.22-1.88l8.46-3.67c5.64-2.47,11.33-4.8,17-7.2l17.07-7,8.57-3.43c.71-.29,1.43-.57,2.12-.87a11,11,0,0,1,2.24-.82,3.17,3.17,0,0,1,1.3,0,2.49,2.49,0,0,1,1.13.67,5.52,5.52,0,0,1,1.2,2.11,6.42,6.42,0,0,1,.43,2.36,3.25,3.25,0,0,1-1,2.2,13.1,13.1,0,0,1-4.13,2.2c-2.85,1.15-5.66,2.4-8.49,3.6-5.65,2.44-11.25,5-16.9,7.4s-11.36,4.73-17,7.08S66.27,63.43,60.68,65.58Z"/><path class="cls-26" d="M51.45,69l7.68-3.48-.16.37L56.08,58.2l-.14-.37.38-.16c5.37-2.36,10.78-4.62,16.16-6.93s10.83-4.48,16.29-6.64l8.17-3.25,8.13-3.34q8.12-3.39,16.17-6.91l-.18.44-.37-.84.46.19L103,38.25C96.89,40.82,90.83,43.46,84.73,46s-12.18,5.09-18.31,7.55S54.18,58.48,48,60.91l.16-.38Zm-.05.12-3.74-8.31-.12-.26.27-.12q9.07-4,18.17-7.91c6-2.64,12.15-5.17,18.23-7.74s12.2-5,18.3-7.57l18.37-7.42.33-.13.13.32.34.85.13.32-.31.12q-8.16,3.26-16.27,6.66l-8.09,3.45-8,3.53c-5.37,2.38-10.76,4.68-16.16,6.94S62.1,56.29,56.65,58.45l.24-.53,2.63,7.72.09.27-.25.1Z"/><path class="cls-27" d="M62,73.17c-1.42.73-2.62,1.44-3.74,2a18.11,18.11,0,0,1-1.67.8c-.56.22-1.16.37-1.78.55l.2-.48c.14.51.28,1,.46,1.51s.38,1,.6,1.45c.44,1,1,1.86,1.47,2.79l-.48-.3a7,7,0,0,0,2.48-.81,3.26,3.26,0,0,0,1.23-2A26.79,26.79,0,0,0,61.2,76c.07-.49.15-1,.26-1.48.06-.24.16-.48.24-.72S61.92,73.44,62,73.17Zm.09-.09c0,.19,0,.51-.05.78v.72c0,.47,0,.94.08,1.43a12.78,12.78,0,0,1,0,3,3.82,3.82,0,0,1-1.86,2.77,6.42,6.42,0,0,1-3.09.7h-.39l-.09-.3c-.31-1-.59-2-1-3-.19-.49-.39-1-.62-1.45s-.49-.93-.75-1.39l-.16-.28.36-.2c.62-.33,1.25-.7,1.92-1s1.35-.52,2-.75C59.84,73.7,61.1,73.38,62.13,73.08Z"/><path class="cls-28" d="M61.45,71.29a35.87,35.87,0,0,1-2.08-3.63L60,68a24.12,24.12,0,0,1-3.05.34,6.1,6.1,0,0,0-2.9.78,1.86,1.86,0,0,0-.84,1.07,2.24,2.24,0,0,0,.11,1.32,14.53,14.53,0,0,0,1.29,2.63l-.83-.29A46.09,46.09,0,0,1,61.45,71.29Zm.12,0a41,41,0,0,1-7.32,3.73l-.59.21-.24-.51a10.09,10.09,0,0,1-1.08-3.07A3.09,3.09,0,0,1,52.6,70a2.84,2.84,0,0,1,1.2-1.18,18.89,18.89,0,0,1,2.94-1.24,11.37,11.37,0,0,1,3.08-.65l.44,0,.14.37A25.4,25.4,0,0,1,61.57,71.34Z"/><path class="cls-29" d="M21.86,69.49l.31.54L22,70c2.17-1.13,4.37-2.16,6.59-3.17s4.44-2,6.72-2.83,4.6-1.62,6.85-2.52,4.47-1.91,6.67-2.95l-.17.49-.34-.57.49.17c-2.17,1-4.34,2-6.53,3s-4.35,1.89-6.57,2.78-4.5,1.73-6.78,2.6S24.29,68.64,21.86,69.49Zm-.12,0c2.05-1,4.19-2,6.36-3.06s4.38-2,6.64-3,4.57-1.92,6.86-2.84,4.6-1.82,6.91-2.65l.34-.12L49,58l.28.6.18.37-.35.13c-2.29.84-4.56,1.71-6.79,2.68s-4.4,2.08-6.61,3.11-4.46,1.92-6.73,2.8-4.56,1.71-6.88,2.46l-.13,0,0-.11C21.86,69.89,21.8,69.65,21.74,69.44Z"/><path class="cls-30" d="M61.65,66.12l.33.6-.26-.12a27.57,27.57,0,0,1,3-1.61,23.37,23.37,0,0,1,3.11-1.28c1.07-.34,2.17-.61,3.22-1a27.11,27.11,0,0,0,3-1.43l-.2.43-.29-.64.57.25c-1,.54-1.94,1-2.92,1.43s-2,.89-3,1.26-2.07.74-3.16,1.1S62.86,65.78,61.65,66.12Zm-.12-.05c.85-.53,1.79-1,2.75-1.55s2-1,3-1.5,2.14-.92,3.23-1.34,2.17-.83,3.27-1.16l.47-.14.09.4.16.69.08.35-.28.09a25.44,25.44,0,0,0-3.16,1.16c-1,.46-2,1.05-3,1.57A23.33,23.33,0,0,1,65.1,66a28,28,0,0,1-3.23,1l-.23,0,0-.17A6,6,0,0,1,61.53,66.07Z"/><path class="cls-31" d="M57.5,83.86a12.29,12.29,0,0,1,1.81,2.26,1.11,1.11,0,0,0,.32.28,2.66,2.66,0,0,0,.52.09,4.22,4.22,0,0,0,1.37,0,2.31,2.31,0,0,0,1.22-.65c.35-.32.24-.72.12-1.17A18.24,18.24,0,0,1,62,81.78l.91.52A25.86,25.86,0,0,1,57.5,83.86Zm-.13,0a20.29,20.29,0,0,1,5-2.76l.85-.31.06.82a27.36,27.36,0,0,1,.35,3,3.11,3.11,0,0,1-.1.84,1.4,1.4,0,0,1-.48.73,7,7,0,0,1-1.32.87,4.67,4.67,0,0,1-1.54.57,2.16,2.16,0,0,1-1-.08,1.62,1.62,0,0,1-.8-.68,5.64,5.64,0,0,1-.66-1.45C57.61,84.83,57.5,84.44,57.37,83.83Z"/><path class="cls-32" d="M55.71,104.33l.13,0,.14,0-.13.12c-1,.92-2.06,1.65-2.94,2.49a29.58,29.58,0,0,1-2.77,2.7,21.35,21.35,0,0,1-3.36,2.12,11.4,11.4,0,0,1-3.77,1.3,7.67,7.67,0,0,1-4-.6,5.8,5.8,0,0,1-3-3,10.08,10.08,0,0,1-.69-4c0-1.33.14-2.62.26-3.92h.12c.6,2.55.55,5.27,1.56,7.38a5.17,5.17,0,0,0,2.32,2.44,9.4,9.4,0,0,0,3.49,1,6.34,6.34,0,0,0,3.6-.94,14.28,14.28,0,0,0,2.84-2.54,36.59,36.59,0,0,1,2.84-2.69,17.29,17.29,0,0,1,3.49-1.86l0,.15-.11-.07Z"/><path class="cls-33" d="M110.16,31.55c2.07-.43,3.8-.94,5.41-1.33a12.23,12.23,0,0,1,2.37-.35c.81-.06,1.66-.07,2.51-.21l-.16.24c-.27-1.69-.86-3.31-1.29-5l.85.33c-.75.63-1.51,1.22-2.27,1.82s-1.54,1.17-2.34,1.72a14.72,14.72,0,0,1-2.33,1.28A24.38,24.38,0,0,0,110.16,31.55Zm-.12.05c.62-.49,1.27-1.12,2-1.83s1.66-1.44,2.42-2S116,26.55,116.8,26s1.59-1.09,2.41-1.62l.75-.48.1.82a50.52,50.52,0,0,0,.62,5.09l0,.2-.21,0c-.88.15-1.76.43-2.69.65a16.39,16.39,0,0,1-2.82.51C113.16,31.4,111.43,31.46,110,31.6Z"/><path class="cls-34" d="M15.34,96.74A20.17,20.17,0,0,0,13,96.27c-.73-.1-1.37-.18-2-.32s-1.34-.25-2-.37-1.42-.23-2.12-.38l.3,0c-1,.35-1.92.71-2.23,1.52a2.47,2.47,0,0,0-.06,1.41,12.55,12.55,0,0,0,.5,1.5c.7,2.07,1.07,4.22,1.69,6.24l-.93.12c-.11-1.54-.19-3.07-.25-4.6s-.12-3.07-.1-4.61v-.69h.66c1.39,0,2.72.15,4.17.31S13.66,96.7,15.34,96.74Zm.13,0c-1.3,0-2.7.18-4.23.35a47.39,47.39,0,0,1-4.8.3l.66-.67c.08,1.53.07,3.07.06,4.6s0,3.08-.09,4.61l-.94.12c-.34-2.16-.37-4.33-1.15-6.31-.36-1-1.09-2-.82-3.28a2.75,2.75,0,0,1,1.06-1.55,5.42,5.42,0,0,1,1.53-.82L6.89,94l.17,0c.72.12,1.44.28,2.16.43a13.73,13.73,0,0,1,2.2.6c.76.27,1.51.59,2.18.9A16.57,16.57,0,0,0,15.47,96.75Z"/><path class="cls-35" d="M42.12,86a14,14,0,0,0-.18,1.87,21.93,21.93,0,0,1-.26,2.22L41,89.52c1.15-.55,2.31-1.08,3.49-1.56s2.41-.84,3.63-1.24a43.18,43.18,0,0,0,7-3.09l-.25.24c.14-.4.3-.8.44-1.21l.34.73a18.77,18.77,0,0,1-1.81-.66,2.78,2.78,0,0,0-1.43-.3l-3.36,1.3L45.6,85.08c-1.17.43-2.34.87-3.55,1.21l-.24.07.12-.2A.77.77,0,0,1,42.12,86Zm0,.12c0,.08,0,.13,0,.15L42,86.13c1.07-.67,2.15-1.29,3.24-1.9s2.21-1.18,3.35-1.71c.58-.25,1.15-.52,1.74-.74l.88-.34.45-.15a4.78,4.78,0,0,1,.54-.16,3.94,3.94,0,0,1,2.18.47c.58.27,1.12.56,1.65.76l.58.23-.25.5c-.19.38-.38.77-.58,1.15l-.1.2-.14,0a41.67,41.67,0,0,0-7.12,2.81c-1.14.58-2.26,1.21-3.43,1.72S42.6,90,41.4,90.4l-.92.34.26-.88c.18-.57.38-1.11.63-1.71A14.38,14.38,0,0,0,42.08,86.1Z"/><path class="cls-36" d="M48.63,58.29c-2.31,1.16-4.54,2.2-6.77,3.23s-4.41,2-6.62,2.87l-6.68,2.48c-1.12.44-2.23.91-3.34,1.4s-2.21,1-3.3,1.49l.18-.42.28.6-.46-.19q3.28-1.57,6.63-3c2.23-1,4.45-2,6.7-2.89S39.77,62,42,61.15s4.57-1.68,6.88-2.45l-.06.17Zm0-.12.4.58.07.11-.13.07c-2.17,1.1-4.37,2.16-6.58,3.18s-4.42,2-6.66,3S31.27,66.92,29,67.82s-4.54,1.75-6.83,2.58l-.35.12-.11-.31-.23-.62-.12-.32.29-.1c1.15-.43,2.29-.85,3.42-1.32s2.26-.91,3.38-1.41l6.74-3.14c2.28-1,4.56-1.89,6.81-2.75S46.51,58.88,48.68,58.17Z"/><path class="cls-37" d="M23.71,90.09a7.92,7.92,0,0,0-2.41-.25,5,5,0,0,0-2.06.77,5.2,5.2,0,0,0-1,.73,3.87,3.87,0,0,0-.43.47,2.12,2.12,0,0,0-.3.48,2,2,0,0,0,.4,1.08c.23.37.48.72.7,1.16l-.6-.27c.5-.3,1-.56,1.53-.81s1-.51,1.56-.74a24.17,24.17,0,0,1,3.26-1.14l-.25.62C24,91.55,23.84,90.86,23.71,90.09Zm.1-.09A15.22,15.22,0,0,1,25,91.83l.19.35-.45.26A23.34,23.34,0,0,1,21.65,94c-.53.22-1.08.41-1.62.6s-1.09.38-1.65.52l-.53.14-.07-.41a7.72,7.72,0,0,0-.35-1.21,3.55,3.55,0,0,1-.28-1.39,2.62,2.62,0,0,1,.32-.65L17.8,91a6.61,6.61,0,0,1,.81-1.14,3.33,3.33,0,0,1,2.69-1A3.92,3.92,0,0,1,23.81,90Z"/></g></svg>